<svg xmlns="http://www.w3.org/2000/svg" xmlns:xlink="http://www.w3.org/1999/xlink" width="118.497" height="40.873" viewBox="0 0 118.497 40.873">
  <defs>
    <linearGradient id="linear-gradient" x1="0.478" y1="0.35" x2="0.96" y2="0.4" gradientUnits="objectBoundingBox">
      <stop offset="0.08" stop-color="#e345e6"/>
      <stop offset="0.58" stop-color="#8f9eed"/>
      <stop offset="0.98" stop-color="#45cbe6"/>
    </linearGradient>
    <linearGradient id="linear-gradient-2" x1="0." x2="1" y2="0." gradientUnits="objectBoundingBox">
      <stop offset="0.4" stop-color="#e345e6"/>
      <stop offset="0.67" stop-color="#8f9eed"/>
      <stop offset="0.9" stop-color="#45cbe6"/>
    </linearGradient>
  </defs>
  <g id="logo-light" transform="translate(-10.66 -17.295)">
    <g id="グループ_1021" data-name="グループ 1021" transform="translate(0.721 -0.064)">
      <path id="パス_818" data-name="パス 818" d="M79.68-6.72V-21.28H59.76V-6.72ZM52.84-23a4.961,4.961,0,0,1,.4-2,5.061,5.061,0,0,1,1.06-1.58,4.846,4.846,0,0,1,1.56-1.04A4.737,4.737,0,0,1,57.72-28H81.44a5.25,5.25,0,0,1,2.04.4,5.191,5.191,0,0,1,1.64,1.06,4.952,4.952,0,0,1,1.08,1.56,4.534,4.534,0,0,1,.4,1.86V-5a4.961,4.961,0,0,1-.4,2,5.06,5.06,0,0,1-1.06,1.58A4.846,4.846,0,0,1,83.58-.38,4.737,4.737,0,0,1,81.72,0H58a5.25,5.25,0,0,1-2.04-.4,5.191,5.191,0,0,1-1.64-1.06,4.952,4.952,0,0,1-1.08-1.56,4.534,4.534,0,0,1-.4-1.86Zm33.64,0a4.961,4.961,0,0,1,.4-2,5.061,5.061,0,0,1,1.06-1.58,4.846,4.846,0,0,1,1.56-1.04A4.737,4.737,0,0,1,91.36-28h26.28v6.72H93.4V-6.72h24.24V0h-26A5.25,5.25,0,0,1,89.6-.4a5.191,5.191,0,0,1-1.64-1.06,4.952,4.952,0,0,1-1.08-1.56,4.534,4.534,0,0,1-.4-1.86Z" transform="translate(10.38 46.564)" fill="#010440"/>
      <path id="パス_799" data-name="パス 799" d="M2-23a4.961,4.961,0,0,1,.4-2,5.061,5.061,0,0,1,1.06-1.58,4.846,4.846,0,0,1,1.56-1.04A4.737,4.737,0,0,1,6.88-28H30.12v6.72H8.92v6.44h18v6.72h-18V0H2ZM28.6-6.72h9.08V-21.28H28.6V-28H53.76v6.72H44.6V-6.72h9.16V0H28.6Zm51.08,0V-21.28H59.76V-6.72ZM52.84-23a4.961,4.961,0,0,1,.4-2,5.061,5.061,0,0,1,1.06-1.58,4.846,4.846,0,0,1,1.56-1.04A4.737,4.737,0,0,1,57.72-28H81.44a5.25,5.25,0,0,1,2.04.4,5.191,5.191,0,0,1,1.64,1.06,4.952,4.952,0,0,1,1.08,1.56,4.534,4.534,0,0,1,.4,1.86V-5a4.961,4.961,0,0,1-.4,2,5.06,5.06,0,0,1-1.06,1.58A4.846,4.846,0,0,1,83.58-.38,4.737,4.737,0,0,1,81.72,0H58a5.25,5.25,0,0,1-2.04-.4,5.191,5.191,0,0,1-1.64-1.06,4.952,4.952,0,0,1-1.08-1.56,4.534,4.534,0,0,1-.4-1.86Zm33.64,0a4.961,4.961,0,0,1,.4-2,5.061,5.061,0,0,1,1.06-1.58,4.846,4.846,0,0,1,1.56-1.04A4.737,4.737,0,0,1,91.36-28h26.28v6.72H93.4V-6.72h24.24V0h-26A5.25,5.25,0,0,1,89.6-.4a5.191,5.191,0,0,1-1.64-1.06,4.952,4.952,0,0,1-1.08-1.56,4.534,4.534,0,0,1-.4-1.86Z" transform="translate(10.18 46.359)" fill="url(#linear-gradient)"/>
      <g id="グループ_1017" data-name="グループ 1017" transform="translate(-5836.66 -548.641)">
        <path id="パス_798" data-name="パス 798" d="M2,15.357a5.645,5.645,0,0,1,.4-2.143,5.46,5.46,0,0,1,1.06-1.693,4.838,4.838,0,0,1,1.56-1.114A4.466,4.466,0,0,1,6.88,10H30.12v7.2L8.92,18.67V23.1h18v8.8h-18V40H2ZM30.12,31.285h8.96V18.67H30.12L30,10H55.16v8.67H46V31.285h9.16V40H30Z" transform="translate(5847 556)" fill="#45cbe6"/>
        <path id="パス_797" data-name="パス 797" d="M2,15a4.882,4.882,0,0,1,.408-2,5.056,5.056,0,0,1,1.08-1.58A5.053,5.053,0,0,1,6.972,10H30.649v6.72H9.05v6.44H27.389v6.72H9.05V38H2ZM30.23,31.28h8.95V16.72H30.527V10H56.16v6.72H46.828V31.28H56.16V38H30.23Z" transform="translate(5845 558)" fill="#a571d9"/>
        <path id="パス_796" data-name="パス 796" d="M2,15a4.882,4.882,0,0,1,.408-2,5.056,5.056,0,0,1,1.08-1.58A5.053,5.053,0,0,1,6.972,10H30.649v6.72H9.05v6.44H27.389v6.72H9.05V38H2ZM30.23,31.28h8.95V16.72H30.527V10H56.16v6.72H46.828V31.28H56.16V38H30.23Z" transform="translate(5845 556)" fill="#e345e6"/>
        <path id="パス_817" data-name="パス 817" d="M2-23a4.961,4.961,0,0,1,.4-2,5.061,5.061,0,0,1,1.06-1.58,4.846,4.846,0,0,1,1.56-1.04A4.737,4.737,0,0,1,6.88-28H30.12v6.72H8.92v6.44h18v6.72h-18V0H2ZM30-6.72h9.08V-21.28H30V-28H55.16v6.72H46V-6.72h9.16V0H30Z" transform="translate(5846 595)" fill="#fff"/>
      </g>
    </g>
    <g id="グループ_1031" data-name="グループ 1031" transform="translate(-0.191)">
      <path id="パス_822" data-name="パス 822" d="M.606,11h5V9.629H2.13c.269-.285.464-.3,1.239-1.086.86-.86,1.287-1.308,1.535-1.614a3.846,3.846,0,0,0,.533-.9A2.227,2.227,0,0,0,5.6,5.178a1.952,1.952,0,0,0-.712-1.614,3.07,3.07,0,0,0-1.946-.58,5.5,5.5,0,0,0-1.055.105,7.764,7.764,0,0,0-1.107.316v1.45a5.809,5.809,0,0,1,1.086-.485,3,3,0,0,1,.933-.163,1.327,1.327,0,0,1,.907.285,1.053,1.053,0,0,1,.316.8,1.609,1.609,0,0,1-.174.712,3.662,3.662,0,0,1-.57.8c-.322.364-.649.712-1.825,1.972l-.712.759a.454.454,0,0,0-.132.327Zm8.48.153a2.154,2.154,0,0,0,1.951-1.018,5.784,5.784,0,0,0,.649-3.064A5.805,5.805,0,0,0,11.037,4,2.163,2.163,0,0,0,9.081,2.984,2.154,2.154,0,0,0,7.13,4a5.805,5.805,0,0,0-.649,3.069A5.776,5.776,0,0,0,7.13,10.13,2.167,2.167,0,0,0,9.086,11.153ZM9.081,9.835c-.359,0-.622-.221-.786-.659a6.554,6.554,0,0,1-.248-2.1A6.569,6.569,0,0,1,8.3,4.962c.163-.438.427-.659.786-.659s.628.221.791.659a6.569,6.569,0,0,1,.248,2.109,6.554,6.554,0,0,1-.248,2.1C9.709,9.613,9.445,9.835,9.081,9.835Zm.005-1.26c.1,0,.179-.206.227-.628a8.1,8.1,0,0,0,.047-.865c0-.19-.032-.6-.058-.9-.042-.364-.121-.628-.227-.628s-.169.206-.216.617a8.062,8.062,0,0,0-.053.875c0,.2.037.633.063.9C8.912,8.268,8.97,8.574,9.086,8.574ZM12.272,11h5V9.629H13.8c.269-.285.464-.3,1.239-1.086.86-.86,1.287-1.308,1.535-1.614a3.846,3.846,0,0,0,.533-.9,2.227,2.227,0,0,0,.158-.849,1.952,1.952,0,0,0-.712-1.614,3.07,3.07,0,0,0-1.946-.58,5.5,5.5,0,0,0-1.055.105,7.764,7.764,0,0,0-1.107.316v1.45a5.809,5.809,0,0,1,1.086-.485,3,3,0,0,1,.933-.163,1.327,1.327,0,0,1,.907.285,1.053,1.053,0,0,1,.316.8,1.609,1.609,0,0,1-.174.712,3.662,3.662,0,0,1-.57.8c-.322.364-.649.712-1.825,1.972l-.712.759a.454.454,0,0,0-.132.327Zm8.153.153a3.306,3.306,0,0,0,2.146-.6A2.138,2.138,0,0,0,23.3,8.817a2.042,2.042,0,0,0-.443-1.392,2.1,2.1,0,0,0-1.287-.67,1.956,1.956,0,0,0,1.144-.585,1.6,1.6,0,0,0,.4-1.144,1.8,1.8,0,0,0-.7-1.5,3.063,3.063,0,0,0-1.946-.543,6.276,6.276,0,0,0-1.007.084,8.916,8.916,0,0,0-1.071.253V4.735a7.081,7.081,0,0,1,1.049-.322,4.186,4.186,0,0,1,.939-.111,1.418,1.418,0,0,1,.912.243.812.812,0,0,1,.316.68.741.741,0,0,1-.316.649,1.541,1.541,0,0,1-.9.232H19.56V7.477h.833a1.535,1.535,0,0,1,1.044.327,1.185,1.185,0,0,1,.369.9,1.011,1.011,0,0,1-.364.828,1.722,1.722,0,0,1-1.092.29,5.338,5.338,0,0,1-1.123-.132,4.344,4.344,0,0,1-1.071-.374v1.445a7.019,7.019,0,0,0,1.107.29A6.719,6.719,0,0,0,20.424,11.153Zm10.3,0a3.169,3.169,0,0,0,2.078-.591A2.15,2.15,0,0,0,33.5,8.812a2.329,2.329,0,0,0-.448-1.482,3.107,3.107,0,0,0-1.4-.918l-.67-.253a2.582,2.582,0,0,1-.912-.475.719.719,0,0,1-.221-.543.765.765,0,0,1,.3-.643,1.38,1.38,0,0,1,.86-.227,3.116,3.116,0,0,1,1.028.185,4.035,4.035,0,0,1,1.018.538V3.475a5.791,5.791,0,0,0-1.076-.369,4.807,4.807,0,0,0-1.092-.121,2.736,2.736,0,0,0-1.877.612,2.126,2.126,0,0,0-.686,1.682A1.953,1.953,0,0,0,28.747,6.6a3.99,3.99,0,0,0,1.593.944l.765.29a1.436,1.436,0,0,1,.612.417.956.956,0,0,1,.211.622.891.891,0,0,1-.316.728,1.363,1.363,0,0,1-.9.264A3.318,3.318,0,0,1,29.57,9.65a5.021,5.021,0,0,1-1.208-.659V10.6a4.987,4.987,0,0,0,1.139.417A4.933,4.933,0,0,0,30.72,11.153ZM34.359,11h1.556V8.052h.58a3.775,3.775,0,0,0,2.347-.58,2.287,2.287,0,0,0,.712-1.883,2.287,2.287,0,0,0-.712-1.883,3.775,3.775,0,0,0-2.347-.58H34.359Zm1.556-4.256V4.435h.638a1.692,1.692,0,0,1,1.076.258,1.115,1.115,0,0,1,.306.9,1.115,1.115,0,0,1-.306.9,1.692,1.692,0,0,1-1.076.258ZM40.2,11h4.9V9.629H41.757V7.567H44.79V6.2H41.757V4.5h3.349V3.127H40.2Zm8.949.153a3.714,3.714,0,0,0,.865-.095,3.422,3.422,0,0,0,.775-.285V9.044a2.833,2.833,0,0,1-.775.538,1.872,1.872,0,0,1-.786.174,1.425,1.425,0,0,1-1.281-.68,3.729,3.729,0,0,1-.438-2,3.8,3.8,0,0,1,.438-2.014,1.431,1.431,0,0,1,1.281-.675,1.847,1.847,0,0,1,.78.169,2.729,2.729,0,0,1,.78.543V3.364a3.049,3.049,0,0,0-.77-.285,3.793,3.793,0,0,0-.87-.095A2.925,2.925,0,0,0,46.73,4.034a4.78,4.78,0,0,0-.838,3.037A4.763,4.763,0,0,0,46.73,10.1,2.925,2.925,0,0,0,49.151,11.153ZM51.888,11h4.688V9.629H55.01V4.5h1.566V3.127H51.888V4.5h1.566V9.629H51.888Zm5.1,0h1.556l.475-1.946H61.1L61.586,11h1.556L61.016,3.127h-1.9Zm2.341-3.227.733-3.222L60.8,7.773ZM63.832,11h4.883V9.629H65.388v-6.5H63.832Zm9.937,0h1.44l.838-4.134.9,4.134h1.45L79.3,3.127H77.93l-.443,5.78L76.7,5.168H75.4l-.68,3.739-.564-5.78H72.8Zm5.748,0h4.9V9.629H81.073V7.567h3.032V6.2H81.073V4.5h3.349V3.127h-4.9Zm5.606,0H87.66a3.782,3.782,0,0,0,2.231-.512,1.918,1.918,0,0,0,.686-1.645,2.133,2.133,0,0,0-.454-1.45,1.973,1.973,0,0,0-1.361-.606,1.713,1.713,0,0,0,1.144-.5A1.721,1.721,0,0,0,90.3,5.1a1.761,1.761,0,0,0-.659-1.492,3.252,3.252,0,0,0-1.978-.5H85.123Zm1.5-4.815V4.355H87.66a1.217,1.217,0,0,1,.838.221.866.866,0,0,1,.253.7.824.824,0,0,1-.248.691,1.23,1.23,0,0,1-.844.216Zm0,3.57V7.425H87.66a1.528,1.528,0,0,1,1.028.279A1.182,1.182,0,0,1,89,8.622a1.12,1.12,0,0,1-.3.881,1.645,1.645,0,0,1-1.044.253ZM95.492,11h1.556V8.052h.58a3.775,3.775,0,0,0,2.347-.58,2.287,2.287,0,0,0,.712-1.883,2.287,2.287,0,0,0-.712-1.883,3.775,3.775,0,0,0-2.347-.58H95.492Zm1.556-4.256V4.435h.638a1.692,1.692,0,0,1,1.076.258,1.115,1.115,0,0,1,.306.9,1.115,1.115,0,0,1-.306.9,1.692,1.692,0,0,1-1.076.258ZM100.623,11h1.556l.475-1.946h2.083L105.222,11h1.556l-2.125-7.873h-1.9Zm2.341-3.227.733-3.222.738,3.222Zm7.114,3.38a3.334,3.334,0,0,0,1.176-.2,3.158,3.158,0,0,0,.986-.58V6.765h-2.426V8.073h1.065v1.5a.677.677,0,0,1-.29.132,1.506,1.506,0,0,1-.417.047,1.351,1.351,0,0,1-1.234-.68,3.939,3.939,0,0,1-.422-2.014,3.758,3.758,0,0,1,.438-2.014,1.479,1.479,0,0,1,1.329-.664,2.018,2.018,0,0,1,.928.211,2.244,2.244,0,0,1,.749.638V3.506a3.4,3.4,0,0,0-.86-.39,3.3,3.3,0,0,0-.96-.132,2.9,2.9,0,0,0-2.4,1.049,4.714,4.714,0,0,0-.844,3.027,4.815,4.815,0,0,0,.833,3.032A2.821,2.821,0,0,0,110.079,11.153ZM113,11h4.9V9.629h-3.349V7.567h3.032V6.2h-3.032V4.5H117.9V3.127H113Z" transform="translate(10.943 46.516)" fill="#010440" stroke="rgba(0,0,0,0)" stroke-width="1"/>
      <path id="パス_819" data-name="パス 819" d="M.606,11h5V9.629H2.13c.269-.285.464-.3,1.239-1.086.86-.86,1.287-1.308,1.535-1.614a3.846,3.846,0,0,0,.533-.9A2.227,2.227,0,0,0,5.6,5.178a1.952,1.952,0,0,0-.712-1.614,3.07,3.07,0,0,0-1.946-.58,5.5,5.5,0,0,0-1.055.105,7.764,7.764,0,0,0-1.107.316v1.45a5.809,5.809,0,0,1,1.086-.485,3,3,0,0,1,.933-.163,1.327,1.327,0,0,1,.907.285,1.053,1.053,0,0,1,.316.8,1.609,1.609,0,0,1-.174.712,3.662,3.662,0,0,1-.57.8c-.322.364-.649.712-1.825,1.972l-.712.759a.454.454,0,0,0-.132.327Zm8.48.153a2.154,2.154,0,0,0,1.951-1.018,5.784,5.784,0,0,0,.649-3.064A5.805,5.805,0,0,0,11.037,4,2.163,2.163,0,0,0,9.081,2.984,2.154,2.154,0,0,0,7.13,4a5.805,5.805,0,0,0-.649,3.069A5.776,5.776,0,0,0,7.13,10.13,2.167,2.167,0,0,0,9.086,11.153ZM9.081,9.835c-.359,0-.622-.221-.786-.659a6.554,6.554,0,0,1-.248-2.1A6.569,6.569,0,0,1,8.3,4.962c.163-.438.427-.659.786-.659s.628.221.791.659a6.569,6.569,0,0,1,.248,2.109,6.554,6.554,0,0,1-.248,2.1C9.709,9.613,9.445,9.835,9.081,9.835Zm.005-1.26c.1,0,.179-.206.227-.628a8.1,8.1,0,0,0,.047-.865c0-.19-.032-.6-.058-.9-.042-.364-.121-.628-.227-.628s-.169.206-.216.617a8.062,8.062,0,0,0-.053.875c0,.2.037.633.063.9C8.912,8.268,8.97,8.574,9.086,8.574ZM12.272,11h5V9.629H13.8c.269-.285.464-.3,1.239-1.086.86-.86,1.287-1.308,1.535-1.614a3.846,3.846,0,0,0,.533-.9,2.227,2.227,0,0,0,.158-.849,1.952,1.952,0,0,0-.712-1.614,3.07,3.07,0,0,0-1.946-.58,5.5,5.5,0,0,0-1.055.105,7.764,7.764,0,0,0-1.107.316v1.45a5.809,5.809,0,0,1,1.086-.485,3,3,0,0,1,.933-.163,1.327,1.327,0,0,1,.907.285,1.053,1.053,0,0,1,.316.8,1.609,1.609,0,0,1-.174.712,3.662,3.662,0,0,1-.57.8c-.322.364-.649.712-1.825,1.972l-.712.759a.454.454,0,0,0-.132.327Zm8.153.153a3.306,3.306,0,0,0,2.146-.6A2.138,2.138,0,0,0,23.3,8.817a2.042,2.042,0,0,0-.443-1.392,2.1,2.1,0,0,0-1.287-.67,1.956,1.956,0,0,0,1.144-.585,1.6,1.6,0,0,0,.4-1.144,1.8,1.8,0,0,0-.7-1.5,3.063,3.063,0,0,0-1.946-.543,6.276,6.276,0,0,0-1.007.084,8.916,8.916,0,0,0-1.071.253V4.735a7.081,7.081,0,0,1,1.049-.322,4.186,4.186,0,0,1,.939-.111,1.418,1.418,0,0,1,.912.243.812.812,0,0,1,.316.68.741.741,0,0,1-.316.649,1.541,1.541,0,0,1-.9.232H19.56V7.477h.833a1.535,1.535,0,0,1,1.044.327,1.185,1.185,0,0,1,.369.9,1.011,1.011,0,0,1-.364.828,1.722,1.722,0,0,1-1.092.29,5.338,5.338,0,0,1-1.123-.132,4.344,4.344,0,0,1-1.071-.374v1.445a7.019,7.019,0,0,0,1.107.29A6.719,6.719,0,0,0,20.424,11.153Zm10.3,0a3.169,3.169,0,0,0,2.078-.591A2.15,2.15,0,0,0,33.5,8.812a2.329,2.329,0,0,0-.448-1.482,3.107,3.107,0,0,0-1.4-.918l-.67-.253a2.582,2.582,0,0,1-.912-.475.719.719,0,0,1-.221-.543.765.765,0,0,1,.3-.643,1.38,1.38,0,0,1,.86-.227,3.116,3.116,0,0,1,1.028.185,4.035,4.035,0,0,1,1.018.538V3.475a5.791,5.791,0,0,0-1.076-.369,4.807,4.807,0,0,0-1.092-.121,2.736,2.736,0,0,0-1.877.612,2.126,2.126,0,0,0-.686,1.682A1.953,1.953,0,0,0,28.747,6.6a3.99,3.99,0,0,0,1.593.944l.765.29a1.436,1.436,0,0,1,.612.417.956.956,0,0,1,.211.622.891.891,0,0,1-.316.728,1.363,1.363,0,0,1-.9.264A3.318,3.318,0,0,1,29.57,9.65a5.021,5.021,0,0,1-1.208-.659V10.6a4.987,4.987,0,0,0,1.139.417A4.933,4.933,0,0,0,30.72,11.153ZM34.359,11h1.556V8.052h.58a3.775,3.775,0,0,0,2.347-.58,2.287,2.287,0,0,0,.712-1.883,2.287,2.287,0,0,0-.712-1.883,3.775,3.775,0,0,0-2.347-.58H34.359Zm1.556-4.256V4.435h.638a1.692,1.692,0,0,1,1.076.258,1.115,1.115,0,0,1,.306.9,1.115,1.115,0,0,1-.306.9,1.692,1.692,0,0,1-1.076.258ZM40.2,11h4.9V9.629H41.757V7.567H44.79V6.2H41.757V4.5h3.349V3.127H40.2Zm8.949.153a3.714,3.714,0,0,0,.865-.095,3.422,3.422,0,0,0,.775-.285V9.044a2.833,2.833,0,0,1-.775.538,1.872,1.872,0,0,1-.786.174,1.425,1.425,0,0,1-1.281-.68,3.729,3.729,0,0,1-.438-2,3.8,3.8,0,0,1,.438-2.014,1.431,1.431,0,0,1,1.281-.675,1.847,1.847,0,0,1,.78.169,2.729,2.729,0,0,1,.78.543V3.364a3.049,3.049,0,0,0-.77-.285,3.793,3.793,0,0,0-.87-.095A2.925,2.925,0,0,0,46.73,4.034a4.78,4.78,0,0,0-.838,3.037A4.763,4.763,0,0,0,46.73,10.1,2.925,2.925,0,0,0,49.151,11.153ZM51.888,11h4.688V9.629H55.01V4.5h1.566V3.127H51.888V4.5h1.566V9.629H51.888Zm5.1,0h1.556l.475-1.946H61.1L61.586,11h1.556L61.016,3.127h-1.9Zm2.341-3.227.733-3.222L60.8,7.773ZM63.832,11h4.883V9.629H65.388v-6.5H63.832Zm9.937,0h1.44l.838-4.134.9,4.134h1.45L79.3,3.127H77.93l-.443,5.78L76.7,5.168H75.4l-.68,3.739-.564-5.78H72.8Zm5.748,0h4.9V9.629H81.073V7.567h3.032V6.2H81.073V4.5h3.349V3.127h-4.9Zm5.606,0H87.66a3.782,3.782,0,0,0,2.231-.512,1.918,1.918,0,0,0,.686-1.645,2.133,2.133,0,0,0-.454-1.45,1.973,1.973,0,0,0-1.361-.606,1.713,1.713,0,0,0,1.144-.5A1.721,1.721,0,0,0,90.3,5.1a1.761,1.761,0,0,0-.659-1.492,3.252,3.252,0,0,0-1.978-.5H85.123Zm1.5-4.815V4.355H87.66a1.217,1.217,0,0,1,.838.221.866.866,0,0,1,.253.7.824.824,0,0,1-.248.691,1.23,1.23,0,0,1-.844.216Zm0,3.57V7.425H87.66a1.528,1.528,0,0,1,1.028.279A1.182,1.182,0,0,1,89,8.622a1.12,1.12,0,0,1-.3.881,1.645,1.645,0,0,1-1.044.253ZM95.492,11h1.556V8.052h.58a3.775,3.775,0,0,0,2.347-.58,2.287,2.287,0,0,0,.712-1.883,2.287,2.287,0,0,0-.712-1.883,3.775,3.775,0,0,0-2.347-.58H95.492Zm1.556-4.256V4.435h.638a1.692,1.692,0,0,1,1.076.258,1.115,1.115,0,0,1,.306.9,1.115,1.115,0,0,1-.306.9,1.692,1.692,0,0,1-1.076.258ZM100.623,11h1.556l.475-1.946h2.083L105.222,11h1.556l-2.125-7.873h-1.9Zm2.341-3.227.733-3.222.738,3.222Zm7.114,3.38a3.334,3.334,0,0,0,1.176-.2,3.158,3.158,0,0,0,.986-.58V6.765h-2.426V8.073h1.065v1.5a.677.677,0,0,1-.29.132,1.506,1.506,0,0,1-.417.047,1.351,1.351,0,0,1-1.234-.68,3.939,3.939,0,0,1-.422-2.014,3.758,3.758,0,0,1,.438-2.014,1.479,1.479,0,0,1,1.329-.664,2.018,2.018,0,0,1,.928.211,2.244,2.244,0,0,1,.749.638V3.506a3.4,3.4,0,0,0-.86-.39,3.3,3.3,0,0,0-.96-.132,2.9,2.9,0,0,0-2.4,1.049,4.714,4.714,0,0,0-.844,3.027,4.815,4.815,0,0,0,.833,3.032A2.821,2.821,0,0,0,110.079,11.153ZM113,11h4.9V9.629h-3.349V7.567h3.032V6.2h-3.032V4.5H117.9V3.127H113Z" transform="translate(10.745 46.311)" stroke="rgba(0,0,0,0)" stroke-width="1" fill="url(#linear-gradient-2)"/>
    </g>
  </g>
</svg>
