<svg xmlns="http://www.w3.org/2000/svg" xmlns:xlink="http://www.w3.org/1999/xlink" width="266.03" height="149.344" viewBox="0 0 266.03 149.344"><defs><style>.a{fill:#d3d1ff;}.b{fill:#acaaf2;}.c{fill:#f2f2f2;}.d{fill:url(#c);}.e{fill:url(#i);}.f{fill:url(#j);}.g{fill:url(#k);}.h{fill:#fff;}.i{fill:#ffb8b8;}.j{fill:#cbcbcb;}.k{fill:#2f2e41;}.l{fill:#010440;}.m{fill:#a0616a;}.n{filter:url(#a);}</style><filter id="a" x="30.68" y="68.933" width="173.383" height="47.824" filterUnits="userSpaceOnUse"><feOffset dy="3" input="SourceAlpha"/><feGaussianBlur stdDeviation="3" result="b"/><feFlood flood-opacity="0.161"/><feComposite operator="in" in2="b"/><feComposite in="SourceGraphic"/></filter><linearGradient id="c" x1="0.369" y1="0" x2="1" y2="0" gradientUnits="objectBoundingBox"><stop offset="0" stop-color="#e345e6"/><stop offset="0.768" stop-color="#8f9eed"/><stop offset="1" stop-color="#45cbe6"/></linearGradient><linearGradient id="i" x1="0.361" y1="0" x2="1" y2="1" xlink:href="#c"/><linearGradient id="j" x1="0.452" y1="0.466" x2="0.947" y2="0.935" xlink:href="#c"/><linearGradient id="k" x1="0.5" y1="0" x2="0.5" y2="1" xlink:href="#c"/></defs><g transform="translate(0 0)"><path class="a" d="M961.483,617.294a28.654,28.654,0,0,1-1.339,7.92c-.018.06-.038.118-.058.178h-5c.005-.053.011-.113.016-.178.333-3.829-1.57-26.854-3.866-30.839C951.443,594.7,961.87,605.128,961.483,617.294Z" transform="translate(-713.472 -476.645)"/><path class="a" d="M975.2,658.008c-.042.06-.085.119-.13.178h-3.747l.1-.178c.619-1.117,2.451-4.458,4.152-7.92,1.827-3.721,3.5-7.584,3.363-8.982C978.982,641.422,980.246,651.033,975.2,658.008Z" transform="translate(-727.564 -509.439)"/><path class="a" d="M200.332,638.157a21.28,21.28,0,0,0,.994,5.882c.013.044.028.088.043.132h3.71c0-.04-.008-.084-.012-.132-.247-2.844,1.166-19.944,2.871-22.9C207.788,621.375,200.044,629.121,200.332,638.157Z" transform="translate(-186.508 -495.424)"/><path class="a" d="M194.451,668.4c.031.044.063.088.1.132h2.783l-.074-.132c-.46-.83-1.821-3.311-3.084-5.882-1.357-2.764-2.6-5.632-2.5-6.671C191.643,656.076,190.7,663.215,194.451,668.4Z" transform="translate(-180.349 -519.78)"/><g class="n" transform="matrix(1, 0, 0, 1, 0, 0)"><path class="b" d="M442.43,480.7c-28.019-11.874-53.368-11.423-77.244-4.175-36.789-6.425-61.98-5.431-78.139,4.175V450.875H442.43Z" transform="translate(-247.37 -375.94)"/></g><path class="c" d="M442.079,296.18c-25.813-11.7-51.6-12.451-77.766,0-26.805-7.718-52.718-7.637-77.766,0V205.515c26.631-7.948,52.536-7.757,77.766,0,26.651-7.731,52.6-7.976,77.766,0Z" transform="translate(-247.016 -199.625)"/><path class="d" d="M307.959,238.3l-.868-2.222A96.232,96.232,0,0,1,327.5,231.2c11.034-1.483,27.473-1.837,43.129,4.9l-.942,2.192c-15.133-6.507-31.086-6.164-41.8-4.732A95.818,95.818,0,0,0,307.959,238.3Z" transform="translate(-261.433 -221.159)"/><path class="d" d="M307.959,266.3l-.868-2.222A96.232,96.232,0,0,1,327.5,259.2c11.034-1.483,27.473-1.837,43.129,4.9l-.942,2.192c-15.133-6.507-31.086-6.165-41.8-4.732A95.82,95.82,0,0,0,307.959,266.3Z" transform="translate(-261.433 -240.809)"/><path class="d" d="M307.959,294.3l-.868-2.222A96.23,96.23,0,0,1,327.5,287.2c11.034-1.483,27.473-1.837,43.129,4.9l-.942,2.192c-15.133-6.507-31.086-6.165-41.8-4.732A95.82,95.82,0,0,0,307.959,294.3Z" transform="translate(-261.433 -260.458)"/><path class="d" d="M307.959,322.3l-.868-2.222A96.234,96.234,0,0,1,327.5,315.2c11.034-1.483,27.473-1.837,43.129,4.9l-.942,2.192c-15.133-6.507-31.086-6.165-41.8-4.732A95.818,95.818,0,0,0,307.959,322.3Z" transform="translate(-261.433 -280.107)"/><path class="d" d="M307.959,350.3l-.868-2.222A96.23,96.23,0,0,1,327.5,343.2c11.034-1.483,27.473-1.837,43.129,4.9l-.942,2.192c-15.133-6.507-31.086-6.165-41.8-4.731A95.819,95.819,0,0,0,307.959,350.3Z" transform="translate(-261.433 -299.757)"/><path class="d" d="M307.959,378.3l-.868-2.222A96.232,96.232,0,0,1,327.5,371.2c11.034-1.483,27.473-1.837,43.129,4.9l-.942,2.192c-15.133-6.507-31.086-6.164-41.8-4.732A95.82,95.82,0,0,0,307.959,378.3Z" transform="translate(-261.433 -319.406)"/><path class="e" d="M568.959,437.3l-.868-2.222A96.232,96.232,0,0,1,588.5,430.2c11.034-1.483,27.473-1.837,43.129,4.9l-.943,2.192c-15.133-6.507-31.086-6.164-41.8-4.732A95.816,95.816,0,0,0,568.959,437.3Z" transform="translate(-444.592 -360.81)"/><path class="f" d="M568.547,282.734v-45.61l.837-.262c21.218-6.628,42.333-6.627,62.758,0l.825.268v45.539l-1.614-.609c-21.255-8.022-41.831-8.027-61.156-.014Zm31.483-9.081a90.135,90.135,0,0,1,30.551,5.585V238.872c-19.42-6.124-39.48-6.121-59.648.01v40.3a79.438,79.438,0,0,1,29.1-5.529Z" transform="translate(-444.913 -222.269)"/><path class="g" d="M776.713,380.068l.313-7.591,10.721-21.315a3.093,3.093,0,0,1,1.4-1.395,3.129,3.129,0,0,1,4.367,1.819,3.239,3.239,0,0,1,.136.607,3.1,3.1,0,0,1-.311,1.783L782.606,375.32Z" transform="translate(-590.995 -304.758)"/><path class="h" d="M793.417,349.94,781.78,373.078l-.887-.446,11.255-22.378A2.966,2.966,0,0,1,793.417,349.94Z" transform="translate(-593.928 -305.11)"/><path class="h" d="M804.588,355.726l-11.194,22.256-.887-.446,11.613-23.09a2.981,2.981,0,0,1,.339.7A3.089,3.089,0,0,1,804.588,355.726Z" transform="translate(-602.079 -308.272)"/><path class="h" d="M799.5,350.961l-11.766,23.393-.887-.446,11.781-23.423a2.883,2.883,0,0,1,.366.154,3.047,3.047,0,0,1,.506.321Z" transform="translate(-598.11 -305.493)"/><path class="h" d="M778.44,444.191l-1.184.954.1-2.514A2.351,2.351,0,0,1,778.44,444.191Z" transform="translate(-591.376 -370.156)"/><path class="g" d="M386.339,492.424l-1.417-4.3,1.51-14.137a1.842,1.842,0,0,1,.49-1.072,1.864,1.864,0,0,1,2.817.1,1.93,1.93,0,0,1,.2.31,1.846,1.846,0,0,1,.2,1.06l-1.512,14.156Z" transform="translate(-316.052 -390.992)"/><path class="h" d="M388.757,473.043l-1.639,15.346-.588-.063,1.585-14.842A1.767,1.767,0,0,1,388.757,473.043Z" transform="translate(-317.18 -391.499)"/><path class="h" d="M396.4,474.378l-1.577,14.761-.588-.063,1.636-15.314a1.775,1.775,0,0,1,.336.32,1.835,1.835,0,0,1,.194.3Z" transform="translate(-322.586 -392.003)"/><path class="h" d="M392.728,472.7l-1.657,15.515-.588-.063,1.659-15.535a1.718,1.718,0,0,1,.237.009A1.816,1.816,0,0,1,392.728,472.7Z" transform="translate(-319.953 -391.201)"/><path class="h" d="M389.1,534.884l-.46.78-.472-1.423A1.4,1.4,0,0,1,389.1,534.884Z" transform="translate(-318.33 -434.445)"/><g transform="translate(188.398 42.006)"><path class="i" d="M888.717,472.041a2.477,2.477,0,0,1-4.3-2.459l.017-.029a2.689,2.689,0,0,1,.233-.331l-2.084-14.851-.062-.445-.423-3.03-.062-.437.231.011,4.037.184,1.082.049.136,2.765.768,15.543a2.474,2.474,0,0,1,.429,3.03Z" transform="translate(-853.303 -417.656)"/><path class="j" d="M877.423,425.437l5.126-.47a1.012,1.012,0,0,0,.913-1.1l-.95-10.66a3.887,3.887,0,1,0-7.743.691q.01.11.026.22l1.537,10.456a1.01,1.01,0,0,0,1,.863A.709.709,0,0,0,877.423,425.437Z" transform="translate(-848.194 -389.032)"/><path class="j" d="M856.16,411.981a7.139,7.139,0,0,0-2.626-8.217c-1.933-1.323-4.578-1.8-7.427,1.594a35.463,35.463,0,0,0-7.189,14.243l11.666,1.9A37.443,37.443,0,0,0,856.16,411.981Z" transform="translate(-823.046 -384.188)"/><path class="i" d="M821.917,659.643H818.59l-1.582-12.829h4.909Z" transform="translate(-807.67 -555.45)"/><path class="k" d="M800.808,690.682h10.454v-4.039h-6.415A4.039,4.039,0,0,0,800.808,690.682Z" transform="translate(-796.301 -583.401)"/><path class="i" d="M904.715,651.441l-3.158,1.044L896.028,640.8l4.661-1.541Z" transform="translate(-863.123 -550.149)"/><path class="k" d="M896.912,683.443l9.925-3.281-1.268-3.835-6.091,2.013A4.039,4.039,0,0,0,896.912,683.443Z" transform="translate(-863.6 -576.162)"/><circle class="i" cx="6.663" cy="6.663" r="6.663" transform="translate(19.128 2.885)"/><path class="l" d="M809.391,522.591,812.48,502.2a.95.95,0,0,1,1.862-.081l4.7,19.429a1.23,1.23,0,0,0,1.38.918l12.975-2.085a1.221,1.221,0,0,0,.975-1.56l-16.919-55.78a.95.95,0,0,1-.017-.488l.563-2.442a1.217,1.217,0,0,0-.631-1.36c-2.3-1.176-8.139-3.619-12.543-.943a1.235,1.235,0,0,0-.564.794l-13.217,62.12a1.221,1.221,0,0,0,1.085,1.47l15.941,1.428q.054,0,.109,0a1.223,1.223,0,0,0,1.207-1.038Z" transform="translate(-789.435 -421.969)"/><path class="k" d="M883.023,348.178a5.042,5.042,0,0,1-1.317-1.145,1.709,1.709,0,0,1-.263-1.655,1.737,1.737,0,0,1,2.112-.725A5.045,5.045,0,0,1,885.5,346.1a4.988,4.988,0,0,1,1.248,1.734,1.516,1.516,0,0,1-2.438,1.754,5.01,5.01,0,0,1-1.228-1.7Z" transform="translate(-852.813 -343.338)"/><path class="k" d="M894.559,343.413c.037-1.877,2.177-3.224,4.025-2.891a5.72,5.72,0,0,1,3.98,3.647c1.5,3.672.375,7.862-1.073,11.557s-3.239,7.444-3.028,11.406a11.917,11.917,0,0,0,6.922,10.038c-2.086.945-4.579-.031-6.332-1.505a12.654,12.654,0,0,1-3.571-13.848c.9-2.342,2.486-4.345,3.724-6.526s2.147-4.753,1.507-7.178-3.36-4.389-5.686-3.451Z" transform="translate(-862.092 -340.471)"/><path class="k" d="M853.437,357.805c.581-.982,1.167-2.27.105-3.128a2.188,2.188,0,0,0-1.641-.434,7.829,7.829,0,0,1-3.659-.231,3.43,3.43,0,0,1-1.99-1.788,3.533,3.533,0,0,1,1.4-4.035,4.721,4.721,0,0,1,5.225-.093,5.382,5.382,0,0,1,5.056.588,8.036,8.036,0,0,1,3.025,4.246,8.2,8.2,0,0,1,.25,4.508,6.7,6.7,0,0,1-4.155,4.579,2.412,2.412,0,0,1-2.383-.353,4.482,4.482,0,0,1-1.206-1.767A2.842,2.842,0,0,1,853.437,357.805Z" transform="translate(-828.046 -345.3)"/><path class="i" d="M791.323,397.163a2.857,2.857,0,0,1,.065.445l11.654,6.723,2.833-1.631,3.02,3.953-4.734,3.374a2.17,2.17,0,0,1-2.6-.063l-12.019-9.481a2.849,2.849,0,1,1,1.784-3.321Z" transform="translate(-785.699 -378.712)"/><path class="j" d="M844.557,414.365l3.767,4.882a1.221,1.221,0,0,0,1.845.1l4.264-4.428a3.391,3.391,0,1,0-4.049-5.441q-.055.041-.109.085l-5.348,2.99a1.221,1.221,0,0,0-.37,1.811Z" transform="translate(-826.824 -388.427)"/></g><path class="m" d="M208.551,455.993h3.616l1.72-13.946H208.55Z" transform="translate(-146.352 -310.211)"/><path class="l" d="M359.459,684.475h7.121a4.538,4.538,0,0,1,4.538,4.537v.148H359.46Z" transform="translate(-298.183 -539.873)"/><path class="m" d="M114.156,451.114l3.575.54,3.786-13.532-4.687-.8Z" transform="translate(-80.11 -306.897)"/><path class="l" d="M264.042,678.81l7.041,1.064h0a4.538,4.538,0,0,1,3.808,5.165l-.022.146-11.527-1.742Z" transform="translate(-230.732 -535.898)"/><path class="m" d="M303.977,456.7l4.015,1.052-.267,6.509-.033,11.85a2.375,2.375,0,1,1-3.143.395l-1.234-11.894Z" transform="translate(-258.783 -380.027)"/><path class="j" d="M302.193,424.212a3.277,3.277,0,0,1,2.026-2.914,3.064,3.064,0,0,1,3.316.533,2.921,2.921,0,0,1,.974,2.259,75.715,75.715,0,0,1-.859,9.426l-.014.088-5.868,1.976Z" transform="translate(-257.698 -354.998)"/><path class="l" d="M286.326,462.523,295.3,460.2l4.149,13.973.147,52.053-6.863-.043-2.869-42.13L271.58,522.981l-7.373-.885,16.073-41.731s-.885-7.373,1.917-11.06l-.59-3.834Z" transform="translate(-231.339 -382.486)"/><path class="j" d="M307.38,425.247a1.375,1.375,0,0,1-.293-1.106l-4.094-12.282a3.125,3.125,0,0,1,.862-3.3l1.777-1.615,1.2-4.818,6.922,1.692-.57,2.281,3.133-.569,6.6,14.7-13.793,5.513-.679.011A1.375,1.375,0,0,1,307.38,425.247Z" transform="translate(-258.445 -341.733)"/><path class="m" d="M350.3,441.918l3.955-1.257L357.5,446.3l6.306,10.033a2.375,2.375,0,1,1-2.445,2.014l-7.4-9.393Z" transform="translate(-291.752 -368.775)"/><path class="j" d="M333.9,413.437a3.277,3.277,0,0,1,.154-3.546,3.065,3.065,0,0,1,3.088-1.322,2.921,2.921,0,0,1,2.031,1.389,75.737,75.737,0,0,1,4.313,8.426l.036.082-3.9,4.807Z" transform="translate(-279.933 -346.221)"/><circle class="m" cx="5.5" cy="5.5" r="5.5" transform="translate(48.013 48.498)"/><path class="k" d="M320.161,360.042a9.708,9.708,0,0,0-2.471-3.354,2.569,2.569,0,0,0-3.4-.308c-2.178-.941-7.283.734-7.283.734s.372.439.26.61a3.154,3.154,0,0,1-.26.379c-.287.341-1.231.962-1.474,1.42-.018.034-.443.53-.443.53s.294.057.315.293c-.484.526.1,3.605,1.165,5.227.059.09-.117.436,0,.595a6.494,6.494,0,0,0,7.032,1.966,6.239,6.239,0,0,0,4.426-6.711C318.94,361.294,319.252,360.169,320.161,360.042Z" transform="translate(-260.03 -309.268)"/><path class="a" d="M267.928,698.971H154.3a.3.3,0,1,1,0-.6H267.928a.3.3,0,1,1,0,.6Z" transform="translate(-154 -549.628)"/><path class="a" d="M776.928,698.971H663.3a.3.3,0,0,1,0-.6H776.928a.3.3,0,1,1,0,.6Z" transform="translate(-511.196 -549.628)"/><rect class="b" width="0.5" height="90.378" transform="translate(116.999 5.89)"/></g></svg>