<svg xmlns="http://www.w3.org/2000/svg" xmlns:xlink="http://www.w3.org/1999/xlink" width="223.515" height="167.62" viewBox="0 0 223.515 167.62"><defs><style>.a{fill:url(#a);}.b,.c{fill:#fff;}.c,.d{stroke:#010326;}.d{fill:none;}.e{fill:#010326;}.f{filter:url(#d);}.g{filter:url(#b);}</style><linearGradient id="a" x1="0.4" y1="0.3" x2="1" y2="40%" gradientUnits="objectBoundingBox"><stop offset="0%" stop-color="#eb57ed"/><stop offset="63%" stop-color="#8f9eed"/><stop offset="100%" stop-color="#29eded"/></linearGradient><filter id="b" x="0" y="77.598" width="211" height="66" filterUnits="userSpaceOnUse"><feOffset dy="2" input="SourceAlpha"/><feGaussianBlur stdDeviation="3" result="c"/><feFlood flood-opacity="0.161"/><feComposite operator="in" in2="c"/><feComposite in="SourceGraphic"/></filter><filter id="d" x="143.126" y="103.577" width="60.749" height="64.043" filterUnits="userSpaceOnUse"><feOffset dy="3" input="SourceAlpha"/><feGaussianBlur stdDeviation="3" result="e"/><feFlood flood-opacity="0.161"/><feComposite operator="in" in2="e"/><feComposite in="SourceGraphic"/></filter></defs><g transform="translate(-82 -208.402)"><g transform="translate(91 293)"><g class="g" transform="matrix(1, 0, 0, 1, -9, -84.6)"><rect class="a" width="193" height="48" rx="4" transform="translate(9 84.6)"/></g><path class="b" d="M-37.656,0V-8.4h1.38l2.412,4.032L-31.488-8.4h1.4V0H-31.5V-5.988l-1.968,3.42h-.816l-1.98-3.42V0Zm9.864,2.388q-.288,0-.54-.018a2.9,2.9,0,0,1-.456-.066V1.068q.2.048.426.078a3.183,3.183,0,0,0,.426.03A1.254,1.254,0,0,0-27.45,1.1a.553.553,0,0,0,.258-.24,4.233,4.233,0,0,0,.216-.456l.156-.42-2.28-5.76h1.4l1.464,4.14,1.38-4.14h1.38L-25.824.8a3.08,3.08,0,0,1-.7,1.188A1.773,1.773,0,0,1-27.792,2.388ZM-22.392,0V-8.4h1.38l3.96,5.964V-8.4h1.4V0H-16.98l-4.032-6.132V0Zm10.8.132a2.71,2.71,0,0,1-1.422-.378,2.7,2.7,0,0,1-1-1.056,3.3,3.3,0,0,1-.366-1.59,3.3,3.3,0,0,1,.366-1.59,2.7,2.7,0,0,1,1-1.056,2.71,2.71,0,0,1,1.422-.378,2.756,2.756,0,0,1,1.446.378,2.655,2.655,0,0,1,.99,1.056,3.343,3.343,0,0,1,.36,1.59,3.343,3.343,0,0,1-.36,1.59,2.655,2.655,0,0,1-.99,1.056A2.756,2.756,0,0,1-11.592.132Zm0-1.224a1.305,1.305,0,0,0,1.038-.468,1.985,1.985,0,0,0,.4-1.332,1.985,1.985,0,0,0-.4-1.332,1.305,1.305,0,0,0-1.038-.468,1.275,1.275,0,0,0-1.02.468,2.005,2.005,0,0,0-.4,1.332,2.005,2.005,0,0,0,.4,1.332A1.275,1.275,0,0,0-11.592-1.092ZM-5.268.132A2.276,2.276,0,0,1-6.57-.18a1.432,1.432,0,0,1-.45-1.248v-3.18h-1.1V-5.772h1.1V-7.8h1.344v2.028h1.6v1.164h-1.6v2.832a.645.645,0,0,0,.2.552.959.959,0,0,0,.57.144,1.565,1.565,0,0,0,.462-.072A2.046,2.046,0,0,0-4.08-1.3V-.06a2.769,2.769,0,0,1-.54.138A3.935,3.935,0,0,1-5.268.132Zm4.776,0A2.8,2.8,0,0,1-2.532-.63a3.026,3.026,0,0,1-.78-2.262,3.494,3.494,0,0,1,.348-1.614A2.505,2.505,0,0,1-1.992-5.55,2.769,2.769,0,0,1-.564-5.916,2.346,2.346,0,0,1,.8-5.526a2.5,2.5,0,0,1,.864,1.062,3.67,3.67,0,0,1,.3,1.512v.312H-1.98a1.722,1.722,0,0,0,.456,1.23,1.521,1.521,0,0,0,1.056.366,1.5,1.5,0,0,0,.924-.27,2.189,2.189,0,0,0,.624-.81l1,.7A2.894,2.894,0,0,1,.99-.234,2.94,2.94,0,0,1-.492.132ZM-1.92-3.684H.636a1.523,1.523,0,0,0-.414-.87,1.12,1.12,0,0,0-.81-.306,1.3,1.3,0,0,0-.87.288A1.5,1.5,0,0,0-1.92-3.684ZM4.308.084q-.084-.492-.132-1.206T4.11-2.682q-.018-.846,0-1.746t.072-1.758q.054-.858.144-1.59a12.165,12.165,0,0,1,.21-1.248l1.4.288a7.488,7.488,0,0,0-.228,1.122q-.1.69-.156,1.512T5.478-4.416q-.018.864.006,1.68T5.568-1.26A7.991,7.991,0,0,0,5.724-.192Zm5.1-.648Q7.332-.624,7.056-1.92a2.6,2.6,0,0,1-.048-.72,3.559,3.559,0,0,1,.18-.876l1.26.312a1.326,1.326,0,0,0-.09.408.923.923,0,0,0,.042.324Q8.556-2.04,9.672-2a10.63,10.63,0,0,0,1.158-.042q.618-.054,1.212-.162a9.89,9.89,0,0,0,1.038-.24q-.024.168-.054.456t-.042.582q-.012.294,0,.486A10.257,10.257,0,0,1,11.778-.7q-.642.084-1.26.114T9.408-.564ZM7.608-6.42,7.524-7.9a10.171,10.171,0,0,0,1.116.072q.66.012,1.374-.018t1.368-.108a7.451,7.451,0,0,0,1.086-.2L12.408-6.7q-.48.084-1.116.15t-1.314.1q-.678.036-1.3.042T7.608-6.42ZM18.984-1.3V-8.784h1.644q.1-.3.186-.7t.138-.666l1.5.144q-.048.228-.162.582t-.21.642h2.8v3.336H20.412v.768H25.2V-1.3ZM21.684.72A14.9,14.9,0,0,1,19.56.594a5.118,5.118,0,0,1-1.4-.384,3.26,3.26,0,0,1-.936-.642Q17-.276,16.668-.06T15.99.36q-.342.2-.594.348L14.808-.7l.54-.222q.336-.138.654-.288t.486-.246V-4.44h-1.38V-5.688h2.748v4.056a1.514,1.514,0,0,0,1.122.816,11.256,11.256,0,0,0,2.706.24q1.536,0,2.64-.054t1.788-.15a2.692,2.692,0,0,0-.132.414q-.072.282-.12.582T25.8.7q-.336,0-.876.006L23.778.714Q23.172.72,22.62.72Zm-1.272-3.2H23.82V-3.528H20.412ZM17.328-7.068q-.216-.264-.558-.612t-.72-.678a6.937,6.937,0,0,0-.7-.546l.912-.912a7.39,7.39,0,0,1,.684.5q.4.318.768.666a7.9,7.9,0,0,1,.588.6q-.12.1-.312.276T17.61-7.4A3.634,3.634,0,0,0,17.328-7.068Zm3.084.42H23.5v-.96H20.412ZM33.216.084V-8.3h4.272V.084ZM27.84.816A4.071,4.071,0,0,0,27.3.4a5.639,5.639,0,0,0-.66-.378,6.771,6.771,0,0,0,1.242-1.758A7.6,7.6,0,0,0,28.506-3.8a17.732,17.732,0,0,0,.2-2.67H27.12V-7.836H28.7v-2.208h1.428v2.208h2.3v1.368a39.831,39.831,0,0,1-.228,4.92,4.541,4.541,0,0,1-.372,1.422,1.376,1.376,0,0,1-.7.684,3.016,3.016,0,0,1-1.152.186h-.516q-.036-.3-.126-.726a3.735,3.735,0,0,0-.2-.678h.732a.77.77,0,0,0,.612-.21,1.961,1.961,0,0,0,.3-.846q.072-.4.132-1.11t.09-1.656q.03-.942.03-1.986H30.12a16.559,16.559,0,0,1-.534,4.158A7.394,7.394,0,0,1,27.84.816Zm6.792-2.16h1.44V-6.888h-1.44Z" transform="translate(96 28)"/></g><g transform="translate(0 38)"><g class="f" transform="matrix(1, 0, 0, 1, 82, 170.4)"><path class="c" d="M9.538,0A3.171,3.171,0,0,1,12.62,3.15v7.021a3.458,3.458,0,0,1,4.988.443,3.221,3.221,0,0,1,4.382,1.157c3.455-.631,5.011,1.543,5.011,5.1,0,.193-.014.933-.014,1.125.012,4.357-2.184,5.407-2.694,8.7a1.686,1.686,0,0,1-1.667,1.425H10.565a3.375,3.375,0,0,1-3.083-2c-.914-2.031-3.448-6.709-5.437-7.561A3,3,0,0,1,0,15.75a3.377,3.377,0,0,1,4.7-3.1,9.557,9.557,0,0,1,1.752,1V3.15A3.222,3.222,0,0,1,9.538,0Zm.024,29.25h13.5a1.687,1.687,0,0,1,1.688,1.688v3.375A1.687,1.687,0,0,1,23.063,36H9.563a1.687,1.687,0,0,1-1.687-1.687V30.938A1.687,1.687,0,0,1,9.563,29.25Zm11.813,1.969a1.406,1.406,0,1,0,1.406,1.406A1.406,1.406,0,0,0,21.375,31.219Z" transform="translate(152.81 123.76) rotate(-30)"/></g><line class="d" x2="1" y2="3" transform="translate(243.5 282.5)"/><line class="d" x1="1" y2="3.162" transform="translate(246.5 282.5)"/><line class="d" x1="3" y2="1.162" transform="translate(247.5 285.5)"/></g><g transform="translate(-3 2)"><path class="e" d="M-23.3.72A5.191,5.191,0,0,1-25.35.312,5.282,5.282,0,0,1-27.036-.822,5.282,5.282,0,0,1-28.17-2.508a5.191,5.191,0,0,1-.408-2.052,5.191,5.191,0,0,1,.408-2.052A5.282,5.282,0,0,1-27.036-8.3,5.282,5.282,0,0,1-25.35-9.432,5.191,5.191,0,0,1-23.3-9.84a5.191,5.191,0,0,1,2.052.408A5.282,5.282,0,0,1-19.56-8.3a5.282,5.282,0,0,1,1.134,1.686,5.191,5.191,0,0,1,.408,2.052,5.191,5.191,0,0,1-.408,2.052A5.282,5.282,0,0,1-19.56-.822,5.282,5.282,0,0,1-21.246.312,5.191,5.191,0,0,1-23.3.72Zm0-.672A4.478,4.478,0,0,0-21.5-.312,4.663,4.663,0,0,0-20.04-1.3a4.645,4.645,0,0,0,.99-1.47,4.491,4.491,0,0,0,.36-1.788,4.478,4.478,0,0,0-.36-1.794,4.663,4.663,0,0,0-.99-1.464,4.663,4.663,0,0,0-1.464-.99,4.478,4.478,0,0,0-1.794-.36,4.491,4.491,0,0,0-1.788.36,4.645,4.645,0,0,0-1.47.99,4.663,4.663,0,0,0-.99,1.464,4.478,4.478,0,0,0-.36,1.794,4.491,4.491,0,0,0,.36,1.788,4.645,4.645,0,0,0,.99,1.47,4.645,4.645,0,0,0,1.47.99A4.491,4.491,0,0,0-23.3.048Zm8.28-.72-.576-.576,3.012-3.024-3.012-3.012.576-.576,3.024,3.012L-8.982-7.86l.588.576-3.012,3.012,3,3.024-.576.576-3.012-3.012ZM-1.53.912A3.431,3.431,0,0,0-1.89.528,2.127,2.127,0,0,0-2.322.192,4.149,4.149,0,0,0-.576-1.638,7.075,7.075,0,0,0,.03-4.668H-1.3v-.984H.042v-2.82H-.99v-.96H4.446v.96H3.366v2.82h1.38v.984H3.366V.864H2.31V-4.668H1.062A8.255,8.255,0,0,1,.426-1.314,5.383,5.383,0,0,1-1.53.912ZM-4.926-.6V-3.876q-.18.3-.378.594t-.426.57a2.627,2.627,0,0,0-.408-.312,4.716,4.716,0,0,0-.42-.252A7.4,7.4,0,0,0-5.532-4.812a10.14,10.14,0,0,0,.708-1.812A10.221,10.221,0,0,0-4.47-8.46H-6.126v-.96h4.74v.96h-2.04q-.084.636-.228,1.284T-4-5.9H-1.77V-.6Zm.936-.96h1.26V-4.944H-3.99ZM1.062-5.652H2.31v-2.82H1.062Zm6.2.9a2.315,2.315,0,0,0-.12-.3q-.084-.18-.186-.36a1.761,1.761,0,0,0-.174-.264A5,5,0,0,0,7.968-6.1,4.536,4.536,0,0,0,9.03-6.846,3.481,3.481,0,0,0,9.786-7.86H7.122V-6.2H6.054V-8.832h4.668V-10.08h1.14v1.248h4.68v2.508h-.948a2.665,2.665,0,0,1-.318.732.83.83,0,0,1-.45.336,2.536,2.536,0,0,1-.72.084H12.738a1.761,1.761,0,0,1-.894-.156.6.6,0,0,1-.234-.54V-7.86H9.858l.84.456A4.491,4.491,0,0,1,9.312-5.748,6.285,6.285,0,0,1,7.266-4.752ZM6.318.888a2.166,2.166,0,0,0-.1-.282Q6.138.42,6.054.228A2.363,2.363,0,0,0,5.91-.06a5.7,5.7,0,0,0,2.7-.948A3.905,3.905,0,0,0,9.978-3.084l-3.216.06V-4.032L10.194-4.1q.06-.36.09-.762t.042-.846l1.14.048q-.012.408-.036.792a7.29,7.29,0,0,1-.084.744l2.328-.06V-.7a.363.363,0,0,0,.09.276.561.561,0,0,0,.366.084h.756a1.182,1.182,0,0,0,.516-.09.586.586,0,0,0,.27-.372,4.654,4.654,0,0,0,.15-.87,3.552,3.552,0,0,0,.522.21q.342.114.57.174A4.465,4.465,0,0,1,16.6,0a1.056,1.056,0,0,1-.552.57,2.434,2.434,0,0,1-.888.138H13.746a1.554,1.554,0,0,1-.93-.21.821.821,0,0,1-.27-.69V-3.12l-1.4.024A4.9,4.9,0,0,1,9.492-.39,7.013,7.013,0,0,1,6.318.888ZM15.486-7.86h-2.82V-6.5a.312.312,0,0,0,.1.264.7.7,0,0,0,.384.072h.732a.7.7,0,0,0,.528-.168,1.755,1.755,0,0,0,.288-.72,2.4,2.4,0,0,0,.366.18q.234.1.426.168ZM17.946.48V-.48h4.8V-1.536H19.338V-2.5h3.408V-3.684q-.984.06-1.932.108t-1.62.06L19.05-4.5q.912,0,1.884-.036.24-.312.5-.732t.468-.78H19.818v-.9H26.8v.9h-3.72q-.192.36-.45.756t-.5.708q.792-.036,1.524-.084t1.332-.1q-.2-.168-.4-.318t-.366-.27L24.966-6q.348.24.81.618t.918.78q.456.4.768.726a2.1,2.1,0,0,0-.252.186q-.168.138-.324.288t-.228.234q-.144-.168-.342-.372t-.438-.432l-.972.1q-.528.054-1.092.1V-2.5h3.444v.96H23.814V-.48h4.848V.48Zm.2-6.684V-8.772h4.536v-1.272h1.188v1.272h4.56V-6.24h-1.08V-7.872H19.242V-6.2Z" transform="translate(242.51 265.471) rotate(7)"/><path class="e" d="M-36,.72A5.191,5.191,0,0,1-38.052.312,5.282,5.282,0,0,1-39.738-.822a5.282,5.282,0,0,1-1.134-1.686A5.191,5.191,0,0,1-41.28-4.56a5.191,5.191,0,0,1,.408-2.052A5.282,5.282,0,0,1-39.738-8.3a5.282,5.282,0,0,1,1.686-1.134A5.191,5.191,0,0,1-36-9.84a5.191,5.191,0,0,1,2.052.408A5.282,5.282,0,0,1-32.262-8.3a5.282,5.282,0,0,1,1.134,1.686A5.191,5.191,0,0,1-30.72-4.56a5.191,5.191,0,0,1-.408,2.052A5.282,5.282,0,0,1-32.262-.822,5.282,5.282,0,0,1-33.948.312,5.191,5.191,0,0,1-36,.72Zm0-.672a4.478,4.478,0,0,0,1.794-.36,4.663,4.663,0,0,0,1.464-.99,4.645,4.645,0,0,0,.99-1.47,4.491,4.491,0,0,0,.36-1.788,4.478,4.478,0,0,0-.36-1.794,4.663,4.663,0,0,0-.99-1.464,4.663,4.663,0,0,0-1.464-.99A4.478,4.478,0,0,0-36-9.168a4.491,4.491,0,0,0-1.788.36,4.645,4.645,0,0,0-1.47.99,4.663,4.663,0,0,0-.99,1.464,4.478,4.478,0,0,0-.36,1.794,4.491,4.491,0,0,0,.36,1.788,4.645,4.645,0,0,0,.99,1.47,4.645,4.645,0,0,0,1.47.99A4.491,4.491,0,0,0-36,.048ZM-24,.72A5.191,5.191,0,0,1-26.052.312,5.282,5.282,0,0,1-27.738-.822a5.282,5.282,0,0,1-1.134-1.686A5.191,5.191,0,0,1-29.28-4.56a5.191,5.191,0,0,1,.408-2.052A5.282,5.282,0,0,1-27.738-8.3a5.282,5.282,0,0,1,1.686-1.134A5.191,5.191,0,0,1-24-9.84a5.191,5.191,0,0,1,2.052.408A5.282,5.282,0,0,1-20.262-8.3a5.282,5.282,0,0,1,1.134,1.686A5.191,5.191,0,0,1-18.72-4.56a5.191,5.191,0,0,1-.408,2.052A5.282,5.282,0,0,1-20.262-.822,5.282,5.282,0,0,1-21.948.312,5.191,5.191,0,0,1-24,.72Zm0-.672a4.478,4.478,0,0,0,1.794-.36,4.663,4.663,0,0,0,1.464-.99,4.645,4.645,0,0,0,.99-1.47,4.491,4.491,0,0,0,.36-1.788,4.478,4.478,0,0,0-.36-1.794,4.663,4.663,0,0,0-.99-1.464,4.663,4.663,0,0,0-1.464-.99A4.478,4.478,0,0,0-24-9.168a4.491,4.491,0,0,0-1.788.36,4.645,4.645,0,0,0-1.47.99,4.663,4.663,0,0,0-.99,1.464,4.478,4.478,0,0,0-.36,1.794,4.491,4.491,0,0,0,.36,1.788,4.645,4.645,0,0,0,.99,1.47,4.645,4.645,0,0,0,1.47.99A4.491,4.491,0,0,0-24,.048Zm10.08.876a4.816,4.816,0,0,0-.1-.546,2.551,2.551,0,0,0-.156-.5h1.26a.565.565,0,0,0,.36-.09.4.4,0,0,0,.108-.318V-2.16h-4.812v-.96h4.812v-.84h.5q.288-.192.678-.462a7.617,7.617,0,0,0,.678-.522h-4.572v-.924h6.12l.48.468q-.228.228-.594.528t-.786.606q-.42.306-.792.558t-.624.4v.192h4.608v.96h-4.608V-.2q0,1.128-1.308,1.128ZM-17.112-5.04V-7.7h2a4.853,4.853,0,0,0-.27-.594q-.174-.33-.366-.642a3.8,3.8,0,0,0-.36-.5l.936-.444a6.4,6.4,0,0,1,.4.54q.216.324.408.66a4.322,4.322,0,0,1,.288.588l-.876.4h4.38q.216-.288.48-.726t.5-.882a7.491,7.491,0,0,0,.342-.72l1.1.3a10.819,10.819,0,0,1-.522,1Q-9-8.16-9.312-7.7h2.424V-5.04H-7.944V-6.8h-8.124V-5.04Zm4.716-2.7a4.588,4.588,0,0,0-.234-.63q-.162-.366-.36-.726a4.319,4.319,0,0,0-.378-.588l1-.372a4.8,4.8,0,0,1,.366.564q.2.348.372.708a4.869,4.869,0,0,1,.258.624Zm9.2,8.592v-4.8a14.731,14.731,0,0,1-.846,1.374A9.433,9.433,0,0,1-4.884-1.5,1.341,1.341,0,0,0-5.1-1.716q-.156-.132-.324-.258A2.571,2.571,0,0,0-5.7-2.16,5.836,5.836,0,0,0-5.016-2.9a11.357,11.357,0,0,0,.7-.99q.336-.534.618-1.074a6.944,6.944,0,0,0,.438-1.008H-5.34v-.972h2.148v-1.32q-.48.1-.936.174t-.84.114a1.484,1.484,0,0,0-.078-.282q-.066-.186-.144-.372a1.476,1.476,0,0,0-.138-.27q.432-.024,1.044-.12t1.26-.246q.648-.15,1.218-.33a5.15,5.15,0,0,0,.918-.372l.564.852q-.348.156-.816.312t-.984.288v1.572H-.2v.972h-1.92v.624a6.479,6.479,0,0,0,.534.624q.342.36.708.69t.63.534a1.61,1.61,0,0,0-.222.21q-.138.15-.264.312t-.186.258a6.683,6.683,0,0,1-.57-.564q-.33-.36-.63-.732V.852Zm6.168,0V-2.412q-.648.132-1.3.258L.45-1.92q-.57.108-.966.168L-.756-2.76q.4-.048,1-.144t1.32-.234q.714-.138,1.41-.282V-10h1.08V-3.66q.492-.108.9-.21t.636-.174l.108,1q-.276.084-.708.18t-.936.216v3.5ZM1.848-6.756q-.372-.348-.84-.726a7.3,7.3,0,0,0-.924-.642l.672-.768a10.355,10.355,0,0,1,.954.66q.5.384.846.708-.084.072-.234.228T2.04-6.99Q1.908-6.84,1.848-6.756ZM1.392-4.008Q1.02-4.356.54-4.728a6.882,6.882,0,0,0-.948-.624l.636-.78A10.915,10.915,0,0,1,1.2-5.49q.516.378.876.7a2.842,2.842,0,0,0-.222.222q-.138.15-.264.306T1.392-4.008Zm9.78,4.9q-.108-.132-.3-.324a2.924,2.924,0,0,0-.36-.312V.516H6.948v-3.36h3.564V.084A3.283,3.283,0,0,0,12.084-1.4a5.779,5.779,0,0,0,.492-2.3H11.352V-7.536h2.8q.2-.348.432-.81t.426-.924a6.884,6.884,0,0,0,.294-.8l1.068.276q-.1.228-.276.618t-.4.828q-.222.438-.426.81h1.488v3.828H15.4v3a.285.285,0,0,0,.066.216.45.45,0,0,0,.282.06h.468A.775.775,0,0,0,16.566-.5a.479.479,0,0,0,.192-.324,5.571,5.571,0,0,0,.114-.822,3.155,3.155,0,0,0,.462.2q.294.108.51.168A4.046,4.046,0,0,1,17.592-.06a.993.993,0,0,1-.5.546,2.12,2.12,0,0,1-.834.138h-.852a1.357,1.357,0,0,1-.822-.192.714.714,0,0,1-.246-.6v-3.54H13.6a6.786,6.786,0,0,1-.6,2.8A4.053,4.053,0,0,1,11.172.888ZM12.42-4.68h3.264v-1.9H12.42ZM6.4-6.972v-.876h4.488v.876Zm.588-1.656v-.9h3.372v.9ZM6.972-3.636v-.888h3.384v.888Zm0-1.668V-6.18h3.384V-5.3ZM7.944-.36H9.516V-1.968H7.944Zm4.764-7.26a6.813,6.813,0,0,0-.33-.666q-.2-.354-.408-.678a3.755,3.755,0,0,0-.4-.528l.9-.5q.2.252.432.588t.432.672q.2.336.336.6a2.614,2.614,0,0,0-.294.144q-.2.108-.39.216ZM21.564.912a2.4,2.4,0,0,0-.288-.468,2.856,2.856,0,0,0-.384-.42,5.812,5.812,0,0,0,1.854-.96,3.518,3.518,0,0,0,1.08-1.524,6.59,6.59,0,0,0,.354-2.316V-9.588H28.8v9.3q0,1.14-1.332,1.14h-.96q-.024-.228-.1-.57a2.849,2.849,0,0,0-.156-.534h1.008a.565.565,0,0,0,.36-.09.413.413,0,0,0,.108-.33V-3.444H25.164A5.059,5.059,0,0,1,24.024-.7,6.216,6.216,0,0,1,21.564.912Zm-2.688-3.3V-9.276h4.092v6.888Zm6.36-1.992h2.5V-6.036H25.248v1.26q0,.1-.006.2T25.236-4.38Zm.012-2.592h2.484V-8.58H25.248ZM19.956-3.4h1.968v-2H19.956Zm0-2.952h1.968V-8.3H19.956ZM39.744.984A5.816,5.816,0,0,0,39.33.342q-.258-.354-.558-.714-.54.108-1.248.228T36.036.084q-.78.108-1.56.2t-1.47.162q-.69.072-1.206.108l-.216-1.1q.276,0,.654-.024t.822-.06q.2-.312.438-.732t.462-.876q.228-.456.4-.84H31.1v-1H40.9v1H35.64q-.252.552-.588,1.182T34.4-.756q.972-.1,1.944-.216t1.692-.24a8.787,8.787,0,0,0-1.032-1l.828-.66a7.484,7.484,0,0,1,.7.618q.4.39.81.846t.768.894q.354.438.57.762-.1.06-.294.2t-.378.288A2.148,2.148,0,0,0,39.744.984ZM30.888-5.052a2.21,2.21,0,0,0-.192-.3q-.132-.18-.276-.354a2.508,2.508,0,0,0-.252-.27,9.793,9.793,0,0,0,1.554-.768A15.85,15.85,0,0,0,33.27-7.806,12.282,12.282,0,0,0,34.6-8.994a6.353,6.353,0,0,0,.906-1.158l1.02.144a7.633,7.633,0,0,0,.972,1.1,13.461,13.461,0,0,0,1.308,1.086,15.1,15.1,0,0,0,1.494.966,11.575,11.575,0,0,0,1.518.726q-.144.18-.348.474t-.36.57a14.777,14.777,0,0,1-1.884-1.026A15.015,15.015,0,0,1,37.41-7.47,9.713,9.713,0,0,1,36-8.964a7.523,7.523,0,0,1-.984,1.1,14.775,14.775,0,0,1-1.32,1.1q-.72.534-1.446.978A12.59,12.59,0,0,1,30.888-5.052Zm2.28-.216V-6.276h5.688v1.008Z" transform="translate(129.329 261.735) rotate(-10)"/><path class="e" d="M-67.152.912A11.608,11.608,0,0,1-70.134-1.77a9.354,9.354,0,0,1-1.7-3.69,8.853,8.853,0,0,1-1.032,2.55A10.072,10.072,0,0,1-74.616-.732a9.891,9.891,0,0,1-2.3,1.62A3.382,3.382,0,0,0-77.25.4a3.914,3.914,0,0,0-.39-.438,9.038,9.038,0,0,0,2.484-1.728A8.322,8.322,0,0,0-73.53-4.038a9.066,9.066,0,0,0,.81-2.646l.684.12q-.06-.468-.09-.96t-.03-1.008h-2.856V-9.576h3.984a13.958,13.958,0,0,0,.288,4.032,7.861,7.861,0,0,0,1.5,3.12A9.758,9.758,0,0,0-66.312-.036a1.9,1.9,0,0,0-.282.258q-.162.174-.312.36T-67.152.912Zm5.232.012a4.817,4.817,0,0,0-.1-.546,2.552,2.552,0,0,0-.156-.5h1.26a.565.565,0,0,0,.36-.09.4.4,0,0,0,.108-.318V-2.16h-4.812v-.96h4.812v-.84h.5q.288-.192.678-.462a7.617,7.617,0,0,0,.678-.522h-4.572v-.924h6.12l.48.468q-.228.228-.594.528t-.786.606q-.42.306-.792.558t-.624.4v.192h4.608v.96h-4.608V-.2q0,1.128-1.308,1.128ZM-65.112-5.04V-7.7h2a4.852,4.852,0,0,0-.27-.594q-.174-.33-.366-.642a3.8,3.8,0,0,0-.36-.5l.936-.444a6.4,6.4,0,0,1,.4.54q.216.324.408.66a4.322,4.322,0,0,1,.288.588l-.876.4h4.38q.216-.288.48-.726t.5-.882a7.491,7.491,0,0,0,.342-.72l1.1.3a10.82,10.82,0,0,1-.522,1q-.33.57-.642,1.026h2.424V-5.04h-1.056V-6.8h-8.124V-5.04Zm4.716-2.7a4.587,4.587,0,0,0-.234-.63q-.162-.366-.36-.726a4.319,4.319,0,0,0-.378-.588l1-.372a4.8,4.8,0,0,1,.366.564q.2.348.372.708a4.869,4.869,0,0,1,.258.624Zm13.26,7.692a2.364,2.364,0,0,0-.258-.546,2.092,2.092,0,0,0-.39-.5,5.02,5.02,0,0,0,1.836-.624,3.451,3.451,0,0,0,1.17-1.116,2.9,2.9,0,0,0,.45-1.428,3.2,3.2,0,0,0-.2-1.326,3.206,3.206,0,0,0-.666-1.062,3.335,3.335,0,0,0-1-.726,3.237,3.237,0,0,0-1.218-.306,16.214,16.214,0,0,1-.348,2.352,11.8,11.8,0,0,1-.714,2.208,6.243,6.243,0,0,1-1.074,1.7,1.615,1.615,0,0,1-.846.54,1.539,1.539,0,0,1-.894-.108,2.126,2.126,0,0,1-.816-.63,3.089,3.089,0,0,1-.552-1.05,3.744,3.744,0,0,1-.156-1.32,4.986,4.986,0,0,1,.5-1.944,4.81,4.81,0,0,1,1.182-1.53,5.137,5.137,0,0,1,1.7-.972,5.352,5.352,0,0,1,2.052-.27,4.527,4.527,0,0,1,1.632.4,4.459,4.459,0,0,1,1.356.948,4.179,4.179,0,0,1,.906,1.4,4.213,4.213,0,0,1,.27,1.776,4.007,4.007,0,0,1-1.116,2.64A5.462,5.462,0,0,1-47.136-.048ZM-50.976-2.1a.534.534,0,0,0,.312.078.505.505,0,0,0,.348-.186,4.709,4.709,0,0,0,.846-1.344,11,11,0,0,0,.63-1.908,12.891,12.891,0,0,0,.324-2.148,3.83,3.83,0,0,0-1.62.7,3.985,3.985,0,0,0-1.128,1.3,3.88,3.88,0,0,0-.468,1.68A2.364,2.364,0,0,0-51.54-2.79,1.538,1.538,0,0,0-50.976-2.1ZM-38.616.948a4.174,4.174,0,0,0-.27-.468A2.79,2.79,0,0,0-39.24.024a5.465,5.465,0,0,0,2.262-1.476,5.014,5.014,0,0,0,1.122-2.364h-2.892v-1h3.036a3.439,3.439,0,0,0,.024-.4V-7.02H-38v-.972h2.316v-2.052H-34.6v2.052h2.832v3.18h1.236v1h-3.708a6.221,6.221,0,0,0,.894,1.56,6.553,6.553,0,0,0,1.32,1.278,6.522,6.522,0,0,0,1.6.858,1.892,1.892,0,0,0-.252.294q-.144.2-.258.39a3.126,3.126,0,0,0-.162.3A7.807,7.807,0,0,1-33.426-.744a7.264,7.264,0,0,1-1.518-2.328A6.21,6.21,0,0,1-38.616.948ZM-40.572.672l-.912-.7a8.6,8.6,0,0,0,.564-.828q.3-.492.594-1.038t.534-1.062a9.541,9.541,0,0,0,.372-.9q.072.072.234.21t.336.276a2.248,2.248,0,0,0,.282.2,7.641,7.641,0,0,1-.36.882q-.24.51-.534,1.068t-.582,1.056Q-40.332.336-40.572.672Zm5.94-5.484h1.764V-7.02H-34.6v1.4Q-34.6-5.208-34.632-4.812Zm-5.04-.144a5.136,5.136,0,0,0-.588-.462q-.372-.258-.762-.5a4.649,4.649,0,0,0-.69-.36l.552-.876q.336.156.726.372t.756.456a4.372,4.372,0,0,1,.618.48q-.06.072-.192.252t-.252.36A2.848,2.848,0,0,0-39.672-4.956Zm.8-2.64a7.067,7.067,0,0,0-.588-.456q-.372-.264-.762-.5a4.65,4.65,0,0,0-.69-.36l.564-.852a7.037,7.037,0,0,1,.714.36q.4.228.78.48a4.608,4.608,0,0,1,.606.468q-.06.072-.192.246t-.258.348A2.154,2.154,0,0,0-38.868-7.6ZM-23.532.084a1.934,1.934,0,0,0-.216-.528A2.514,2.514,0,0,0-24.1-.936a4.331,4.331,0,0,0,2.6-.876,2.586,2.586,0,0,0,.93-2.088,2.051,2.051,0,0,0-.54-1.44,2.844,2.844,0,0,0-1.428-.816q-.336.708-.732,1.38T-24.1-3.5a5.659,5.659,0,0,0,.756.468,1.6,1.6,0,0,0-.378.39A2.993,2.993,0,0,0-24-2.184a5.044,5.044,0,0,1-.768-.48,8.35,8.35,0,0,1-.78.774,5.494,5.494,0,0,1-.78.57,2.266,2.266,0,0,1-1.134.36,1.051,1.051,0,0,1-.84-.372,1.681,1.681,0,0,1-.318-1.116,3.918,3.918,0,0,1,.39-1.7,5.243,5.243,0,0,1,1.038-1.47,14.238,14.238,0,0,1-.654-1.308q-.282-.648-.474-1.236l.972-.408a6.057,6.057,0,0,0,.336,1.1,10.245,10.245,0,0,0,.576,1.2,5.674,5.674,0,0,1,1.368-.7,4.447,4.447,0,0,1,1.488-.258q.1,0,.174.006t.162.006a11.179,11.179,0,0,0,.39-1.134,9.46,9.46,0,0,0,.246-1.1l1.1.288a15.211,15.211,0,0,1-.648,2.112,3.939,3.939,0,0,1,1.446.684,3.275,3.275,0,0,1,.93,1.1A2.935,2.935,0,0,1-19.452-3.9,3.648,3.648,0,0,1-20.5-1.236,4.989,4.989,0,0,1-23.532.084ZM-26.808-2.2a4.7,4.7,0,0,0,1.284-1.14,7.629,7.629,0,0,1-.6-.678q-.288-.366-.552-.75a4.043,4.043,0,0,0-.7,1.1,3.035,3.035,0,0,0-.252,1.194Q-27.624-1.74-26.808-2.2Zm1.932-1.98a16.23,16.23,0,0,0,1.224-2.1,3.573,3.573,0,0,0-1.2.234,4.526,4.526,0,0,0-1.08.582q.24.336.5.666A7.489,7.489,0,0,0-24.876-4.176ZM-13.944.756q-.024-.228-.1-.57A2.849,2.849,0,0,0-14.2-.348h1.272a.565.565,0,0,0,.36-.09.413.413,0,0,0,.108-.33v-2.22h-4.98V-4.044h4.98v-1.5h-4V-6.576h4V-8.124q-1.044.084-2.088.132t-1.992.048q-.036-.2-.114-.54a3.206,3.206,0,0,0-.15-.5q.78.024,1.692.006t1.872-.09q.96-.072,1.872-.18t1.692-.27A9.414,9.414,0,0,0-8.34-9.888l.7.936a14.258,14.258,0,0,1-1.686.414q-.93.174-1.95.294v1.668h3.744v1.032H-11.28v1.5h4.728v1.056H-11.28v2.6a1.064,1.064,0,0,1-.33.864,1.536,1.536,0,0,1-1,.276ZM.108.084A2.088,2.088,0,0,1-1.272-.39a1.38,1.38,0,0,1-.492-1.1,1.243,1.243,0,0,1,.258-.756,1.814,1.814,0,0,1,.75-.564A2.946,2.946,0,0,1,.432-3.024a5.689,5.689,0,0,1,.912.072Q1.32-3.528,1.3-4.314T1.248-6.048Q.468-6-.27-5.988T-1.512-6L-1.6-7.128q.468.048,1.23.054t1.59-.03q-.012-.492-.018-1.02T1.2-9.192H2.28q-.012.5-.012,1.014v1q.744-.06,1.368-.138a6.916,6.916,0,0,0,.924-.162v1.1q-.336.06-.942.126T2.292-6.12q.024,1.032.06,1.914t.072,1.518a8.1,8.1,0,0,1,1.3.582,9.508,9.508,0,0,1,1.26.846A1.881,1.881,0,0,0,4.752-1a4.6,4.6,0,0,0-.264.378,2.65,2.65,0,0,0-.168.3A8.184,8.184,0,0,0,2.46-1.608,1.518,1.518,0,0,1,1.806-.276,2.848,2.848,0,0,1,.108.084Zm-4.3.192A10.616,10.616,0,0,1-4.32-.9q-.048-.72-.066-1.614t0-1.842q.018-.948.066-1.854t.126-1.668a12.077,12.077,0,0,1,.186-1.266l1.068.252a7.1,7.1,0,0,0-.222,1.14q-.09.708-.138,1.572T-3.36-4.4q-.012.912.012,1.776t.084,1.572A9.4,9.4,0,0,0-3.108.1ZM.18-.864a1.574,1.574,0,0,0,.9-.21.8.8,0,0,0,.3-.7v-.2a4.441,4.441,0,0,0-.5-.09q-.252-.03-.5-.042a1.5,1.5,0,0,0-.828.174.54.54,0,0,0-.3.462.487.487,0,0,0,.24.438A1.21,1.21,0,0,0,.18-.864ZM11.556.624A1.918,1.918,0,0,1,10.218.138,1.468,1.468,0,0,1,9.756-.984a1.355,1.355,0,0,1,.258-.756,1.654,1.654,0,0,1,.72-.552,2.649,2.649,0,0,1,1.146-.18q.216.012.432.03t.42.054V-5.34h1.044v3.216a7.2,7.2,0,0,1,1.344.588,9.583,9.583,0,0,1,1.188.792,2.348,2.348,0,0,0-.354.444,3.181,3.181,0,0,0-.27.492,8.13,8.13,0,0,0-1.908-1.26,1.571,1.571,0,0,1-.6,1.3A2.529,2.529,0,0,1,11.556.624ZM8.208-1.536a2.984,2.984,0,0,0-.252-.186q-.168-.114-.354-.222A2.066,2.066,0,0,0,7.284-2.1,9.978,9.978,0,0,0,8.652-4.128,14.7,14.7,0,0,0,9.66-6.588q-.672.108-1.254.186t-.918.1L7.332-7.344q.444-.012,1.14-.078t1.464-.186q.132-.576.21-1.14a9.617,9.617,0,0,0,.09-1.1l1.044.132q-.048.48-.114.966T11-7.8q.48-.1.912-.192t.756-.192l.132,1q-.372.1-.906.21t-1.134.21A16.134,16.134,0,0,1,9.7-3.942,13.379,13.379,0,0,1,8.208-1.536Zm7.764-3.708a4.821,4.821,0,0,0-.7-.606q-.45-.33-.936-.618a5.29,5.29,0,0,0-.846-.42L14.04-7.7a6.126,6.126,0,0,1,.636.3q.36.192.738.426t.7.474a5.948,5.948,0,0,1,.528.432ZM11.628-.312a1.263,1.263,0,0,0,.816-.234.911.911,0,0,0,.288-.75V-1.44a5.717,5.717,0,0,0-.924-.12,1.345,1.345,0,0,0-.756.162.548.548,0,0,0-.288.45.53.53,0,0,0,.21.456A1.02,1.02,0,0,0,11.628-.312ZM20.04.24,18.984-.228q.132-.276.414-.84t.654-1.32q.372-.756.792-1.614l.84-1.716q.42-.858.8-1.62t.666-1.338q.288-.576.444-.864l1.116.5q-.252.36-.66,1.08t-.894,1.65q-.486.93-.978,1.9a3.071,3.071,0,0,1,.72-.432,1.939,1.939,0,0,1,.756-.156,1.289,1.289,0,0,1,1.14.468,2.477,2.477,0,0,1,.324,1.4q0,.18-.012.48t-.012.492a1.7,1.7,0,0,0,.162.9.729.729,0,0,0,.63.228,1.69,1.69,0,0,0,1.242-.63,4.946,4.946,0,0,0,.966-1.686,4.267,4.267,0,0,0,.426.438,5.7,5.7,0,0,0,.438.366Q27.732.108,25.728.108a1.682,1.682,0,0,1-1.26-.432,2.149,2.149,0,0,1-.42-1.512q0-.1.006-.288t.012-.4q.006-.2.006-.336a1.576,1.576,0,0,0-.18-.87.693.693,0,0,0-.612-.258,1.74,1.74,0,0,0-.834.216,2.715,2.715,0,0,0-.732.582,3.277,3.277,0,0,0-.534.8q-.408.876-.708,1.548A11.48,11.48,0,0,0,20.04.24Zm18.684.1a5.065,5.065,0,0,1-2.118-.72,4.2,4.2,0,0,1-1.44-1.488,4.033,4.033,0,0,1-.522-2.04,4.093,4.093,0,0,1,.2-1.242,4.672,4.672,0,0,1,.63-1.254,4.606,4.606,0,0,1,1.062-1.08l-1.512.27q-.768.138-1.482.27T32.268-6.7q-.564.114-.888.2l-.252-1.188q.4-.036,1.08-.12t1.536-.216q.852-.132,1.764-.282t1.764-.306q.852-.156,1.536-.3t1.08-.252l.288,1.128q-.156.012-.414.048l-.582.084a3.79,3.79,0,0,0-1.3.462,4.362,4.362,0,0,0-1.1.894,4.1,4.1,0,0,0-.75,1.218,3.808,3.808,0,0,0-.27,1.422A2.66,2.66,0,0,0,36.24-2.3a3.265,3.265,0,0,0,1.29,1.038,5.918,5.918,0,0,0,1.806.5,2.872,2.872,0,0,0-.372.552A2.87,2.87,0,0,0,38.724.336Zm2.028-5.352a4.395,4.395,0,0,0-.408-.522q-.252-.282-.516-.54a5.781,5.781,0,0,0-.48-.426l.528-.444a4.711,4.711,0,0,1,.474.426q.282.282.546.57a5.212,5.212,0,0,1,.408.492Zm-1.02.888a4.816,4.816,0,0,0-.4-.54q-.24-.288-.5-.552a4.8,4.8,0,0,0-.474-.432l.528-.432a5.864,5.864,0,0,1,.468.438q.276.282.534.582t.4.5ZM46.056.7q-.108-.18-.288-.438a2.142,2.142,0,0,0-.42-.45,5.509,5.509,0,0,0,2.04-.984A2.689,2.689,0,0,0,48.3-2.6a1.573,1.573,0,0,1-1,.36A1.8,1.8,0,0,1,45.99-2.73a1.757,1.757,0,0,1-.522-1.254A1.847,1.847,0,0,1,45.7-4.95a1.75,1.75,0,0,1,.672-.672,1.953,1.953,0,0,1,.984-.246q.132,0,.258.012a1.274,1.274,0,0,1,.246.048q-.036-.276-.066-.582t-.03-.63q-.984.036-1.914.1t-1.71.156q-.78.09-1.308.2l-.18-1.068q.48-.048,1.278-.1t1.794-.1q1-.054,2.04-.1V-9.744h1.068v1.776q.912-.048,1.758-.072l1.542-.042q.7-.018,1.14-.006L53.208-7q-.732-.072-1.9-.09t-2.478.03q0,.468.03.966t.066.954a2.655,2.655,0,0,1,.516,1.7,3.813,3.813,0,0,1-.894,2.538A5.361,5.361,0,0,1,46.056.7Zm1.26-3.888a.828.828,0,0,0,.582-.234A.772.772,0,0,0,48.12-4q0-.132-.012-.276t-.036-.3a.911.911,0,0,0-.708-.324.891.891,0,0,0-.63.24.778.778,0,0,0-.246.624.853.853,0,0,0,.228.612A.753.753,0,0,0,47.316-3.192ZM55.848.192A1.783,1.783,0,0,0,55.6,0q-.18-.12-.366-.234a1.067,1.067,0,0,0-.294-.138,8.465,8.465,0,0,0,.972-1.338,17.019,17.019,0,0,0,.912-1.752q.432-.954.768-1.95-.648.084-1.254.174a9.863,9.863,0,0,0-.978.186q-.012-.108-.054-.318t-.1-.42a2.305,2.305,0,0,0-.09-.294q.288-.024.732-.066t.972-.1q.528-.06,1.056-.108a14.656,14.656,0,0,0,.384-1.524,12.035,12.035,0,0,0,.192-1.392l1.08.192A9.683,9.683,0,0,1,59.34-7.83q-.144.666-.348,1.374.564-.036.924-.036a2.093,2.093,0,0,1,.822.15,1.136,1.136,0,0,1,.558.522,2.332,2.332,0,0,1,.228,1.026,7.48,7.48,0,0,1-.18,1.674,9.629,9.629,0,0,1-.5,1.824,2.222,2.222,0,0,1-.708.99A1.8,1.8,0,0,1,59.064,0a2.873,2.873,0,0,1-.648-.072,1.958,1.958,0,0,1-.6-.252q.012-.216.012-.54a3.144,3.144,0,0,0-.036-.528,2.189,2.189,0,0,0,1.164.348.852.852,0,0,0,.558-.192,1.622,1.622,0,0,0,.42-.69,10.322,10.322,0,0,0,.378-1.41,7.045,7.045,0,0,0,.168-1.188,1.606,1.606,0,0,0-.09-.672.536.536,0,0,0-.282-.3,1.126,1.126,0,0,0-.42-.072q-.192,0-.444.012t-.54.036q-.372,1.116-.852,2.2t-.99,2A9.788,9.788,0,0,1,55.848.192ZM64.8-2.988a6.674,6.674,0,0,0-.534-.75q-.342-.426-.738-.858t-.774-.786a5.39,5.39,0,0,0-.666-.546l.8-.7a6.627,6.627,0,0,1,.7.576q.39.36.792.774t.744.816a6.692,6.692,0,0,1,.534.7Zm6.732.78-.144-2.748a4.953,4.953,0,0,0,1.248-.276,1.918,1.918,0,0,0,.846-.588,1.55,1.55,0,0,0,.306-1A1.739,1.739,0,0,0,73.3-8.13,1.789,1.789,0,0,0,72-8.6a1.8,1.8,0,0,0-1.3.492A2.111,2.111,0,0,0,70.08-6.84l-1.236-.192a2.975,2.975,0,0,1,.51-1.416,2.919,2.919,0,0,1,1.11-.954A3.387,3.387,0,0,1,72-9.744a3.472,3.472,0,0,1,1.6.354,2.658,2.658,0,0,1,1.092,1.008,2.967,2.967,0,0,1,.4,1.566,2.272,2.272,0,0,1-.714,1.752,3.9,3.9,0,0,1-1.83.912l-.072,1.944ZM72,.624a.843.843,0,0,1-.618-.258.843.843,0,0,1-.258-.618.824.824,0,0,1,.258-.612A.853.853,0,0,1,72-1.116a.853.853,0,0,1,.618.252.824.824,0,0,1,.258.612.843.843,0,0,1-.258.618A.843.843,0,0,1,72,.624Z" transform="matrix(0.995, 0.105, -0.105, 0.995, 232.792, 224.518)"/></g></g></svg>