<svg xmlns="http://www.w3.org/2000/svg" xmlns:xlink="http://www.w3.org/1999/xlink" width="121.04" height="155.808" viewBox="0 0 121.04 155.808"><defs><style>.a{fill:#fff;}.b{fill:url(#a);}.c{fill:#010326;}</style><linearGradient id="a" x1="0.5" x2="1" y2="1" gradientUnits="objectBoundingBox"><stop offset="0" stop-color="#e345e6"/><stop offset="0.559" stop-color="#4fc2e6"/><stop offset="0.64" stop-color="#45cbe6"/><stop offset="1" stop-color="#360a73"/></linearGradient></defs><g transform="translate(-128.04 -249)"><g transform="translate(156 249)"><path class="a" d="M1,60V47H49V60ZM0,45V0H54V45Z" transform="translate(4.864 5)"/><path class="b" d="M58.5,72h-45A13.515,13.515,0,0,1,0,58.5v-45A13.515,13.515,0,0,1,13.5,0h45A4.505,4.505,0,0,1,63,4.5v45A4.505,4.505,0,0,1,58.5,54v9a4.5,4.5,0,0,1,0,9Zm-45-18a4.5,4.5,0,0,0,0,9h36V54Zm5.75-17C18.043,37,17,37,17,38.25s1.043,1.25,2.25,1.25h27c1.207,0,2.25,0,2.25-1.25S47.457,37,46.25,37Zm0-10C18.043,27,17,27,17,28.25s1.043,1.25,2.25,1.25h27c1.207,0,2.25,0,2.25-1.25S47.457,27,46.25,27Zm-.266-5.648a.6.6,0,0,0-.6.724c.038.554.487.834,1.333.834.09,0,.191,0,.309-.012a6.133,6.133,0,0,0,3.96-1.624c1.2-1.173,1.715-3.016,1.543-5.476l-.079-1.136c-.082-1.157-.377-1.744-.878-1.744l-.046,0c-.261.018-.5.258-.733.733a15.381,15.381,0,0,1-1.1,2.054,1.646,1.646,0,0,1-1.117.845l-.046,0c-.236,0-.355-.137-.376-.432a15,15,0,0,1,.042-1.588q.015-.258.029-.471c.032-.517.051-.829.042-.949a2.714,2.714,0,0,0-.28-1.071c-.168-.342-.385-.515-.643-.515h-.04a.807.807,0,0,0-.573.225.627.627,0,0,0-.128.471,1.4,1.4,0,0,0,.115.435,2.111,2.111,0,0,1,.116.435,15.4,15.4,0,0,1-.027,1.57,15.016,15.016,0,0,0-.007,1.6,1.959,1.959,0,0,0,.571,1.34,1.464,1.464,0,0,0,1.126.461c.054,0,.11,0,.166-.006.861-.061,1.707-.756,2.514-2.067a10.267,10.267,0,0,1-.02,1.654A3.953,3.953,0,0,1,22.913,20.3a5.1,5.1,0,0,1-3.006,1.094c-.408-.022-.719-.035-.923-.038Zm-4.8-10.6h0c.562,3,.845,4.437.977,4.955a14.556,14.556,0,0,0,1.712,4.5c.409.634.807.956,1.181.956l.045,0a.77.77,0,0,0,.493-.257.835.835,0,0,0,.185-.524,2.274,2.274,0,0,0-.129-.293c-.038-.08-.082-.175-.133-.285a1.256,1.256,0,0,0-.643-.654,9.517,9.517,0,0,1-1.148-3c-.086-.35-.327-1.389-.719-3.461a21.3,21.3,0,0,0-1.076-3.946.681.681,0,0,0-.634-.5l-.049,0a.609.609,0,0,0-.553.38,27.81,27.81,0,0,0-1.967,6.239A19.707,19.707,0,0,1,8.594,8.276a.676.676,0,0,0-.647-.549l-.055,0a.671.671,0,0,0-.635.436,18.291,18.291,0,0,0-.616,1.9.965.965,0,0,0-.428-.122H6.171a.689.689,0,0,0-.5.209.7.7,0,0,0-.133.516v.014c.01.133.022.3.052.493.009.139.023.256.035.35.008.068.015.126.018.175a22.884,22.884,0,0,1-.007,2.336c-.047,1.3-.058,2.09-.035,2.422a6.9,6.9,0,0,0,.309,1.733c.225.639.505.963.834.963h.035c.4-.028.587-.376.573-1.063-.054-1.257-.052-2.456.006-3.562a28.935,28.935,0,0,1,.53-4.127A14.838,14.838,0,0,0,9.3,13.68a10.271,10.271,0,0,0,2.037,2.805,1.27,1.27,0,0,0,.836.435l.046,0c.351-.024.563-.274.63-.743A37.171,37.171,0,0,1,14.185,10.752ZM28.638,7.677l-.062,0a.855.855,0,0,0-.5.325.791.791,0,0,0-.252.545.388.388,0,0,0,.085.233,51.036,51.036,0,0,0-.47,9.372l.1,1.425a.619.619,0,0,0,.271.458.7.7,0,0,0,.456.205H28.3c.3-.021.479-.2.541-.55a11,11,0,0,0,.205-2.178.943.943,0,0,0-.149-.416l-.152.011a42.957,42.957,0,0,1,.269-6.137,17.465,17.465,0,0,0,1.859,2.443c.311.359.973,1.043,2.148,2.219,1.007,1.028,1.44,1.458,1.5,1.514.28.243.445.345.57.352a.737.737,0,0,0,.409.158h.029a.613.613,0,0,0,.646-.744c0-.016-.023-.12-.067-.327l-.009-.043a23.347,23.347,0,0,1-.532-2.723,23.3,23.3,0,0,1,.51-7.09,2.735,2.735,0,0,0,.094-.6.694.694,0,0,0-.237-.46.67.67,0,0,0-.438-.19H35.46a.708.708,0,0,0-.625.572,15.418,15.418,0,0,0-.571,3.533,24.127,24.127,0,0,0-.072,3.6c.039.563.113,1.2.218,1.894-2.717-2.654-4.391-4.761-5.12-6.442.008-.046.017-.086.024-.122a.675.675,0,0,0,.023-.17.694.694,0,0,0-.239-.5A.683.683,0,0,0,28.638,7.677Zm17.792,4.053h0l-.337,2.476a13.8,13.8,0,0,0-.153,2.448c.062.886.352,1.335.862,1.335l.066,0a.77.77,0,0,0,.478-.238.678.678,0,0,0,.2-.491.7.7,0,0,0-.3-.576,15.771,15.771,0,0,1,.16-2.584c.047-.339.183-1.207.388-2.5.062,0,.142-.008.243-.012.174-.007.409-.017.707-.038.45-.015.728-.034.862-.044h.021a.825.825,0,0,0,.56.2q.042,0,.085,0a.581.581,0,0,0,.423-.285.962.962,0,0,0,.148-.572c-.037-.524-.508-.779-1.441-.779h-.1c-.354.016-.636.027-.846.036s-.352.014-.411.018c.157-1.116.316-2.045.472-2.76l.072-.289c.092-.369.171-.687.232-.976-.082-.481-.314-.715-.708-.715l-.074,0c-.3.021-.5.219-.572.586-.246,1.093-.524,2.534-.825,4.284a1.863,1.863,0,0,0-.789.175.617.617,0,0,0-.262.632.642.642,0,0,0,.721.678c.035,0,.071,0,.108,0Zm-5.635-.986h-.006a1,1,0,0,0-.477.255,4.466,4.466,0,0,1-.539.328,3.114,3.114,0,0,0-1.285,1.606,4.408,4.408,0,0,0-.347,2.1,3.174,3.174,0,0,0,.845,2.088,2.3,2.3,0,0,0,1.661.713c.063,0,.121,0,.177-.006a2.483,2.483,0,0,0,1.988-1.3,4.957,4.957,0,0,0,.63-2.941,3.156,3.156,0,0,0-.687-1.776,3.064,3.064,0,0,0-1.553-1A3.414,3.414,0,0,0,40.794,10.745Zm13.421,4.616h0A3.008,3.008,0,0,0,56.9,16.919c.088,0,.184,0,.284-.01,1.12-.078,1.692-.407,1.654-.951a.818.818,0,0,0-.238-.494.711.711,0,0,0-.455-.188h-.036a3.931,3.931,0,0,0-.424.071l-.216.042a6.393,6.393,0,0,1-.641.1c-.037,0-.075,0-.112,0a1.767,1.767,0,0,1-1.3-.638c1.624-1.03,2.4-2.184,2.316-3.433a1.894,1.894,0,0,0-.7-1.3,1.82,1.82,0,0,0-1.189-.528q-.046,0-.092,0a2.071,2.071,0,0,0-1.71,1.381,4.574,4.574,0,0,0-.45,2.333,4.03,4.03,0,0,0,.116.69l-.39.027-.07,0a1.21,1.21,0,0,1-.643-.208,1.224,1.224,0,0,0-.514-.22h-.012c-.439.031-.644.287-.611.759.027.382.325.662.912.857a3.324,3.324,0,0,0,1.093.188c.076,0,.154,0,.232-.008l.508-.036Zm-13.583,1.05a.92.92,0,0,1-.773-.421,1.77,1.77,0,0,1-.4-1.046,3,3,0,0,1,.284-1.553,1.365,1.365,0,0,1,1.112-.913,1.169,1.169,0,0,0,.534.111c.044,0,.091,0,.138,0,.336.18.539.649.59,1.356a2.958,2.958,0,0,1-.364,1.627,1.384,1.384,0,0,1-1.049.841Zm14.375-2.894v0l-.021-.3a3.5,3.5,0,0,1,.145-1.34c.133-.518.355-.791.659-.813h.028a.73.73,0,0,1,.391.142.657.657,0,0,1,.2.378c.039.557-.43,1.209-1.4,1.937Z"/></g><g transform="translate(0 -8)"><path class="c" d="M-29.68,3.08c0-.08-.2-.56-.52-1.4A2.929,2.929,0,0,0-31.6.04,22.568,22.568,0,0,1-33.8-7.2c-.24-1.4-.64-4.16-1.12-8.24a50.059,50.059,0,0,0-1.88-9.44,1.589,1.589,0,0,0-1.52-1.28,1.433,1.433,0,0,0-1.36.8,65.115,65.115,0,0,0-5.64,14.32c-2.44-3.32-4.52-8.64-6.28-15.96-.24-.92-.76-1.4-1.56-1.4a1.578,1.578,0,0,0-1.56.92,42.8,42.8,0,0,0-1.76,4.36,2.152,2.152,0,0,0-1.08-.36,1.42,1.42,0,0,0-1.6,1.6c0,.32,0,.72.04,1.2,0,.56.04.96.04,1.24a54.908,54.908,0,0,1-.4,5.48c-.32,3-.48,4.88-.48,5.68a16.273,16.273,0,0,0,.44,4.12c.44,1.6,1.08,2.4,1.88,2.4.96,0,1.44-.8,1.52-2.4.08-2.96.28-5.76.6-8.36a67.866,67.866,0,0,1,1.92-9.6,34.813,34.813,0,0,0,2.76,7.92,24.062,24.062,0,0,0,4.32,6.92,2.869,2.869,0,0,0,2,1.16c.8,0,1.36-.52,1.6-1.64a87.524,87.524,0,0,1,4.04-12.52c.76,6.56,1.24,10.48,1.48,11.8.8,4.8,1.92,8.44,3.28,10.84.88,1.6,1.8,2.44,2.72,2.44a1.811,1.811,0,0,0,1.2-.52A1.987,1.987,0,0,0-29.68,3.08Zm15.8-9.64V-9.24c0-2.8-.64-4.24-1.88-4.24-.64,0-1.24.56-1.84,1.6a36.768,36.768,0,0,1-2.92,4.64q-1.44,1.8-2.76,1.8c-.64,0-.92-.36-.92-1.08a35.535,35.535,0,0,1,.36-3.72c.24-1.84.4-2.96.4-3.32a6.355,6.355,0,0,0-.48-2.56c-.36-.88-.88-1.32-1.52-1.32-1.2,0-1.76.52-1.76,1.52a3.248,3.248,0,0,0,.2,1.04,5,5,0,0,1,.2,1.04,35.78,35.78,0,0,1-.32,3.68A34.251,34.251,0,0,0-27.4-6.4a4.632,4.632,0,0,0,1.12,3.24,3.554,3.554,0,0,0,2.96,1.28q3.06,0,6.24-4.44a24.182,24.182,0,0,1-.32,3.88c-.96,5.32-4.48,8-10.6,8.08q-1.44-.18-2.16-.24A1.413,1.413,0,0,0-31.68,7c0,1.44,1.24,2.2,3.72,2.2A14.343,14.343,0,0,0-18.4,6.04C-15.4,3.48-13.88-.68-13.88-6.56ZM11.88-27.52a1.651,1.651,0,0,0-.48-1.12,1.541,1.541,0,0,0-1.08-.52,1.671,1.671,0,0,0-1.56,1.24,36,36,0,0,0-1.92,8.2,56.371,56.371,0,0,0-.76,8.44c0,1,.04,2.48.2,4.48C.44-13.36-3.24-18.68-4.68-22.76a3.816,3.816,0,0,0,.16-.68A1.628,1.628,0,0,0-5-24.64a1.628,1.628,0,0,0-1.2-.48,2.04,2.04,0,0,0-1.24.68,1.85,1.85,0,0,0-.68,1.24.918.918,0,0,0,.16.56A119.644,119.644,0,0,0-10.6-.72V2.64a1.453,1.453,0,0,0,.56,1.12,1.594,1.594,0,0,0,1.12.56,1.336,1.336,0,0,0,1.36-1.2,26.079,26.079,0,0,0,.84-5.08,2.211,2.211,0,0,0-.28-1h-.36A101.219,101.219,0,0,1-5.72-17.32a41.256,41.256,0,0,0,3.96,6.04c.72.96,2.28,2.8,4.68,5.56,2.04,2.4,3.12,3.64,3.28,3.8.56.56.96.88,1.28.92a1.631,1.631,0,0,0,1,.44A1.444,1.444,0,0,0,10.12-2.2c0-.04-.04-.32-.12-.88a53.474,53.474,0,0,1-.8-6.48,54.509,54.509,0,0,1,2.36-16.56A6.679,6.679,0,0,0,11.88-27.52ZM26.92-8.8a7.415,7.415,0,0,0-1.32-4.28,7.186,7.186,0,0,0-3.48-2.6,7.191,7.191,0,0,0-.96-.24A2.359,2.359,0,0,0,20-15.4a10.583,10.583,0,0,1-1.32.68,7.353,7.353,0,0,0-3.28,3.56,10.326,10.326,0,0,0-1.16,4.88,7.5,7.5,0,0,0,1.64,5.04A5.388,5.388,0,0,0,20.08.72,5.822,5.822,0,0,0,24.96-2,11.575,11.575,0,0,0,26.92-8.8Zm-3.16.6a7.007,7.007,0,0,1-1.12,3.76,3.249,3.249,0,0,1-2.6,1.8,2.165,2.165,0,0,1-1.92-1.12,4.176,4.176,0,0,1-.76-2.52,7.1,7.1,0,0,1,.92-3.6,3.213,3.213,0,0,1,2.76-1.96,3,3,0,0,0,1.56.36C23.36-11,23.76-9.88,23.76-8.2Zm20.2-5.84c0-1.28-1.16-1.96-3.48-2.08-1.68-.04-2.68-.08-2.96-.08.56-2.64,1.08-4.76,1.56-6.4.36-1.12.68-2.08.92-2.92-.12-1.2-.68-1.8-1.72-1.8-.72,0-1.2.44-1.44,1.28-.72,2.4-1.6,5.68-2.64,9.92a4.546,4.546,0,0,0-1.88.28,1.451,1.451,0,0,0-.72,1.44c0,1.16.6,1.72,1.84,1.72l-1.2,5.76a32.389,32.389,0,0,0-.76,5.72c0,2.16.64,3.28,1.96,3.28A1.823,1.823,0,0,0,34.6,1.6,1.594,1.594,0,0,0,35.16.48a1.653,1.653,0,0,0-.6-1.4,37.008,37.008,0,0,1,.8-6.04c.16-.76.6-2.68,1.32-5.8.4,0,1.12.04,2.24.04,1.12.04,1.8.04,2.08.04a2.019,2.019,0,0,0,1.48.56,1.367,1.367,0,0,0,1.04-.6A2.273,2.273,0,0,0,43.96-14.04ZM61.08-.72a1.921,1.921,0,0,0-.48-1.2,1.628,1.628,0,0,0-1.12-.52c-.32,0-.84.08-1.52.16a14.6,14.6,0,0,1-1.52.12,4.071,4.071,0,0,1-3.2-1.72q6-3.24,6-7.68a4.441,4.441,0,0,0-1.44-3.16,4.156,4.156,0,0,0-2.92-1.44c-1.72,0-3.12,1-4.24,2.96A10.708,10.708,0,0,0,49.2-7.8a9.658,9.658,0,0,0,.16,1.64h-.92a2.768,2.768,0,0,1-1.64-.6,2.652,2.652,0,0,0-1.2-.6q-1.56,0-1.56,1.68c0,.88.64,1.6,2,2.16a7.734,7.734,0,0,0,3.08.64h1.2a7.092,7.092,0,0,0,6.72,4.12C59.72,1.24,61.08.56,61.08-.72Zm-5-10.68q0,1.98-3.6,4.32V-7.8a8.289,8.289,0,0,1,.56-3.12q.6-1.8,1.68-1.8a1.662,1.662,0,0,1,.96.4A1.558,1.558,0,0,1,56.08-11.4Z" transform="translate(188 379)"/><path class="c" d="M-27.888-7.024c0-.624-.4-1.088-1.184-1.392a5.826,5.826,0,0,0-2-.32,16.532,16.532,0,0,0-5.008.88,3.728,3.728,0,0,0-1.152.5.6.6,0,0,0-.208.464c0,.5.32.736.96.736a.763.763,0,0,0,.688-.368A8.523,8.523,0,0,1-33.76-7.1a13.859,13.859,0,0,1,2.272-.288,11.271,11.271,0,0,1,1.616.112c.4.064.608.144.608.224q0,.672-2.112,1.968c-.96.576-1.7,1.008-2.176,1.3a4.306,4.306,0,0,0-1.008-.272c-.416,0-.608.224-.608.672a.632.632,0,0,0,.48.672,16.105,16.105,0,0,1,2.8,1.008c.192.3.384.448.576.448.464,0,.7-.208.7-.64a1.226,1.226,0,0,0-.7-1.008c-.08-.048-.288-.16-.608-.32a17.782,17.782,0,0,0,3.152-2.192A2.3,2.3,0,0,0-27.888-7.024Zm13.68-3.7a.657.657,0,0,0-.176-.448.721.721,0,0,0-.448-.176c-.288,0-.672.352-1.152,1.04a.715.715,0,0,0-.144.448,31.76,31.76,0,0,1-4.3,4.432.847.847,0,0,0-.336.592c0,.448.208.672.656.672a1.405,1.405,0,0,0,.7-.432q2.016-1.872,2.5-2.352a14.81,14.81,0,0,1,.176,2.112q0,.7-.24,4.128c-.224.192-.336.352-.336.512,0,.064.048.352.144.88.112.736.352,1.12.736,1.12.416,0,.624-.24.64-.7,0-.256.064-1.2.192-2.864.1-1.472.144-2.56.144-3.232a9.7,9.7,0,0,0-.416-3.136,18.534,18.534,0,0,0,1.136-1.488A2.617,2.617,0,0,0-14.208-10.72Zm17.232.592a1.254,1.254,0,0,0-.176-.656.608.608,0,0,0-.48-.256q-.7,0-.816,1.2c.032.208.048.416.064.64A12.261,12.261,0,0,1,.784-6.448a18.984,18.984,0,0,1-2.848,5.12,2.588,2.588,0,0,1-1.28.848A.538.538,0,0,0-3.68.1c0,.464.208.7.64.7A2.786,2.786,0,0,0-1.3-.224,18.6,18.6,0,0,0,2.288-6.832,10.813,10.813,0,0,0,3.024-10.128ZM21.728-4.8a.826.826,0,0,0-.464-.7,2,2,0,0,0-1.04-.288,3.328,3.328,0,0,0-.48.064c-1.6-.144-3.184-.224-4.752-.224a17.915,17.915,0,0,0-3.264.24c-.768.16-1.152.352-1.152.608a.75.75,0,0,0,.3.592.952.952,0,0,0,.7.272,3.666,3.666,0,0,0,.88-.08,1.544,1.544,0,0,0,.656-.224,18.46,18.46,0,0,1,2.368-.144c.368,0,1.472.064,3.328.16,1.552.1,2.368.16,2.464.16C21.568-4.4,21.728-4.544,21.728-4.8Zm13.84.272a.91.91,0,0,0-.608-.848,15.646,15.646,0,0,1-2.736-1.392c.032-.752.048-1.376.048-1.888A12.706,12.706,0,0,0,32.16-10.8a.683.683,0,0,0-.688-.544.556.556,0,0,0-.416.208.614.614,0,0,0-.176.448,1.539,1.539,0,0,0,.064.336c.048.544.08,1.04.08,1.488,0,1.392-.048,3.12-.128,5.184C30.8-1.6,30.72-.3,30.64.208a1.384,1.384,0,0,0-.1.368c0,.464.208.7.656.7.432,0,.672-.368.736-1.088.176-2.5.272-4.272.272-5.36.8.4,1.44.7,1.888.912.16.1.32.176.5.272a.815.815,0,0,0,.416.128.523.523,0,0,0,.4-.208A.739.739,0,0,0,35.568-4.528Z" transform="translate(188 411)"/></g></g></svg>