<svg xmlns="http://www.w3.org/2000/svg" width="50.208" height="54.001" viewBox="0 0 50.208 54.001">
  <path id="fire" d="M-2160-9334.7c5.7-11.335,1.345-26.516-8.772-33.551.679,3.043-.172,10.988-4.677,15.977a10.978,10.978,0,0,0-1.53-8.453,26.756,26.756,0,0,1-4.078,9.384c-2.937,4.267-4.979,8.8-1.261,16.644h-.268c-11.965-6.8-15.112-13.269-13.285-22.069,1.365-6.564,6.4-11.9,6.826-18.456,1.907,3.451,2.133,5.939,2.348,9.546,5.333-6.5,10.84-14.93,11.166-23.021h5.36c3.613,2.972,8.109,8.374,10.616,17.829,2.748-2.43,2.489-7.438,1.129-10.4,4.064,2.947,27.334,29.018-3.314,46.569Zm-16.243,0a10.332,10.332,0,0,1-1.449-5.509c0-7.813,7.291-10.081,7.291-14.812,0-1.094.585-.283,1.2.622,5.685,8.309-2.392,8.684-2.392,12.721a2.936,2.936,0,0,0,2.977,2.938,2.965,2.965,0,0,0,2.9-2.979l.7-5.239c0-1,.516-.163,1.2.559,1.228,1.289,1.817,3.5,1.817,6.191a9.509,9.509,0,0,1-1.667,5.509Z" transform="translate(2194.352 9388.696)" fill="#fff" opacity="0.16"/>
</svg>
