<svg xmlns="http://www.w3.org/2000/svg" width="35.105" height="56.004" viewBox="0 0 35.105 56.004"><defs><style>.a{fill:#fff;opacity:0.16;}</style></defs><path class="a" d="M-6485.14-17399.693a9.713,9.713,0,0,1-2.2-6.512c0-7.811,7.291-10.076,7.291-14.812,0-1.092.583-.281,1.2.627,5.683,8.307-2.4,8.684-2.4,12.719a2.944,2.944,0,0,0,2.979,2.939,2.967,2.967,0,0,0,2.9-2.984l.7-5.24c0-.994.513-.162,1.2.563,1.227,1.287,1.818,3.5,1.818,6.189a9.219,9.219,0,0,1-2.5,6.512Zm6.716-34.553c.679,3.041-.167,10.988-4.675,15.975a10.971,10.971,0,0,0-1.529-8.451,26.817,26.817,0,0,1-4.079,9.385c-.064.094-.129.188-.193.283v-22.076c3.312-5.23,5.811-11,5.733-16.566h4.042c3.765,2.689,9.1,8.2,11.922,18.832,2.747-2.432,2.489-7.439,1.13-10.4,4.079,2.957,27.511,29.219-3.68,46.775C-6463.89-17411.848-6468.241-17427.17-6478.423-17434.246Z" transform="translate(6488.899 17455.697)"/></svg>