<svg xmlns="http://www.w3.org/2000/svg" width="138.227" height="138.092" viewBox="0 0 138.227 138.092"><defs><style>.a{fill:#ff26be;}.b{fill:#861dff;}</style></defs><g transform="translate(-1350.854 -2946.103)"><g transform="translate(1367.486 2959.452)"><path class="a" d="M462.382,149.787l.186-3.837h10.878l-.229,4.825Z" transform="translate(-368.388 -91.31)"/><path class="a" d="M451.872,167.777l2.957-2.3,6.893,8.751-3.725,2.9Z" transform="translate(-375.945 -77.27)"/><path class="a" d="M448.123,169.692l1.661-.834,1.145-.571.5-.306,5.306,9.877c.055.1-4.163,2.159-4.163,2.159Z" transform="translate(-378.64 -75.47)"/><path class="a" d="M444.07,170.87s.894-.237,1.786-.476a7.672,7.672,0,0,0,1.208-.4l.541-.206,3.543,10.7-.684.258a11.892,11.892,0,0,1-1.526.5l-2.255.609Z" transform="translate(-381.554 -74.169)"/><path class="a" d="M439.838,171.278a17.653,17.653,0,0,0,1.839-.131l1.824-.292,1.666,11.18-2.3.358c-1.152.148-2.315.175-2.315.175Z" transform="translate(-384.596 -73.405)"/><path class="a" d="M436.046,171.025a2.543,2.543,0,0,0,.574.067l1.267.064,1.843.1-.237,11.312-2.321-.119-1.6-.093a3.741,3.741,0,0,1-.72-.083Z" transform="translate(-388.177 -73.282)"/><path class="a" d="M429.41,168.493s3.319,1.676,3.36,1.573l-4,10.523a15.916,15.916,0,0,1-2.145-.935l-2.1-1.049Z" transform="translate(-395.603 -75.103)"/><path class="a" d="M421.7,159.67c-.091.065,2.15,3.116,2.15,3.116l-8.562,6.977s-2.811-3.857-2.709-3.928Z" transform="translate(-404.197 -81.446)"/><path class="a" d="M420.052,155.738l1.6,3.46-9.611,5.3-2.009-4.368Z" transform="translate(-406.027 -84.273)"/><path class="a" d="M418.566,147.066s.045.959.093,1.918a8.531,8.531,0,0,0,.132,1.31c.052.356.088.593.088.593L408.1,152.372s-.043-.3-.108-.748a12.694,12.694,0,0,1-.167-1.65c-.062-1.207-.122-2.412-.122-2.412Z" transform="translate(-407.701 -90.508)"/><path class="a" d="M418.879,143.231s-.036.237-.088.593a8.524,8.524,0,0,0-.132,1.312l-.093,1.918-10.865-.5s.06-1.207.122-2.412a12.63,12.63,0,0,1,.167-1.65c.064-.449.108-.748.108-.748Z" transform="translate(-407.701 -94.33)"/><path class="a" d="M429.5,128.522l-1.569,1.009-1.475,1.152-6.517-9.061,1.867-1.44c.968-.667,1.972-1.282,1.972-1.282Z" transform="translate(-398.905 -110.758)"/><path class="a" d="M436.212,125.851l-3.575.94-3.08-10.852,2.254-.609,1.551-.407c.423-.119.71-.167.71-.167Z" transform="translate(-391.989 -113.736)"/><path class="b" d="M461.618,154.131l.461-1.858a10.6,10.6,0,0,0,.352-1.881l10.709,1.98a15.778,15.778,0,0,1-.449,2.372c-.289,1.174-.576,2.348-.576,2.348Z" transform="translate(-368.938 -88.116)"/><path class="b" d="M460.133,158.221l.8-1.729c.316-.9.631-1.8.631-1.8l10.2,3.923s-.4,1.136-.81,2.271c-.5,1.095-1,2.188-1,2.188Z" transform="translate(-370.005 -85.027)"/><path class="b" d="M457.966,161.934a10.376,10.376,0,0,0,1.045-1.578c.478-.82.957-1.64.957-1.64l9.375,5.738s-.607,1.033-1.21,2.066a15.881,15.881,0,0,1-1.317,1.992Z" transform="translate(-371.563 -82.132)"/><path class="b" d="M455.185,165.158a5.4,5.4,0,0,0,.419-.411l.851-.978,1.243-1.42,8.261,7.361s-3.1,3.612-3.168,3.536Z" transform="translate(-373.563 -79.52)"/><path class="b" d="M432.636,170.142l3.575.94-2.14,11.094a7.127,7.127,0,0,1-.71-.165l-1.55-.409-2.254-.609Z" transform="translate(-391.988 -73.917)"/><path class="b" d="M426.452,166.146s.739.576,1.475,1.152L429.5,168.3l-5.722,9.623s-1-.614-1.972-1.281l-1.867-1.44Z" transform="translate(-398.905 -76.79)"/><path class="b" d="M423.854,163.175a14.85,14.85,0,0,0,1.27,1.389l1.368,1.291-7.257,8.428-1.717-1.63a21.628,21.628,0,0,1-1.605-1.745Z" transform="translate(-401.798 -78.926)"/><path class="b" d="M419.01,151.486l.461,1.858c.113.466.229.93.315,1.279a2.976,2.976,0,0,0,.174.571l-10.36,3.445a4.53,4.53,0,0,1-.218-.72c-.113-.44-.258-1.024-.406-1.611l-.578-2.348Z" transform="translate(-407.201 -87.33)"/><path class="b" d="M419.959,139.7a2.976,2.976,0,0,0-.174.571c-.086.349-.2.813-.315,1.279l-.461,1.856L408.4,140.932s.289-1.174.578-2.346c.148-.586.294-1.172.406-1.612a4.609,4.609,0,0,1,.218-.72Z" transform="translate(-407.201 -98.281)"/><path class="b" d="M421.649,136.367l-1.6,3.459-10.023-4.392,2.009-4.368Z" transform="translate(-406.027 -102.011)"/><path class="b" d="M423.85,133.334s-2.241,3.051-2.15,3.116l-9.122-6.162c-.1-.072,2.709-3.93,2.709-3.93Z" transform="translate(-404.197 -105.395)"/><path class="b" d="M426.491,130.692l-1.368,1.291a14.576,14.576,0,0,0-1.27,1.389l-7.94-7.734a21.317,21.317,0,0,1,1.605-1.745l1.717-1.63Z" transform="translate(-401.797 -108.339)"/><path class="b" d="M432.77,126.893c-.041-.1-3.36,1.573-3.36,1.573l-4.882-10.111,2.1-1.049a15.772,15.772,0,0,1,2.145-.935Z" transform="translate(-395.604 -112.576)"/><path class="b" d="M439.729,125.472l-1.843.1c-.461.024-.921.046-1.267.065a2.426,2.426,0,0,0-.574.067l-1.186-11.247a3.737,3.737,0,0,1,.72-.083l1.6-.091,2.321-.119Z" transform="translate(-388.176 -114.163)"/><path class="b" d="M443.5,125.942l-1.824-.29a17.654,17.654,0,0,0-1.839-.131l.712-11.29s1.164.026,2.315.174l2.3.358Z" transform="translate(-384.596 -114.114)"/><path class="a" d="M447.606,127.153l-.541-.206a7.73,7.73,0,0,0-1.208-.4c-.894-.237-1.786-.476-1.786-.476l2.613-10.984,2.255.609a11.989,11.989,0,0,1,1.526.5c.409.155.684.256.684.256Z" transform="translate(-381.554 -113.496)"/><path class="a" d="M451.423,128.952l-.5-.306c-.313-.155-.729-.363-1.145-.571-.829-.418-1.661-.834-1.661-.834l4.443-10.327s4.218,2.058,4.163,2.161Z" transform="translate(-378.64 -112.185)"/></g><g transform="translate(1347.625 2942.815)"><path class="a" d="M3.51-5.32H.15V-7H8.58v1.68H5.24V0H3.51Z" transform="matrix(0.643, -0.766, 0.766, 0.643, 21.226, 36.465)"/><path class="a" d="M.55-4.95h1.9v3.1H7.909v-4H.55V-7.7H8.393a1.444,1.444,0,0,1,.561.11,1.428,1.428,0,0,1,.451.292,1.362,1.362,0,0,1,.3.429,1.247,1.247,0,0,1,.11.511v4.983a1.364,1.364,0,0,1-.11.55,1.392,1.392,0,0,1-.292.435A1.333,1.333,0,0,1,8.981-.1,1.3,1.3,0,0,1,8.47,0H.55Z" transform="translate(29.201 28.492) rotate(-39.23)"/><path class="a" d="M.55-7.7h1.9v5.852H7.359V-7.7h1.9v6.325a1.364,1.364,0,0,1-.11.55,1.392,1.392,0,0,1-.292.435A1.333,1.333,0,0,1,8.431-.1,1.3,1.3,0,0,1,7.92,0H1.969a1.444,1.444,0,0,1-.561-.11A1.428,1.428,0,0,1,.957-.4,1.362,1.362,0,0,1,.66-.83a1.247,1.247,0,0,1-.11-.512Z" transform="matrix(0.881, -0.474, 0.474, 0.881, 38.512, 20.949)"/><path class="a" d="M.55-6.325a1.364,1.364,0,0,1,.11-.55,1.392,1.392,0,0,1,.291-.434A1.333,1.333,0,0,1,1.38-7.6a1.3,1.3,0,0,1,.512-.1H8.283v1.848H2.453v1.771H7.4v1.848H2.453V0H.55Z" transform="translate(53.661 13.732) rotate(-13.27)"/><path class="a" d="M.22-1.848h2.5v-4H.22V-7.7H7.139v1.848H4.62v4H7.139V0H.22Z" transform="translate(63.251 11.539) rotate(-4.62)"/><path class="a" d="M7.821-1.848v-4H2.343v4ZM.44-6.325a1.364,1.364,0,0,1,.11-.55,1.392,1.392,0,0,1,.291-.434A1.333,1.333,0,0,1,1.271-7.6a1.3,1.3,0,0,1,.512-.1H8.305a1.444,1.444,0,0,1,.561.11,1.428,1.428,0,0,1,.451.292,1.362,1.362,0,0,1,.3.429,1.247,1.247,0,0,1,.11.511v4.983a1.364,1.364,0,0,1-.11.55,1.392,1.392,0,0,1-.292.435A1.333,1.333,0,0,1,8.894-.1a1.3,1.3,0,0,1-.512.1H1.859A1.444,1.444,0,0,1,1.3-.11,1.428,1.428,0,0,1,.847-.4,1.362,1.362,0,0,1,.55-.83a1.247,1.247,0,0,1-.11-.512Z" transform="translate(77.223 10.905) rotate(9.81)"/><path class="a" d="M.4-5.75a1.24,1.24,0,0,1,.1-.5,1.265,1.265,0,0,1,.265-.395,1.211,1.211,0,0,1,.39-.26A1.184,1.184,0,0,1,1.62-7H8.19v1.68H2.13v3.64H8.19V0H1.69a1.313,1.313,0,0,1-.51-.1A1.3,1.3,0,0,1,.77-.365,1.238,1.238,0,0,1,.5-.755,1.133,1.133,0,0,1,.4-1.22Z" transform="translate(89.268 12.047) rotate(20.6)"/><path class="a" d="M.44-3.52a1.3,1.3,0,0,1,.1-.511A1.333,1.333,0,0,1,.83-4.46a1.392,1.392,0,0,1,.435-.292,1.364,1.364,0,0,1,.55-.11H5.566v-.99H.814V-7.7H6.127a1.3,1.3,0,0,1,.512.1,1.333,1.333,0,0,1,.429.286,1.392,1.392,0,0,1,.292.434,1.364,1.364,0,0,1,.11.55v1.969a1.3,1.3,0,0,1-.1.511,1.333,1.333,0,0,1-.286.429,1.392,1.392,0,0,1-.435.291,1.364,1.364,0,0,1-.55.11H2.343v1.166H7.711V0H1.782a1.3,1.3,0,0,1-.512-.1A1.333,1.333,0,0,1,.841-.391,1.392,1.392,0,0,1,.55-.825a1.364,1.364,0,0,1-.11-.55Z" transform="translate(103.94 19.486) rotate(35.25)"/><path class="a" d="M6.006-1.848v-4H2.453v4ZM.55-6.325a1.364,1.364,0,0,1,.11-.55,1.392,1.392,0,0,1,.291-.434A1.333,1.333,0,0,1,1.38-7.6a1.3,1.3,0,0,1,.512-.1h4.6a1.444,1.444,0,0,1,.561.11A1.428,1.428,0,0,1,7.5-7.3a1.362,1.362,0,0,1,.3.429,1.247,1.247,0,0,1,.11.511v4.983a1.364,1.364,0,0,1-.11.55,1.392,1.392,0,0,1-.291.435A1.333,1.333,0,0,1,7.078-.1a1.3,1.3,0,0,1-.511.1h-4.6a1.444,1.444,0,0,1-.561-.11A1.428,1.428,0,0,1,.957-.4,1.362,1.362,0,0,1,.66-.83a1.247,1.247,0,0,1-.11-.512Z" transform="translate(111.76 25.023) rotate(44.32)"/><path class="a" d="M.44-3.52a1.3,1.3,0,0,1,.1-.511A1.333,1.333,0,0,1,.83-4.46a1.392,1.392,0,0,1,.435-.292,1.364,1.364,0,0,1,.55-.11H5.566v-.99H.814V-7.7H6.127a1.3,1.3,0,0,1,.512.1,1.333,1.333,0,0,1,.429.286,1.392,1.392,0,0,1,.292.434,1.364,1.364,0,0,1,.11.55v1.969a1.3,1.3,0,0,1-.1.511,1.333,1.333,0,0,1-.286.429,1.392,1.392,0,0,1-.435.291,1.364,1.364,0,0,1-.55.11H2.343v1.166H7.711V0H1.782a1.3,1.3,0,0,1-.512-.1A1.333,1.333,0,0,1,.841-.391,1.392,1.392,0,0,1,.55-.825a1.364,1.364,0,0,1-.11-.55Z" transform="translate(118.848 31.988) rotate(53.38)"/><path class="a" d="M.44-1.848H5.9V-3.014H1.43V-4.862H5.9v-.99H.44V-7.7H6.457a1.3,1.3,0,0,1,.511.1,1.333,1.333,0,0,1,.429.286,1.392,1.392,0,0,1,.292.434,1.364,1.364,0,0,1,.11.55v4.983a1.247,1.247,0,0,1-.11.512,1.362,1.362,0,0,1-.3.429,1.428,1.428,0,0,1-.451.291A1.444,1.444,0,0,1,6.38,0H.44Z" transform="translate(124.557 39.681) rotate(62.42)"/><path class="a" d="M.55-6.325a1.364,1.364,0,0,1,.11-.55,1.392,1.392,0,0,1,.291-.434A1.333,1.333,0,0,1,1.38-7.6a1.3,1.3,0,0,1,.512-.1H8.437a1.364,1.364,0,0,1,.55.11,1.392,1.392,0,0,1,.435.292,1.333,1.333,0,0,1,.286.429,1.3,1.3,0,0,1,.1.511V-3a1.364,1.364,0,0,1-.11.55,1.392,1.392,0,0,1-.292.434,1.333,1.333,0,0,1-.429.286,1.3,1.3,0,0,1-.512.1H2.453V0H.55ZM7.909-3.476V-5.852H2.453v2.376Z" transform="matrix(0.214, 0.977, -0.977, 0.214, 131.013, 53.334)"/><path class="a" d="M.55-6.325a1.364,1.364,0,0,1,.11-.55,1.392,1.392,0,0,1,.291-.434A1.333,1.333,0,0,1,1.38-7.6a1.3,1.3,0,0,1,.512-.1H8.327a1.364,1.364,0,0,1,.55.11,1.392,1.392,0,0,1,.434.292,1.333,1.333,0,0,1,.286.429,1.3,1.3,0,0,1,.1.511v2.266a1.364,1.364,0,0,1-.11.55,1.392,1.392,0,0,1-.292.434,1.333,1.333,0,0,1-.429.286,1.3,1.3,0,0,1-.512.1H7.612L9.735,0H7.447L5.258-2.717H3.366V-4.565H7.8V-5.852H2.453V0H.55Z" transform="translate(133.553 65.046) rotate(88.8)"/><path class="a" d="M7.821-1.848v-4H2.343v4ZM.44-6.325a1.364,1.364,0,0,1,.11-.55,1.392,1.392,0,0,1,.291-.434A1.333,1.333,0,0,1,1.271-7.6a1.3,1.3,0,0,1,.512-.1H8.305a1.444,1.444,0,0,1,.561.11,1.428,1.428,0,0,1,.451.292,1.362,1.362,0,0,1,.3.429,1.247,1.247,0,0,1,.11.511v4.983a1.364,1.364,0,0,1-.11.55,1.392,1.392,0,0,1-.292.435A1.333,1.333,0,0,1,8.894-.1a1.3,1.3,0,0,1-.512.1H1.859A1.444,1.444,0,0,1,1.3-.11,1.428,1.428,0,0,1,.847-.4,1.362,1.362,0,0,1,.55-.83a1.247,1.247,0,0,1-.11-.512Z" transform="translate(133.782 77.04) rotate(99.86)"/><path class="a" d="M.44-6.325a1.364,1.364,0,0,1,.11-.55,1.392,1.392,0,0,1,.291-.434A1.333,1.333,0,0,1,1.271-7.6a1.3,1.3,0,0,1,.512-.1h6.8v1.848H2.343v4H7.8V-3.014H4.136V-4.862H8.327a1.364,1.364,0,0,1,.55.11,1.392,1.392,0,0,1,.434.292,1.333,1.333,0,0,1,.286.429,1.3,1.3,0,0,1,.1.511v2.145a1.364,1.364,0,0,1-.11.55A1.392,1.392,0,0,1,9.3-.391,1.333,1.333,0,0,1,8.872-.1,1.3,1.3,0,0,1,8.36,0h-6.5A1.444,1.444,0,0,1,1.3-.11,1.428,1.428,0,0,1,.847-.4,1.362,1.362,0,0,1,.55-.83a1.247,1.247,0,0,1-.11-.512Z" transform="translate(131.721 88.753) rotate(111.01)"/><path class="a" d="M.55-6.325a1.364,1.364,0,0,1,.11-.55,1.392,1.392,0,0,1,.291-.434A1.333,1.333,0,0,1,1.38-7.6a1.3,1.3,0,0,1,.512-.1H8.327a1.364,1.364,0,0,1,.55.11,1.392,1.392,0,0,1,.434.292,1.333,1.333,0,0,1,.286.429,1.3,1.3,0,0,1,.1.511v2.266a1.364,1.364,0,0,1-.11.55,1.392,1.392,0,0,1-.292.434,1.333,1.333,0,0,1-.429.286,1.3,1.3,0,0,1-.512.1H7.612L9.735,0H7.447L5.258-2.717H3.366V-4.565H7.8V-5.852H2.453V0H.55Z" transform="matrix(-0.533, 0.846, -0.846, -0.533, 127.447, 99.835)"/><path class="a" d="M2.013-6.325A2.177,2.177,0,0,1,2.6-7.309,1.589,1.589,0,0,1,3.74-7.7h2.3a1.708,1.708,0,0,1,1.177.391,2.074,2.074,0,0,1,.616.984L9.724,0H7.612L7.095-1.848H3.608L4.048-3.7h2.53L5.984-5.852H3.85L2.222,0H.11Z" transform="translate(121.034 109.942) rotate(133.1)"/><path class="a" d="M.55-6.391A2.948,2.948,0,0,1,.594-6.9,1.21,1.21,0,0,1,.77-7.353a.968.968,0,0,1,.374-.33,1.352,1.352,0,0,1,.627-.127h.121a1.55,1.55,0,0,1,.666.132,2.076,2.076,0,0,1,.512.341l2.783,2.42,2.783-2.42a2.076,2.076,0,0,1,.511-.341,1.55,1.55,0,0,1,.666-.132h.121a1.352,1.352,0,0,1,.627.127.968.968,0,0,1,.374.33,1.21,1.21,0,0,1,.176.457,2.948,2.948,0,0,1,.044.506V0h-1.9V-5.445L6.8-3.333V0H4.906V-3.333L2.453-5.445V0H.55Z" transform="matrix(-0.817, 0.577, -0.577, -0.817, 113.224, 118.414)"/><path class="a" d="M.55-6.391A2.948,2.948,0,0,1,.594-6.9,1.21,1.21,0,0,1,.77-7.353a.968.968,0,0,1,.374-.33,1.352,1.352,0,0,1,.627-.127h.121a1.55,1.55,0,0,1,.666.132,2.076,2.076,0,0,1,.512.341l2.783,2.42,2.783-2.42a2.076,2.076,0,0,1,.511-.341,1.55,1.55,0,0,1,.666-.132h.121a1.352,1.352,0,0,1,.627.127.968.968,0,0,1,.374.33,1.21,1.21,0,0,1,.176.457,2.948,2.948,0,0,1,.044.506V0h-1.9V-5.445L6.8-3.333V0H4.906V-3.333L2.453-5.445V0H.55Z" transform="translate(102.047 126.285) rotate(157.53)"/><path class="a" d="M.22-1.848h2.5v-4H.22V-7.7H7.139v1.848H4.62v4H7.139V0H.22Z" transform="matrix(-0.978, 0.207, -0.207, -0.978, 89.344, 131.262)"/><path class="a" d="M.55-6.391A1.73,1.73,0,0,1,.627-6.9a1.335,1.335,0,0,1,.242-.457,1.221,1.221,0,0,1,.429-.33,1.466,1.466,0,0,1,.638-.127,1.611,1.611,0,0,1,.638.127,1.622,1.622,0,0,1,.517.346L7.766-2.519V-7.7h1.9v6.391A1.624,1.624,0,0,1,9.587-.8a1.415,1.415,0,0,1-.248.456,1.221,1.221,0,0,1-.429.33A1.438,1.438,0,0,1,8.283.11a1.57,1.57,0,0,1-.66-.126,1.7,1.7,0,0,1-.495-.347L2.453-5.181V0H.55Z" transform="translate(80.873 133.179) rotate(177.64)"/><path class="a" d="M.44-6.325a1.364,1.364,0,0,1,.11-.55,1.392,1.392,0,0,1,.291-.434A1.333,1.333,0,0,1,1.271-7.6a1.3,1.3,0,0,1,.512-.1h6.8v1.848H2.343v4H7.8V-3.014H4.136V-4.862H8.327a1.364,1.364,0,0,1,.55.11,1.392,1.392,0,0,1,.434.292,1.333,1.333,0,0,1,.286.429,1.3,1.3,0,0,1,.1.511v2.145a1.364,1.364,0,0,1-.11.55A1.392,1.392,0,0,1,9.3-.391,1.333,1.333,0,0,1,8.872-.1,1.3,1.3,0,0,1,8.36,0h-6.5A1.444,1.444,0,0,1,1.3-.11,1.428,1.428,0,0,1,.847-.4,1.362,1.362,0,0,1,.55-.83a1.247,1.247,0,0,1-.11-.512Z" transform="translate(68.932 133.645) rotate(-171.36)"/><path class="a" d="M.44-6.325a1.364,1.364,0,0,1,.11-.55,1.392,1.392,0,0,1,.291-.434A1.333,1.333,0,0,1,1.271-7.6a1.3,1.3,0,0,1,.512-.1h6.93v1.848H2.343v.99h5.5v1.848h-5.5v1.166H8.712V0H1.859A1.444,1.444,0,0,1,1.3-.11,1.428,1.428,0,0,1,.847-.4,1.362,1.362,0,0,1,.55-.83a1.247,1.247,0,0,1-.11-.512Z" transform="translate(52.127 130.251) rotate(-155.76)"/><path class="a" d="M3.22-3.61.13-7H2.38L4.32-4.85,6.26-7H8.51L5.41-3.61,8.54,0H6.29L4.32-2.37,2.35,0H.1Z" transform="matrix(-0.824, -0.566, 0.566, -0.824, 41.761, 126.664)"/><path class="a" d="M.55-6.325a1.364,1.364,0,0,1,.11-.55,1.392,1.392,0,0,1,.291-.434A1.333,1.333,0,0,1,1.38-7.6a1.3,1.3,0,0,1,.512-.1H8.437a1.364,1.364,0,0,1,.55.11,1.392,1.392,0,0,1,.435.292,1.333,1.333,0,0,1,.286.429,1.3,1.3,0,0,1,.1.511V-3a1.364,1.364,0,0,1-.11.55,1.392,1.392,0,0,1-.292.434,1.333,1.333,0,0,1-.429.286,1.3,1.3,0,0,1-.512.1H2.453V0H.55ZM7.909-3.476V-5.852H2.453v2.376Z" transform="matrix(-0.705, -0.709, 0.709, -0.705, 33.157, 119.557)"/><path class="a" d="M.44-6.325a1.364,1.364,0,0,1,.11-.55,1.392,1.392,0,0,1,.291-.434A1.333,1.333,0,0,1,1.271-7.6a1.3,1.3,0,0,1,.512-.1h6.93v1.848H2.343v.99h5.5v1.848h-5.5v1.166H8.712V0H1.859A1.444,1.444,0,0,1,1.3-.11,1.428,1.428,0,0,1,.847-.4,1.362,1.362,0,0,1,.55-.83a1.247,1.247,0,0,1-.11-.512Z" transform="matrix(-0.563, -0.826, 0.826, -0.563, 24.765, 110.999)"/><path class="a" d="M.55-6.325a1.364,1.364,0,0,1,.11-.55,1.392,1.392,0,0,1,.291-.434A1.333,1.333,0,0,1,1.38-7.6a1.3,1.3,0,0,1,.512-.1H8.327a1.364,1.364,0,0,1,.55.11,1.392,1.392,0,0,1,.434.292,1.333,1.333,0,0,1,.286.429,1.3,1.3,0,0,1,.1.511v2.266a1.364,1.364,0,0,1-.11.55,1.392,1.392,0,0,1-.292.434,1.333,1.333,0,0,1-.429.286,1.3,1.3,0,0,1-.512.1H7.612L9.735,0H7.447L5.258-2.717H3.366V-4.565H7.8V-5.852H2.453V0H.55Z" transform="translate(18.689 102.145) rotate(-113.63)"/><path class="a" d="M.22-1.848h2.5v-4H.22V-7.7H7.139v1.848H4.62v4H7.139V0H.22Z" transform="translate(14.026 91.107) rotate(-103.92)"/><path class="a" d="M.44-6.325a1.364,1.364,0,0,1,.11-.55,1.392,1.392,0,0,1,.291-.434A1.333,1.333,0,0,1,1.271-7.6a1.3,1.3,0,0,1,.512-.1h6.93v1.848H2.343v.99h5.5v1.848h-5.5v1.166H8.712V0H1.859A1.444,1.444,0,0,1,1.3-.11,1.428,1.428,0,0,1,.847-.4,1.362,1.362,0,0,1,.55-.83a1.247,1.247,0,0,1-.11-.512Z" transform="translate(11.881 82.704) rotate(-94.85)"/><path class="a" d="M.55-6.391A1.73,1.73,0,0,1,.627-6.9a1.335,1.335,0,0,1,.242-.457,1.221,1.221,0,0,1,.429-.33,1.466,1.466,0,0,1,.638-.127,1.611,1.611,0,0,1,.638.127,1.622,1.622,0,0,1,.517.346L7.766-2.519V-7.7h1.9v6.391A1.624,1.624,0,0,1,9.587-.8a1.415,1.415,0,0,1-.248.456,1.221,1.221,0,0,1-.429.33A1.438,1.438,0,0,1,8.283.11a1.57,1.57,0,0,1-.66-.126,1.7,1.7,0,0,1-.495-.347L2.453-5.181V0H.55Z" transform="translate(10.947 71.998) rotate(-84.38)"/><path class="a" d="M.4-5.75a1.24,1.24,0,0,1,.1-.5,1.265,1.265,0,0,1,.265-.395,1.211,1.211,0,0,1,.39-.26A1.184,1.184,0,0,1,1.62-7H8.19v1.68H2.13v3.64H8.19V0H1.69a1.313,1.313,0,0,1-.51-.1A1.3,1.3,0,0,1,.77-.365,1.238,1.238,0,0,1,.5-.755,1.133,1.133,0,0,1,.4-1.22Z" transform="matrix(0.282, -0.959, 0.959, 0.282, 11.213, 59.84)"/><path class="a" d="M.44-6.325a1.364,1.364,0,0,1,.11-.55,1.392,1.392,0,0,1,.291-.434A1.333,1.333,0,0,1,1.271-7.6a1.3,1.3,0,0,1,.512-.1h6.93v1.848H2.343v.99h5.5v1.848h-5.5v1.166H8.712V0H1.859A1.444,1.444,0,0,1,1.3-.11,1.428,1.428,0,0,1,.847-.4,1.362,1.362,0,0,1,.55-.83a1.247,1.247,0,0,1-.11-.512Z" transform="translate(15.339 49.505) rotate(-63.36)"/></g><path class="a" d="M26.964,2.128V-5.18H18.732V-7.2H26.04V-14.14H18.732v-2.072h8.232V-23.52H.98v7.308h10V-5.18H9.408v-9.548H2.464V-5.18H.98V2.128ZM55.188-16.1v-7.42h-12.4v5.208h1.6a1.162,1.162,0,0,1-1.148.672v5.012c2.716-.588,4.116-1.344,4.928-2.912v2.492h4.228A2.961,2.961,0,0,0,55.188-16.1Zm.028,17.276V-5.04H54.068V-6.188h1.148v-5.6H54.068V-12.6H48.216v.812h-.672A7.4,7.4,0,0,0,47.6-12.6H43.232a25.849,25.849,0,0,1-.448,5.628V-17.136H41.72l.448-1.064v-4.984H36.736a3.085,3.085,0,0,1,.056-.5H30.884c0,1.456-.644,3.164-1.764,3.752v8.092a3.485,3.485,0,0,0,.56-.28v2.66c0,1.148-.168,1.484-.56,1.708V2.492a9.793,9.793,0,0,0,6.16-6.44h1.512v.224c0,.392-.2.5-.5.5h-.952V2.408h3c2.884,0,4.452-1.764,4.452-5.516V-5.544h4.452a3.431,3.431,0,0,0,.252-.644h.728V-5.04H42.952V1.176h3.836v1.26h7.28V1.176ZM49.784-18.088c0,.252-.084.476-.392.476h-.5q.126-.5.252-1.176h.644Zm-13.3,0-.448.952h-1.26c.168-.308.336-.616.5-.952Zm1.68,5.712h-.952v-.9h.952Zm-2.8,0H34.44v-.9h.924Zm2.8,4.564h-.952v-.812h.952Zm-2.8,0H34.44v-.812h.924Z" transform="translate(1391.796 3028.424) rotate(-7)"/></g></svg>