<svg xmlns="http://www.w3.org/2000/svg" width="15" height="14" viewBox="0 0 15 14">
  <g id="icon-people" transform="translate(-4900.5 -3446)">
    <rect id="長方形_1547" data-name="長方形 1547" width="14" height="14" transform="translate(4901 3446)" fill="rgba(255,255,255,0)"/>
    <path id="Icon_ionic-md-people" data-name="Icon ionic-md-people" d="M11.649,12A2.063,2.063,0,1,0,9.678,9.936,2.024,2.024,0,0,0,11.649,12Zm-4.8,0a2.063,2.063,0,0,0,0-4.121,2.063,2.063,0,0,0,0,4.121Zm0,.637c-1.545,0-4.6.79-4.6,2.4v2.728h9.3V15.037C11.545,13.423,8.4,12.633,6.851,12.633Zm4.8.378a3.3,3.3,0,0,0-.563.034,2.078,2.078,0,0,1,1.033,1.992v2.728H16.25V15.037C16.25,13.423,13.194,13.011,11.649,13.011Z" transform="translate(4898.75 3440.18)" fill="none" stroke="#e345e6" stroke-width="1"/>
  </g>
</svg>
