<svg xmlns="http://www.w3.org/2000/svg" width="144.781" height="144.692" viewBox="0 0 144.781 144.692">
  <g id="icon-incorrect" transform="translate(-1347.625 -2942.745)">
    <g id="XMLID_6_" transform="translate(1367.486 2959.452)">
      <g id="XMLID_4_">
        <path id="XMLID_278_" d="M462.382,149.787l.186-3.837h10.878l-.229,4.825Z" transform="translate(-368.388 -91.31)" fill="#6c63ff"/>
        <path id="XMLID_277_" d="M461.618,154.131l.461-1.858a10.6,10.6,0,0,0,.352-1.881l10.709,1.98a15.778,15.778,0,0,1-.449,2.372c-.289,1.174-.576,2.348-.576,2.348Z" transform="translate(-368.938 -88.116)" fill="#17f1fc"/>
        <path id="XMLID_276_" d="M460.133,158.221l.8-1.729c.316-.9.631-1.8.631-1.8l10.2,3.923s-.4,1.136-.81,2.271c-.5,1.095-1,2.188-1,2.188Z" transform="translate(-370.005 -85.027)" fill="#17f1fc"/>
        <path id="XMLID_350_" d="M457.966,161.934a10.376,10.376,0,0,0,1.045-1.578c.478-.82.957-1.64.957-1.64l9.375,5.738s-.607,1.033-1.21,2.066a15.881,15.881,0,0,1-1.317,1.992Z" transform="translate(-371.563 -82.132)" fill="#17f1fc"/>
        <path id="XMLID_349_" d="M455.185,165.158a5.4,5.4,0,0,0,.419-.411l.851-.978,1.243-1.42,8.261,7.361s-3.1,3.612-3.168,3.536Z" transform="translate(-373.563 -79.52)" fill="#17f1fc"/>
        <path id="XMLID_348_" d="M451.872,167.777l2.957-2.3,6.893,8.751-3.725,2.9Z" transform="translate(-375.945 -77.27)" fill="#6c63ff"/>
        <path id="XMLID_347_" d="M448.123,169.692l1.661-.834,1.145-.571.5-.306,5.306,9.877c.055.1-4.163,2.159-4.163,2.159Z" transform="translate(-378.64 -75.47)" fill="#6c63ff"/>
        <path id="XMLID_346_" d="M444.07,170.87s.894-.237,1.786-.476a7.672,7.672,0,0,0,1.208-.4l.541-.206,3.543,10.7-.684.258a11.892,11.892,0,0,1-1.526.5l-2.255.609Z" transform="translate(-381.554 -74.169)" fill="#6c63ff"/>
        <path id="XMLID_345_" d="M439.838,171.278a17.653,17.653,0,0,0,1.839-.131l1.824-.292,1.666,11.18-2.3.358c-1.152.148-2.315.175-2.315.175Z" transform="translate(-384.596 -73.405)" fill="#6c63ff"/>
        <path id="XMLID_344_" d="M436.046,171.025a2.543,2.543,0,0,0,.574.067l1.267.064,1.843.1-.237,11.312-2.321-.119-1.6-.093a3.741,3.741,0,0,1-.72-.083Z" transform="translate(-388.177 -73.282)" fill="#6c63ff"/>
        <path id="XMLID_343_" d="M432.636,170.142l3.575.94-2.14,11.094a7.127,7.127,0,0,1-.71-.165l-1.55-.409-2.254-.609Z" transform="translate(-391.988 -73.917)" fill="#17f1fc"/>
        <path id="XMLID_342_" d="M429.41,168.493s3.319,1.676,3.36,1.573l-4,10.523a15.916,15.916,0,0,1-2.145-.935l-2.1-1.049Z" transform="translate(-395.603 -75.103)" fill="#6c63ff"/>
        <path id="XMLID_341_" d="M426.452,166.146s.739.576,1.475,1.152L429.5,168.3l-5.722,9.623s-1-.614-1.972-1.281l-1.867-1.44Z" transform="translate(-398.905 -76.79)" fill="#17f1fc"/>
        <path id="XMLID_340_" d="M423.854,163.175a14.85,14.85,0,0,0,1.27,1.389l1.368,1.291-7.257,8.428-1.717-1.63a21.628,21.628,0,0,1-1.605-1.745Z" transform="translate(-401.798 -78.926)" fill="#17f1fc"/>
        <path id="XMLID_339_" d="M421.7,159.67c-.091.065,2.15,3.116,2.15,3.116l-8.562,6.977s-2.811-3.857-2.709-3.928Z" transform="translate(-404.197 -81.446)" fill="#6c63ff"/>
        <path id="XMLID_338_" d="M420.052,155.738l1.6,3.46-9.611,5.3-2.009-4.368Z" transform="translate(-406.027 -84.273)" fill="#6c63ff"/>
        <path id="XMLID_337_" d="M419.01,151.486l.461,1.858c.113.466.229.93.315,1.279a2.976,2.976,0,0,0,.174.571l-10.36,3.445a4.53,4.53,0,0,1-.218-.72c-.113-.44-.258-1.024-.406-1.611l-.578-2.348Z" transform="translate(-407.201 -87.33)" fill="#17f1fc"/>
        <path id="XMLID_336_" d="M418.566,147.066s.045.959.093,1.918a8.531,8.531,0,0,0,.132,1.31c.052.356.088.593.088.593L408.1,152.372s-.043-.3-.108-.748a12.694,12.694,0,0,1-.167-1.65c-.062-1.207-.122-2.412-.122-2.412Z" transform="translate(-407.701 -90.508)" fill="#6c63ff"/>
        <path id="XMLID_335_" d="M418.879,143.231s-.036.237-.088.593a8.524,8.524,0,0,0-.132,1.312l-.093,1.918-10.865-.5s.06-1.207.122-2.412a12.63,12.63,0,0,1,.167-1.65c.064-.449.108-.748.108-.748Z" transform="translate(-407.701 -94.33)" fill="#6c63ff"/>
        <path id="XMLID_334_" d="M419.959,139.7a2.976,2.976,0,0,0-.174.571c-.086.349-.2.813-.315,1.279l-.461,1.856L408.4,140.932s.289-1.174.578-2.346c.148-.586.294-1.172.406-1.612a4.609,4.609,0,0,1,.218-.72Z" transform="translate(-407.201 -98.282)" fill="#17f1fc"/>
        <path id="XMLID_333_" d="M421.649,136.367l-1.6,3.459-10.023-4.392,2.009-4.368Z" transform="translate(-406.027 -102.011)" fill="#17f1fc"/>
        <path id="XMLID_332_" d="M423.85,133.334s-2.241,3.051-2.15,3.116l-9.122-6.162c-.1-.072,2.709-3.93,2.709-3.93Z" transform="translate(-404.197 -105.395)" fill="#17f1fc"/>
        <path id="XMLID_200_" d="M426.491,130.692l-1.368,1.291a14.576,14.576,0,0,0-1.27,1.389l-7.94-7.734a21.317,21.317,0,0,1,1.605-1.745l1.717-1.63Z" transform="translate(-401.797 -108.339)" fill="#17f1fc"/>
        <path id="XMLID_60_" d="M429.5,128.522l-1.569,1.009-1.475,1.152-6.517-9.061,1.867-1.44c.968-.667,1.972-1.282,1.972-1.282Z" transform="translate(-398.905 -110.758)" fill="#6c63ff"/>
        <path id="XMLID_59_" d="M432.77,126.893c-.041-.1-3.36,1.573-3.36,1.573l-4.882-10.111,2.1-1.049a15.772,15.772,0,0,1,2.145-.935Z" transform="translate(-395.603 -112.576)" fill="#17f1fc"/>
        <path id="XMLID_55_" d="M436.212,125.851l-3.575.94-3.08-10.852,2.254-.609,1.551-.407c.423-.119.71-.167.71-.167Z" transform="translate(-391.989 -113.736)" fill="#6c63ff"/>
        <path id="XMLID_54_" d="M439.729,125.472l-1.843.1c-.461.024-.921.046-1.267.065a2.426,2.426,0,0,0-.574.067l-1.186-11.247a3.737,3.737,0,0,1,.72-.083l1.6-.091,2.321-.119Z" transform="translate(-388.176 -114.163)" fill="#17f1fc"/>
        <path id="XMLID_40_" d="M443.5,125.942l-1.824-.29a17.654,17.654,0,0,0-1.839-.131l.712-11.29s1.164.026,2.315.174l2.3.358Z" transform="translate(-384.596 -114.114)" fill="#17f1fc"/>
        <path id="XMLID_26_" d="M447.606,127.153l-.541-.206a7.73,7.73,0,0,0-1.208-.4c-.894-.237-1.786-.476-1.786-.476l2.613-10.984,2.255.609a11.989,11.989,0,0,1,1.526.5c.409.155.684.256.684.256Z" transform="translate(-381.554 -113.496)" fill="#6c63ff"/>
        <path id="XMLID_8_" d="M451.423,128.952l-.5-.306c-.313-.155-.729-.363-1.145-.571-.829-.418-1.661-.834-1.661-.834l4.443-10.327s4.218,2.058,4.163,2.161Z" transform="translate(-378.64 -112.185)" fill="#6c63ff"/>
      </g>
    </g>
    <g id="レイヤー_1" data-name="レイヤー 1" transform="translate(1347.625 2942.815)">
      <text id="T" transform="matrix(0.643, -0.766, 0.766, 0.643, 21.226, 36.465)" fill="#6c63ff" font-size="10" font-family="Elevon-FourG, Elevon"><tspan x="0" y="0">T</tspan></text>
      <text id="D" transform="translate(29.201 28.492) rotate(-39.23)" fill="#6c63ff" font-size="11" font-family="Elevon-FourG, Elevon"><tspan x="0" y="0">D</tspan></text>
      <text id="U" transform="matrix(0.881, -0.474, 0.474, 0.881, 38.512, 20.949)" fill="#6c63ff" font-size="11" font-family="Elevon-FourG, Elevon"><tspan x="0" y="0">U</tspan></text>
      <text id="F" transform="translate(53.661 13.732) rotate(-13.27)" fill="#6c63ff" font-size="11" font-family="Elevon-FourG, Elevon"><tspan x="0" y="0">F</tspan></text>
      <text id="I" transform="translate(63.251 11.539) rotate(-4.62)" fill="#6c63ff" font-size="11" font-family="Elevon-FourG, Elevon"><tspan x="0" y="0">I</tspan></text>
      <text id="O" transform="translate(77.223 10.905) rotate(9.81)" fill="#6c63ff" font-size="11" font-family="Elevon-FourG, Elevon"><tspan x="0" y="0">O</tspan></text>
      <text id="C" transform="translate(89.268 12.047) rotate(20.6)" fill="#6c63ff" font-size="10" font-family="Elevon-FourG, Elevon"><tspan x="0" y="0">C</tspan></text>
      <text id="_2" data-name="2" transform="translate(103.94 19.486) rotate(35.25)" fill="#6c63ff" font-size="11" font-family="Elevon-FourG, Elevon"><tspan x="0" y="0">2</tspan></text>
      <text id="_0" data-name="0" transform="translate(111.76 25.023) rotate(44.32)" fill="#6c63ff" font-size="11" font-family="Elevon-FourG, Elevon"><tspan x="0" y="0">0</tspan></text>
      <text id="_2-2" data-name="2" transform="translate(118.848 31.988) rotate(53.38)" fill="#6c63ff" font-size="11" font-family="Elevon-FourG, Elevon"><tspan x="0" y="0">2</tspan></text>
      <text id="_3" data-name="3" transform="translate(124.557 39.681) rotate(62.42)" fill="#6c63ff" font-size="11" font-family="Elevon-FourG, Elevon"><tspan x="0" y="0">3</tspan></text>
      <text id="P" transform="matrix(0.214, 0.977, -0.977, 0.214, 131.013, 53.334)" fill="#6c63ff" font-size="11" font-family="Elevon-FourG, Elevon"><tspan x="0" y="0">P</tspan></text>
      <text id="R" transform="translate(133.553 65.046) rotate(88.8)" fill="#6c63ff" font-size="11" font-family="Elevon-FourG, Elevon"><tspan x="0" y="0">R</tspan></text>
      <text id="O-2" data-name="O" transform="translate(133.782 77.04) rotate(99.86)" fill="#6c63ff" font-size="11" font-family="Elevon-FourG, Elevon"><tspan x="0" y="0">O</tspan></text>
      <text id="G" transform="translate(131.721 88.753) rotate(111.01)" fill="#6c63ff" font-size="11" font-family="Elevon-FourG, Elevon"><tspan x="0" y="0">G</tspan></text>
      <text id="R-2" data-name="R" transform="matrix(-0.533, 0.846, -0.846, -0.533, 127.447, 99.835)" fill="#6c63ff" font-size="11" font-family="Elevon-FourG, Elevon"><tspan x="0" y="0">R</tspan></text>
      <text id="A" transform="translate(121.034 109.942) rotate(133.1)" fill="#6c63ff" font-size="11" font-family="Elevon-FourG, Elevon"><tspan x="0" y="0">A</tspan></text>
      <text id="M" transform="matrix(-0.817, 0.577, -0.577, -0.817, 113.224, 118.414)" fill="#6c63ff" font-size="11" font-family="Elevon-FourG, Elevon"><tspan x="0" y="0">M</tspan></text>
      <text id="M-2" data-name="M" transform="translate(102.047 126.285) rotate(157.53)" fill="#6c63ff" font-size="11" font-family="Elevon-FourG, Elevon"><tspan x="0" y="0">M</tspan></text>
      <text id="I-2" data-name="I" transform="matrix(-0.978, 0.207, -0.207, -0.978, 89.344, 131.262)" fill="#6c63ff" font-size="11" font-family="Elevon-FourG, Elevon"><tspan x="0" y="0">I</tspan></text>
      <text id="N" transform="translate(80.873 133.179) rotate(177.64)" fill="#6c63ff" font-size="11" font-family="Elevon-FourG, Elevon"><tspan x="0" y="0">N</tspan></text>
      <text id="G-2" data-name="G" transform="translate(68.932 133.645) rotate(-171.36)" fill="#6c63ff" font-size="11" font-family="Elevon-FourG, Elevon"><tspan x="0" y="0">G</tspan></text>
      <text id="E" transform="translate(52.127 130.251) rotate(-155.76)" fill="#6c63ff" font-size="11" font-family="Elevon-FourG, Elevon"><tspan x="0" y="0">E</tspan></text>
      <text id="X" transform="matrix(-0.824, -0.566, 0.566, -0.824, 41.761, 126.664)" fill="#6c63ff" font-size="10" font-family="Elevon-FourG, Elevon"><tspan x="0" y="0">X</tspan></text>
      <text id="P-2" data-name="P" transform="matrix(-0.705, -0.709, 0.709, -0.705, 33.157, 119.557)" fill="#6c63ff" font-size="11" font-family="Elevon-FourG, Elevon"><tspan x="0" y="0">P</tspan></text>
      <text id="E-2" data-name="E" transform="matrix(-0.563, -0.826, 0.826, -0.563, 24.765, 110.999)" fill="#6c63ff" font-size="11" font-family="Elevon-FourG, Elevon"><tspan x="0" y="0">E</tspan></text>
      <text id="R-3" data-name="R" transform="translate(18.689 102.145) rotate(-113.63)" fill="#6c63ff" font-size="11" font-family="Elevon-FourG, Elevon"><tspan x="0" y="0">R</tspan></text>
      <text id="I-3" data-name="I" transform="translate(14.026 91.107) rotate(-103.92)" fill="#6c63ff" font-size="11" font-family="Elevon-FourG, Elevon"><tspan x="0" y="0">I</tspan></text>
      <text id="E-3" data-name="E" transform="translate(11.881 82.704) rotate(-94.85)" fill="#6c63ff" font-size="11" font-family="Elevon-FourG, Elevon"><tspan x="0" y="0">E</tspan></text>
      <text id="N-2" data-name="N" transform="translate(10.947 71.998) rotate(-84.38)" fill="#6c63ff" font-size="11" font-family="Elevon-FourG, Elevon"><tspan x="0" y="0">N</tspan></text>
      <text id="C-2" data-name="C" transform="matrix(0.282, -0.959, 0.959, 0.282, 11.213, 59.84)" fill="#6c63ff" font-size="10" font-family="Elevon-FourG, Elevon"><tspan x="0" y="0">C</tspan></text>
      <text id="E-4" data-name="E" transform="translate(15.339 49.505) rotate(-63.36)" fill="#6c63ff" font-size="11" font-family="Elevon-FourG, Elevon"><tspan x="0" y="0">E</tspan></text>
    </g>
    <text id="不正解" transform="translate(1383.951 3028.093) rotate(-7)" fill="#6c63ff" font-size="25" font-family="VDL-LogoJrBlack-Black, VDL ロゴJrブラック" font-weight="800" letter-spacing="0.006em"><tspan x="0" y="0">不正解</tspan></text>
  </g>
</svg>
