<svg xmlns="http://www.w3.org/2000/svg" width="15" height="14" viewBox="0 0 15 14"><defs><style>.a{fill:rgba(255,255,255,0);}.b{fill:none;stroke:#e345e6;}</style></defs><g transform="translate(-4900.5 -3446)"><rect class="a" width="14" height="14" transform="translate(4901 3446)"/><path class="b" d="M11.649,12.358a2.126,2.126,0,0,0,1.972-2.242,2.126,2.126,0,0,0-1.972-2.242,2.126,2.126,0,0,0-1.972,2.242A2.126,2.126,0,0,0,11.649,12.358Zm-4.8,0a2.126,2.126,0,0,0,1.972-2.242A2.126,2.126,0,0,0,6.851,7.875a2.126,2.126,0,0,0-1.972,2.242A2.126,2.126,0,0,0,6.851,12.358Zm0,.693c-1.545,0-4.6.859-4.6,2.615v2.968h9.3V15.667C11.545,13.911,8.4,13.052,6.851,13.052Zm4.8.411a3.036,3.036,0,0,0-.563.037,2.32,2.32,0,0,1,1.033,2.167v2.968H16.25V15.667C16.25,13.911,13.194,13.463,11.649,13.463Z" transform="translate(4898.75 3439.745)"/></g></svg>