<svg xmlns="http://www.w3.org/2000/svg" width="30" height="30" viewBox="0 0 30 30"><defs><style>.a{fill:#b9b9b9;opacity:0;}.b{fill:#fff;}</style></defs><g transform="translate(-5877 -1549)"><rect class="a" width="30" height="30" transform="translate(5877 1549)"/><path class="b" d="M22.571,16.61a.9.9,0,0,0-.469-.844l-8-5a.942.942,0,0,0-1.016-.031.931.931,0,0,0-.516.875v10a.931.931,0,0,0,.516.875,1.081,1.081,0,0,0,.484.125.89.89,0,0,0,.531-.156l8-5a.9.9,0,0,0,.469-.844Zm8,0q0,1.5-.016,2.344t-.133,2.133a17.284,17.284,0,0,1-.352,2.3,3.655,3.655,0,0,1-1.078,1.922,3.3,3.3,0,0,1-1.937.906,102.439,102.439,0,0,1-10.484.391A102.439,102.439,0,0,1,6.086,26.22a3.331,3.331,0,0,1-1.945-.906,3.632,3.632,0,0,1-1.086-1.922,19.341,19.341,0,0,1-.336-2.3Q2.6,19.8,2.586,18.954T2.571,16.61q0-1.5.016-2.344t.133-2.133a17.284,17.284,0,0,1,.352-2.3A3.655,3.655,0,0,1,4.149,7.907,3.3,3.3,0,0,1,6.086,7,102.439,102.439,0,0,1,16.571,6.61,102.437,102.437,0,0,1,27.055,7,3.33,3.33,0,0,1,29,7.907a3.633,3.633,0,0,1,1.086,1.922,19.341,19.341,0,0,1,.336,2.3q.117,1.289.133,2.133T30.571,16.61Z" transform="translate(5875.429 1547.39)"/></g></svg>