<svg xmlns="http://www.w3.org/2000/svg" width="19.938" height="25.92" viewBox="0 0 19.938 25.92">
  <path id="Icon_ionic-ios-lock" data-name="Icon ionic-ios-lock" d="M24.2,12.347H22.7V9.437a5.982,5.982,0,1,0-11.963-.081v2.991h-1.5A2.5,2.5,0,0,0,6.75,14.839V26.8a2.5,2.5,0,0,0,2.492,2.492H24.2A2.5,2.5,0,0,0,26.688,26.8V14.839A2.5,2.5,0,0,0,24.2,12.347Zm-6.6,7.776V24.41a.893.893,0,0,1-.829.9.873.873,0,0,1-.916-.872V20.123a1.994,1.994,0,1,1,1.745,0Zm3.365-7.776H12.482V9.356a4.237,4.237,0,0,1,8.474,0Z" transform="translate(-6.75 -3.374)" fill="#fff"/>
</svg>
