<svg xmlns="http://www.w3.org/2000/svg" xmlns:xlink="http://www.w3.org/1999/xlink" width="118.298" height="40.873" viewBox="0 0 118.298 40.873"><defs><style>.a{fill:#d3d1ff;}.b{fill:url(#a);}.c{fill:#45cbe6;}.d{fill:#a571d9;}.e{fill:#e345e6;}.f{fill:#fff;}.g{fill:rgba(0,0,0,0);}.h{fill:url(#b);}</style><linearGradient id="a" x1="0.478" y1="0.35" x2="0.96" y2="0.4" gradientUnits="objectBoundingBox"><stop offset="0.08" stop-color="#e345e6"/><stop offset="0.58" stop-color="#8f9eed"/><stop offset="0.98" stop-color="#45cbe6"/></linearGradient><linearGradient id="b" x1="0." x2="1" y2="0." gradientUnits="objectBoundingBox"><stop offset="0.4" stop-color="#e345e6"/><stop offset="0.67" stop-color="#8f9eed"/><stop offset="0.9" stop-color="#45cbe6"/></linearGradient></defs><g transform="translate(-10.65 -17.295)"><g transform="translate(0.66 -0.064)"><path class="a" d="M79.68-6.72V-21.28H59.76V-6.72ZM52.84-23a4.961,4.961,0,0,1,.4-2,5.061,5.061,0,0,1,1.06-1.58,4.846,4.846,0,0,1,1.56-1.04A4.737,4.737,0,0,1,57.72-28H81.44a5.25,5.25,0,0,1,2.04.4,5.191,5.191,0,0,1,1.64,1.06,4.952,4.952,0,0,1,1.08,1.56,4.534,4.534,0,0,1,.4,1.86V-5a4.961,4.961,0,0,1-.4,2,5.06,5.06,0,0,1-1.06,1.58A4.846,4.846,0,0,1,83.58-.38,4.737,4.737,0,0,1,81.72,0H58a5.25,5.25,0,0,1-2.04-.4,5.191,5.191,0,0,1-1.64-1.06,4.952,4.952,0,0,1-1.08-1.56,4.534,4.534,0,0,1-.4-1.86Zm33.64,0a4.961,4.961,0,0,1,.4-2,5.061,5.061,0,0,1,1.06-1.58,4.846,4.846,0,0,1,1.56-1.04A4.737,4.737,0,0,1,91.36-28h26.28v6.72H93.4V-6.72h24.24V0h-26A5.25,5.25,0,0,1,89.6-.4a5.191,5.191,0,0,1-1.64-1.06,4.952,4.952,0,0,1-1.08-1.56,4.534,4.534,0,0,1-.4-1.86Z" transform="translate(10.38 46.564)"/><path class="b" d="M2-23a4.961,4.961,0,0,1,.4-2,5.061,5.061,0,0,1,1.06-1.58,4.846,4.846,0,0,1,1.56-1.04A4.737,4.737,0,0,1,6.88-28H30.12v6.72H8.92v6.44h18v6.72h-18V0H2ZM28.6-6.72h9.08V-21.28H28.6V-28H53.76v6.72H44.6V-6.72h9.16V0H28.6Zm51.08,0V-21.28H59.76V-6.72ZM52.84-23a4.961,4.961,0,0,1,.4-2,5.061,5.061,0,0,1,1.06-1.58,4.846,4.846,0,0,1,1.56-1.04A4.737,4.737,0,0,1,57.72-28H81.44a5.25,5.25,0,0,1,2.04.4,5.191,5.191,0,0,1,1.64,1.06,4.952,4.952,0,0,1,1.08,1.56,4.534,4.534,0,0,1,.4,1.86V-5a4.961,4.961,0,0,1-.4,2,5.06,5.06,0,0,1-1.06,1.58A4.846,4.846,0,0,1,83.58-.38,4.737,4.737,0,0,1,81.72,0H58a5.25,5.25,0,0,1-2.04-.4,5.191,5.191,0,0,1-1.64-1.06,4.952,4.952,0,0,1-1.08-1.56,4.534,4.534,0,0,1-.4-1.86Zm33.64,0a4.961,4.961,0,0,1,.4-2,5.061,5.061,0,0,1,1.06-1.58,4.846,4.846,0,0,1,1.56-1.04A4.737,4.737,0,0,1,91.36-28h26.28v6.72H93.4V-6.72h24.24V0h-26A5.25,5.25,0,0,1,89.6-.4a5.191,5.191,0,0,1-1.64-1.06,4.952,4.952,0,0,1-1.08-1.56,4.534,4.534,0,0,1-.4-1.86Z" transform="translate(10.18 46.359)"/><g transform="translate(-5836.66 -548.641)"><path class="c" d="M2,15.357a5.645,5.645,0,0,1,.4-2.143,5.46,5.46,0,0,1,1.06-1.693,4.838,4.838,0,0,1,1.56-1.114A4.466,4.466,0,0,1,6.88,10H30.12v7.2L8.92,18.67V23.1h18v8.8h-18V40H2ZM30.12,31.285h8.96V18.67H30.12L30,10H55.16v8.67H46V31.285h9.16V40H30Z" transform="translate(5847 556)"/><path class="d" d="M2,15a4.882,4.882,0,0,1,.408-2,5.056,5.056,0,0,1,1.08-1.58A5.053,5.053,0,0,1,6.972,10H30.649v6.72H9.05v6.44H27.389v6.72H9.05V38H2ZM30.23,31.28h8.95V16.72H30.527V10H56.16v6.72H46.828V31.28H56.16V38H30.23Z" transform="translate(5845 558)"/><path class="e" d="M2,15a4.882,4.882,0,0,1,.408-2,5.056,5.056,0,0,1,1.08-1.58A5.053,5.053,0,0,1,6.972,10H30.649v6.72H9.05v6.44H27.389v6.72H9.05V38H2ZM30.23,31.28h8.95V16.72H30.527V10H56.16v6.72H46.828V31.28H56.16V38H30.23Z" transform="translate(5845 556)"/><path class="f" d="M2-23a4.961,4.961,0,0,1,.4-2,5.061,5.061,0,0,1,1.06-1.58,4.846,4.846,0,0,1,1.56-1.04A4.737,4.737,0,0,1,6.88-28H30.12v6.72H8.92v6.44h18v6.72h-18V0H2ZM30-6.72h9.08V-21.28H30V-28H55.16v6.72H46V-6.72h9.16V0H30Z" transform="translate(5846 595)"/></g></g><g transform="translate(-0.2)"><path class="a" d="M.606,11h5V9.629H2.13c.269-.285.464-.3,1.239-1.086.86-.86,1.287-1.308,1.535-1.614a3.846,3.846,0,0,0,.533-.9A2.227,2.227,0,0,0,5.6,5.178a1.952,1.952,0,0,0-.712-1.614,3.07,3.07,0,0,0-1.946-.58,5.5,5.5,0,0,0-1.055.105,7.764,7.764,0,0,0-1.107.316v1.45a5.809,5.809,0,0,1,1.086-.485,3,3,0,0,1,.933-.163,1.327,1.327,0,0,1,.907.285,1.053,1.053,0,0,1,.316.8,1.609,1.609,0,0,1-.174.712,3.662,3.662,0,0,1-.57.8c-.322.364-.649.712-1.825,1.972l-.712.759a.454.454,0,0,0-.132.327Zm8.48.153a2.154,2.154,0,0,0,1.951-1.018,5.784,5.784,0,0,0,.649-3.064A5.805,5.805,0,0,0,11.037,4,2.163,2.163,0,0,0,9.081,2.984,2.154,2.154,0,0,0,7.13,4a5.805,5.805,0,0,0-.649,3.069A5.776,5.776,0,0,0,7.13,10.13,2.167,2.167,0,0,0,9.086,11.153ZM9.081,9.835c-.359,0-.622-.221-.786-.659a6.554,6.554,0,0,1-.248-2.1A6.569,6.569,0,0,1,8.3,4.962c.163-.438.427-.659.786-.659s.628.221.791.659a6.569,6.569,0,0,1,.248,2.109,6.554,6.554,0,0,1-.248,2.1C9.709,9.613,9.445,9.835,9.081,9.835Zm.005-1.26c.1,0,.179-.206.227-.628a8.1,8.1,0,0,0,.047-.865c0-.19-.032-.6-.058-.9-.042-.364-.121-.628-.227-.628s-.169.206-.216.617a8.062,8.062,0,0,0-.053.875c0,.2.037.633.063.9C8.912,8.268,8.97,8.574,9.086,8.574ZM12.272,11h5V9.629H13.8c.269-.285.464-.3,1.239-1.086.86-.86,1.287-1.308,1.535-1.614a3.846,3.846,0,0,0,.533-.9,2.227,2.227,0,0,0,.158-.849,1.952,1.952,0,0,0-.712-1.614,3.07,3.07,0,0,0-1.946-.58,5.5,5.5,0,0,0-1.055.105,7.764,7.764,0,0,0-1.107.316v1.45a5.809,5.809,0,0,1,1.086-.485,3,3,0,0,1,.933-.163,1.327,1.327,0,0,1,.907.285,1.053,1.053,0,0,1,.316.8,1.609,1.609,0,0,1-.174.712,3.662,3.662,0,0,1-.57.8c-.322.364-.649.712-1.825,1.972l-.712.759a.454.454,0,0,0-.132.327Zm8.153.153a3.306,3.306,0,0,0,2.146-.6A2.138,2.138,0,0,0,23.3,8.817a2.042,2.042,0,0,0-.443-1.392,2.1,2.1,0,0,0-1.287-.67,1.956,1.956,0,0,0,1.144-.585,1.6,1.6,0,0,0,.4-1.144,1.8,1.8,0,0,0-.7-1.5,3.063,3.063,0,0,0-1.946-.543,6.276,6.276,0,0,0-1.007.084,8.916,8.916,0,0,0-1.071.253V4.735a7.081,7.081,0,0,1,1.049-.322,4.186,4.186,0,0,1,.939-.111,1.418,1.418,0,0,1,.912.243.812.812,0,0,1,.316.68.741.741,0,0,1-.316.649,1.541,1.541,0,0,1-.9.232H19.56V7.477h.833a1.535,1.535,0,0,1,1.044.327,1.185,1.185,0,0,1,.369.9,1.011,1.011,0,0,1-.364.828,1.722,1.722,0,0,1-1.092.29,5.338,5.338,0,0,1-1.123-.132,4.344,4.344,0,0,1-1.071-.374v1.445a7.019,7.019,0,0,0,1.107.29A6.719,6.719,0,0,0,20.424,11.153Zm10.3,0a3.169,3.169,0,0,0,2.078-.591A2.15,2.15,0,0,0,33.5,8.812a2.329,2.329,0,0,0-.448-1.482,3.107,3.107,0,0,0-1.4-.918l-.67-.253a2.582,2.582,0,0,1-.912-.475.719.719,0,0,1-.221-.543.765.765,0,0,1,.3-.643,1.38,1.38,0,0,1,.86-.227,3.116,3.116,0,0,1,1.028.185,4.035,4.035,0,0,1,1.018.538V3.475a5.791,5.791,0,0,0-1.076-.369,4.807,4.807,0,0,0-1.092-.121,2.736,2.736,0,0,0-1.877.612,2.126,2.126,0,0,0-.686,1.682A1.953,1.953,0,0,0,28.747,6.6a3.99,3.99,0,0,0,1.593.944l.765.29a1.436,1.436,0,0,1,.612.417.956.956,0,0,1,.211.622.891.891,0,0,1-.316.728,1.363,1.363,0,0,1-.9.264A3.318,3.318,0,0,1,29.57,9.65a5.021,5.021,0,0,1-1.208-.659V10.6a4.987,4.987,0,0,0,1.139.417A4.933,4.933,0,0,0,30.72,11.153ZM34.359,11h1.556V8.052h.58a3.775,3.775,0,0,0,2.347-.58,2.287,2.287,0,0,0,.712-1.883,2.287,2.287,0,0,0-.712-1.883,3.775,3.775,0,0,0-2.347-.58H34.359Zm1.556-4.256V4.435h.638a1.692,1.692,0,0,1,1.076.258,1.115,1.115,0,0,1,.306.9,1.115,1.115,0,0,1-.306.9,1.692,1.692,0,0,1-1.076.258ZM40.2,11h4.9V9.629H41.757V7.567H44.79V6.2H41.757V4.5h3.349V3.127H40.2Zm8.949.153a3.714,3.714,0,0,0,.865-.095,3.422,3.422,0,0,0,.775-.285V9.044a2.833,2.833,0,0,1-.775.538,1.872,1.872,0,0,1-.786.174,1.425,1.425,0,0,1-1.281-.68,3.729,3.729,0,0,1-.438-2,3.8,3.8,0,0,1,.438-2.014,1.431,1.431,0,0,1,1.281-.675,1.847,1.847,0,0,1,.78.169,2.729,2.729,0,0,1,.78.543V3.364a3.049,3.049,0,0,0-.77-.285,3.793,3.793,0,0,0-.87-.095A2.925,2.925,0,0,0,46.73,4.034a4.78,4.78,0,0,0-.838,3.037A4.763,4.763,0,0,0,46.73,10.1,2.925,2.925,0,0,0,49.151,11.153ZM51.888,11h4.688V9.629H55.01V4.5h1.566V3.127H51.888V4.5h1.566V9.629H51.888Zm5.1,0h1.556l.475-1.946H61.1L61.586,11h1.556L61.016,3.127h-1.9Zm2.341-3.227.733-3.222L60.8,7.773ZM63.832,11h4.883V9.629H65.388v-6.5H63.832Zm9.937,0h1.44l.838-4.134.9,4.134h1.45L79.3,3.127H77.93l-.443,5.78L76.7,5.168H75.4l-.68,3.739-.564-5.78H72.8Zm5.748,0h4.9V9.629H81.073V7.567h3.032V6.2H81.073V4.5h3.349V3.127h-4.9Zm5.606,0H87.66a3.782,3.782,0,0,0,2.231-.512,1.918,1.918,0,0,0,.686-1.645,2.133,2.133,0,0,0-.454-1.45,1.973,1.973,0,0,0-1.361-.606,1.713,1.713,0,0,0,1.144-.5A1.721,1.721,0,0,0,90.3,5.1a1.761,1.761,0,0,0-.659-1.492,3.252,3.252,0,0,0-1.978-.5H85.123Zm1.5-4.815V4.355H87.66a1.217,1.217,0,0,1,.838.221.866.866,0,0,1,.253.7.824.824,0,0,1-.248.691,1.23,1.23,0,0,1-.844.216Zm0,3.57V7.425H87.66a1.528,1.528,0,0,1,1.028.279A1.182,1.182,0,0,1,89,8.622a1.12,1.12,0,0,1-.3.881,1.645,1.645,0,0,1-1.044.253ZM95.492,11h1.556V8.052h.58a3.775,3.775,0,0,0,2.347-.58,2.287,2.287,0,0,0,.712-1.883,2.287,2.287,0,0,0-.712-1.883,3.775,3.775,0,0,0-2.347-.58H95.492Zm1.556-4.256V4.435h.638a1.692,1.692,0,0,1,1.076.258,1.115,1.115,0,0,1,.306.9,1.115,1.115,0,0,1-.306.9,1.692,1.692,0,0,1-1.076.258ZM100.623,11h1.556l.475-1.946h2.083L105.222,11h1.556l-2.125-7.873h-1.9Zm2.341-3.227.733-3.222.738,3.222Zm7.114,3.38a3.334,3.334,0,0,0,1.176-.2,3.158,3.158,0,0,0,.986-.58V6.765h-2.426V8.073h1.065v1.5a.677.677,0,0,1-.29.132,1.506,1.506,0,0,1-.417.047,1.351,1.351,0,0,1-1.234-.68,3.939,3.939,0,0,1-.422-2.014,3.758,3.758,0,0,1,.438-2.014,1.479,1.479,0,0,1,1.329-.664,2.018,2.018,0,0,1,.928.211,2.244,2.244,0,0,1,.749.638V3.506a3.4,3.4,0,0,0-.86-.39,3.3,3.3,0,0,0-.96-.132,2.9,2.9,0,0,0-2.4,1.049,4.714,4.714,0,0,0-.844,3.027,4.815,4.815,0,0,0,.833,3.032A2.821,2.821,0,0,0,110.079,11.153ZM113,11h4.9V9.629h-3.349V7.567h3.032V6.2h-3.032V4.5H117.9V3.127H113Z" transform="translate(10.744 46.516)"/><path class="g" d="M110.079,11.653a3.336,3.336,0,0,1-2.741-1.252,3.676,3.676,0,0,1-.352-.545l.444,1.644h-2.6l-.485-1.946h-1.3l-.475,1.946h-2.6l2.4-8.873h2.67l1.394,5.163q-.03-.35-.03-.729a5.2,5.2,0,0,1,.956-3.342,3.391,3.391,0,0,1,2.788-1.234,3.807,3.807,0,0,1,1.1.151,3.89,3.89,0,0,1,.989.449l.232.147V6.265h.039V2.627h5.9V5h-3.349v.7h3.032V8.067h-3.032V9.129H118.4V11.5h-5.9v-.693a3.662,3.662,0,0,1-1.075.615A3.834,3.834,0,0,1,110.079,11.653Zm.063-8.169a2.408,2.408,0,0,0-2.01.863,4.259,4.259,0,0,0-.733,2.714,4.379,4.379,0,0,0,.727,2.724,2.312,2.312,0,0,0,1.953.868,2.826,2.826,0,0,0,1.006-.17,2.6,2.6,0,0,0,.656-.351V7.265h-1.426v.308h1.065V9.83l-.2.15a1.163,1.163,0,0,1-.455.211,1.971,1.971,0,0,1-.547.065,1.859,1.859,0,0,1-1.66-.919,4.369,4.369,0,0,1-.5-2.276,4.23,4.23,0,0,1,.518-2.286,1.983,1.983,0,0,1,1.749-.893,2.519,2.519,0,0,1,1.155.265l.022.011V3.8a2.937,2.937,0,0,0-.5-.2A2.8,2.8,0,0,0,110.142,3.484ZM113.5,10.5h3.9v-.371h-3.349V7.067h3.032V6.7h-3.032V4H117.4V3.627h-3.9Zm-7.888,0h.512l-1.855-6.873h-1.138L101.276,10.5h.51l.475-1.946h2.866Zm4.672-5.618a.989.989,0,0,0-.911.438,3.356,3.356,0,0,0-.356,1.741,3.5,3.5,0,0,0,.35,1.756.849.849,0,0,0,.806.438,1.438,1.438,0,0,0,.207-.012v-.67h-1.065V6.265h2.814l-.564-.729a1.744,1.744,0,0,0-.58-.5A1.53,1.53,0,0,0,110.285,4.882ZM49.151,11.653a3.415,3.415,0,0,1-2.81-1.236,5.266,5.266,0,0,1-.949-3.346,5.275,5.275,0,0,1,.947-3.349,3.416,3.416,0,0,1,2.812-1.238,4.318,4.318,0,0,1,.983.108,3.527,3.527,0,0,1,.893.331l.265.141v3.18l-.841-.785a2.209,2.209,0,0,0-.641-.451,1.358,1.358,0,0,0-.578-.126.94.94,0,0,0-.86.444,3.357,3.357,0,0,0-.359,1.746A3.328,3.328,0,0,0,48.368,8.8a.926.926,0,0,0,.862.452,1.378,1.378,0,0,0,.577-.129,2.375,2.375,0,0,0,.647-.453l.837-.764v3.169l-.273.139a3.938,3.938,0,0,1-.888.326A4.227,4.227,0,0,1,49.151,11.653Zm0-8.169a2.432,2.432,0,0,0-2.031.863,4.332,4.332,0,0,0-.728,2.724,4.322,4.322,0,0,0,.729,2.721,2.431,2.431,0,0,0,2.029.861,3.2,3.2,0,0,0,.75-.082,2.919,2.919,0,0,0,.39-.121V10l-.071.033a2.365,2.365,0,0,1-.99.218,1.927,1.927,0,0,1-1.7-.911,4.206,4.206,0,0,1-.516-2.273,4.225,4.225,0,0,1,.515-2.282l0,0a1.933,1.933,0,0,1,1.7-.9,2.351,2.351,0,0,1,.986.213l.075.034V3.683a2.622,2.622,0,0,0-.38-.116A3.291,3.291,0,0,0,49.151,3.484ZM30.72,11.653a5.4,5.4,0,0,1-1.336-.151,5.515,5.515,0,0,1-1.25-.458l-.271-.14V8.022l.79.561a4.5,4.5,0,0,0,1.091.6,2.835,2.835,0,0,0,.966.185.907.907,0,0,0,.584-.149.39.39,0,0,0,.135-.342.463.463,0,0,0-.1-.306l0,0a.951.951,0,0,0-.4-.263l-.761-.289a4.443,4.443,0,0,1-1.8-1.087,2.438,2.438,0,0,1-.536-1.648,2.618,2.618,0,0,1,.854-2.057,3.224,3.224,0,0,1,2.209-.737,5.3,5.3,0,0,1,1.207.135,6.318,6.318,0,0,1,1.17.4l.29.134v2.81L32.771,5.4a3.516,3.516,0,0,0-.892-.473,2.634,2.634,0,0,0-.864-.157.9.9,0,0,0-.551.12l-.005,0a.269.269,0,0,0-.1.246.221.221,0,0,0,.069.183l.006.006a2.459,2.459,0,0,0,.734.36l.671.254A3.6,3.6,0,0,1,33.448,7.02a2.492,2.492,0,0,1,.41.785V2.627h2.636a4.18,4.18,0,0,1,2.66.69,2.182,2.182,0,0,1,.548.664V2.627h5.9V5H42.257v.7H45.29V8.067H42.257V9.129h3.349V11.5H39.7V7.2a2.174,2.174,0,0,1-.546.661,4.18,4.18,0,0,1-2.662.692h-.08V11.5H33.859V9.832a2.339,2.339,0,0,1-.741,1.115A3.662,3.662,0,0,1,30.72,11.653Zm-1.857-1.371a4.632,4.632,0,0,0,.754.247h.006a4.426,4.426,0,0,0,1.1.122,2.722,2.722,0,0,0,1.758-.475A1.663,1.663,0,0,0,33,8.812a1.841,1.841,0,0,0-.342-1.174,2.648,2.648,0,0,0-1.178-.757l-.672-.254a2.959,2.959,0,0,1-1.086-.586,1.224,1.224,0,0,1-.371-.9A1.259,1.259,0,0,1,29.85,4.1a1.858,1.858,0,0,1,1.165-.331,3.628,3.628,0,0,1,1.193.212q.177.062.353.142v-.32a5.486,5.486,0,0,0-.692-.214,4.287,4.287,0,0,0-.976-.108,2.265,2.265,0,0,0-1.546.486,1.64,1.64,0,0,0-.517,1.308,1.485,1.485,0,0,0,.294,1,3.622,3.622,0,0,0,1.4.805l.769.292a1.911,1.911,0,0,1,.817.567,1.463,1.463,0,0,1,.322.936,1.391,1.391,0,0,1-.5,1.113,1.841,1.841,0,0,1-1.22.378,3.831,3.831,0,0,1-1.31-.246,4.866,4.866,0,0,1-.536-.235ZM40.7,10.5h3.9v-.371H41.257V7.067H44.29V6.7H41.257V4h3.349V3.627H40.7Zm-5.843,0h.556V7.552h1.08a3.388,3.388,0,0,0,2.034-.47,1.837,1.837,0,0,0,.525-1.493A1.837,1.837,0,0,0,38.526,4.1a3.39,3.39,0,0,0-2.032-.468H34.859ZM20.424,11.653a7.24,7.24,0,0,1-1.248-.108,7.515,7.515,0,0,1-1.186-.311l-.22-.077V11.5h-6V9.861q0-.043,0-.085a3.667,3.667,0,0,1-.315.627,2.638,2.638,0,0,1-2.373,1.25A2.678,2.678,0,0,1,6.708,10.4a6.185,6.185,0,0,1-.727-3.327,6.209,6.209,0,0,1,.727-3.337,2.638,2.638,0,0,1,2.373-1.25,2.676,2.676,0,0,1,2.378,1.25,4.064,4.064,0,0,1,.481,1.132V3.056l.33-.119A8.3,8.3,0,0,1,13.451,2.6,5.979,5.979,0,0,1,14.6,2.484a3.522,3.522,0,0,1,2.258.69,2.45,2.45,0,0,1,.9,2,2.72,2.72,0,0,1-.191,1.027l0,.012a4.367,4.367,0,0,1-.6,1.021l0,.006c-.258.319-.684.767-1.569,1.652-.085.086-.163.163-.235.233h2.5V8.5l.727.369a3.826,3.826,0,0,0,.948.331,4.894,4.894,0,0,0,1.019.121,1.29,1.29,0,0,0,.778-.18.506.506,0,0,0,.177-.438.69.69,0,0,0-.2-.53,1.08,1.08,0,0,0-.709-.2H19.06V5.606h1.333a1.091,1.091,0,0,0,.613-.14.246.246,0,0,0,.105-.24.315.315,0,0,0-.123-.285l0,0a.989.989,0,0,0-.6-.134,3.662,3.662,0,0,0-.825.1l-.008,0a6.606,6.606,0,0,0-.973.3l-.682.267V2.95l.356-.107a9.435,9.435,0,0,1,1.131-.267,6.754,6.754,0,0,1,1.091-.091,3.555,3.555,0,0,1,2.257.651,2.312,2.312,0,0,1,.885,1.889,2.081,2.081,0,0,1-.774,1.711,2.213,2.213,0,0,1,.4.365A2.516,2.516,0,0,1,23.8,8.817a2.641,2.641,0,0,1-.909,2.12A3.79,3.79,0,0,1,20.424,11.653ZM18.657,10.4a6.547,6.547,0,0,0,.694.162,6.224,6.224,0,0,0,1.073.093,2.853,2.853,0,0,0,1.828-.487A1.656,1.656,0,0,0,22.8,8.817a1.572,1.572,0,0,0-.322-1.066,1.578,1.578,0,0,0-.947-.495,1.571,1.571,0,0,1,.239.174l.006.005a1.692,1.692,0,0,1,.532,1.271,1.508,1.508,0,0,1-.549,1.216l0,0a2.18,2.18,0,0,1-1.4.4,5.836,5.836,0,0,1-1.232-.144q-.235-.05-.461-.121ZM9.081,3.484a1.653,1.653,0,0,0-1.529.786,5.376,5.376,0,0,0-.571,2.8,5.35,5.35,0,0,0,.571,2.79,1.68,1.68,0,0,0,1.534.791,1.653,1.653,0,0,0,1.529-.786,5.363,5.363,0,0,0,.571-2.8,5.376,5.376,0,0,0-.571-2.8A1.658,1.658,0,0,0,9.081,3.484ZM12.772,10.5h4v-.371h-4Zm0-.628v.113l.66-.7a2.737,2.737,0,0,1,.383-.328,6.729,6.729,0,0,0,.864-.766c.848-.848,1.268-1.289,1.5-1.575a3.358,3.358,0,0,0,.458-.774,1.728,1.728,0,0,0,.123-.665,1.457,1.457,0,0,0-.527-1.225A2.6,2.6,0,0,0,14.6,3.484a4.989,4.989,0,0,0-.959.1,6.587,6.587,0,0,0-.7.184v.29q.217-.09.433-.159a3.508,3.508,0,0,1,1.087-.188,1.817,1.817,0,0,1,1.242.414,1.547,1.547,0,0,1,.481,1.173,2.11,2.11,0,0,1-.223.928,4.159,4.159,0,0,1-.641.906l0,.005c-.292.33-.593.652-1.486,1.609L12.773,9.871Zm-.678-4.243a10.273,10.273,0,0,1,.092,1.442,8.366,8.366,0,0,1-.266,2.275,1.128,1.128,0,0,1,.111-.146l.008-.009L13.1,8.06c.884-.947,1.183-1.268,1.465-1.587a3.215,3.215,0,0,0,.494-.68l0-.007a1.106,1.106,0,0,0,.123-.492.591.591,0,0,0-.151-.43.874.874,0,0,0-.572-.156,2.521,2.521,0,0,0-.778.139,5.337,5.337,0,0,0-.995.445ZM20.06,6.977h.333a2.244,2.244,0,0,1,1.089.251l0-.879a2.119,2.119,0,0,1-1.086.257H20.06ZM21.6,4.151a1.31,1.31,0,0,1,.508,1.074,1.23,1.23,0,0,1-.449,1,1.36,1.36,0,0,0,.679-.386l0,0a1.109,1.109,0,0,0,.269-.806,1.3,1.3,0,0,0-.5-1.1,2.608,2.608,0,0,0-1.637-.437,5.755,5.755,0,0,0-.927.078c-.21.036-.428.082-.65.139v.336c.151-.044.3-.082.44-.112A4.687,4.687,0,0,1,20.382,3.8,1.878,1.878,0,0,1,21.6,4.151ZM97.548,11.5H94.992V2.627h2.636a4.18,4.18,0,0,1,2.66.69,2.764,2.764,0,0,1,.9,2.273,2.764,2.764,0,0,1-.9,2.271,4.18,4.18,0,0,1-2.662.692h-.08Zm-1.556-1h.556V7.552h1.08a3.388,3.388,0,0,0,2.034-.47,1.837,1.837,0,0,0,.525-1.493A1.837,1.837,0,0,0,99.66,4.1a3.39,3.39,0,0,0-2.032-.468H95.992Zm-8.333,1H79.017V9.958L78.84,11.5h-2.3l-.477-2.2-.446,2.2H73.327L72.233,2.627h2.38l.26,2.665.114-.624H77.1l.154.726.212-2.766h7.156V2.616H87.66a3.687,3.687,0,0,1,2.28.6A2.266,2.266,0,0,1,90.8,5.1a2.208,2.208,0,0,1-.517,1.519l-.006.007q-.058.062-.121.119a2.043,2.043,0,0,1,.346.314,2.616,2.616,0,0,1,.577,1.779,2.4,2.4,0,0,1-.886,2.046A4.2,4.2,0,0,1,87.66,11.5Zm-2.037-1H87.66a3.415,3.415,0,0,0,1.931-.412,1.444,1.444,0,0,0,.485-1.245,1.664,1.664,0,0,0-.329-1.121,1.311,1.311,0,0,0-.725-.391h0a1.652,1.652,0,0,1,.477,1.29,1.584,1.584,0,0,1-.468,1.259l0,0a2.074,2.074,0,0,1-1.366.371H86.126V6.925H87.66a2.384,2.384,0,0,1,1.055.2V6.436a1.881,1.881,0,0,1-1.055.25H86.126V3.855H87.66a1.7,1.7,0,0,1,1.164.342l.006.005a1.35,1.35,0,0,1,.422,1.076,1.383,1.383,0,0,1-.33.981,1.107,1.107,0,0,0,.614-.3A1.236,1.236,0,0,0,89.8,5.1a1.275,1.275,0,0,0-.461-1.094,2.813,2.813,0,0,0-1.675-.394H85.623Zm-5.606,0h3.9v-.371H80.573V7.067h3.032V6.7H80.573V4h3.349V3.627h-3.9Zm-2.67,0h.6l.792-6.873h-.347l-.408,5.318-.962.064Zm-3.136,0H74.8l.306-1.509-.88-.036-.52-5.328h-.342ZM87.126,9.255h.534a1.215,1.215,0,0,0,.719-.133c.031-.028.12-.142.12-.5a.767.767,0,0,0-.145-.545,1.058,1.058,0,0,0-.694-.152h-.534Zm-5.553-.127h3.05V5h-3.05v.7h3.032V8.067H81.573ZM75.821,5.668l-.2,1.1.9-.006-.231-1.092Zm11.3.018h.534c.338,0,.466-.05.515-.093.027-.024.077-.067.077-.315s-.052-.3-.081-.324a.954.954,0,0,0-.511-.1h-.534ZM69.216,11.5H61.2L60.71,9.554h-1.3L58.936,11.5H51.388V9.129h1.566V5H51.388V2.627h5.688V5H55.51V9.129h1.465l1.755-6.5H61.4l1.933,7.162V2.627h2.556v6.5h3.328Zm-4.883-1h3.883v-.371H64.888v-6.5h-.556Zm-2.356,0h.512L60.633,3.627H59.5L57.64,10.5h.51l.475-1.946h2.866Zm-9.589,0h3.688v-.371H54.51V4h1.566V3.627H52.388V4h1.566v6.131H52.388Zm-46.282,1h-6V9.861A.954.954,0,0,1,.366,9.2l.008-.009L1.433,8.06C2.317,7.113,2.616,6.793,2.9,6.474a3.215,3.215,0,0,0,.494-.68l0-.007a1.106,1.106,0,0,0,.123-.492.591.591,0,0,0-.151-.43.874.874,0,0,0-.572-.156,2.521,2.521,0,0,0-.778.139,5.337,5.337,0,0,0-.995.445l-.747.426V3.056L.6,2.936A8.3,8.3,0,0,1,1.786,2.6a5.979,5.979,0,0,1,1.151-.115,3.522,3.522,0,0,1,2.258.69,2.45,2.45,0,0,1,.9,2A2.72,2.72,0,0,1,5.9,6.206l0,.012a4.367,4.367,0,0,1-.6,1.021l0,.006c-.258.319-.684.767-1.569,1.652-.085.086-.163.163-.235.233H6.106Zm-5-1h4v-.371h-4Zm0-.628v.113l.66-.7a2.736,2.736,0,0,1,.383-.328,6.728,6.728,0,0,0,.864-.766c.847-.847,1.268-1.289,1.5-1.574a3.356,3.356,0,0,0,.459-.774A1.727,1.727,0,0,0,5.1,5.178a1.457,1.457,0,0,0-.527-1.225,2.6,2.6,0,0,0-1.631-.468,4.989,4.989,0,0,0-.959.1,6.588,6.588,0,0,0-.7.184v.29q.217-.09.433-.159a3.508,3.508,0,0,1,1.087-.188,1.817,1.817,0,0,1,1.242.414,1.547,1.547,0,0,1,.481,1.173,2.11,2.11,0,0,1-.223.928,4.161,4.161,0,0,1-.641.906l0,.005c-.292.33-.592.652-1.485,1.609L1.108,9.871Zm7.974.462A1.312,1.312,0,0,1,7.827,9.35a6.917,6.917,0,0,1-.279-2.279,6.94,6.94,0,0,1,.279-2.282,1.295,1.295,0,0,1,2.514,0,6.938,6.938,0,0,1,.279,2.284,6.918,6.918,0,0,1-.279,2.277A1.317,1.317,0,0,1,9.081,10.335ZM8.753,8.97,8.764,9c.124.332.254.332.317.332s.2,0,.323-.334l.009-.024a.554.554,0,0,1-.326.1A.544.544,0,0,1,8.753,8.97Zm.323-3.912a.549.549,0,0,1,.338.108L9.4,5.135C9.279,4.8,9.15,4.8,9.081,4.8s-.193,0-.317.334l-.006.017A.58.58,0,0,1,9.076,5.058Zm95.988,3.215h-2.725l.872-3.833h.975Zm-43.636,0H58.7l.872-3.833h.975ZM97.686,7.244H96.548V3.935h1.138a2.122,2.122,0,0,1,1.4.377,1.59,1.59,0,0,1,.483,1.278,1.59,1.59,0,0,1-.483,1.278A2.122,2.122,0,0,1,97.686,7.244Zm-.138-1h.138c.545,0,.714-.107.753-.14a.725.725,0,0,0,.129-.515.725.725,0,0,0-.129-.515c-.039-.033-.208-.14-.753-.14h-.138Zm-61,1H35.414V3.935h1.138a2.122,2.122,0,0,1,1.4.377,1.59,1.59,0,0,1,.483,1.278,1.59,1.59,0,0,1-.483,1.278A2.122,2.122,0,0,1,36.552,7.244Zm-.138-1h.138c.545,0,.714-.107.753-.14a.725.725,0,0,0,.129-.515.736.736,0,0,0-.129-.515c-.039-.033-.208-.14-.753-.14h-.138Z" transform="translate(10.744 46.516)"/><path class="h" d="M.606,11h5V9.629H2.13c.269-.285.464-.3,1.239-1.086.86-.86,1.287-1.308,1.535-1.614a3.846,3.846,0,0,0,.533-.9A2.227,2.227,0,0,0,5.6,5.178a1.952,1.952,0,0,0-.712-1.614,3.07,3.07,0,0,0-1.946-.58,5.5,5.5,0,0,0-1.055.105,7.764,7.764,0,0,0-1.107.316v1.45a5.809,5.809,0,0,1,1.086-.485,3,3,0,0,1,.933-.163,1.327,1.327,0,0,1,.907.285,1.053,1.053,0,0,1,.316.8,1.609,1.609,0,0,1-.174.712,3.662,3.662,0,0,1-.57.8c-.322.364-.649.712-1.825,1.972l-.712.759a.454.454,0,0,0-.132.327Zm8.48.153a2.154,2.154,0,0,0,1.951-1.018,5.784,5.784,0,0,0,.649-3.064A5.805,5.805,0,0,0,11.037,4,2.163,2.163,0,0,0,9.081,2.984,2.154,2.154,0,0,0,7.13,4a5.805,5.805,0,0,0-.649,3.069A5.776,5.776,0,0,0,7.13,10.13,2.167,2.167,0,0,0,9.086,11.153ZM9.081,9.835c-.359,0-.622-.221-.786-.659a6.554,6.554,0,0,1-.248-2.1A6.569,6.569,0,0,1,8.3,4.962c.163-.438.427-.659.786-.659s.628.221.791.659a6.569,6.569,0,0,1,.248,2.109,6.554,6.554,0,0,1-.248,2.1C9.709,9.613,9.445,9.835,9.081,9.835Zm.005-1.26c.1,0,.179-.206.227-.628a8.1,8.1,0,0,0,.047-.865c0-.19-.032-.6-.058-.9-.042-.364-.121-.628-.227-.628s-.169.206-.216.617a8.062,8.062,0,0,0-.053.875c0,.2.037.633.063.9C8.912,8.268,8.97,8.574,9.086,8.574ZM12.272,11h5V9.629H13.8c.269-.285.464-.3,1.239-1.086.86-.86,1.287-1.308,1.535-1.614a3.846,3.846,0,0,0,.533-.9,2.227,2.227,0,0,0,.158-.849,1.952,1.952,0,0,0-.712-1.614,3.07,3.07,0,0,0-1.946-.58,5.5,5.5,0,0,0-1.055.105,7.764,7.764,0,0,0-1.107.316v1.45a5.809,5.809,0,0,1,1.086-.485,3,3,0,0,1,.933-.163,1.327,1.327,0,0,1,.907.285,1.053,1.053,0,0,1,.316.8,1.609,1.609,0,0,1-.174.712,3.662,3.662,0,0,1-.57.8c-.322.364-.649.712-1.825,1.972l-.712.759a.454.454,0,0,0-.132.327Zm8.153.153a3.306,3.306,0,0,0,2.146-.6A2.138,2.138,0,0,0,23.3,8.817a2.042,2.042,0,0,0-.443-1.392,2.1,2.1,0,0,0-1.287-.67,1.956,1.956,0,0,0,1.144-.585,1.6,1.6,0,0,0,.4-1.144,1.8,1.8,0,0,0-.7-1.5,3.063,3.063,0,0,0-1.946-.543,6.276,6.276,0,0,0-1.007.084,8.916,8.916,0,0,0-1.071.253V4.735a7.081,7.081,0,0,1,1.049-.322,4.186,4.186,0,0,1,.939-.111,1.418,1.418,0,0,1,.912.243.812.812,0,0,1,.316.68.741.741,0,0,1-.316.649,1.541,1.541,0,0,1-.9.232H19.56V7.477h.833a1.535,1.535,0,0,1,1.044.327,1.185,1.185,0,0,1,.369.9,1.011,1.011,0,0,1-.364.828,1.722,1.722,0,0,1-1.092.29,5.338,5.338,0,0,1-1.123-.132,4.344,4.344,0,0,1-1.071-.374v1.445a7.019,7.019,0,0,0,1.107.29A6.719,6.719,0,0,0,20.424,11.153Zm10.3,0a3.169,3.169,0,0,0,2.078-.591A2.15,2.15,0,0,0,33.5,8.812a2.329,2.329,0,0,0-.448-1.482,3.107,3.107,0,0,0-1.4-.918l-.67-.253a2.582,2.582,0,0,1-.912-.475.719.719,0,0,1-.221-.543.765.765,0,0,1,.3-.643,1.38,1.38,0,0,1,.86-.227,3.116,3.116,0,0,1,1.028.185,4.035,4.035,0,0,1,1.018.538V3.475a5.791,5.791,0,0,0-1.076-.369,4.807,4.807,0,0,0-1.092-.121,2.736,2.736,0,0,0-1.877.612,2.126,2.126,0,0,0-.686,1.682A1.953,1.953,0,0,0,28.747,6.6a3.99,3.99,0,0,0,1.593.944l.765.29a1.436,1.436,0,0,1,.612.417.956.956,0,0,1,.211.622.891.891,0,0,1-.316.728,1.363,1.363,0,0,1-.9.264A3.318,3.318,0,0,1,29.57,9.65a5.021,5.021,0,0,1-1.208-.659V10.6a4.987,4.987,0,0,0,1.139.417A4.933,4.933,0,0,0,30.72,11.153ZM34.359,11h1.556V8.052h.58a3.775,3.775,0,0,0,2.347-.58,2.287,2.287,0,0,0,.712-1.883,2.287,2.287,0,0,0-.712-1.883,3.775,3.775,0,0,0-2.347-.58H34.359Zm1.556-4.256V4.435h.638a1.692,1.692,0,0,1,1.076.258,1.115,1.115,0,0,1,.306.9,1.115,1.115,0,0,1-.306.9,1.692,1.692,0,0,1-1.076.258ZM40.2,11h4.9V9.629H41.757V7.567H44.79V6.2H41.757V4.5h3.349V3.127H40.2Zm8.949.153a3.714,3.714,0,0,0,.865-.095,3.422,3.422,0,0,0,.775-.285V9.044a2.833,2.833,0,0,1-.775.538,1.872,1.872,0,0,1-.786.174,1.425,1.425,0,0,1-1.281-.68,3.729,3.729,0,0,1-.438-2,3.8,3.8,0,0,1,.438-2.014,1.431,1.431,0,0,1,1.281-.675,1.847,1.847,0,0,1,.78.169,2.729,2.729,0,0,1,.78.543V3.364a3.049,3.049,0,0,0-.77-.285,3.793,3.793,0,0,0-.87-.095A2.925,2.925,0,0,0,46.73,4.034a4.78,4.78,0,0,0-.838,3.037A4.763,4.763,0,0,0,46.73,10.1,2.925,2.925,0,0,0,49.151,11.153ZM51.888,11h4.688V9.629H55.01V4.5h1.566V3.127H51.888V4.5h1.566V9.629H51.888Zm5.1,0h1.556l.475-1.946H61.1L61.586,11h1.556L61.016,3.127h-1.9Zm2.341-3.227.733-3.222L60.8,7.773ZM63.832,11h4.883V9.629H65.388v-6.5H63.832Zm9.937,0h1.44l.838-4.134.9,4.134h1.45L79.3,3.127H77.93l-.443,5.78L76.7,5.168H75.4l-.68,3.739-.564-5.78H72.8Zm5.748,0h4.9V9.629H81.073V7.567h3.032V6.2H81.073V4.5h3.349V3.127h-4.9Zm5.606,0H87.66a3.782,3.782,0,0,0,2.231-.512,1.918,1.918,0,0,0,.686-1.645,2.133,2.133,0,0,0-.454-1.45,1.973,1.973,0,0,0-1.361-.606,1.713,1.713,0,0,0,1.144-.5A1.721,1.721,0,0,0,90.3,5.1a1.761,1.761,0,0,0-.659-1.492,3.252,3.252,0,0,0-1.978-.5H85.123Zm1.5-4.815V4.355H87.66a1.217,1.217,0,0,1,.838.221.866.866,0,0,1,.253.7.824.824,0,0,1-.248.691,1.23,1.23,0,0,1-.844.216Zm0,3.57V7.425H87.66a1.528,1.528,0,0,1,1.028.279A1.182,1.182,0,0,1,89,8.622a1.12,1.12,0,0,1-.3.881,1.645,1.645,0,0,1-1.044.253ZM95.492,11h1.556V8.052h.58a3.775,3.775,0,0,0,2.347-.58,2.287,2.287,0,0,0,.712-1.883,2.287,2.287,0,0,0-.712-1.883,3.775,3.775,0,0,0-2.347-.58H95.492Zm1.556-4.256V4.435h.638a1.692,1.692,0,0,1,1.076.258,1.115,1.115,0,0,1,.306.9,1.115,1.115,0,0,1-.306.9,1.692,1.692,0,0,1-1.076.258ZM100.623,11h1.556l.475-1.946h2.083L105.222,11h1.556l-2.125-7.873h-1.9Zm2.341-3.227.733-3.222.738,3.222Zm7.114,3.38a3.334,3.334,0,0,0,1.176-.2,3.158,3.158,0,0,0,.986-.58V6.765h-2.426V8.073h1.065v1.5a.677.677,0,0,1-.29.132,1.506,1.506,0,0,1-.417.047,1.351,1.351,0,0,1-1.234-.68,3.939,3.939,0,0,1-.422-2.014,3.758,3.758,0,0,1,.438-2.014,1.479,1.479,0,0,1,1.329-.664,2.018,2.018,0,0,1,.928.211,2.244,2.244,0,0,1,.749.638V3.506a3.4,3.4,0,0,0-.86-.39,3.3,3.3,0,0,0-.96-.132,2.9,2.9,0,0,0-2.4,1.049,4.714,4.714,0,0,0-.844,3.027,4.815,4.815,0,0,0,.833,3.032A2.821,2.821,0,0,0,110.079,11.153ZM113,11h4.9V9.629h-3.349V7.567h3.032V6.2h-3.032V4.5H117.9V3.127H113Z" transform="translate(10.744 46.311)"/><path class="g" d="M110.079,11.653a3.336,3.336,0,0,1-2.741-1.252,3.676,3.676,0,0,1-.352-.545l.444,1.644h-2.6l-.485-1.946h-1.3l-.475,1.946h-2.6l2.4-8.873h2.67l1.394,5.163q-.03-.35-.03-.729a5.2,5.2,0,0,1,.956-3.342,3.391,3.391,0,0,1,2.788-1.234,3.807,3.807,0,0,1,1.1.151,3.89,3.89,0,0,1,.989.449l.232.147V6.265h.039V2.627h5.9V5h-3.349v.7h3.032V8.067h-3.032V9.129H118.4V11.5h-5.9v-.693a3.662,3.662,0,0,1-1.075.615A3.834,3.834,0,0,1,110.079,11.653Zm.063-8.169a2.408,2.408,0,0,0-2.01.863,4.259,4.259,0,0,0-.733,2.714,4.379,4.379,0,0,0,.727,2.724,2.312,2.312,0,0,0,1.953.868,2.826,2.826,0,0,0,1.006-.17,2.6,2.6,0,0,0,.656-.351V7.265h-1.426v.308h1.065V9.83l-.2.15a1.163,1.163,0,0,1-.455.211,1.971,1.971,0,0,1-.547.065,1.859,1.859,0,0,1-1.66-.919,4.369,4.369,0,0,1-.5-2.276,4.23,4.23,0,0,1,.518-2.286,1.983,1.983,0,0,1,1.749-.893,2.519,2.519,0,0,1,1.155.265l.022.011V3.8a2.937,2.937,0,0,0-.5-.2A2.8,2.8,0,0,0,110.142,3.484ZM113.5,10.5h3.9v-.371h-3.349V7.067h3.032V6.7h-3.032V4H117.4V3.627h-3.9Zm-7.888,0h.512l-1.855-6.873h-1.138L101.276,10.5h.51l.475-1.946h2.866Zm4.672-5.618a.989.989,0,0,0-.911.438,3.356,3.356,0,0,0-.356,1.741,3.5,3.5,0,0,0,.35,1.756.849.849,0,0,0,.806.438,1.438,1.438,0,0,0,.207-.012v-.67h-1.065V6.265h2.814l-.564-.729a1.744,1.744,0,0,0-.58-.5A1.53,1.53,0,0,0,110.285,4.882ZM49.151,11.653a3.415,3.415,0,0,1-2.81-1.236,5.266,5.266,0,0,1-.949-3.346,5.275,5.275,0,0,1,.947-3.349,3.416,3.416,0,0,1,2.812-1.238,4.318,4.318,0,0,1,.983.108,3.527,3.527,0,0,1,.893.331l.265.141v3.18l-.841-.785a2.209,2.209,0,0,0-.641-.451,1.358,1.358,0,0,0-.578-.126.94.94,0,0,0-.86.444,3.357,3.357,0,0,0-.359,1.746A3.328,3.328,0,0,0,48.368,8.8a.926.926,0,0,0,.862.452,1.378,1.378,0,0,0,.577-.129,2.375,2.375,0,0,0,.647-.453l.837-.764v3.169l-.273.139a3.938,3.938,0,0,1-.888.326A4.227,4.227,0,0,1,49.151,11.653Zm0-8.169a2.432,2.432,0,0,0-2.031.863,4.332,4.332,0,0,0-.728,2.724,4.322,4.322,0,0,0,.729,2.721,2.431,2.431,0,0,0,2.029.861,3.2,3.2,0,0,0,.75-.082,2.919,2.919,0,0,0,.39-.121V10l-.071.033a2.365,2.365,0,0,1-.99.218,1.927,1.927,0,0,1-1.7-.911,4.206,4.206,0,0,1-.516-2.273,4.225,4.225,0,0,1,.515-2.282l0,0a1.933,1.933,0,0,1,1.7-.9,2.351,2.351,0,0,1,.986.213l.075.034V3.683a2.622,2.622,0,0,0-.38-.116A3.291,3.291,0,0,0,49.151,3.484ZM30.72,11.653a5.4,5.4,0,0,1-1.336-.151,5.515,5.515,0,0,1-1.25-.458l-.271-.14V8.022l.79.561a4.5,4.5,0,0,0,1.091.6,2.835,2.835,0,0,0,.966.185.907.907,0,0,0,.584-.149.39.39,0,0,0,.135-.342.463.463,0,0,0-.1-.306l0,0a.951.951,0,0,0-.4-.263l-.761-.289a4.443,4.443,0,0,1-1.8-1.087,2.438,2.438,0,0,1-.536-1.648,2.618,2.618,0,0,1,.854-2.057,3.224,3.224,0,0,1,2.209-.737,5.3,5.3,0,0,1,1.207.135,6.318,6.318,0,0,1,1.17.4l.29.134v2.81L32.771,5.4a3.516,3.516,0,0,0-.892-.473,2.634,2.634,0,0,0-.864-.157.9.9,0,0,0-.551.12l-.005,0a.269.269,0,0,0-.1.246.221.221,0,0,0,.069.183l.006.006a2.459,2.459,0,0,0,.734.36l.671.254A3.6,3.6,0,0,1,33.448,7.02a2.492,2.492,0,0,1,.41.785V2.627h2.636a4.18,4.18,0,0,1,2.66.69,2.182,2.182,0,0,1,.548.664V2.627h5.9V5H42.257v.7H45.29V8.067H42.257V9.129h3.349V11.5H39.7V7.2a2.174,2.174,0,0,1-.546.661,4.18,4.18,0,0,1-2.662.692h-.08V11.5H33.859V9.832a2.339,2.339,0,0,1-.741,1.115A3.662,3.662,0,0,1,30.72,11.653Zm-1.857-1.371a4.632,4.632,0,0,0,.754.247h.006a4.426,4.426,0,0,0,1.1.122,2.722,2.722,0,0,0,1.758-.475A1.663,1.663,0,0,0,33,8.812a1.841,1.841,0,0,0-.342-1.174,2.648,2.648,0,0,0-1.178-.757l-.672-.254a2.959,2.959,0,0,1-1.086-.586,1.224,1.224,0,0,1-.371-.9A1.259,1.259,0,0,1,29.85,4.1a1.858,1.858,0,0,1,1.165-.331,3.628,3.628,0,0,1,1.193.212q.177.062.353.142v-.32a5.486,5.486,0,0,0-.692-.214,4.287,4.287,0,0,0-.976-.108,2.265,2.265,0,0,0-1.546.486,1.64,1.64,0,0,0-.517,1.308,1.485,1.485,0,0,0,.294,1,3.622,3.622,0,0,0,1.4.805l.769.292a1.911,1.911,0,0,1,.817.567,1.463,1.463,0,0,1,.322.936,1.391,1.391,0,0,1-.5,1.113,1.841,1.841,0,0,1-1.22.378,3.831,3.831,0,0,1-1.31-.246,4.866,4.866,0,0,1-.536-.235ZM40.7,10.5h3.9v-.371H41.257V7.067H44.29V6.7H41.257V4h3.349V3.627H40.7Zm-5.843,0h.556V7.552h1.08a3.388,3.388,0,0,0,2.034-.47,1.837,1.837,0,0,0,.525-1.493A1.837,1.837,0,0,0,38.526,4.1a3.39,3.39,0,0,0-2.032-.468H34.859ZM20.424,11.653a7.24,7.24,0,0,1-1.248-.108,7.515,7.515,0,0,1-1.186-.311l-.22-.077V11.5h-6V9.861q0-.043,0-.085a3.667,3.667,0,0,1-.315.627,2.638,2.638,0,0,1-2.373,1.25A2.678,2.678,0,0,1,6.708,10.4a6.185,6.185,0,0,1-.727-3.327,6.209,6.209,0,0,1,.727-3.337,2.638,2.638,0,0,1,2.373-1.25,2.676,2.676,0,0,1,2.378,1.25,4.064,4.064,0,0,1,.481,1.132V3.056l.33-.119A8.3,8.3,0,0,1,13.451,2.6,5.979,5.979,0,0,1,14.6,2.484a3.522,3.522,0,0,1,2.258.69,2.45,2.45,0,0,1,.9,2,2.72,2.72,0,0,1-.191,1.027l0,.012a4.367,4.367,0,0,1-.6,1.021l0,.006c-.258.319-.684.767-1.569,1.652-.085.086-.163.163-.235.233h2.5V8.5l.727.369a3.826,3.826,0,0,0,.948.331,4.894,4.894,0,0,0,1.019.121,1.29,1.29,0,0,0,.778-.18.506.506,0,0,0,.177-.438.69.69,0,0,0-.2-.53,1.08,1.08,0,0,0-.709-.2H19.06V5.606h1.333a1.091,1.091,0,0,0,.613-.14.246.246,0,0,0,.105-.24.315.315,0,0,0-.123-.285l0,0a.989.989,0,0,0-.6-.134,3.662,3.662,0,0,0-.825.1l-.008,0a6.606,6.606,0,0,0-.973.3l-.682.267V2.95l.356-.107a9.435,9.435,0,0,1,1.131-.267,6.754,6.754,0,0,1,1.091-.091,3.555,3.555,0,0,1,2.257.651,2.312,2.312,0,0,1,.885,1.889,2.081,2.081,0,0,1-.774,1.711,2.213,2.213,0,0,1,.4.365A2.516,2.516,0,0,1,23.8,8.817a2.641,2.641,0,0,1-.909,2.12A3.79,3.79,0,0,1,20.424,11.653ZM18.657,10.4a6.547,6.547,0,0,0,.694.162,6.224,6.224,0,0,0,1.073.093,2.853,2.853,0,0,0,1.828-.487A1.656,1.656,0,0,0,22.8,8.817a1.572,1.572,0,0,0-.322-1.066,1.578,1.578,0,0,0-.947-.495,1.571,1.571,0,0,1,.239.174l.006.005a1.692,1.692,0,0,1,.532,1.271,1.508,1.508,0,0,1-.549,1.216l0,0a2.18,2.18,0,0,1-1.4.4,5.836,5.836,0,0,1-1.232-.144q-.235-.05-.461-.121ZM9.081,3.484a1.653,1.653,0,0,0-1.529.786,5.376,5.376,0,0,0-.571,2.8,5.35,5.35,0,0,0,.571,2.79,1.68,1.68,0,0,0,1.534.791,1.653,1.653,0,0,0,1.529-.786,5.363,5.363,0,0,0,.571-2.8,5.376,5.376,0,0,0-.571-2.8A1.658,1.658,0,0,0,9.081,3.484ZM12.772,10.5h4v-.371h-4Zm0-.628v.113l.66-.7a2.737,2.737,0,0,1,.383-.328,6.729,6.729,0,0,0,.864-.766c.848-.848,1.268-1.289,1.5-1.575a3.358,3.358,0,0,0,.458-.774,1.728,1.728,0,0,0,.123-.665,1.457,1.457,0,0,0-.527-1.225A2.6,2.6,0,0,0,14.6,3.484a4.989,4.989,0,0,0-.959.1,6.587,6.587,0,0,0-.7.184v.29q.217-.09.433-.159a3.508,3.508,0,0,1,1.087-.188,1.817,1.817,0,0,1,1.242.414,1.547,1.547,0,0,1,.481,1.173,2.11,2.11,0,0,1-.223.928,4.159,4.159,0,0,1-.641.906l0,.005c-.292.33-.593.652-1.486,1.609L12.773,9.871Zm-.678-4.243a10.273,10.273,0,0,1,.092,1.442,8.366,8.366,0,0,1-.266,2.275,1.128,1.128,0,0,1,.111-.146l.008-.009L13.1,8.06c.884-.947,1.183-1.268,1.465-1.587a3.215,3.215,0,0,0,.494-.68l0-.007a1.106,1.106,0,0,0,.123-.492.591.591,0,0,0-.151-.43.874.874,0,0,0-.572-.156,2.521,2.521,0,0,0-.778.139,5.337,5.337,0,0,0-.995.445ZM20.06,6.977h.333a2.244,2.244,0,0,1,1.089.251l0-.879a2.119,2.119,0,0,1-1.086.257H20.06ZM21.6,4.151a1.31,1.31,0,0,1,.508,1.074,1.23,1.23,0,0,1-.449,1,1.36,1.36,0,0,0,.679-.386l0,0a1.109,1.109,0,0,0,.269-.806,1.3,1.3,0,0,0-.5-1.1,2.608,2.608,0,0,0-1.637-.437,5.755,5.755,0,0,0-.927.078c-.21.036-.428.082-.65.139v.336c.151-.044.3-.082.44-.112A4.687,4.687,0,0,1,20.382,3.8,1.878,1.878,0,0,1,21.6,4.151ZM97.548,11.5H94.992V2.627h2.636a4.18,4.18,0,0,1,2.66.69,2.764,2.764,0,0,1,.9,2.273,2.764,2.764,0,0,1-.9,2.271,4.18,4.18,0,0,1-2.662.692h-.08Zm-1.556-1h.556V7.552h1.08a3.388,3.388,0,0,0,2.034-.47,1.837,1.837,0,0,0,.525-1.493A1.837,1.837,0,0,0,99.66,4.1a3.39,3.39,0,0,0-2.032-.468H95.992Zm-8.333,1H79.017V9.958L78.84,11.5h-2.3l-.477-2.2-.446,2.2H73.327L72.233,2.627h2.38l.26,2.665.114-.624H77.1l.154.726.212-2.766h7.156V2.616H87.66a3.687,3.687,0,0,1,2.28.6A2.266,2.266,0,0,1,90.8,5.1a2.208,2.208,0,0,1-.517,1.519l-.006.007q-.058.062-.121.119a2.043,2.043,0,0,1,.346.314,2.616,2.616,0,0,1,.577,1.779,2.4,2.4,0,0,1-.886,2.046A4.2,4.2,0,0,1,87.66,11.5Zm-2.037-1H87.66a3.415,3.415,0,0,0,1.931-.412,1.444,1.444,0,0,0,.485-1.245,1.664,1.664,0,0,0-.329-1.121,1.311,1.311,0,0,0-.725-.391h0a1.652,1.652,0,0,1,.477,1.29,1.584,1.584,0,0,1-.468,1.259l0,0a2.074,2.074,0,0,1-1.366.371H86.126V6.925H87.66a2.384,2.384,0,0,1,1.055.2V6.436a1.881,1.881,0,0,1-1.055.25H86.126V3.855H87.66a1.7,1.7,0,0,1,1.164.342l.006.005a1.35,1.35,0,0,1,.422,1.076,1.383,1.383,0,0,1-.33.981,1.107,1.107,0,0,0,.614-.3A1.236,1.236,0,0,0,89.8,5.1a1.275,1.275,0,0,0-.461-1.094,2.813,2.813,0,0,0-1.675-.394H85.623Zm-5.606,0h3.9v-.371H80.573V7.067h3.032V6.7H80.573V4h3.349V3.627h-3.9Zm-2.67,0h.6l.792-6.873h-.347l-.408,5.318-.962.064Zm-3.136,0H74.8l.306-1.509-.88-.036-.52-5.328h-.342ZM87.126,9.255h.534a1.215,1.215,0,0,0,.719-.133c.031-.028.12-.142.12-.5a.767.767,0,0,0-.145-.545,1.058,1.058,0,0,0-.694-.152h-.534Zm-5.553-.127h3.05V5h-3.05v.7h3.032V8.067H81.573ZM75.821,5.668l-.2,1.1.9-.006-.231-1.092Zm11.3.018h.534c.338,0,.466-.05.515-.093.027-.024.077-.067.077-.315s-.052-.3-.081-.324a.954.954,0,0,0-.511-.1h-.534ZM69.216,11.5H61.2L60.71,9.554h-1.3L58.936,11.5H51.388V9.129h1.566V5H51.388V2.627h5.688V5H55.51V9.129h1.465l1.755-6.5H61.4l1.933,7.162V2.627h2.556v6.5h3.328Zm-4.883-1h3.883v-.371H64.888v-6.5h-.556Zm-2.356,0h.512L60.633,3.627H59.5L57.64,10.5h.51l.475-1.946h2.866Zm-9.589,0h3.688v-.371H54.51V4h1.566V3.627H52.388V4h1.566v6.131H52.388Zm-46.282,1h-6V9.861A.954.954,0,0,1,.366,9.2l.008-.009L1.433,8.06C2.317,7.113,2.616,6.793,2.9,6.474a3.215,3.215,0,0,0,.494-.68l0-.007a1.106,1.106,0,0,0,.123-.492.591.591,0,0,0-.151-.43.874.874,0,0,0-.572-.156,2.521,2.521,0,0,0-.778.139,5.337,5.337,0,0,0-.995.445l-.747.426V3.056L.6,2.936A8.3,8.3,0,0,1,1.786,2.6a5.979,5.979,0,0,1,1.151-.115,3.522,3.522,0,0,1,2.258.69,2.45,2.45,0,0,1,.9,2A2.72,2.72,0,0,1,5.9,6.206l0,.012a4.367,4.367,0,0,1-.6,1.021l0,.006c-.258.319-.684.767-1.569,1.652-.085.086-.163.163-.235.233H6.106Zm-5-1h4v-.371h-4Zm0-.628v.113l.66-.7a2.736,2.736,0,0,1,.383-.328,6.728,6.728,0,0,0,.864-.766c.847-.847,1.268-1.289,1.5-1.574a3.356,3.356,0,0,0,.459-.774A1.727,1.727,0,0,0,5.1,5.178a1.457,1.457,0,0,0-.527-1.225,2.6,2.6,0,0,0-1.631-.468,4.989,4.989,0,0,0-.959.1,6.588,6.588,0,0,0-.7.184v.29q.217-.09.433-.159a3.508,3.508,0,0,1,1.087-.188,1.817,1.817,0,0,1,1.242.414,1.547,1.547,0,0,1,.481,1.173,2.11,2.11,0,0,1-.223.928,4.161,4.161,0,0,1-.641.906l0,.005c-.292.33-.592.652-1.485,1.609L1.108,9.871Zm7.974.462A1.312,1.312,0,0,1,7.827,9.35a6.917,6.917,0,0,1-.279-2.279,6.94,6.94,0,0,1,.279-2.282,1.295,1.295,0,0,1,2.514,0,6.938,6.938,0,0,1,.279,2.284,6.918,6.918,0,0,1-.279,2.277A1.317,1.317,0,0,1,9.081,10.335ZM8.753,8.97,8.764,9c.124.332.254.332.317.332s.2,0,.323-.334l.009-.024a.554.554,0,0,1-.326.1A.544.544,0,0,1,8.753,8.97Zm.323-3.912a.549.549,0,0,1,.338.108L9.4,5.135C9.279,4.8,9.15,4.8,9.081,4.8s-.193,0-.317.334l-.006.017A.58.58,0,0,1,9.076,5.058Zm95.988,3.215h-2.725l.872-3.833h.975Zm-43.636,0H58.7l.872-3.833h.975ZM97.686,7.244H96.548V3.935h1.138a2.122,2.122,0,0,1,1.4.377,1.59,1.59,0,0,1,.483,1.278,1.59,1.59,0,0,1-.483,1.278A2.122,2.122,0,0,1,97.686,7.244Zm-.138-1h.138c.545,0,.714-.107.753-.14a.725.725,0,0,0,.129-.515.725.725,0,0,0-.129-.515c-.039-.033-.208-.14-.753-.14h-.138Zm-61,1H35.414V3.935h1.138a2.122,2.122,0,0,1,1.4.377,1.59,1.59,0,0,1,.483,1.278,1.59,1.59,0,0,1-.483,1.278A2.122,2.122,0,0,1,36.552,7.244Zm-.138-1h.138c.545,0,.714-.107.753-.14a.725.725,0,0,0,.129-.515.736.736,0,0,0-.129-.515c-.039-.033-.208-.14-.753-.14h-.138Z" transform="translate(10.744 46.311)"/></g></g></svg>