<svg xmlns="http://www.w3.org/2000/svg" xmlns:xlink="http://www.w3.org/1999/xlink" width="124" height="163" viewBox="0 0 124 163">
  <defs>
    <linearGradient id="linear-gradient" x1="0.5" x2="1" y2="1" gradientUnits="objectBoundingBox">
      <stop offset="0" stop-color="#e345e6"/>
      <stop offset="0.559" stop-color="#4fc2e6"/>
      <stop offset="0.64" stop-color="#45cbe6"/>
      <stop offset="1" stop-color="#360a73"/>
    </linearGradient>
  </defs>
  <g id="グループ_932" data-name="グループ 932" transform="translate(-126 -245)">
    <g id="icon-MyNote" transform="translate(157.5 245)">
      <g id="グループ_1009" data-name="グループ 1009" transform="translate(0)">
        <path id="合体_10" data-name="合体 10" d="M1,60V47H49V60ZM0,45V0H54V45Z" transform="translate(4.864 5)" fill="#fff"/>
        <path id="前面オブジェクトで型抜き_1" data-name="前面オブジェクトで型抜き 1" d="M58.5,72h-45A13.515,13.515,0,0,1,0,58.5v-45A13.515,13.515,0,0,1,13.5,0h45A4.505,4.505,0,0,1,63,4.5v45A4.505,4.505,0,0,1,58.5,54v9a4.5,4.5,0,0,1,0,9Zm-45-18a4.5,4.5,0,0,0,0,9h36V54Zm5.75-17C18.043,37,17,37,17,38.25s1.043,1.25,2.25,1.25h27c1.207,0,2.25,0,2.25-1.25S47.457,37,46.25,37Zm0-10C18.043,27,17,27,17,28.25s1.043,1.25,2.25,1.25h27c1.207,0,2.25,0,2.25-1.25S47.457,27,46.25,27Zm-.266-5.648a.6.6,0,0,0-.6.724c.038.554.487.834,1.333.834.09,0,.191,0,.309-.012a6.133,6.133,0,0,0,3.96-1.624c1.2-1.173,1.715-3.016,1.543-5.476l-.079-1.136c-.082-1.157-.377-1.744-.878-1.744l-.046,0c-.261.018-.5.258-.733.733a15.381,15.381,0,0,1-1.1,2.054,1.646,1.646,0,0,1-1.117.845l-.046,0c-.236,0-.355-.137-.376-.432a15,15,0,0,1,.042-1.588q.015-.258.029-.471c.032-.517.051-.829.042-.949a2.714,2.714,0,0,0-.28-1.071c-.168-.342-.385-.515-.643-.515h-.04a.807.807,0,0,0-.573.225.627.627,0,0,0-.128.471,1.4,1.4,0,0,0,.115.435,2.111,2.111,0,0,1,.116.435,15.4,15.4,0,0,1-.027,1.57,15.016,15.016,0,0,0-.007,1.6,1.959,1.959,0,0,0,.571,1.34,1.464,1.464,0,0,0,1.126.461c.054,0,.11,0,.166-.006.861-.061,1.707-.756,2.514-2.067a10.267,10.267,0,0,1-.02,1.654A3.953,3.953,0,0,1,22.913,20.3a5.1,5.1,0,0,1-3.006,1.094c-.408-.022-.719-.035-.923-.038Zm-4.8-10.6h0c.562,3,.845,4.437.977,4.955a14.556,14.556,0,0,0,1.712,4.5c.409.634.807.956,1.181.956l.045,0a.77.77,0,0,0,.493-.257.835.835,0,0,0,.185-.524,2.274,2.274,0,0,0-.129-.293c-.038-.08-.082-.175-.133-.285a1.256,1.256,0,0,0-.643-.654,9.517,9.517,0,0,1-1.148-3c-.086-.35-.327-1.389-.719-3.461a21.3,21.3,0,0,0-1.076-3.946.681.681,0,0,0-.634-.5l-.049,0a.609.609,0,0,0-.553.38,27.81,27.81,0,0,0-1.967,6.239A19.707,19.707,0,0,1,8.594,8.276a.676.676,0,0,0-.647-.549l-.055,0a.671.671,0,0,0-.635.436,18.291,18.291,0,0,0-.616,1.9.965.965,0,0,0-.428-.122H6.171a.689.689,0,0,0-.5.209.7.7,0,0,0-.133.516v.014c.01.133.022.3.052.493.009.139.023.256.035.35.008.068.015.126.018.175a22.884,22.884,0,0,1-.007,2.336c-.047,1.3-.058,2.09-.035,2.422a6.9,6.9,0,0,0,.309,1.733c.225.639.505.963.834.963h.035c.4-.028.587-.376.573-1.063-.054-1.257-.052-2.456.006-3.562a28.935,28.935,0,0,1,.53-4.127A14.838,14.838,0,0,0,9.3,13.68a10.271,10.271,0,0,0,2.037,2.805,1.27,1.27,0,0,0,.836.435l.046,0c.351-.024.563-.274.63-.743A37.171,37.171,0,0,1,14.185,10.752ZM28.638,7.677l-.062,0a.855.855,0,0,0-.5.325.791.791,0,0,0-.252.545.388.388,0,0,0,.085.233,51.036,51.036,0,0,0-.47,9.372l.1,1.425a.619.619,0,0,0,.271.458.7.7,0,0,0,.456.205H28.3c.3-.021.479-.2.541-.55a11,11,0,0,0,.205-2.178.943.943,0,0,0-.149-.416l-.152.011a42.957,42.957,0,0,1,.269-6.137,17.465,17.465,0,0,0,1.859,2.443c.311.359.973,1.043,2.148,2.219,1.007,1.028,1.44,1.458,1.5,1.514.28.243.445.345.57.352a.737.737,0,0,0,.409.158h.029a.613.613,0,0,0,.646-.744c0-.016-.023-.12-.067-.327l-.009-.043a23.347,23.347,0,0,1-.532-2.723,23.3,23.3,0,0,1,.51-7.09,2.735,2.735,0,0,0,.094-.6.694.694,0,0,0-.237-.46.67.67,0,0,0-.438-.19H35.46a.708.708,0,0,0-.625.572,15.418,15.418,0,0,0-.571,3.533,24.127,24.127,0,0,0-.072,3.6c.039.563.113,1.2.218,1.894-2.717-2.654-4.391-4.761-5.12-6.442.008-.046.017-.086.024-.122a.675.675,0,0,0,.023-.17.694.694,0,0,0-.239-.5A.683.683,0,0,0,28.638,7.677Zm17.792,4.053h0l-.337,2.476a13.8,13.8,0,0,0-.153,2.448c.062.886.352,1.335.862,1.335l.066,0a.77.77,0,0,0,.478-.238.678.678,0,0,0,.2-.491.7.7,0,0,0-.3-.576,15.771,15.771,0,0,1,.16-2.584c.047-.339.183-1.207.388-2.5.062,0,.142-.008.243-.012.174-.007.409-.017.707-.038.45-.015.728-.034.862-.044h.021a.825.825,0,0,0,.56.2q.042,0,.085,0a.581.581,0,0,0,.423-.285.962.962,0,0,0,.148-.572c-.037-.524-.508-.779-1.441-.779h-.1c-.354.016-.636.027-.846.036s-.352.014-.411.018c.157-1.116.316-2.045.472-2.76l.072-.289c.092-.369.171-.687.232-.976-.082-.481-.314-.715-.708-.715l-.074,0c-.3.021-.5.219-.572.586-.246,1.093-.524,2.534-.825,4.284a1.863,1.863,0,0,0-.789.175.617.617,0,0,0-.262.632.642.642,0,0,0,.721.678c.035,0,.071,0,.108,0Zm-5.635-.986h-.006a1,1,0,0,0-.477.255,4.466,4.466,0,0,1-.539.328,3.114,3.114,0,0,0-1.285,1.606,4.408,4.408,0,0,0-.347,2.1,3.174,3.174,0,0,0,.845,2.088,2.3,2.3,0,0,0,1.661.713c.063,0,.121,0,.177-.006a2.483,2.483,0,0,0,1.988-1.3,4.957,4.957,0,0,0,.63-2.941,3.156,3.156,0,0,0-.687-1.776,3.064,3.064,0,0,0-1.553-1A3.414,3.414,0,0,0,40.794,10.745Zm13.421,4.616h0A3.008,3.008,0,0,0,56.9,16.919c.088,0,.184,0,.284-.01,1.12-.078,1.692-.407,1.654-.951a.818.818,0,0,0-.238-.494.711.711,0,0,0-.455-.188h-.036a3.931,3.931,0,0,0-.424.071l-.216.042a6.393,6.393,0,0,1-.641.1c-.037,0-.075,0-.112,0a1.767,1.767,0,0,1-1.3-.638c1.624-1.03,2.4-2.184,2.316-3.433a1.894,1.894,0,0,0-.7-1.3,1.82,1.82,0,0,0-1.189-.528q-.046,0-.092,0a2.071,2.071,0,0,0-1.71,1.381,4.574,4.574,0,0,0-.45,2.333,4.03,4.03,0,0,0,.116.69l-.39.027-.07,0a1.21,1.21,0,0,1-.643-.208,1.224,1.224,0,0,0-.514-.22h-.012c-.439.031-.644.287-.611.759.027.382.325.662.912.857a3.324,3.324,0,0,0,1.093.188c.076,0,.154,0,.232-.008l.508-.036Zm-13.583,1.05a.92.92,0,0,1-.773-.421,1.77,1.77,0,0,1-.4-1.046,3,3,0,0,1,.284-1.553,1.365,1.365,0,0,1,1.112-.913,1.169,1.169,0,0,0,.534.111c.044,0,.091,0,.138,0,.336.18.539.649.59,1.356a2.958,2.958,0,0,1-.364,1.627,1.384,1.384,0,0,1-1.049.841Zm14.375-2.894v0l-.021-.3a3.5,3.5,0,0,1,.145-1.34c.133-.518.355-.791.659-.813h.028a.73.73,0,0,1,.391.142.657.657,0,0,1,.2.378c.039.557-.43,1.209-1.4,1.937Z" fill="url(#linear-gradient)"/>
      </g>
    </g>
    <g id="グループ_931" data-name="グループ 931" transform="translate(0 -8)">
      <text id="MyNote" transform="translate(188 379)" fill="#010326" font-size="40" font-family="HanziPenSC-W5, HanziPen SC" letter-spacing="-0.02em"><tspan x="-62" y="0">MyNote</tspan></text>
      <text id="マイノート" transform="translate(188 411)" fill="#010326" font-size="16" font-family="HanziPenSC-W5, HanziPen SC" letter-spacing="-0.02em"><tspan x="-40.56" y="0">マイノート</tspan></text>
    </g>
  </g>
</svg>
