<svg xmlns="http://www.w3.org/2000/svg" xmlns:xlink="http://www.w3.org/1999/xlink" width="63" height="72" viewBox="0 0 63 72">
  <defs>
    <linearGradient id="linear-gradient" x1="0.5" x2="1" y2="1" gradientUnits="objectBoundingBox">
      <stop offset="0" stop-color="#e345e6"/>
      <stop offset="0.559" stop-color="#4fc2e6"/>
      <stop offset="0.64" stop-color="#45cbe6"/>
      <stop offset="1" stop-color="#360a73"/>
    </linearGradient>
  </defs>
  <g id="MyNote" transform="translate(-4857 -2183)">
    <path id="合体_10" data-name="合体 10" d="M530,537V524h48v13Zm-1-15V478h54v44Z" transform="translate(4332.864 1711)" fill="#fff"/>
    <path id="前面オブジェクトで型抜き_1" data-name="前面オブジェクトで型抜き 1" d="M587.5,550h-45A13.515,13.515,0,0,1,529,536.5v-45A13.515,13.515,0,0,1,542.5,478h45a4.505,4.505,0,0,1,4.5,4.5v45a4.505,4.505,0,0,1-4.5,4.5v9a4.5,4.5,0,0,1,0,9Zm-45-18a4.5,4.5,0,0,0,0,9h36v-9Zm5.75-17c-1.207,0-2.25,0-2.25,1.25s1.043,1.25,2.25,1.25h27c1.207,0,2.25,0,2.25-1.25s-1.043-1.25-2.25-1.25Zm0-10c-1.207,0-2.25,0-2.25,1.25s1.043,1.25,2.25,1.25h27c1.207,0,2.25,0,2.25-1.25s-1.043-1.25-2.25-1.25Zm-.861-6.764a1.062,1.062,0,0,0-.278.063.592.592,0,0,0-.2.127.516.516,0,0,0-.126.19.738.738,0,0,0-.046.255.588.588,0,0,0,.09.345.66.66,0,0,0,.288.235,1.59,1.59,0,0,0,.486.121,3.228,3.228,0,0,0,.35.017c.109,0,.221,0,.334-.012a9.241,9.241,0,0,0,1.181-.156,7.44,7.44,0,0,0,1.066-.294,6.569,6.569,0,0,0,.957-.43,6.335,6.335,0,0,0,.848-.564,4.833,4.833,0,0,0,.845-.878,5.12,5.12,0,0,0,.614-1.086,6.506,6.506,0,0,0,.381-1.3,9.108,9.108,0,0,0,.145-1.511l.017-.984a4.075,4.075,0,0,0-.039-.671,1.616,1.616,0,0,0-.141-.475.66.66,0,0,0-.241-.276.554.554,0,0,0-.291-.076l-.05,0a.589.589,0,0,0-.2.052.871.871,0,0,0-.2.125,1.493,1.493,0,0,0-.194.2,2.591,2.591,0,0,0-.193.265c-.152.238-.273.424-.379.585-.118.179-.23.345-.335.494s-.2.283-.293.4-.175.22-.251.305a3.559,3.559,0,0,1-.305.311,2.3,2.3,0,0,1-.3.227,1.492,1.492,0,0,1-.289.143,1.033,1.033,0,0,1-.281.061l-.049,0a.5.5,0,0,1-.124-.014.256.256,0,0,1-.118-.067.265.265,0,0,1-.068-.119.551.551,0,0,1-.019-.172c0-.058.005-.132.014-.218s.018-.177.034-.3.035-.253.055-.386.046-.292.076-.469l.016-.1q.034-.2.061-.365l.007-.04,0-.013c.02-.115.037-.217.051-.306.02-.119.032-.2.04-.256a1.277,1.277,0,0,0,.014-.151,2.385,2.385,0,0,0-.007-.257,2.036,2.036,0,0,0-.032-.24,1.891,1.891,0,0,0-.058-.223,1.427,1.427,0,0,0-.084-.2,1.01,1.01,0,0,0-.121-.2.661.661,0,0,0-.145-.139.527.527,0,0,0-.169-.078.556.556,0,0,0-.146-.019h-.045a1.376,1.376,0,0,0-.328.059.7.7,0,0,0-.231.121.5.5,0,0,0-.139.184.621.621,0,0,0-.049.244c0,.022,0,.045,0,.071s.006.054.012.085.013.062.023.1.023.075.039.118l.007.024c.009.034.018.065.025.095s.018.068.024.1.012.058.015.084a.4.4,0,0,1,0,.072c0,.066-.005.145-.014.247s-.019.2-.032.307-.031.236-.05.368-.04.277-.065.433-.044.289-.063.436-.034.28-.045.379c-.012.115-.021.222-.027.318s-.011.187-.012.253a2.035,2.035,0,0,0,.021.345,1.591,1.591,0,0,0,.08.308,1.321,1.321,0,0,0,.141.271,1.3,1.3,0,0,0,.2.233,1.241,1.241,0,0,0,.242.193,1.26,1.26,0,0,0,.284.127,1.615,1.615,0,0,0,.329.063c.06.006.125.008.192.008s.122,0,.186-.007a2.287,2.287,0,0,0,.649-.147,3.252,3.252,0,0,0,.658-.352,5.042,5.042,0,0,0,.669-.555,8.215,8.215,0,0,0,.678-.76c0,.139-.008.259-.015.37-.01.131-.021.249-.033.362s-.027.214-.049.355c-.02.122-.04.236-.063.349a4.135,4.135,0,0,1-.529,1.321,3.566,3.566,0,0,1-.928.988,4.639,4.639,0,0,1-1.33.654,7.75,7.75,0,0,1-1.731.321l-.284-.011-.246-.008-.208-.005h-.17Zm-3.767-9.135v0q.1.885.176,1.593c.051.458.1.877.143,1.244.042.351.079.65.111.889s.06.42.082.535c.072.426.154.837.245,1.22s.192.739.3,1.057a8.557,8.557,0,0,0,.346.89,5.543,5.543,0,0,0,.391.72,3.094,3.094,0,0,0,.271.37,1.751,1.751,0,0,0,.279.262,1.008,1.008,0,0,0,.284.151.751.751,0,0,0,.238.04l.05,0a.677.677,0,0,0,.136-.022.862.862,0,0,0,.13-.047,1.056,1.056,0,0,0,.124-.069,1.338,1.338,0,0,0,.119-.087,1.47,1.47,0,0,0,.093-.117.906.906,0,0,0,.072-.116.6.6,0,0,0,.046-.113.442.442,0,0,0,.018-.112.217.217,0,0,0-.014-.049c-.01-.025-.023-.059-.041-.1l-.028-.064,0-.008,0-.01-.03-.069-.048-.112,0-.011-.034-.078a1.419,1.419,0,0,0-.118-.2,1.059,1.059,0,0,0-.136-.163.865.865,0,0,0-.152-.121.8.8,0,0,0-.168-.077,2.9,2.9,0,0,1-.254-.447,5.42,5.42,0,0,1-.228-.584c-.072-.219-.14-.46-.2-.716s-.122-.544-.178-.847c-.02-.117-.047-.277-.076-.473s-.06-.405-.094-.655-.07-.532-.108-.837-.077-.643-.119-1.017-.088-.7-.136-1.006c-.052-.331-.1-.624-.161-.9s-.122-.551-.187-.79-.141-.478-.218-.687a.8.8,0,0,0-.1-.194.58.58,0,0,0-.139-.136.536.536,0,0,0-.175-.076.641.641,0,0,0-.149-.017l-.059,0a.9.9,0,0,0-.185.031.655.655,0,0,0-.156.067.64.64,0,0,0-.13.1.72.72,0,0,0-.1.132c-.234.365-.464.754-.681,1.155s-.438.84-.642,1.281-.406.911-.6,1.408c-.188.473-.377.991-.563,1.537a7,7,0,0,1-.707-.995,11.509,11.509,0,0,1-.644-1.271c-.2-.471-.4-.991-.581-1.543s-.357-1.165-.521-1.815a.789.789,0,0,0-.09-.213.531.531,0,0,0-.136-.148.509.509,0,0,0-.181-.084.71.71,0,0,0-.165-.018l-.061,0a1.091,1.091,0,0,0-.22.037.811.811,0,0,0-.182.077.684.684,0,0,0-.147.114.7.7,0,0,0-.11.151c-.063.114-.128.236-.2.373s-.137.27-.2.4-.132.279-.194.419-.132.3-.191.446c-.04-.018-.079-.034-.12-.049a1.053,1.053,0,0,0-.114-.032.968.968,0,0,0-.109-.017l-.057,0h-.046a1.1,1.1,0,0,0-.294.059.6.6,0,0,0-.211.126.517.517,0,0,0-.13.191.734.734,0,0,0-.049.253c0,.029,0,.059,0,.093s0,.067,0,.1,0,.074,0,.113,0,.082.005.125,0,.1,0,.141,0,.085,0,.121,0,.072,0,.1,0,.058,0,.085c0,.117-.011.25-.024.419-.012.146-.028.3-.049.473-.018.155-.041.328-.069.528-.025.181-.054.373-.086.588-.042.275-.079.527-.111.751s-.058.411-.082.6-.039.327-.051.446-.02.222-.022.294c0,.138-.005.275,0,.408s.008.248.019.387.026.248.046.365a3.443,3.443,0,0,0,.074.338,2.224,2.224,0,0,0,.141.374,1.093,1.093,0,0,0,.174.262.609.609,0,0,0,.206.151.5.5,0,0,0,.2.04h.037a.646.646,0,0,0,.266-.074.6.6,0,0,0,.2-.178.973.973,0,0,0,.131-.284,1.991,1.991,0,0,0,.069-.389c.016-.261.035-.525.058-.8s.049-.536.077-.782c.03-.272.062-.519.1-.758s.07-.483.112-.732c.046-.276.1-.56.159-.844s.128-.573.2-.874.159-.6.248-.9.19-.624.292-.931c.041.2.1.426.164.658s.144.454.232.686.19.473.3.715.23.481.369.744.278.531.419.767.287.459.428.654a6.311,6.311,0,0,0,.438.544,4.874,4.874,0,0,0,.447.438,1.808,1.808,0,0,0,.218.175,1.322,1.322,0,0,0,.211.118.983.983,0,0,0,.2.063.764.764,0,0,0,.142.014l.052,0a.775.775,0,0,0,.233-.052.637.637,0,0,0,.194-.124.777.777,0,0,0,.152-.2,1.231,1.231,0,0,0,.107-.274c.094-.335.205-.694.331-1.067s.261-.744.412-1.138.32-.806.492-1.209.363-.832.567-1.271Zm14.436-2.773-.073,0a.473.473,0,0,0-.117.024.789.789,0,0,0-.125.056,1.373,1.373,0,0,0-.135.087c-.046.034-.1.073-.146.116a1.658,1.658,0,0,0-.131.135.888.888,0,0,0-.09.122.5.5,0,0,0-.053.112.347.347,0,0,0-.017.1.271.271,0,0,0,0,.054.323.323,0,0,0,.01.052.294.294,0,0,0,.02.049.25.25,0,0,0,.031.044c-.191.807-.366,1.608-.52,2.381s-.279,1.487-.379,2.146-.183,1.316-.238,1.909-.088,1.159-.1,1.668l-.019,1.239a.425.425,0,0,0,.011.107.389.389,0,0,0,.041.1.486.486,0,0,0,.071.1.747.747,0,0,0,.107.093,1.006,1.006,0,0,0,.113.081.8.8,0,0,0,.115.057.6.6,0,0,0,.118.031.541.541,0,0,0,.086.006h.038a.713.713,0,0,0,.206-.042.547.547,0,0,0,.165-.094.581.581,0,0,0,.124-.148.851.851,0,0,0,.086-.2c.067-.244.12-.448.164-.626s.088-.368.119-.524.056-.3.072-.423a2.639,2.639,0,0,0,.027-.325.478.478,0,0,0-.007-.1.584.584,0,0,0-.023-.091.822.822,0,0,0-.036-.088c-.014-.028-.03-.057-.046-.085l-.151.01c.013-.333.039-.693.076-1.071s.088-.8.151-1.244c.068-.468.145-.944.23-1.414.087-.488.191-1.021.31-1.582.106.168.227.35.36.541s.264.365.392.53.281.352.425.518.3.337.456.5c.069.077.161.174.289.3s.256.257.42.418.373.361.552.533l.684.649q.319.309.563.543c.163.157.3.289.415.4s.2.192.267.252.106.1.122.111c.068.055.119.094.164.127a1.64,1.64,0,0,0,.142.094.79.79,0,0,0,.123.059.338.338,0,0,0,.108.022,1.115,1.115,0,0,0,.12.068.766.766,0,0,0,.109.042.556.556,0,0,0,.1.022.519.519,0,0,0,.057,0l.036,0a1.119,1.119,0,0,0,.3-.057.625.625,0,0,0,.218-.126.515.515,0,0,0,.133-.2.773.773,0,0,0,.047-.271.279.279,0,0,0,0-.028c0-.015-.005-.035-.009-.062l-.007-.043-.008-.054c0-.021-.007-.044-.011-.069l-.01-.065c-.052-.287-.1-.573-.145-.85-.038-.241-.071-.469-.1-.676s-.045-.371-.056-.5-.017-.25-.016-.328c.005-.552.031-1.1.076-1.621s.112-1.055.2-1.56.195-1.01.323-1.5.28-.971.451-1.44c.022-.063.041-.122.058-.176s.032-.1.044-.146.021-.083.027-.115a.455.455,0,0,0,.01-.082.413.413,0,0,0-.012-.106.456.456,0,0,0-.036-.1.609.609,0,0,0-.062-.1.82.82,0,0,0-.087-.093.959.959,0,0,0-.1-.071.715.715,0,0,0-.11-.051.62.62,0,0,0-.115-.03.63.63,0,0,0-.084-.006h-.039a.752.752,0,0,0-.211.045.676.676,0,0,0-.18.1.794.794,0,0,0-.149.152,1.078,1.078,0,0,0-.118.2,6.206,6.206,0,0,0-.236.579c-.078.222-.151.457-.217.7s-.136.525-.2.821-.126.617-.183.945c-.057.31-.108.61-.151.892s-.079.557-.108.815-.051.5-.067.739-.024.46-.026.663q0,.138,0,.308c0,.133.005.255.009.375s.011.279.022.443.022.34.036.513c-.617-.567-1.173-1.106-1.654-1.6s-.935-1-1.309-1.453a13.843,13.843,0,0,1-.961-1.3,7.168,7.168,0,0,1-.612-1.156l.018-.058.008-.024.008-.025c.005-.015.01-.029.014-.042s.012-.039.016-.056a.231.231,0,0,0,.006-.048.7.7,0,0,0-.011-.124.5.5,0,0,0-.036-.112.463.463,0,0,0-.062-.1.564.564,0,0,0-.086-.086.606.606,0,0,0-.105-.068.614.614,0,0,0-.119-.047.853.853,0,0,0-.131-.023Zm17.241,3.327h0l-.511,2.15c-.052.227-.1.449-.145.68s-.076.415-.1.583-.046.335-.06.483-.02.266-.021.383a2.328,2.328,0,0,0,.05.522,1.02,1.02,0,0,0,.154.369.6.6,0,0,0,.259.212.743.743,0,0,0,.3.055l.071,0a.706.706,0,0,0,.124-.02.77.77,0,0,0,.122-.041.99.99,0,0,0,.122-.064,1.411,1.411,0,0,0,.125-.086,1.37,1.37,0,0,0,.1-.107.82.82,0,0,0,.075-.106.549.549,0,0,0,.046-.108.408.408,0,0,0,.016-.109.758.758,0,0,0-.016-.163.537.537,0,0,0-.048-.136.466.466,0,0,0-.079-.112.552.552,0,0,0-.112-.089c.01-.181.023-.348.04-.509.018-.178.041-.362.068-.546s.062-.384.1-.581.084-.4.135-.614c.017-.071.041-.169.073-.3l.031-.123,0-.017q.036-.142.082-.319l.057-.219.105-.407.119-.454.088-.336c.042,0,.093-.006.153-.009l.088,0,.119-.005.264-.013c.1-.005.205-.012.324-.021l.32-.013.253-.013.171-.011h.015l.121-.008a.67.67,0,0,0,.136.085.74.74,0,0,0,.152.053.9.9,0,0,0,.165.025l.081,0c.031,0,.062,0,.093,0a.5.5,0,0,0,.114-.022.539.539,0,0,0,.112-.05.651.651,0,0,0,.109-.076.869.869,0,0,0,.1-.1,1.152,1.152,0,0,0,.079-.118.882.882,0,0,0,.058-.122.786.786,0,0,0,.037-.127.7.7,0,0,0,.012-.13.5.5,0,0,0-.093-.305.653.653,0,0,0-.276-.21,1.648,1.648,0,0,0-.46-.118,3.851,3.851,0,0,0-.5-.029l-.148,0-.478.022-.369.017-.037,0-.221.01-.146.007c.056-.231.115-.467.175-.7s.115-.437.168-.631c.065-.235.115-.408.161-.561.059-.2.108-.352.155-.493.038-.105.075-.206.111-.3l.055-.151.048-.132.018-.05c.026-.073.052-.144.075-.213s.055-.16.082-.244a.949.949,0,0,0-.073-.282.518.518,0,0,0-.361-.3.868.868,0,0,0-.206-.023c-.028,0-.056,0-.086,0a.725.725,0,0,0-.209.044.6.6,0,0,0-.17.1.666.666,0,0,0-.133.156.927.927,0,0,0-.094.208c-.076.223-.157.469-.24.734-.093.292-.18.573-.266.86s-.185.617-.292.988-.215.75-.318,1.121c-.1.007-.19.016-.276.027s-.152.023-.222.037a1.565,1.565,0,0,0-.172.045.979.979,0,0,0-.124.049.63.63,0,0,0-.133.092.5.5,0,0,0-.094.122.546.546,0,0,0-.058.152.833.833,0,0,0-.02.183.722.722,0,0,0,.048.275.424.424,0,0,0,.144.187.589.589,0,0,0,.242.1,1.192,1.192,0,0,0,.224.02c.037,0,.077,0,.118,0Zm-5.509-.8h-.008a.417.417,0,0,0-.105.021.72.72,0,0,0-.114.046c-.035.017-.075.038-.128.068-.034.019-.068.041-.1.065l-.039.024-.029.016-.139.077q-.078.045-.149.081l-.042.021-.089.044c-.039.019-.076.035-.111.049a2.927,2.927,0,0,0-.411.251,3.033,3.033,0,0,0-.372.318,3.332,3.332,0,0,0-.328.384,3.713,3.713,0,0,0-.281.448,3.752,3.752,0,0,0-.222.441,3.614,3.614,0,0,0-.156.453,3.549,3.549,0,0,0-.093.462,3.735,3.735,0,0,0-.032.471,3.309,3.309,0,0,0,.037.535,2.511,2.511,0,0,0,.123.48,2.189,2.189,0,0,0,.213.424,2.122,2.122,0,0,0,.305.369,2.365,2.365,0,0,0,.375.286,2.166,2.166,0,0,0,.42.2,2.245,2.245,0,0,0,.466.105,2.556,2.556,0,0,0,.313.019c.061,0,.125,0,.2-.007a2.872,2.872,0,0,0,.588-.1,2.678,2.678,0,0,0,.543-.223,2.879,2.879,0,0,0,.495-.347,3.432,3.432,0,0,0,.446-.474,4.082,4.082,0,0,0,.36-.562,3.981,3.981,0,0,0,.263-.612,4.2,4.2,0,0,0,.16-.666,4.8,4.8,0,0,0,.057-.721,2.565,2.565,0,0,0-.033-.418,2.361,2.361,0,0,0-.1-.4,2.279,2.279,0,0,0-.173-.372,2.458,2.458,0,0,0-.242-.346,2.736,2.736,0,0,0-.655-.535,2.885,2.885,0,0,0-.385-.186,3.022,3.022,0,0,0-.423-.129l-.145-.026-.013,0-.091-.014-.028,0-.078-.01ZM582.8,492.74h0a2.993,2.993,0,0,0,.525.63,2.6,2.6,0,0,0,.653.431,2.931,2.931,0,0,0,.78.231,3.844,3.844,0,0,0,.585.043c.1,0,.2,0,.322-.012a5.47,5.47,0,0,0,.751-.1,2.333,2.333,0,0,0,.537-.175.894.894,0,0,0,.322-.249.507.507,0,0,0,.092-.431.513.513,0,0,0-.039-.108.636.636,0,0,0-.065-.106,1.055,1.055,0,0,0-.09-.105.778.778,0,0,0-.109-.072.721.721,0,0,0-.118-.052.6.6,0,0,0-.124-.03.568.568,0,0,0-.083-.006l-.044,0c-.032,0-.07.006-.118.013s-.094.014-.148.024l-.1.017-.081.014-.2.036-.2.033-.177.026-.117.015-.031,0-.118.011c-.042,0-.085,0-.126,0a1.653,1.653,0,0,1-.244-.018,1.567,1.567,0,0,1-.349-.094,1.771,1.771,0,0,1-.329-.176,2.2,2.2,0,0,1-.315-.258,8.777,8.777,0,0,0,1.112-.7,4.86,4.86,0,0,0,.793-.736,2.835,2.835,0,0,0,.473-.768,2.107,2.107,0,0,0,.154-.8,1.23,1.23,0,0,0-.041-.3,1.248,1.248,0,0,0-.117-.289,1.528,1.528,0,0,0-.193-.273,1.955,1.955,0,0,0-.269-.253,2.423,2.423,0,0,0-.307-.21,1.847,1.847,0,0,0-.308-.144,1.64,1.64,0,0,0-.311-.077,1.536,1.536,0,0,0-.21-.014c-.035,0-.07,0-.105,0a1.988,1.988,0,0,0-.993.343,2.445,2.445,0,0,0-.423.369,3.437,3.437,0,0,0-.376.5,4.344,4.344,0,0,0-.266.49,3.884,3.884,0,0,0-.189.5,3.768,3.768,0,0,0-.112.513,3.641,3.641,0,0,0-.036.524c0,.042,0,.082,0,.121s.006.089.013.141.013.1.021.16.019.108.033.177l-.391.027-.077,0c-.033,0-.066,0-.1,0a1.042,1.042,0,0,1-.173-.03,1.336,1.336,0,0,1-.173-.057,1.572,1.572,0,0,1-.175-.085c-.064-.035-.118-.063-.166-.085s-.1-.044-.14-.059a.67.67,0,0,0-.114-.033.36.36,0,0,0-.073-.009h-.016a1,1,0,0,0-.29.059.58.58,0,0,0-.206.13.525.525,0,0,0-.124.2.849.849,0,0,0-.041.275.509.509,0,0,0,.052.229.627.627,0,0,0,.157.2,1.215,1.215,0,0,0,.266.17,2.4,2.4,0,0,0,.376.139c.107.032.215.059.329.083s.207.038.325.051.213.018.326.02h.073c.079,0,.163,0,.256-.009l.509-.035Zm-13.6,1.027a1.013,1.013,0,0,1-.154-.011.9.9,0,0,1-.215-.061.853.853,0,0,1-.19-.116.959.959,0,0,1-.163-.171,1.238,1.238,0,0,1-.142-.2,1.212,1.212,0,0,1-.1-.217,1.341,1.341,0,0,1-.058-.236,1.583,1.583,0,0,1-.017-.256,2.648,2.648,0,0,1,.024-.348,2.493,2.493,0,0,1,.073-.342,2.4,2.4,0,0,1,.123-.333,2.574,2.574,0,0,1,.176-.326,2.213,2.213,0,0,1,.246-.328,1.674,1.674,0,0,1,.276-.245,1.311,1.311,0,0,1,.309-.158,1.281,1.281,0,0,1,.338-.07.962.962,0,0,0,.136.049,1.271,1.271,0,0,0,.155.031,1.722,1.722,0,0,0,.174.013h.031c.052,0,.106,0,.162-.006a.656.656,0,0,1,.211.161.872.872,0,0,1,.152.25,1.544,1.544,0,0,1,.092.337,2.738,2.738,0,0,1,.03.421,2.291,2.291,0,0,1-.033.369,2.4,2.4,0,0,1-.093.359,2.946,2.946,0,0,1-.15.348,3.384,3.384,0,0,1-.2.34,2.877,2.877,0,0,1-.259.308,1.8,1.8,0,0,1-.268.226,1.261,1.261,0,0,1-.281.143,1.107,1.107,0,0,1-.3.062Q569.237,493.767,569.194,493.767Zm14.514-2.639v-.265c0-.093,0-.191.012-.3a2.939,2.939,0,0,1,.041-.292,2.728,2.728,0,0,1,.18-.575,1.867,1.867,0,0,1,.139-.3,1.124,1.124,0,0,1,.164-.218.681.681,0,0,1,.191-.138.61.61,0,0,1,.216-.056h.032a.607.607,0,0,1,.069,0,.57.57,0,0,1,.1.022.691.691,0,0,1,.1.04c.029.013.062.03.1.052s.05.055.07.081a.68.68,0,0,1,.054.08.369.369,0,0,1,.035.08.3.3,0,0,1,.013.085.867.867,0,0,1-.094.379,1.774,1.774,0,0,1-.284.409,3.872,3.872,0,0,1-.475.439,7.75,7.75,0,0,1-.665.468Z" transform="translate(4328 1705)" fill="url(#linear-gradient)"/>
  </g>
</svg>
