<svg xmlns="http://www.w3.org/2000/svg" width="343.677" height="300.717" viewBox="0 0 343.677 300.717"><defs><style>.a{fill:#fff;}.b{fill:#010440;}</style></defs><g transform="translate(-15.863 -401.31)"><g transform="translate(0 -16)"><path class="a" d="M1200.049-17355.832v0H901V-17443h299.048v87.17Zm-19.52-22.377v0c.935,1.129,1.8,2.262,2.565,3.365a27.35,27.35,0,0,1,1.861,3.008,15.951,15.951,0,0,1,1.712-1.562c.689-.564,1.441-1.152,2.3-1.8.784-.588,1.439-1.045,1.948-1.357a44.742,44.742,0,0,0-2.683-3.6c-1.1-1.35-2.34-2.768-3.686-4.215s-2.687-2.814-3.953-4.041a44.273,44.273,0,0,0-3.542-3.131h14.219v-6.312h-48.32v6.313h14.512c-.718,1.635-1.557,3.391-2.565,5.371a51.566,51.566,0,0,1-2.8,4.895c-1.472.121-2.871.211-4.159.268s-2.34.092-3.218.092l1.357,7.018c1.566-.119,3.483-.287,5.7-.5,2.339-.23,4.76-.488,7.2-.77,2.512-.285,5.142-.611,7.818-.973,2.477-.332,4.929-.68,7.495-1.059,2.4-.363,4.5-.7,6.251-1.008Zm-260.661-.648v0a22.963,22.963,0,0,1,.945,3.213,25.33,25.33,0,0,1,.587,3.453h6.194a8.662,8.662,0,0,0,5.579-1.533,5.646,5.646,0,0,0,1.859-4.6v-8.555H957.1v-6.018h-21.77c.82-.574,1.783-1.289,2.863-2.125,1.1-.848,2.252-1.775,3.511-2.832,1.2-1.008,2.375-2.02,3.48-3.006,1.219-1.094,2.1-1.92,2.771-2.6l-2.653-2.713H915.5v5.783h20.115c-.771.7-1.629,1.42-2.622,2.209-.929.744-1.714,1.35-2.333,1.8h-2.653v3.48H905v6.018h23.009v6.076a1.872,1.872,0,0,1-.53,1.568,3.011,3.011,0,0,1-1.712.381h-5.9Zm188.623-45.547h0v23.6a30.891,30.891,0,0,1-1.712,11.063,16.766,16.766,0,0,1-5.192,7.166,29.257,29.257,0,0,1-8.908,4.6,16.374,16.374,0,0,1,2.535,2.656,14.266,14.266,0,0,1,1.891,3.008,32.121,32.121,0,0,0,11.916-7.994,21.067,21.067,0,0,0,3.644-5.787,31.135,31.135,0,0,0,2.082-7.516h10.97v11.857a1.93,1.93,0,0,1-.53,1.59,2.937,2.937,0,0,1-1.769.416h-4.6a12.607,12.607,0,0,1,.679,2.066c.219.881.417,1.773.587,2.652a17.727,17.727,0,0,1,.324,2.359h4.544c2.549,0,4.475-.506,5.726-1.506a5.726,5.726,0,0,0,1.887-4.744v-45.492Zm-66.435,48.561,0,0c.653.5,1.3,1.035,1.977,1.648a14.438,14.438,0,0,1,1.62,1.707,21.176,21.176,0,0,0,8.584-8.76,32.051,32.051,0,0,0,3.1-13.479h2.771v17.107a3.649,3.649,0,0,0,1.3,3.068,7.185,7.185,0,0,0,4.308,1h4.246a10.524,10.524,0,0,0,4.456-.795,5.449,5.449,0,0,0,2.6-2.951,21.509,21.509,0,0,0,1.265-6.225c-.924-.229-2.055-.555-3.362-.973a15.512,15.512,0,0,1-2.951-1.207,33.824,33.824,0,0,1-.587,3.537,3.357,3.357,0,0,1-.709,1.566,1.784,1.784,0,0,1-1.239.381h-1.182a1.843,1.843,0,0,1-1.178-.236,1.353,1.353,0,0,1-.236-.941v-13.334h6.313v-19.41h-6.785c.652-1.227,1.308-2.561,2.005-4.076.627-1.361,1.243-2.73,1.83-4.066q.268-.612.492-1.127c.313-.717.56-1.281.747-1.705l-6.842-1.594a32.342,32.342,0,0,1-1.331,3.865c-.632,1.568-1.3,3.105-1.974,4.57-.718,1.549-1.413,2.939-2.066,4.133h-6.96c.474-.3,1.039-.625,1.83-1.064.706-.395,1.42-.781,2.123-1.15a17.054,17.054,0,0,1,1.65-.8,28.735,28.735,0,0,0-1.593-2.951c-.712-1.168-1.416-2.248-2.154-3.3-.781-1.119-1.524-2.113-2.211-2.951l-5.783,3.012a22.374,22.374,0,0,1,1.917,2.6c.708,1.1,1.364,2.217,1.948,3.332a31.318,31.318,0,0,1,1.506,3.279h-6.2v19.41h5.547a24.763,24.763,0,0,1-2.241,10.086,16.9,16.9,0,0,1-6.549,6.785v-13.1h-18.29v16.932h18.29v-1.824ZM1004-17387.59v14.928h6.9v-16.4c1.527-.3,2.986-.619,4.338-.941,1.281-.307,2.382-.584,3.274-.826l-.827-6.252c-.749.213-1.683.461-2.775.734-1.134.285-2.446.584-4.01.916v-30.684H1004v32.1c-2.1.408-4.3.813-6.724,1.238-2.12.373-4.235.73-6.286,1.064-1.988.322-3.58.553-4.868.709.516-.676,1.082-1.359,1.681-2.035a20.926,20.926,0,0,1,1.567-1.625c-.863-.629-1.906-1.473-3.1-2.508s-2.347-2.111-3.45-3.213c-1.118-1.119-1.987-2.045-2.657-2.834v-2.123h9.088v-6.193h-9.088v-6.436c1.665-.437,3.252-.9,4.719-1.383a36.459,36.459,0,0,0,3.9-1.506l-3.48-5.49a27.354,27.354,0,0,1-4.605,1.891c-1.92.623-4,1.189-6.194,1.682s-4.3.893-6.313,1.209a39.814,39.814,0,0,1-5.017.529,10.571,10.571,0,0,1,.915,1.742c.316.717.615,1.492.889,2.3a8.464,8.464,0,0,1,.442,1.855c1.083-.109,2.308-.271,3.743-.5,1.359-.219,2.779-.467,4.22-.74v4.842H963.351v6.193h9.675a42.832,42.832,0,0,1-2.154,4.6c-.879,1.641-1.851,3.3-2.889,4.926a51.306,51.306,0,0,1-3.217,4.512,35.518,35.518,0,0,1-3.064,3.424,14.159,14.159,0,0,1,1.8,1.209c.678.521,1.343,1.078,1.974,1.654a9.406,9.406,0,0,1,1.357,1.445,39.076,39.076,0,0,0,3.156-4.016c1.181-1.682,2.322-3.467,3.393-5.309v20.236h6.785v-22.242c.836.988,1.73,1.99,2.657,2.98.89.949,1.684,1.734,2.359,2.33a3.987,3.987,0,0,1,.324-.529c.126-.186.271-.379.442-.592l1.414,6.193c1.224-.2,2.693-.447,4.487-.766,1.6-.285,3.276-.592,5.809-1.059,1.935-.361,4.069-.781,6.342-1.242Zm78.294-35.516h0v34.693h21.477v-34.693Zm-58.117,23.656h0v5.49h16.757v-5.49Zm-32.863-8.023-4.128,4.9a31.2,31.2,0,0,1,4.719,3.336c1.609,1.355,3.018,2.615,4.189,3.742.391-.514.838-1.068,1.326-1.65.63-.742,1.156-1.342,1.655-1.887.56-.619,1.046-1.115,1.445-1.475-.817-.734-1.751-1.529-2.775-2.359-1.033-.848-2.135-1.691-3.274-2.508s-2.2-1.521-3.156-2.1ZM1163.89-17427h0a29.752,29.752,0,0,1-4.365,5.4,61.36,61.36,0,0,1-6.431,5.607,76.084,76.084,0,0,1-7.464,5.018,52.428,52.428,0,0,1-7.521,3.686,13.966,13.966,0,0,1,1.65,1.711c.575.688,1.13,1.42,1.651,2.182a17.289,17.289,0,0,1,1.182,1.947c1.485-.666,3.133-1.51,4.9-2.508s3.569-2.121,5.367-3.332v5.191h28.5v-5.016c1.674,1.078,3.33,2.07,4.925,2.949,1.634.908,3.232,1.7,4.75,2.359a15.938,15.938,0,0,1,1.27-2.123c.566-.818,1.19-1.641,1.856-2.447a13.623,13.623,0,0,1,1.891-1.916,58.021,58.021,0,0,1-7.022-3.187,78.275,78.275,0,0,1-7.171-4.338,61.631,61.631,0,0,1-6.457-5.043,36.319,36.319,0,0,1-4.842-5.191Zm-251.753,17.229H949.9v8.262h6.785v-13.926H945.653c.836-1.361,1.728-2.889,2.653-4.543s1.743-3.229,2.421-4.658l-7.083-1.828c-.361.834-.858,1.9-1.563,3.359-.647,1.334-1.341,2.693-2.062,4.041-.741,1.375-1.427,2.563-2.1,3.629h-7.731l4.723-1.887a22.475,22.475,0,0,0-1.331-3.129c-.608-1.217-1.261-2.416-1.944-3.568a18.947,18.947,0,0,0-1.917-2.744l-6.312,2.3a20.812,20.812,0,0,1,1.768,2.715c.583,1.047,1.149,2.148,1.681,3.275a31.307,31.307,0,0,1,1.269,3.037H917.864l3.6-1.531a22.68,22.68,0,0,0-1.418-2.926c-.6-1.078-1.267-2.187-1.974-3.3a21.4,21.4,0,0,0-1.917-2.625l-6.076,2.77a23.245,23.245,0,0,1,2.386,3.512,42.733,42.733,0,0,1,2.1,4.1h-9.088v13.926h6.667v-8.262Zm112.041,2.063h0v5.428h16.757v-5.428Zm-30.385-13.447-4.365,4.836a33.084,33.084,0,0,1,4.632,3.451c1.582,1.387,2.981,2.666,4.159,3.8.29-.408.708-.924,1.239-1.531.506-.578,1.076-1.2,1.742-1.887a19,19,0,0,1,1.563-1.477c-.8-.76-1.714-1.582-2.714-2.445-.984-.854-2.016-1.705-3.156-2.6a30.532,30.532,0,0,0-3.1-2.148Zm27.553,5.131h0v5.428h22.186v-5.428Zm2.832-8.437h0v5.6h16.757v-5.6Zm11.566,45.078h-5.665v-6.2h5.665v6.2Zm125.02-2.6v0c.872-1.5,1.755-3.1,2.626-4.746.915-1.732,1.677-3.307,2.329-4.812h10.09l-4.6,3.9a36.909,36.909,0,0,1,4.483,4.01c-2.105.273-4.42.555-7.079.859-2.612.295-5.252.563-7.847.795Zm-63.659-12.8h-7.967v-8.143h7.967v8.143Zm28.612-4.664h-10.441v-6.43h10.441v6.43Zm-59.352-1.352h-14.219v-7.258h14.219v7.258Zm113.043-7.67h-24.9a75.85,75.85,0,0,0,7.2-5.52,37.772,37.772,0,0,0,5.367-5.578,42.473,42.473,0,0,0,5.49,5.758,73.892,73.892,0,0,0,6.84,5.338Zm-82.3-.416h-7.967v-8.023h7.967v8.023Zm28.612-2.832h-10.441v-6.256h10.441v6.256Z" transform="translate(-863.023 17884.85)"/></g><path class="a" d="M7.63,18.155v-3.72a11.483,11.483,0,0,1-1.523,1.4A15.578,15.578,0,0,1,4.3,17.045a13.011,13.011,0,0,1-1.86.885,2.81,2.81,0,0,0-.278-.48q-.187-.27-.4-.533a2.464,2.464,0,0,0-.4-.4,14.557,14.557,0,0,0,1.733-.743,13.67,13.67,0,0,0,1.672-1A12.124,12.124,0,0,0,6.19,13.625H3.415V8.03H7.63V7.22H1.93V5.78h5.7V4.415H9.37V5.78h5.67V7.22H9.37v.81h4.245v5.6H10.84a12.554,12.554,0,0,0,1.425,1.132,16.344,16.344,0,0,0,1.665,1.005,12.856,12.856,0,0,0,1.725.758,2.592,2.592,0,0,0-.4.39,5.973,5.973,0,0,0-.4.532,3.043,3.043,0,0,0-.278.488,12.872,12.872,0,0,1-1.868-.892,14.835,14.835,0,0,1-1.815-1.23A12.278,12.278,0,0,1,9.37,14.39v3.765ZM9.37,12.32h2.52v-.9H9.37Zm0-2.07h2.52v-.9H9.37ZM5.14,12.32H7.63v-.9H5.14Zm0-2.07H7.63v-.9H5.14Zm16.425,7.92a4.426,4.426,0,0,0-.083-.577q-.068-.338-.142-.668a2.736,2.736,0,0,0-.165-.525H22.21a.75.75,0,0,0,.442-.1.457.457,0,0,0,.142-.39V12.95H19.03V8.33h9.33v4.62H24.6v3.645a1.44,1.44,0,0,1-.472,1.2,2.281,2.281,0,0,1-1.433.375Zm-4.5-10.74V5.84h5.7V4.325H24.61V5.84h5.64V7.43ZM20.8,11.48h5.775V9.8H20.8Zm8.475,6.195a11.644,11.644,0,0,1-1.3-.922,17.939,17.939,0,0,1-1.35-1.208A16.784,16.784,0,0,1,25.48,14.3l1.35-1.035a8.666,8.666,0,0,0,.765.847q.45.443.967.87t1.02.773a8.761,8.761,0,0,0,.907.555,5.384,5.384,0,0,0-.66.653A8.043,8.043,0,0,0,29.275,17.675Zm-11.235,0a5.3,5.3,0,0,0-1.215-1.29,7.916,7.916,0,0,0,.93-.585,12.875,12.875,0,0,0,1.042-.833q.517-.457.96-.915a6.465,6.465,0,0,0,.7-.832l1.38,1.08A14.536,14.536,0,0,1,20.7,15.545a17.939,17.939,0,0,1-1.35,1.208A10.863,10.863,0,0,1,18.04,17.675Zm21.525.48a2.158,2.158,0,0,1-1.23-.263,1,1,0,0,1-.36-.862V15.9H33.64V11.21H43.915V15.9H39.7v.39a.371.371,0,0,0,.1.285.681.681,0,0,0,.428.09h3.3a.865.865,0,0,0,.787-.337,3.2,3.2,0,0,0,.308-1.3,5.276,5.276,0,0,0,.75.323,7.191,7.191,0,0,0,.81.247,6.306,6.306,0,0,1-.4,1.658,1.3,1.3,0,0,1-.667.72,3.02,3.02,0,0,1-1.125.173Zm-1.59-7.425V7.91h-4.2V9.98h-1.71V6.725h5.91v-.69h-5V4.73H44.755V6.035h-5.07v.69H45.6V9.98h-1.71V7.91h-4.2v2.82Zm-3.66-1.44V8.36h3.03v.93Zm5.97,0V8.36h3.03v.93Zm-5.97,1.35V9.725h3.03v.915Zm5.97,0V9.725h3.03v.915Zm-4.95,4.11h2.64v-.675h-2.64Zm0-1.71h2.64v-.675h-2.64ZM39.7,14.75h2.535v-.675H39.7Zm0-1.71h2.535v-.675H39.7ZM49,18.05V12.365q-.27.585-.548,1.1t-.532.9a5.771,5.771,0,0,0-.645-.428,6.968,6.968,0,0,0-.645-.337,8.7,8.7,0,0,0,.72-1.028,13.142,13.142,0,0,0,.675-1.267q.315-.675.548-1.32a10.652,10.652,0,0,0,.352-1.155H47.26V7.415H49V4.565h1.44v2.85h1q-.21-.18-.4-.33t-.322-.24l.81-.96q.1.075.225.172t.24.188q.27-.36.577-.847a5.9,5.9,0,0,0,.458-.847l1.17.525A10.53,10.53,0,0,1,53.6,6q-.39.548-.735.967.12.105.232.21t.217.195q.255-.405.458-.735a5.435,5.435,0,0,0,.292-.525l1.05.555q-.015-1.05.045-2.22l1.5.09q-.03.39-.045.772t-.03.773l.18-.225.195.127q.1.067.21.142.255-.36.525-.818a6.76,6.76,0,0,0,.42-.818l1.14.495q-.18.33-.51.848t-.645.952q.12.09.232.18t.217.165q.315-.48.57-.908t.36-.653l1.1.6q-.165.315-.51.833t-.743,1.072q-.4.555-.772,1.02l.472-.06q.233-.03.443-.06a3.739,3.739,0,0,0-.255-.465l1.08-.42a5.173,5.173,0,0,1,.36.637q.2.4.36.8a5.991,5.991,0,0,1,.24.668,3.226,3.226,0,0,0-.57.188q-.345.143-.585.262-.03-.12-.082-.277l-.113-.338-.5.105q-.292.06-.623.12.24.2.5.413a5.364,5.364,0,0,1,.45.427l-.39.36H60.94v1.29H58.81l1.26.72q-.315.525-.675,1.012t-.75.923a4.462,4.462,0,0,0,1.035,1q.12-.345.21-.712t.135-.682a1.952,1.952,0,0,0,.382.217q.247.112.51.2t.427.135a8.377,8.377,0,0,1-.3,1.17,6.255,6.255,0,0,1-.405.975.86.86,0,0,1-.585.45A1.056,1.056,0,0,1,59.26,18a5.722,5.722,0,0,1-1.71-1.545,11.65,11.65,0,0,1-1.223.87,10.828,10.828,0,0,1-1.372.72,3.834,3.834,0,0,0-.36-.608,3.405,3.405,0,0,0-.525-.608,7.973,7.973,0,0,0,1.425-.66,8.45,8.45,0,0,0,1.29-.93,12.5,12.5,0,0,1-.945-2.505H54.19q-.015.24-.045.48l-.06.48a10.9,10.9,0,0,1,.975.555,7.065,7.065,0,0,1,.84.615,6.093,6.093,0,0,0-.45.563q-.255.352-.375.547-.255-.225-.592-.495t-.683-.51a6.648,6.648,0,0,1-.75,1.657,5.445,5.445,0,0,1-1.185,1.327,5.528,5.528,0,0,0-.54-.525,3.756,3.756,0,0,0-.615-.45,4.121,4.121,0,0,0,1.508-1.77,7.031,7.031,0,0,0,.5-2.475h-.87v-.21q-.165.15-.323.315t-.247.27a8.425,8.425,0,0,1-.84-1.2V18.05Zm2.85-6.36v-.24h3.69q-.015-.15-.045-.307t-.06-.307q-.225.06-.472.142t-.443.158a1.6,1.6,0,0,0-.052-.21q-.038-.12-.068-.255-.3.06-.72.135t-.855.142q-.435.068-.8.12t-.525.068l-.345-1.32h.2A2.255,2.255,0,0,0,51.61,9.8a6.942,6.942,0,0,0,.435-.547q.27-.367.555-.788a5.109,5.109,0,0,0-.368-.36q-.218-.2-.443-.39v1.11H50.44V9.68q.225.4.615.967T51.85,11.69Zm1.275-2.01q.255-.03.48-.052t.42-.038a3.374,3.374,0,0,0-.24-.54l1.14-.45q.075.15.165.352t.165.412q-.06-.6-.09-1.23t-.045-1.29q-.2.345-.533.84t-.72,1.027Q53.485,9.245,53.125,9.68Zm3.6-.39q.075,0,.15-.008t.15-.022a9.831,9.831,0,0,0,.81-1.065q-.57-.48-1.23-.96.015.525.037,1.043T56.725,9.29Zm2.085,3.45H57.37q.12.375.247.72t.278.66q.27-.33.5-.675A6.313,6.313,0,0,0,58.81,12.74Zm-1.755-1.29h1.17q-.165-.165-.33-.315a2.444,2.444,0,0,0-.33-.255l.51-.495q-.375.075-.69.127l-.5.083q.03.225.075.435Zm6.225,6.735q-.12-.24-.323-.562t-.42-.615a3.294,3.294,0,0,0-.4-.458,10.238,10.238,0,0,0,2.948-1.59,8.855,8.855,0,0,0,2.085-2.3,7.051,7.051,0,0,0,1.012-2.73h-5.61V8.21H68.26v-3.7h1.89v3.7h5.7V9.935H70.24a7.3,7.3,0,0,0,1.065,2.707,9.171,9.171,0,0,0,2.107,2.3,10.2,10.2,0,0,0,2.873,1.575,5.287,5.287,0,0,0-.428.495q-.232.3-.435.623a5.236,5.236,0,0,0-.307.547,13.678,13.678,0,0,1-2.4-1.417,11.877,11.877,0,0,1-2.07-1.935,8.864,8.864,0,0,1-1.44-2.378A8.78,8.78,0,0,1,67.75,14.84a11.813,11.813,0,0,1-2.092,1.935A14.778,14.778,0,0,1,63.28,18.185Zm18.66,0a6.322,6.322,0,0,0-.15-.877,5.844,5.844,0,0,0-.24-.818h1.5a.756.756,0,0,0,.435-.1.468.468,0,0,0,.135-.4V14.45H77.77V12.92h5.85v-.885h.675q.225-.165.593-.458t.667-.562H80.44V9.545h7.575l.675.69q-.285.285-.705.66t-.885.765q-.465.39-.892.72t-.728.54h5.535v1.53H85.4v2.175q0,1.56-1.89,1.56ZM77.89,10.73V7.19H80.2a10.914,10.914,0,0,0-.533-1.043,5.794,5.794,0,0,0-.608-.892l1.545-.7a5.419,5.419,0,0,1,.487.667q.263.413.5.84a5.739,5.739,0,0,1,.36.743l-.915.39h2.61a7.873,7.873,0,0,0-.323-.773q-.2-.427-.427-.832a5.165,5.165,0,0,0-.45-.69l1.6-.585a4.682,4.682,0,0,1,.488.7q.262.443.5.908a5.722,5.722,0,0,1,.337.8l-1.2.48H86.14q.255-.405.533-.923T87.2,5.24q.248-.51.4-.855l1.8.465q-.255.54-.615,1.185T88.105,7.19H90.91v3.54H89.185V8.63h-9.6v2.1Zm25.185,7.35v-5.1a17.14,17.14,0,0,1-2.317,2.4A17.789,17.789,0,0,1,97.9,17.375a4.689,4.689,0,0,0-.33-.487q-.21-.277-.435-.533a2.353,2.353,0,0,0-.375-.36,11.855,11.855,0,0,0,1.515-.847,18.064,18.064,0,0,0,1.575-1.155,18.588,18.588,0,0,0,1.455-1.32,12.629,12.629,0,0,0,1.155-1.328H97.42V9.725h5.655V7.955h-4.74V6.32h4.74V4.43h1.77V6.32h4.71V7.955h-4.71v1.77H110.5v1.62h-5.07a14.929,14.929,0,0,0,1.658,1.778,18.078,18.078,0,0,0,2.04,1.628,15.325,15.325,0,0,0,2.048,1.2,2.55,2.55,0,0,0-.458.4,6.207,6.207,0,0,0-.465.555q-.218.292-.353.517a12.492,12.492,0,0,1-1.748-1.118,17.144,17.144,0,0,1-1.762-1.53,14.866,14.866,0,0,1-1.545-1.793v5.1Zm15.18,0V13.46a16.772,16.772,0,0,1-2.317,2.34,18.212,18.212,0,0,1-2.857,1.95,3.242,3.242,0,0,0-.315-.487q-.21-.277-.427-.525a2.269,2.269,0,0,0-.368-.352,12.864,12.864,0,0,0,1.815-1.035,19.84,19.84,0,0,0,1.868-1.425,16.4,16.4,0,0,0,1.6-1.56h-4.74v-1.59h3.075q-.165-.375-.412-.825t-.51-.87a6.341,6.341,0,0,0-.487-.69l1.44-.75H113.2V6.05h5.055V4.46h1.755V6.05h5.055V7.64h-2.61l1.515.6q-.27.54-.683,1.238t-.8,1.3h3.255v1.59h-4.77a16.65,16.65,0,0,0,1.643,1.515,18.789,18.789,0,0,0,1.867,1.335,15.246,15.246,0,0,0,1.83.99,2.962,2.962,0,0,0-.45.413,6.707,6.707,0,0,0-.45.548,3.668,3.668,0,0,0-.33.525,13.4,13.4,0,0,1-1.74-1.058,17.11,17.11,0,0,1-1.762-1.44,14.741,14.741,0,0,1-1.567-1.7v4.59Zm-1.815-7.305h1.815V7.64h-2.52q.3.375.622.855t.6.945a8.8,8.8,0,0,1,.443.825Zm3.57,0h1.59q-.225-.12-.457-.24a3.52,3.52,0,0,0-.4-.18q.24-.33.548-.832t.593-1.02q.285-.518.435-.863h-2.31Zm10.065,7.29V12.92q-.42.72-.863,1.35a10,10,0,0,1-.8,1.02,2.392,2.392,0,0,0-.345-.368q-.24-.217-.5-.42a3.482,3.482,0,0,0-.457-.308,9,9,0,0,0,.78-.87,13.256,13.256,0,0,0,.817-1.148q.4-.622.735-1.252a10.77,10.77,0,0,0,.548-1.17h-2.46V8.18h2.55V6.95q-.555.105-1.072.188t-.952.128a2.145,2.145,0,0,0-.113-.472q-.1-.293-.225-.585a2.65,2.65,0,0,0-.232-.443,10.494,10.494,0,0,0,1.275-.135q.765-.12,1.6-.308t1.575-.427a6.952,6.952,0,0,0,1.17-.48l.885,1.4a9.193,9.193,0,0,1-.99.382q-.57.188-1.2.352V8.18h2.31V9.755H131.8v.54q.255.3.675.72t.877.818q.458.4.788.637a5.507,5.507,0,0,0-.4.412q-.232.263-.427.517.5-.06,1.238-.18t1.6-.27q.855-.15,1.71-.315V4.475h1.755v7.8q.57-.12,1.02-.233t.705-.187l.21,1.59q-.33.09-.833.21t-1.1.24v4.17H137.86v-3.8q-.81.165-1.613.315t-1.477.27q-.675.12-1.14.2l-.36-1.575q-.06.075-.113.15a1.1,1.1,0,0,0-.083.135q-.255-.225-.6-.592t-.675-.758v5.655ZM136.39,8.81q-.45-.435-1.057-.967a8.424,8.424,0,0,0-1.178-.878l1.11-1.23a7.835,7.835,0,0,1,.788.547q.412.322.8.66t.69.622a4.913,4.913,0,0,0-.4.375q-.232.24-.442.48A4.91,4.91,0,0,0,136.39,8.81Zm-.54,3.45q-.45-.435-1.065-.953a7.945,7.945,0,0,0-1.2-.847l1.05-1.245q.375.225.8.532t.833.638q.405.33.705.6-.15.135-.368.375t-.42.48Q135.985,12.08,135.85,12.26Zm11.19,5.925a6.323,6.323,0,0,0-.15-.877,5.843,5.843,0,0,0-.24-.818h1.5a.756.756,0,0,0,.435-.1.468.468,0,0,0,.135-.4V14.45h-5.85V12.92h5.85v-.885h.675q.225-.165.592-.458t.667-.562H145.54V9.545h7.575l.675.69q-.285.285-.7.66t-.885.765q-.465.39-.893.72t-.727.54h5.535v1.53h-5.61v2.175q0,1.56-1.89,1.56Zm-4.05-7.455V7.19h2.31a10.913,10.913,0,0,0-.533-1.043,5.794,5.794,0,0,0-.607-.892l1.545-.7a5.421,5.421,0,0,1,.488.667q.263.413.5.84a5.739,5.739,0,0,1,.36.743l-.915.39h2.61a7.875,7.875,0,0,0-.322-.773q-.2-.427-.428-.832a5.167,5.167,0,0,0-.45-.69l1.6-.585a4.682,4.682,0,0,1,.488.7q.263.443.495.908a5.724,5.724,0,0,1,.338.8l-1.2.48h1.965q.255-.405.533-.923T152.3,5.24q.247-.51.4-.855l1.8.465q-.255.54-.615,1.185t-.675,1.155h2.8v3.54h-1.725V8.63h-9.6v2.1ZM165.8,18.095V5.045h5.025l.75.615q-.135.36-.4.967T170.62,7.9q-.3.668-.555,1.23t-.39.818a6.9,6.9,0,0,1,1.335,1.568,4.05,4.05,0,0,1,.57,2.2,3.02,3.02,0,0,1-.7,2.137,2.611,2.611,0,0,1-2.01.758h-.615a5.182,5.182,0,0,0-.075-.593q-.06-.337-.143-.66a3.717,3.717,0,0,0-.173-.533h.645q1.305,0,1.305-1.215a3.929,3.929,0,0,0-.465-1.935,5.865,5.865,0,0,0-1.395-1.62q.09-.21.285-.69t.42-1.042q.225-.562.4-1.05a5.9,5.9,0,0,0,.217-.712h-1.755V18.095ZM157.66,11.75V10.265h1.965q-.12-.345-.315-.765t-.4-.818a5.167,5.167,0,0,0-.375-.623l1.38-.57h-1.815V6.05h2.6V4.385h1.86V6.05h2.58V7.49h-2.04l1.47.45q-.15.465-.428,1.117t-.548,1.207h1.83V11.75Zm1.065,5.94V12.56h5.715v5.13Zm1.35-7.425h1.815q.18-.39.39-.915t.39-1.028q.18-.5.27-.833h-2.865q.18.285.4.72t.427.863a5.871,5.871,0,0,1,.293.712Zm.39,5.955H162.7V14.03h-2.235Zm18.96,1.89V4.445h1.74v2.55l.72-.495q.27.315.622.788t.592.818v-.87h2.4V6.68h-3.21V5.465h3.21V4.4h1.785V5.465h3.435V6.68h-3.435v.555h2.505V8.4h-2.505v.6h3.87V10.22H181.84V9.005h.1q-.15-.27-.36-.6t-.42-.615V18.11Zm7.665.015q-.03-.36-.113-.81a3.609,3.609,0,0,0-.2-.735h.915a.549.549,0,0,0,.4-.1.582.582,0,0,0,.1-.39v-.4H184.8v2.43H183.01V10.79h6.945v5.8a1.431,1.431,0,0,1-.442,1.155,2.176,2.176,0,0,1-1.418.375Zm-8.685-6.57a3.554,3.554,0,0,0-.442-.158q-.277-.082-.555-.158t-.442-.1a8.367,8.367,0,0,0,.21-.847q.1-.518.188-1.1t.143-1.117a8.212,8.212,0,0,0,.06-.892l1.515.15q-.015.525-.09,1.162t-.18,1.252q-.105.615-.218,1.1T178.4,11.555Zm6.39,2.94h3.39V13.85H184.8Zm0-1.83h3.39V12.05H184.8Zm-2.445-3.66h3.15V8.4h-2.31Zm17.445,9.075V4.79h5.745V7.67a1.921,1.921,0,0,1-.45,1.418,1.83,1.83,0,0,1-1.335.443h-1.11a6.415,6.415,0,0,0-.135-.87,4.528,4.528,0,0,0-.225-.765h1.035a.771.771,0,0,0,.42-.09.425.425,0,0,0,.135-.375V6.32h-2.4V9.98h4.44a12.34,12.34,0,0,1-.382,2.7,10.85,10.85,0,0,1-.952,2.445,6.764,6.764,0,0,0,.908.863,11.277,11.277,0,0,0,1.087.758,3.674,3.674,0,0,0-.54.577q-.3.382-.51.712a8.408,8.408,0,0,1-1.86-1.545,10.132,10.132,0,0,1-.69.765,6.831,6.831,0,0,1-.765.66,5.072,5.072,0,0,0-.735-.735v.9Zm-4.56,0v-2.6h-2.37V14.03h2.37V13H192.67V11.54h1.38q-.135-.375-.293-.75a6.1,6.1,0,0,0-.292-.615l1.455-.4a8.873,8.873,0,0,1,.36.855q.195.525.3.915h.93q.165-.42.315-.915t.225-.855l1.485.345q-.09.315-.225.7t-.285.727h1.245V13h-2.4V14.03h2.22v1.455h-2.22v2.6ZM192.43,9.695V8.24h2.805V7.265H193.09V5.87h2.145V4.43h1.635V5.87h2.1v1.4h-2.1V8.24h2.655V9.695Zm9.045,6.7q.33-.285.63-.6a6.036,6.036,0,0,0,.555-.675,8.995,8.995,0,0,1-.69-1.47,10.5,10.5,0,0,1-.45-1.65l1.455-.285a7.385,7.385,0,0,0,.585,1.86,7.111,7.111,0,0,0,.585-2.085h-2.67Zm8.565.7a8.843,8.843,0,0,0-.548-.765,4.22,4.22,0,0,0-.652-.69,14.826,14.826,0,0,0,3.022-1.89,18.1,18.1,0,0,0,2.558-2.505q-.69-.525-1.335-.945a9.86,9.86,0,0,0-1.155-.66l1.08-1.275a10.987,10.987,0,0,1,1.185.645q.63.39,1.275.84a14.938,14.938,0,0,0,1.148-2.01,13.324,13.324,0,0,0,.772-2.04l1.755.6a18.4,18.4,0,0,1-2.22,4.515q.675.54,1.275,1.072a13.076,13.076,0,0,1,1.02,1,6.415,6.415,0,0,0-.472.457q-.263.277-.5.555t-.39.488a13.04,13.04,0,0,0-.893-.99q-.532-.54-1.148-1.08a19.371,19.371,0,0,1-2.64,2.64A16.533,16.533,0,0,1,210.04,17.1Zm16.17.54a3.614,3.614,0,0,0-.315-.525,7.152,7.152,0,0,0-.45-.578,4.087,4.087,0,0,0-.435-.442,6.663,6.663,0,0,0,2.955-1.98,5.467,5.467,0,0,0,1.05-3.075l-2.273.03q-1.087.015-1.852.037t-1.02.038l-.09-1.77q.18.015.855.015t1.665-.007q.99-.008,2.152-.023l2.318-.03,2.152-.03q1-.015,1.68-.038t.863-.038L235.48,11q-.21-.015-.885-.015t-1.635.007q-.96.008-2.07.023a7.411,7.411,0,0,1-1.283,4.027A8.308,8.308,0,0,1,226.21,17.645ZM225.925,7.52l-.105-1.755h.743q.563,0,1.335-.015l1.62-.03q.848-.015,1.62-.037l1.32-.038q.548-.015.712-.03l.03,1.755q-.195-.015-.742-.007l-1.305.015q-.757.007-1.575.03T228,7.445q-.758.015-1.312.038T225.925,7.52Zm10.515-.435a7.986,7.986,0,0,0-.735-1.02,9.083,9.083,0,0,0-.81-.87l.84-.63q.21.195.525.547t.607.72q.293.367.458.622Zm-1.41,1.08a5.037,5.037,0,0,0-.435-.675q-.27-.36-.555-.69a7.36,7.36,0,0,0-.525-.555l.84-.615a7.5,7.5,0,0,1,.518.548q.308.352.6.727a6.141,6.141,0,0,1,.442.63Zm9.705,9.24V12.62a21.934,21.934,0,0,1-3.45,1.9,7.813,7.813,0,0,0-.42-.7,2.387,2.387,0,0,0-.51-.577,14.152,14.152,0,0,0,2.025-.9,18.517,18.517,0,0,0,2-1.245,17.321,17.321,0,0,0,1.777-1.447A10.154,10.154,0,0,0,247.5,8.165l1.2.915a13.445,13.445,0,0,1-1.125,1.253q-.63.622-1.335,1.192v5.88Zm17.775-5.73a3.025,3.025,0,0,0-.383-.4q-.248-.225-.518-.435a3.532,3.532,0,0,0-.495-.33q.4-.315.885-.765t.96-.975q.48-.525.885-1.05-.825.015-1.9.052t-2.205.082q-1.133.045-2.182.09t-1.86.075q-.81.03-1.2.06l-.075-1.89q.5.03,1.357.038t1.935,0q1.072-.007,2.212-.03t2.2-.06q1.057-.037,1.89-.1t1.268-.12l1.185.915a13.185,13.185,0,0,1-.81,1.275q-.48.675-1.027,1.342t-1.1,1.245A12.923,12.923,0,0,1,262.51,11.675Zm-5.79,5.985a5.8,5.8,0,0,0-.36-.458q-.225-.262-.48-.51a2.45,2.45,0,0,0-.5-.382,6.83,6.83,0,0,0,2.22-1.9,7.08,7.08,0,0,0,1.17-2.55,11.287,11.287,0,0,0,.285-3.075h1.875a12.326,12.326,0,0,1-1.027,5.257A8.724,8.724,0,0,1,256.72,17.66Zm16.14.525a6.323,6.323,0,0,0-.15-.877,5.847,5.847,0,0,0-.24-.818h1.5a.756.756,0,0,0,.435-.1.468.468,0,0,0,.135-.4V14.45h-5.85V12.92h5.85v-.885h.675q.225-.165.592-.458t.668-.562H271.36V9.545h7.575l.675.69q-.285.285-.705.66t-.885.765q-.465.39-.893.72t-.728.54h5.535v1.53h-5.61v2.175q0,1.56-1.89,1.56Zm-4.05-7.455V7.19h2.31a10.909,10.909,0,0,0-.533-1.043,5.794,5.794,0,0,0-.607-.892l1.545-.7a5.422,5.422,0,0,1,.488.667q.262.413.5.84a5.735,5.735,0,0,1,.36.743l-.915.39h2.61a7.868,7.868,0,0,0-.323-.773q-.2-.427-.427-.832a5.165,5.165,0,0,0-.45-.69l1.605-.585a4.682,4.682,0,0,1,.487.7q.263.443.5.908a5.723,5.723,0,0,1,.337.8l-1.2.48h1.965q.255-.405.533-.923t.525-1.027q.248-.51.4-.855l1.8.465q-.255.54-.615,1.185t-.675,1.155h2.805v3.54h-1.725V8.63h-9.6v2.1Zm17.445,7.335V12.92q-.42.72-.863,1.35a10,10,0,0,1-.8,1.02,2.392,2.392,0,0,0-.345-.368q-.24-.217-.5-.42a3.481,3.481,0,0,0-.457-.308,9,9,0,0,0,.78-.87,13.257,13.257,0,0,0,.818-1.148q.4-.622.735-1.252a10.77,10.77,0,0,0,.548-1.17H283.7V8.18h2.55V6.95q-.555.105-1.073.188t-.952.128a2.146,2.146,0,0,0-.113-.472q-.1-.293-.225-.585a2.649,2.649,0,0,0-.232-.443,10.493,10.493,0,0,0,1.275-.135q.765-.12,1.605-.308t1.575-.427a6.952,6.952,0,0,0,1.17-.48l.885,1.4a9.194,9.194,0,0,1-.99.382q-.57.188-1.2.352V8.18h2.31V9.755h-2.31v.54q.255.3.675.72t.878.818q.457.4.788.637a5.5,5.5,0,0,0-.4.412q-.232.263-.427.517.495-.06,1.238-.18t1.6-.27q.855-.15,1.71-.315V4.475H295.8v7.8q.57-.12,1.02-.233t.7-.187l.21,1.59q-.33.09-.833.21t-1.1.24v4.17H294.04v-3.8q-.81.165-1.613.315t-1.477.27q-.675.12-1.14.2l-.36-1.575q-.06.075-.113.15a1.093,1.093,0,0,0-.082.135q-.255-.225-.6-.592t-.675-.758v5.655ZM292.57,8.81q-.45-.435-1.057-.967a8.424,8.424,0,0,0-1.178-.878l1.11-1.23a7.833,7.833,0,0,1,.788.547q.412.322.8.66t.69.622a4.908,4.908,0,0,0-.4.375q-.232.24-.443.48A4.9,4.9,0,0,0,292.57,8.81Zm-.54,3.45q-.45-.435-1.065-.953a7.945,7.945,0,0,0-1.2-.847l1.05-1.245q.375.225.8.532t.833.638q.4.33.7.6-.15.135-.367.375t-.42.48Q292.165,12.08,292.03,12.26Z" transform="translate(38 397)"/><path class="a" d="M6.642,20.9a11.2,11.2,0,0,1,1.2-.056h4.676a10.635,10.635,0,0,1,1.26.056V19.8a14.928,14.928,0,0,0,2.394,1.274,6.234,6.234,0,0,1,.77-1.568,14.8,14.8,0,0,1-3.6-1.89A8.5,8.5,0,0,1,10.982,15.3H9.316A9.219,9.219,0,0,1,7.1,17.648,13.064,13.064,0,0,1,3.59,19.594,6.5,6.5,0,0,1,4.4,21.022a13.173,13.173,0,0,0,2.24-1.2ZM7.86,19.384c-.252,0-.336,0-.574-.014A11.952,11.952,0,0,0,10.2,16.654a11.4,11.4,0,0,0,2.926,2.716c-.266.014-.392.014-.616.014ZM8,23.43a14.5,14.5,0,0,1-1.5,2.8c-.714.042-1.134.056-1.232.056-.2,0-.434-.014-.812-.042l.224,1.708a16.648,16.648,0,0,1,1.806-.2c.56-.042,3.332-.294,4.718-.42.518-.056,1.358-.154,2.52-.308.238.336.378.532.84,1.218l1.344-.882a28.651,28.651,0,0,0-3.234-3.738l-1.386.616c.784.812,1.022,1.064,1.47,1.554-1.96.21-1.96.21-4.438.35A15.219,15.219,0,0,0,9.778,23.43h4.816a13.026,13.026,0,0,1,1.638.084V21.89a13.182,13.182,0,0,1-1.638.084H5.872A13.751,13.751,0,0,1,4.22,21.89v1.624a13.115,13.115,0,0,1,1.652-.084Zm16.73.406a7.269,7.269,0,0,1-3.248,2,3.461,3.461,0,0,1,.9,1.064,8.43,8.43,0,0,0,3.878-3.066h.84A6.249,6.249,0,0,1,25.64,25.7a8.554,8.554,0,0,1-2.548,1.512A3.815,3.815,0,0,1,24.1,28.274a10.069,10.069,0,0,0,2.31-1.54,3.379,3.379,0,0,1,.378,1.288c.546.028.8.042,1.176.042,1.232,0,1.68-.182,1.96-.826A12.17,12.17,0,0,0,30.5,23.43a8.136,8.136,0,0,1,.056-.826c-.406.028-.672.042-1.358.042H24.744a5.008,5.008,0,0,0,.378-.574h4.284a13.7,13.7,0,0,1,1.442.056v-1.4a9.282,9.282,0,0,1-1.456.084H23.274a7.783,7.783,0,0,1-1.316-.07v1.4a10.017,10.017,0,0,1,1.3-.07h.308A5.529,5.529,0,0,1,21.9,23.486V22.52c-.448.252-.56.322-.938.518v-3.01h.266a7.247,7.247,0,0,1,.98.056v-1.47a6.008,6.008,0,0,1-.994.056h-.252V16.948a9.431,9.431,0,0,1,.084-1.568H19.424a11.039,11.039,0,0,1,.084,1.554V18.67h-.392a6.283,6.283,0,0,1-1.106-.07v1.5a6.821,6.821,0,0,1,1.092-.07h.406v3.71a10.1,10.1,0,0,1-1.582.56l.35,1.638a.633.633,0,0,1,.14-.07,1.647,1.647,0,0,0,.182-.112,26.364,26.364,0,0,0,2.786-1.47,3.224,3.224,0,0,1,.532.742,8.059,8.059,0,0,0,1.722-1.19Zm4.326,0a17.032,17.032,0,0,1-.238,2.114c-.126.6-.28.742-.8.742a9.791,9.791,0,0,1-1.442-.112,7.823,7.823,0,0,0,1.96-2.744Zm-.574-3.612c.56,0,.98.014,1.274.042a10.844,10.844,0,0,1-.056-1.344V16.99a11.33,11.33,0,0,1,.056-1.386,10.547,10.547,0,0,1-1.5.07H24.184a9.847,9.847,0,0,1-1.414-.07,10.892,10.892,0,0,1,.056,1.274v2.044a12.5,12.5,0,0,1-.056,1.358,10.119,10.119,0,0,1,1.288-.056Zm-4.214-3.318H28.23v.588H24.268Zm0,1.61H28.23v.574H24.268ZM40.008,30.3h1.552v-14H40.008ZM51.465,27H62.111V24.08h-7.4c.573-.606.988-.64,2.639-2.313,1.831-1.831,2.74-2.785,3.268-3.437a8.191,8.191,0,0,0,1.134-1.92,4.742,4.742,0,0,0,.337-1.808,4.157,4.157,0,0,0-1.516-3.437A6.539,6.539,0,0,0,56.428,9.93a11.719,11.719,0,0,0-2.246.225,16.535,16.535,0,0,0-2.358.674v3.088a12.371,12.371,0,0,1,2.313-1.033,6.4,6.4,0,0,1,1.988-.348,2.827,2.827,0,0,1,1.932.606,2.242,2.242,0,0,1,.674,1.707,3.426,3.426,0,0,1-.371,1.516,7.8,7.8,0,0,1-1.213,1.7c-.685.775-1.381,1.516-3.886,4.2l-1.516,1.617a.967.967,0,0,0-.281.7ZM72.65,28.494a5.8,5.8,0,0,0-.09-.657q-.072-.387-.153-.765a3.524,3.524,0,0,0-.171-.594H74.2a2.407,2.407,0,0,0,1.044-.162,1.262,1.262,0,0,0,.5-.756,7.1,7.1,0,0,0,.243-.981q.1-.549.171-1.071H68.528q.252-.612.531-1.44t.5-1.566H65.2V18.7H81.614v1.8H71.876q-.09.324-.189.657t-.171.567h7.128q-.036.63-.153,1.494t-.252,1.665q-.135.8-.261,1.269a4.031,4.031,0,0,1-.648,1.422,2.108,2.108,0,0,1-1.1.711,6.918,6.918,0,0,1-1.89.207ZM68.024,17.622V12.294H78.77v5.328Zm2.2-1.8h6.354V14.094H70.22ZM83.774,28.206l-.594-1.872q.252-.036.63-.108t.828-.18v-9q-.144.126-.306.243t-.324.225a4.461,4.461,0,0,0-.567-.792,5.315,5.315,0,0,0-.657-.666,9.139,9.139,0,0,0,1.143-.828,15.411,15.411,0,0,0,1.179-1.1,14.84,14.84,0,0,0,1.053-1.206,7.454,7.454,0,0,0,.747-1.134l1.818.522a4.39,4.39,0,0,0,.639.729q.441.423.981.855t.99.756v-.828h3.1V11.988H96.5v1.836h3.186v4.068h-1.1v3.924H94.214V23.04h4.95V28.1h-6.93V17.892h-.9V15.246q-.252.288-.5.612a5.188,5.188,0,0,0-.378.54q-.378-.288-.9-.747T88.535,14.7a11.579,11.579,0,0,1-.8-.873,16.578,16.578,0,0,1-2.826,3.006H86.78V15.1h1.854V16.83h2.142v6.39H89.282A15.546,15.546,0,0,1,90.6,25.092a21.769,21.769,0,0,1,1.062,1.962,6.394,6.394,0,0,0-.855.414q-.477.27-.855.522-.108-.306-.261-.648t-.351-.7q-.828.288-1.827.585t-1.98.549Q84.548,28.026,83.774,28.206Zm9.468-11.412h4.536V15.5H93.242Zm.972,9.486h2.97V24.714h-2.97Zm-4.932-3.06H86.546V25.6q.5-.126.99-.261t.918-.261q-.2-.306-.387-.567t-.351-.459Zm4.932-3.168h2.412v-1.53H94.214ZM86.546,21.6h2.322v-.972H86.546Zm0-2.214h2.322V18.45H86.546Zm20.4,7.94a6.57,6.57,0,0,0,4.627-1.527,5.4,5.4,0,0,0,1.673-4.155,5.713,5.713,0,0,0-1.539-4.122,5.567,5.567,0,0,0-4.032-1.561,6.994,6.994,0,0,0-1,.067,4.911,4.911,0,0,0-.865.236V13.153h6.424v-2.92h-9.108V19.6a9.088,9.088,0,0,1,1.808-.663,7.423,7.423,0,0,1,1.729-.213,3.577,3.577,0,0,1,2.459.775,2.767,2.767,0,0,1,.9,2.167,2.611,2.611,0,0,1-.91,2.123,4.058,4.058,0,0,1-2.673.752,7.752,7.752,0,0,1-1.954-.236,9.152,9.152,0,0,1-1.92-.685v2.987a17.2,17.2,0,0,0,2.246.539A13.232,13.232,0,0,0,106.95,27.326Zm15.789.862V20.844h2.178q.18-.378.36-.828a6.919,6.919,0,0,0,.27-.792l1.908.324a1.176,1.176,0,0,1-.36-.972v-6.7h1.944v2.466q.666-.288,1.386-.666a11.023,11.023,0,0,0,1.206-.72l1.08,1.476q-.684.414-1.7.918t-1.971.882V17.5a.3.3,0,0,0,.234.342q.036.054.36.072t.468.018a1.193,1.193,0,0,0,.495-.081.584.584,0,0,0,.261-.4A5.767,5.767,0,0,0,131,16.416a4.864,4.864,0,0,0,.855.369,9.337,9.337,0,0,0,.945.279,7.221,7.221,0,0,1-.4,1.827,1.319,1.319,0,0,1-.72.783,3.6,3.6,0,0,1-1.26.18h-1.692a2.95,2.95,0,0,1-1.062-.162q-.09.234-.243.54t-.315.612h4.374v7.344Zm-6.372.144V12.582h5.49l.7.54q-.144.414-.45,1.116t-.666,1.467q-.36.765-.666,1.4t-.468.945a7.55,7.55,0,0,1,1.314,1.584,3.562,3.562,0,0,1,.5,1.89,4.675,4.675,0,0,1-.36,2.007A2.224,2.224,0,0,1,120.8,24.6a2.984,2.984,0,0,1-1.386.315h-.558a7.205,7.205,0,0,0-.18-1.08,7.085,7.085,0,0,0-.288-.972h.648q1.1,0,1.1-1.584a3.086,3.086,0,0,0-.468-1.656,5.7,5.7,0,0,0-1.3-1.422q.108-.216.342-.738t.5-1.152q.261-.63.477-1.17t.288-.774h-1.638V28.332Zm5.526-8.244-.558-1.782q.216-.036.54-.108t.7-.162v-6.1h2v2h2.07v1.8h-2.07v1.854q.648-.162,1.206-.315t.882-.261v1.746q-.4.144-1.035.333t-1.35.387q-.711.2-1.35.36T121.893,20.088Zm2.844,6.48h4.752V25.29h-4.752Zm0-2.826h4.752V22.464h-4.752ZM146.88,27h12.961V23.445h-9.01c.7-.738,1.2-.779,3.213-2.816,2.229-2.229,3.336-3.391,3.979-4.184a9.971,9.971,0,0,0,1.381-2.338,5.773,5.773,0,0,0,.41-2.2,5.061,5.061,0,0,0-1.846-4.184,7.96,7.96,0,0,0-5.045-1.5,14.266,14.266,0,0,0-2.734.273,20.129,20.129,0,0,0-2.871.82v3.76a15.06,15.06,0,0,1,2.816-1.258,7.786,7.786,0,0,1,2.42-.424,3.441,3.441,0,0,1,2.352.738,2.73,2.73,0,0,1,.82,2.078,4.17,4.17,0,0,1-.451,1.846,9.493,9.493,0,0,1-1.477,2.064c-.834.943-1.682,1.846-4.73,5.113L147.221,23.2a1.177,1.177,0,0,0-.342.848Zm23.02.4a8,8,0,0,0,5.633-1.859,6.579,6.579,0,0,0,2.037-5.059,6.955,6.955,0,0,0-1.873-5.018,6.777,6.777,0,0,0-4.908-1.9,8.515,8.515,0,0,0-1.217.082,5.979,5.979,0,0,0-1.053.287V10.143h7.82V6.588H165.252v11.4a11.063,11.063,0,0,1,2.2-.807,9.037,9.037,0,0,1,2.105-.26,4.355,4.355,0,0,1,2.994.943,3.368,3.368,0,0,1,1.094,2.639,3.178,3.178,0,0,1-1.107,2.584,4.94,4.94,0,0,1-3.254.916,9.438,9.438,0,0,1-2.379-.287,11.141,11.141,0,0,1-2.338-.834v3.637a20.938,20.938,0,0,0,2.734.656A16.108,16.108,0,0,0,169.9,27.4Zm18.454,0a5.584,5.584,0,0,0,5.059-2.639c1.121-1.764,1.682-4.4,1.682-7.943s-.561-6.193-1.682-7.957a6.181,6.181,0,0,0-10.131,0Q181.6,11.5,181.6,16.814q0,5.291,1.682,7.93A5.617,5.617,0,0,0,188.354,27.4Zm-.014-3.418c-.93,0-1.613-.574-2.037-1.709a16.992,16.992,0,0,1-.643-5.455,17.031,17.031,0,0,1,.643-5.469c.424-1.135,1.107-1.709,2.037-1.709s1.627.574,2.051,1.709a17.031,17.031,0,0,1,.643,5.469,16.992,16.992,0,0,1-.643,5.455C189.967,23.4,189.284,23.979,188.34,23.979Zm.014-3.268c.26,0,.465-.533.588-1.627a20.989,20.989,0,0,0,.123-2.242c0-.492-.082-1.559-.15-2.324-.109-.943-.314-1.627-.588-1.627s-.437.533-.561,1.6a20.9,20.9,0,0,0-.137,2.27c0,.506.1,1.641.164,2.338C187.9,19.918,188.053,20.711,188.354,20.711ZM199.794,27h12.947V23.445H208.23V6.588h-3.9L200.108,7.6v3.637l4.2-1.039V23.445h-4.512Zm16.28,2.6H219.1l10.746-23.01H226.82ZM233.407,27h12.961V23.445h-9.01c.7-.738,1.2-.779,3.213-2.816,2.229-2.229,3.336-3.391,3.979-4.184a9.971,9.971,0,0,0,1.381-2.338,5.773,5.773,0,0,0,.41-2.2,5.061,5.061,0,0,0-1.846-4.184,7.96,7.96,0,0,0-5.045-1.5,14.266,14.266,0,0,0-2.734.273,20.129,20.129,0,0,0-2.871.82v3.76a15.06,15.06,0,0,1,2.816-1.258,7.786,7.786,0,0,1,2.42-.424,3.441,3.441,0,0,1,2.352.738,2.73,2.73,0,0,1,.82,2.078,4.17,4.17,0,0,1-.451,1.846,9.493,9.493,0,0,1-1.477,2.064c-.834.943-1.682,1.846-4.73,5.113L233.749,23.2a1.177,1.177,0,0,0-.342.848Zm23.02.4a8,8,0,0,0,5.633-1.859,6.579,6.579,0,0,0,2.037-5.059,6.955,6.955,0,0,0-1.873-5.018,6.777,6.777,0,0,0-4.908-1.9,8.515,8.515,0,0,0-1.217.082,5.979,5.979,0,0,0-1.053.287V10.143h7.82V6.588H251.779v11.4a11.063,11.063,0,0,1,2.2-.807,9.037,9.037,0,0,1,2.105-.26,4.355,4.355,0,0,1,2.994.943,3.368,3.368,0,0,1,1.094,2.639,3.178,3.178,0,0,1-1.107,2.584,4.94,4.94,0,0,1-3.254.916,9.438,9.438,0,0,1-2.379-.287,11.141,11.141,0,0,1-2.338-.834v3.637a20.938,20.938,0,0,0,2.734.656A16.108,16.108,0,0,0,256.427,27.4Zm18.454,0a5.584,5.584,0,0,0,5.059-2.639c1.121-1.764,1.682-4.4,1.682-7.943s-.561-6.193-1.682-7.957a6.181,6.181,0,0,0-10.131,0q-1.682,2.646-1.682,7.957,0,5.291,1.682,7.93A5.617,5.617,0,0,0,274.881,27.4Zm-.014-3.418c-.93,0-1.613-.574-2.037-1.709a16.992,16.992,0,0,1-.643-5.455,17.031,17.031,0,0,1,.643-5.469c.424-1.135,1.107-1.709,2.037-1.709s1.627.574,2.051,1.709a17.031,17.031,0,0,1,.643,5.469,16.992,16.992,0,0,1-.643,5.455C276.494,23.4,275.811,23.979,274.867,23.979Zm.014-3.268c.26,0,.465-.533.588-1.627a20.989,20.989,0,0,0,.123-2.242c0-.492-.082-1.559-.15-2.324-.109-.943-.314-1.627-.588-1.627s-.437.533-.561,1.6a20.9,20.9,0,0,0-.137,2.27c0,.506.1,1.641.164,2.338C274.43,19.918,274.58,20.711,274.881,20.711ZM291.038,27.4a8,8,0,0,0,5.633-1.859,6.579,6.579,0,0,0,2.037-5.059,6.955,6.955,0,0,0-1.873-5.018,6.777,6.777,0,0,0-4.908-1.9,8.515,8.515,0,0,0-1.217.082,5.979,5.979,0,0,0-1.053.287V10.143h7.82V6.588H286.389v11.4a11.063,11.063,0,0,1,2.2-.807,9.037,9.037,0,0,1,2.105-.26,4.355,4.355,0,0,1,2.994.943,3.368,3.368,0,0,1,1.094,2.639,3.178,3.178,0,0,1-1.107,2.584,4.94,4.94,0,0,1-3.254.916,9.438,9.438,0,0,1-2.379-.287,11.141,11.141,0,0,1-2.338-.834v3.637a20.938,20.938,0,0,0,2.734.656A16.108,16.108,0,0,0,291.038,27.4Zm15.569.972a5.5,5.5,0,0,0-.09-.648q-.072-.378-.162-.729a4.286,4.286,0,0,0-.18-.567h1.152a.871.871,0,0,0,.5-.108.544.544,0,0,0,.144-.45v-1.1q-1.026.108-1.944.171t-1.512.1L304.3,23.2q.558,0,1.548-.072t2.124-.162V21.924l.774-.018.216-.216.324-.324a1.991,1.991,0,0,0,.2-.216h-1.908q-.594.45-1.224.855t-1.3.747a6.09,6.09,0,0,0-.45-.711,4.358,4.358,0,0,0-.648-.747q.522-.252,1-.522t.927-.576v-.684h.936q.36-.27.675-.558t.621-.576h-3.744V16.722h2.988v-1.35H305v-1.62h2.358V11.916h2v1.836h1.458v1.206q.342-.576.63-1.134t.522-1.116l1.746.756q-.4.846-.873,1.665t-1.035,1.593h1.116v1.1a17.728,17.728,0,0,0,1.269-3.006,14.964,14.964,0,0,0,.657-2.952l1.944.306a20.527,20.527,0,0,1-.846,3.384h4.842v1.8h-1.08a18.5,18.5,0,0,1-.612,3.474,11.965,11.965,0,0,1-1.224,2.88,12.923,12.923,0,0,0,3.384,2.916q-.234.234-.522.558t-.531.63a2.5,2.5,0,0,0-.315.468,13.961,13.961,0,0,1-3.222-2.934,11.757,11.757,0,0,1-4.5,2.97,7.4,7.4,0,0,0-.441-.846,5.343,5.343,0,0,0-.621-.864,9.691,9.691,0,0,0,2.547-1.2,8.355,8.355,0,0,0,1.881-1.719,14.385,14.385,0,0,1-.891-1.962,12.874,12.874,0,0,1-.567-2.07q-.2.324-.414.621t-.432.567a1.964,1.964,0,0,0-.324-.288q-.2-.144-.414-.288-.306.342-.756.8t-.909.909q-.459.45-.837.792,1.044-.09,1.917-.2t1.377-.2v1.674q-.558.126-1.44.252t-1.89.252v2.07a1.6,1.6,0,0,1-.522,1.332,2.524,2.524,0,0,1-1.584.414Zm10.062-6.534a10.849,10.849,0,0,0,.729-2.142,14.183,14.183,0,0,0,.333-2.34h-2.16a11.016,11.016,0,0,0,.315,2.358A10.341,10.341,0,0,0,316.668,21.834Zm-7.2-2.322h2.322a10.1,10.1,0,0,0,.81-1.134h-2.07q-.252.288-.513.576T309.468,19.512Zm-.108-2.79h.234q.252-.324.495-.666t.477-.684H309.36Zm13.374,11.142V26.046h7V24.822h-5V22.986h5V21.618q-1.44.108-2.826.18t-2.412.09l-.27-1.854q.666,0,1.4-.027t1.5-.045q.27-.414.576-.936t.558-.972h-2.52v-1.71h10.206v1.71h-2.034q.54.4,1.152.927t1.2,1.062q.585.531,1.035.981a4.184,4.184,0,0,0-.513.351q-.315.243-.621.5a3.805,3.805,0,0,0-.468.459q-.18-.234-.459-.531t-.621-.639q-.594.072-1.3.144t-1.485.144v1.53H336.9v1.836h-5.076v1.224h7.092v1.818Zm.2-10.116V13.59h6.678V11.9h2.34V13.59h6.714v4.068h-2.088V15.3h-11.52v2.448Zm6.48,2.124q.954-.054,1.845-.108t1.665-.108q-.252-.216-.495-.405a3.432,3.432,0,0,0-.477-.315l1.026-.882H330.51Q329.97,19.026,329.412,19.872Z" transform="translate(16.247 566.965)"/><g transform="translate(-0.135 -161.326)"><path class="a" d="M1.469,0h7.4V-2.031H6.289v-9.633H4.063l-2.414.578v2.078l2.4-.594v7.57H1.469Zm9.313,0h7.4V-2.031H15.6v-9.633H13.375l-2.414.578v2.078l2.4-.594v7.57H10.782Zm12.68-5.875a1.4,1.4,0,0,0,.992-.4,1.464,1.464,0,0,0,.4-1.047,1.425,1.425,0,0,0-.4-1.031,1.339,1.339,0,0,0-.977-.4,1.374,1.374,0,0,0-.992.4,1.431,1.431,0,0,0-.4,1.039,1.419,1.419,0,0,0,.406,1.039A1.364,1.364,0,0,0,23.462-5.875Zm.008,5.594a1.344,1.344,0,0,0,.984-.4,1.426,1.426,0,0,0,.4-1.039,1.431,1.431,0,0,0-.4-1.039,1.344,1.344,0,0,0-.984-.4,1.332,1.332,0,0,0-.977.4,1.4,1.4,0,0,0-.406,1.039A1.4,1.4,0,0,0,22.493-.68,1.332,1.332,0,0,0,23.469-.281ZM29.407,0h7.4V-2.031H34.228v-9.633H32l-2.414.578v2.078l2.4-.594v7.57H29.407ZM41.415.227A4.571,4.571,0,0,0,44.634-.836,3.759,3.759,0,0,0,45.8-3.727a3.974,3.974,0,0,0-1.07-2.867,3.873,3.873,0,0,0-2.8-1.086,4.866,4.866,0,0,0-.7.047,3.417,3.417,0,0,0-.6.164V-9.633H45.1v-2.031H38.759v6.516a6.322,6.322,0,0,1,1.258-.461,5.164,5.164,0,0,1,1.2-.148,2.489,2.489,0,0,1,1.711.539,1.925,1.925,0,0,1,.625,1.508,1.816,1.816,0,0,1-.633,1.477,2.823,2.823,0,0,1-1.859.523A5.393,5.393,0,0,1,39.7-1.875a6.366,6.366,0,0,1-1.336-.477V-.273A11.964,11.964,0,0,0,39.931.1,9.2,9.2,0,0,0,41.415.227Zm6.875-3.781h6.18V-5.828h-6.18ZM57.346,0h7.4V-2.031H62.166v-9.633H59.939l-2.414.578v2.078l2.4-.594v7.57H57.346Zm9.313,0h7.4V-2.031H71.479v-9.633H69.252l-2.414.578v2.078l2.4-.594v7.57H66.658Zm12.68-5.875a1.4,1.4,0,0,0,.992-.4,1.464,1.464,0,0,0,.4-1.047,1.425,1.425,0,0,0-.4-1.031,1.339,1.339,0,0,0-.977-.4,1.374,1.374,0,0,0-.992.4,1.431,1.431,0,0,0-.4,1.039,1.419,1.419,0,0,0,.406,1.039A1.364,1.364,0,0,0,79.338-5.875Zm.008,5.594a1.344,1.344,0,0,0,.984-.4,1.426,1.426,0,0,0,.4-1.039,1.431,1.431,0,0,0-.4-1.039,1.344,1.344,0,0,0-.984-.4,1.332,1.332,0,0,0-.977.4,1.4,1.4,0,0,0-.406,1.039A1.4,1.4,0,0,0,78.37-.68,1.332,1.332,0,0,0,79.346-.281Zm8.805.508a4.9,4.9,0,0,0,3.18-.891,3.168,3.168,0,0,0,1.078-2.57A3.026,3.026,0,0,0,91.753-5.3a3.1,3.1,0,0,0-1.906-.992,2.9,2.9,0,0,0,1.7-.867,2.375,2.375,0,0,0,.594-1.7A2.669,2.669,0,0,0,91.1-11.07a4.538,4.538,0,0,0-2.883-.8,9.3,9.3,0,0,0-1.492.125,13.209,13.209,0,0,0-1.586.375v2.094A10.491,10.491,0,0,1,86.7-9.758a6.2,6.2,0,0,1,1.391-.164,2.1,2.1,0,0,1,1.352.359,1.2,1.2,0,0,1,.469,1.008,1.1,1.1,0,0,1-.469.961A2.283,2.283,0,0,1,88.1-7.25H86.87v2.031H88.1a2.275,2.275,0,0,1,1.547.484A1.755,1.755,0,0,1,90.2-3.4a1.5,1.5,0,0,1-.539,1.227,2.552,2.552,0,0,1-1.617.43,7.908,7.908,0,0,1-1.664-.2,6.435,6.435,0,0,1-1.586-.555V-.352a10.4,10.4,0,0,0,1.641.43A9.954,9.954,0,0,0,88.151.227Zm9.141,0a4.571,4.571,0,0,0,3.219-1.062,3.759,3.759,0,0,0,1.164-2.891,3.974,3.974,0,0,0-1.07-2.867A3.873,3.873,0,0,0,97.8-7.68a4.866,4.866,0,0,0-.7.047,3.417,3.417,0,0,0-.6.164V-9.633h4.469v-2.031H94.636v6.516a6.322,6.322,0,0,1,1.258-.461,5.164,5.164,0,0,1,1.2-.148,2.489,2.489,0,0,1,1.711.539,1.925,1.925,0,0,1,.625,1.508A1.816,1.816,0,0,1,98.8-2.234a2.823,2.823,0,0,1-1.859.523,5.393,5.393,0,0,1-1.359-.164,6.366,6.366,0,0,1-1.336-.477V-.273A11.964,11.964,0,0,0,95.808.1,9.2,9.2,0,0,0,97.292.227Z" transform="translate(16 811)"/><path class="a" d="M1.469,0h7.4V-2.031H6.289v-9.633H4.063l-2.414.578v2.078l2.4-.594v7.57H1.469Zm8.743,0h7.406V-2.031H12.469c.4-.422.688-.445,1.836-1.609,1.273-1.273,1.906-1.937,2.273-2.391a5.7,5.7,0,0,0,.789-1.336A3.3,3.3,0,0,0,17.6-8.625a2.892,2.892,0,0,0-1.055-2.391,4.549,4.549,0,0,0-2.883-.859,8.152,8.152,0,0,0-1.562.156,11.5,11.5,0,0,0-1.641.469V-9.1a8.606,8.606,0,0,1,1.609-.719,4.449,4.449,0,0,1,1.383-.242,1.966,1.966,0,0,1,1.344.422,1.56,1.56,0,0,1,.469,1.188A2.383,2.383,0,0,1,15.008-7.4a5.425,5.425,0,0,1-.844,1.18c-.477.539-.961,1.055-2.7,2.922L10.407-2.172a.673.673,0,0,0-.2.484Zm13.25-5.875a1.4,1.4,0,0,0,.992-.4,1.464,1.464,0,0,0,.4-1.047,1.425,1.425,0,0,0-.4-1.031,1.339,1.339,0,0,0-.977-.4,1.374,1.374,0,0,0-.992.4,1.431,1.431,0,0,0-.4,1.039,1.419,1.419,0,0,0,.406,1.039A1.364,1.364,0,0,0,23.462-5.875Zm.008,5.594a1.344,1.344,0,0,0,.984-.4,1.426,1.426,0,0,0,.4-1.039,1.431,1.431,0,0,0-.4-1.039,1.344,1.344,0,0,0-.984-.4,1.332,1.332,0,0,0-.977.4,1.4,1.4,0,0,0-.406,1.039A1.4,1.4,0,0,0,22.493-.68,1.332,1.332,0,0,0,23.469-.281Zm9.289.508a3.191,3.191,0,0,0,2.891-1.508A8.569,8.569,0,0,0,36.61-5.82a8.6,8.6,0,0,0-.961-4.547,3.2,3.2,0,0,0-2.9-1.508,3.191,3.191,0,0,0-2.891,1.508A8.6,8.6,0,0,0,28.9-5.82a8.557,8.557,0,0,0,.961,4.531A3.21,3.21,0,0,0,32.759.227Zm-.008-1.953c-.531,0-.922-.328-1.164-.977A9.71,9.71,0,0,1,31.22-5.82a9.732,9.732,0,0,1,.367-3.125c.242-.648.633-.977,1.164-.977s.93.328,1.172.977A9.732,9.732,0,0,1,34.29-5.82,9.71,9.71,0,0,1,33.923-2.7C33.681-2.055,33.29-1.727,32.751-1.727Zm.008-1.867c.148,0,.266-.3.336-.93a11.994,11.994,0,0,0,.07-1.281c0-.281-.047-.891-.086-1.328-.062-.539-.18-.93-.336-.93s-.25.3-.32.914a11.943,11.943,0,0,0-.078,1.3c0,.289.055.938.094,1.336C32.5-4.047,32.587-3.594,32.759-3.594ZM42.072.227a3.191,3.191,0,0,0,2.891-1.508,8.569,8.569,0,0,0,.961-4.539,8.6,8.6,0,0,0-.961-4.547,3.2,3.2,0,0,0-2.9-1.508,3.191,3.191,0,0,0-2.891,1.508,8.6,8.6,0,0,0-.961,4.547,8.557,8.557,0,0,0,.961,4.531A3.21,3.21,0,0,0,42.072.227Zm-.008-1.953c-.531,0-.922-.328-1.164-.977a9.71,9.71,0,0,1-.367-3.117A9.732,9.732,0,0,1,40.9-8.945c.242-.648.633-.977,1.164-.977s.93.328,1.172.977A9.732,9.732,0,0,1,43.6-5.82,9.71,9.71,0,0,1,43.236-2.7C42.993-2.055,42.6-1.727,42.064-1.727Zm.008-1.867c.148,0,.266-.3.336-.93a11.994,11.994,0,0,0,.07-1.281c0-.281-.047-.891-.086-1.328-.062-.539-.18-.93-.336-.93s-.25.3-.32.914a11.943,11.943,0,0,0-.078,1.3c0,.289.055.938.094,1.336C41.814-4.047,41.9-3.594,42.072-3.594Zm6.219.039h6.18V-5.828h-6.18ZM57.346,0h7.4V-2.031H62.166v-9.633H59.939l-2.414.578v2.078l2.4-.594v7.57H57.346Zm8.743,0h7.406V-2.031H68.346c.4-.422.688-.445,1.836-1.609,1.273-1.273,1.906-1.937,2.273-2.391a5.7,5.7,0,0,0,.789-1.336,3.3,3.3,0,0,0,.234-1.258,2.892,2.892,0,0,0-1.055-2.391,4.549,4.549,0,0,0-2.883-.859,8.152,8.152,0,0,0-1.562.156,11.5,11.5,0,0,0-1.641.469V-9.1a8.606,8.606,0,0,1,1.609-.719,4.449,4.449,0,0,1,1.383-.242,1.966,1.966,0,0,1,1.344.422,1.56,1.56,0,0,1,.469,1.188A2.383,2.383,0,0,1,70.885-7.4a5.425,5.425,0,0,1-.844,1.18c-.477.539-.961,1.055-2.7,2.922L66.283-2.172a.673.673,0,0,0-.2.484Zm13.25-5.875a1.4,1.4,0,0,0,.992-.4,1.464,1.464,0,0,0,.4-1.047,1.425,1.425,0,0,0-.4-1.031,1.339,1.339,0,0,0-.977-.4,1.374,1.374,0,0,0-.992.4,1.431,1.431,0,0,0-.4,1.039,1.419,1.419,0,0,0,.406,1.039A1.364,1.364,0,0,0,79.338-5.875Zm.008,5.594a1.344,1.344,0,0,0,.984-.4,1.426,1.426,0,0,0,.4-1.039,1.431,1.431,0,0,0-.4-1.039,1.344,1.344,0,0,0-.984-.4,1.332,1.332,0,0,0-.977.4,1.4,1.4,0,0,0-.406,1.039A1.4,1.4,0,0,0,78.37-.68,1.332,1.332,0,0,0,79.346-.281ZM84.714,0H92.12V-2.031H86.972c.4-.422.688-.445,1.836-1.609,1.273-1.273,1.906-1.937,2.273-2.391a5.7,5.7,0,0,0,.789-1.336A3.3,3.3,0,0,0,92.1-8.625a2.892,2.892,0,0,0-1.055-2.391,4.549,4.549,0,0,0-2.883-.859,8.152,8.152,0,0,0-1.562.156,11.5,11.5,0,0,0-1.641.469V-9.1a8.606,8.606,0,0,1,1.609-.719,4.449,4.449,0,0,1,1.383-.242,1.966,1.966,0,0,1,1.344.422,1.56,1.56,0,0,1,.469,1.188A2.383,2.383,0,0,1,89.511-7.4a5.425,5.425,0,0,1-.844,1.18c-.477.539-.961,1.055-2.7,2.922L84.909-2.172a.673.673,0,0,0-.2.484ZM97.948.227a3.191,3.191,0,0,0,2.891-1.508A8.569,8.569,0,0,0,101.8-5.82a8.6,8.6,0,0,0-.961-4.547,3.2,3.2,0,0,0-2.9-1.508,3.191,3.191,0,0,0-2.891,1.508,8.6,8.6,0,0,0-.961,4.547,8.557,8.557,0,0,0,.961,4.531A3.21,3.21,0,0,0,97.948.227Zm-.008-1.953c-.531,0-.922-.328-1.164-.977a9.71,9.71,0,0,1-.367-3.117,9.732,9.732,0,0,1,.367-3.125c.242-.648.633-.977,1.164-.977s.93.328,1.172.977A9.732,9.732,0,0,1,99.48-5.82,9.71,9.71,0,0,1,99.113-2.7C98.87-2.055,98.48-1.727,97.941-1.727Zm.008-1.867c.148,0,.266-.3.336-.93a11.994,11.994,0,0,0,.07-1.281c0-.281-.047-.891-.086-1.328-.062-.539-.18-.93-.336-.93s-.25.3-.32.914a11.943,11.943,0,0,0-.078,1.3c0,.289.055.938.094,1.336C97.691-4.047,97.777-3.594,97.948-3.594Z" transform="translate(136 811)"/><path class="a" d="M1.469,0h7.4V-2.031H6.289v-9.633H4.063l-2.414.578v2.078l2.4-.594v7.57H1.469Zm12.18.227a4.9,4.9,0,0,0,3.18-.891,3.168,3.168,0,0,0,1.078-2.57A3.026,3.026,0,0,0,17.25-5.3a3.1,3.1,0,0,0-1.906-.992,2.9,2.9,0,0,0,1.7-.867,2.375,2.375,0,0,0,.594-1.7A2.669,2.669,0,0,0,16.6-11.07a4.538,4.538,0,0,0-2.883-.8,9.3,9.3,0,0,0-1.492.125,13.209,13.209,0,0,0-1.586.375v2.094A10.491,10.491,0,0,1,12.2-9.758a6.2,6.2,0,0,1,1.391-.164,2.1,2.1,0,0,1,1.352.359,1.2,1.2,0,0,1,.469,1.008,1.1,1.1,0,0,1-.469.961A2.283,2.283,0,0,1,13.6-7.25H12.368v2.031H13.6a2.275,2.275,0,0,1,1.547.484A1.755,1.755,0,0,1,15.7-3.4a1.5,1.5,0,0,1-.539,1.227,2.552,2.552,0,0,1-1.617.43,7.908,7.908,0,0,1-1.664-.2,6.435,6.435,0,0,1-1.586-.555V-.352a10.4,10.4,0,0,0,1.641.43A9.954,9.954,0,0,0,13.649.227Zm9.813-6.1a1.4,1.4,0,0,0,.992-.4,1.464,1.464,0,0,0,.4-1.047,1.425,1.425,0,0,0-.4-1.031,1.339,1.339,0,0,0-.977-.4,1.374,1.374,0,0,0-.992.4,1.431,1.431,0,0,0-.4,1.039,1.419,1.419,0,0,0,.406,1.039A1.364,1.364,0,0,0,23.462-5.875Zm.008,5.594a1.344,1.344,0,0,0,.984-.4,1.426,1.426,0,0,0,.4-1.039,1.431,1.431,0,0,0-.4-1.039,1.344,1.344,0,0,0-.984-.4,1.332,1.332,0,0,0-.977.4,1.4,1.4,0,0,0-.406,1.039A1.4,1.4,0,0,0,22.493-.68,1.332,1.332,0,0,0,23.469-.281Zm8.805.508a4.9,4.9,0,0,0,3.18-.891,3.168,3.168,0,0,0,1.078-2.57A3.026,3.026,0,0,0,35.876-5.3a3.1,3.1,0,0,0-1.906-.992,2.9,2.9,0,0,0,1.7-.867,2.375,2.375,0,0,0,.594-1.7,2.669,2.669,0,0,0-1.031-2.219,4.538,4.538,0,0,0-2.883-.8,9.3,9.3,0,0,0-1.492.125,13.209,13.209,0,0,0-1.586.375v2.094a10.491,10.491,0,0,1,1.555-.477,6.2,6.2,0,0,1,1.391-.164,2.1,2.1,0,0,1,1.352.359,1.2,1.2,0,0,1,.469,1.008,1.1,1.1,0,0,1-.469.961,2.283,2.283,0,0,1-1.336.344H30.993v2.031h1.234a2.275,2.275,0,0,1,1.547.484A1.755,1.755,0,0,1,34.321-3.4a1.5,1.5,0,0,1-.539,1.227,2.552,2.552,0,0,1-1.617.43,7.908,7.908,0,0,1-1.664-.2,6.435,6.435,0,0,1-1.586-.555V-.352a10.4,10.4,0,0,0,1.641.43A9.954,9.954,0,0,0,32.274.227Zm9.8,0a3.191,3.191,0,0,0,2.891-1.508,8.569,8.569,0,0,0,.961-4.539,8.6,8.6,0,0,0-.961-4.547,3.2,3.2,0,0,0-2.9-1.508,3.191,3.191,0,0,0-2.891,1.508,8.6,8.6,0,0,0-.961,4.547,8.557,8.557,0,0,0,.961,4.531A3.21,3.21,0,0,0,42.072.227Zm-.008-1.953c-.531,0-.922-.328-1.164-.977a9.71,9.71,0,0,1-.367-3.117A9.732,9.732,0,0,1,40.9-8.945c.242-.648.633-.977,1.164-.977s.93.328,1.172.977A9.732,9.732,0,0,1,43.6-5.82,9.71,9.71,0,0,1,43.236-2.7C42.993-2.055,42.6-1.727,42.064-1.727Zm.008-1.867c.148,0,.266-.3.336-.93a11.994,11.994,0,0,0,.07-1.281c0-.281-.047-.891-.086-1.328-.062-.539-.18-.93-.336-.93s-.25.3-.32.914a11.943,11.943,0,0,0-.078,1.3c0,.289.055.938.094,1.336C41.814-4.047,41.9-3.594,42.072-3.594Zm6.219.039h6.18V-5.828h-6.18ZM57.346,0h7.4V-2.031H62.166v-9.633H59.939l-2.414.578v2.078l2.4-.594v7.57H57.346Zm12.18.227a4.9,4.9,0,0,0,3.18-.891,3.168,3.168,0,0,0,1.078-2.57A3.026,3.026,0,0,0,73.127-5.3a3.1,3.1,0,0,0-1.906-.992,2.9,2.9,0,0,0,1.7-.867,2.375,2.375,0,0,0,.594-1.7,2.669,2.669,0,0,0-1.031-2.219,4.538,4.538,0,0,0-2.883-.8,9.3,9.3,0,0,0-1.492.125,13.209,13.209,0,0,0-1.586.375v2.094a10.491,10.491,0,0,1,1.555-.477,6.2,6.2,0,0,1,1.391-.164,2.1,2.1,0,0,1,1.352.359,1.2,1.2,0,0,1,.469,1.008,1.1,1.1,0,0,1-.469.961,2.283,2.283,0,0,1-1.336.344H68.244v2.031h1.234a2.275,2.275,0,0,1,1.547.484A1.755,1.755,0,0,1,71.573-3.4a1.5,1.5,0,0,1-.539,1.227,2.552,2.552,0,0,1-1.617.43,7.908,7.908,0,0,1-1.664-.2,6.435,6.435,0,0,1-1.586-.555V-.352a10.4,10.4,0,0,0,1.641.43A9.954,9.954,0,0,0,69.526.227Zm9.813-6.1a1.4,1.4,0,0,0,.992-.4,1.464,1.464,0,0,0,.4-1.047,1.425,1.425,0,0,0-.4-1.031,1.339,1.339,0,0,0-.977-.4,1.374,1.374,0,0,0-.992.4,1.431,1.431,0,0,0-.4,1.039,1.419,1.419,0,0,0,.406,1.039A1.364,1.364,0,0,0,79.338-5.875Zm.008,5.594a1.344,1.344,0,0,0,.984-.4,1.426,1.426,0,0,0,.4-1.039,1.431,1.431,0,0,0-.4-1.039,1.344,1.344,0,0,0-.984-.4,1.332,1.332,0,0,0-.977.4,1.4,1.4,0,0,0-.406,1.039A1.4,1.4,0,0,0,78.37-.68,1.332,1.332,0,0,0,79.346-.281Zm8.633.508A4.571,4.571,0,0,0,91.2-.836a3.759,3.759,0,0,0,1.164-2.891,3.974,3.974,0,0,0-1.07-2.867,3.873,3.873,0,0,0-2.8-1.086,4.866,4.866,0,0,0-.7.047,3.417,3.417,0,0,0-.6.164V-9.633h4.469v-2.031H85.323v6.516a6.322,6.322,0,0,1,1.258-.461,5.164,5.164,0,0,1,1.2-.148,2.489,2.489,0,0,1,1.711.539,1.925,1.925,0,0,1,.625,1.508,1.816,1.816,0,0,1-.633,1.477,2.823,2.823,0,0,1-1.859.523,5.393,5.393,0,0,1-1.359-.164,6.366,6.366,0,0,1-1.336-.477V-.273A11.964,11.964,0,0,0,86.5.1,9.2,9.2,0,0,0,87.979.227Zm9.969,0a3.191,3.191,0,0,0,2.891-1.508A8.569,8.569,0,0,0,101.8-5.82a8.6,8.6,0,0,0-.961-4.547,3.2,3.2,0,0,0-2.9-1.508,3.191,3.191,0,0,0-2.891,1.508,8.6,8.6,0,0,0-.961,4.547,8.557,8.557,0,0,0,.961,4.531A3.21,3.21,0,0,0,97.948.227Zm-.008-1.953c-.531,0-.922-.328-1.164-.977a9.71,9.71,0,0,1-.367-3.117,9.732,9.732,0,0,1,.367-3.125c.242-.648.633-.977,1.164-.977s.93.328,1.172.977A9.732,9.732,0,0,1,99.48-5.82,9.71,9.71,0,0,1,99.113-2.7C98.87-2.055,98.48-1.727,97.941-1.727Zm.008-1.867c.148,0,.266-.3.336-.93a11.994,11.994,0,0,0,.07-1.281c0-.281-.047-.891-.086-1.328-.062-.539-.18-.93-.336-.93s-.25.3-.32.914a11.943,11.943,0,0,0-.078,1.3c0,.289.055.938.094,1.336C97.691-4.047,97.777-3.594,97.948-3.594Z" transform="translate(256 811)"/><path class="a" d="M1.86,1.125a4.754,4.754,0,0,0-.4-.75A4.071,4.071,0,0,0,.93-.3,12.711,12.711,0,0,0,2.37-.855q.765-.345,1.522-.772A13.542,13.542,0,0,0,5.28-2.52h-3.7q.09-.36.188-.87T1.95-4.44q.09-.54.157-1.012t.1-.773H6.7V-7.05h-4.8V-8.52H7.83a3.611,3.611,0,0,0-.45-.233Q7.1-8.88,6.8-9a4.24,4.24,0,0,0-.457-.165,4.078,4.078,0,0,0,.375-.4q.18-.217.36-.457H5.46q.12.285.233.578t.187.5q-.195.03-.525.105t-.645.158q-.315.082-.5.142a6.913,6.913,0,0,0-.2-.69q-.143-.42-.293-.795h-.7q-.285.465-.592.87a6.753,6.753,0,0,1-.593.69A2.878,2.878,0,0,0,1.4-8.715q-.293-.15-.6-.293a2.956,2.956,0,0,0-.488-.187,7.151,7.151,0,0,0,.907-1.05,12.058,12.058,0,0,0,.795-1.26A7.367,7.367,0,0,0,2.55-12.69l1.68.33a7.054,7.054,0,0,1-.435.975h3.5v1.08a10.97,10.97,0,0,0,.757-1.253,8.1,8.1,0,0,0,.517-1.208l1.725.375q-.09.24-.2.487t-.233.517h4.2v1.365h-2.43q.12.285.233.578t.172.5q-.24.03-.592.105t-.668.15q-.315.075-.495.135a6.731,6.731,0,0,0-.195-.72q-.135-.42-.27-.75H9.09q-.285.435-.57.825t-.54.675h4.935v3.675H8.445v.825H13.86a20.863,20.863,0,0,1-.233,2.385,4,4,0,0,1-.465,1.41,1.6,1.6,0,0,1-.818.683A3.836,3.836,0,0,1,11.04.645H10.2a6.876,6.876,0,0,0-.142-.96,4.689,4.689,0,0,0-.248-.84h1.02a1.576,1.576,0,0,0,.6-.09.584.584,0,0,0,.307-.382,5.009,5.009,0,0,0,.173-.893H8.445V1.1H6.7V-1.77A14.51,14.51,0,0,1,5.213-.615a15.959,15.959,0,0,1-1.68,1A15.37,15.37,0,0,1,1.86,1.125ZM3.615-4.02H6.7v-.825H3.765q0,.015-.037.2T3.66-4.26A2.094,2.094,0,0,1,3.615-4.02Zm4.83-2.2h2.73V-7.05H8.445ZM25.2,1.728a8.335,8.335,0,0,1-3.33-.666A8.66,8.66,0,0,1,19.143-.783,8.66,8.66,0,0,1,17.3-3.51a8.335,8.335,0,0,1-.666-3.33,8.335,8.335,0,0,1,.666-3.33A8.66,8.66,0,0,1,19.143-12.9a8.66,8.66,0,0,1,2.727-1.845,8.335,8.335,0,0,1,3.33-.666,8.335,8.335,0,0,1,3.33.666A8.66,8.66,0,0,1,31.257-12.9,8.66,8.66,0,0,1,33.1-10.17a8.335,8.335,0,0,1,.666,3.33A8.335,8.335,0,0,1,33.1-3.51,8.66,8.66,0,0,1,31.257-.783,8.66,8.66,0,0,1,28.53,1.062,8.335,8.335,0,0,1,25.2,1.728Zm-.558-3.1h1.836V-12.2H25.11l-3.2,2,.972,1.566,1.764-1.152ZM36.735.555v-12.54h12.81V.555Zm1.77-1.53h9.27v-9.45h-9.27ZM40.1-2.76V-8.67H46.17v5.91ZM41.88-4.3H44.4v-2.79H41.88Z" transform="translate(42 790)"/><path class="a" d="M1.86,1.125a4.754,4.754,0,0,0-.4-.75A4.071,4.071,0,0,0,.93-.3,12.711,12.711,0,0,0,2.37-.855q.765-.345,1.522-.772A13.542,13.542,0,0,0,5.28-2.52h-3.7q.09-.36.188-.87T1.95-4.44q.09-.54.157-1.012t.1-.773H6.7V-7.05h-4.8V-8.52H7.83a3.611,3.611,0,0,0-.45-.233Q7.1-8.88,6.8-9a4.24,4.24,0,0,0-.457-.165,4.078,4.078,0,0,0,.375-.4q.18-.217.36-.457H5.46q.12.285.233.578t.187.5q-.195.03-.525.105t-.645.158q-.315.082-.5.142a6.913,6.913,0,0,0-.2-.69q-.143-.42-.293-.795h-.7q-.285.465-.592.87a6.753,6.753,0,0,1-.593.69A2.878,2.878,0,0,0,1.4-8.715q-.293-.15-.6-.293a2.956,2.956,0,0,0-.488-.187,7.151,7.151,0,0,0,.907-1.05,12.058,12.058,0,0,0,.795-1.26A7.367,7.367,0,0,0,2.55-12.69l1.68.33a7.054,7.054,0,0,1-.435.975h3.5v1.08a10.97,10.97,0,0,0,.757-1.253,8.1,8.1,0,0,0,.517-1.208l1.725.375q-.09.24-.2.487t-.233.517h4.2v1.365h-2.43q.12.285.233.578t.172.5q-.24.03-.592.105t-.668.15q-.315.075-.495.135a6.731,6.731,0,0,0-.195-.72q-.135-.42-.27-.75H9.09q-.285.435-.57.825t-.54.675h4.935v3.675H8.445v.825H13.86a20.863,20.863,0,0,1-.233,2.385,4,4,0,0,1-.465,1.41,1.6,1.6,0,0,1-.818.683A3.836,3.836,0,0,1,11.04.645H10.2a6.876,6.876,0,0,0-.142-.96,4.689,4.689,0,0,0-.248-.84h1.02a1.576,1.576,0,0,0,.6-.09.584.584,0,0,0,.307-.382,5.009,5.009,0,0,0,.173-.893H8.445V1.1H6.7V-1.77A14.51,14.51,0,0,1,5.213-.615a15.959,15.959,0,0,1-1.68,1A15.37,15.37,0,0,1,1.86,1.125ZM3.615-4.02H6.7v-.825H3.765q0,.015-.037.2T3.66-4.26A2.094,2.094,0,0,1,3.615-4.02Zm4.83-2.2h2.73V-7.05H8.445ZM25.2,1.728a8.335,8.335,0,0,1-3.33-.666A8.66,8.66,0,0,1,19.143-.783,8.66,8.66,0,0,1,17.3-3.51a8.335,8.335,0,0,1-.666-3.33,8.335,8.335,0,0,1,.666-3.33A8.66,8.66,0,0,1,19.143-12.9a8.66,8.66,0,0,1,2.727-1.845,8.335,8.335,0,0,1,3.33-.666,8.335,8.335,0,0,1,3.33.666A8.66,8.66,0,0,1,31.257-12.9,8.66,8.66,0,0,1,33.1-10.17a8.335,8.335,0,0,1,.666,3.33A8.335,8.335,0,0,1,33.1-3.51,8.66,8.66,0,0,1,31.257-.783,8.66,8.66,0,0,1,28.53,1.062,8.335,8.335,0,0,1,25.2,1.728ZM22.122-1.458h5.994V-3.186H24.1a3.129,3.129,0,0,1,.639-.972q.495-.558,1.161-1.224A16.151,16.151,0,0,0,27.576-7.29a3.278,3.278,0,0,0,.72-1.962,2.878,2.878,0,0,0-.864-2.322,3.286,3.286,0,0,0-2.25-.774,3.133,3.133,0,0,0-1.512.369,2.647,2.647,0,0,0-1.089,1.143,4.256,4.256,0,0,0-.405,1.98h1.836a2.682,2.682,0,0,1,.171-1.1.946.946,0,0,1,.45-.486,1.406,1.406,0,0,1,.585-.126,1.142,1.142,0,0,1,.945.369,1.611,1.611,0,0,1,.3,1.035,1.577,1.577,0,0,1-.279.837,6.308,6.308,0,0,1-.693.891q-.414.45-.846.882a15.7,15.7,0,0,0-1.863,2.133,3.2,3.2,0,0,0-.657,1.809ZM36.735.555v-12.54h12.81V.555Zm1.77-1.53h9.27v-9.45h-9.27ZM40.1-2.76V-8.67H46.17v5.91ZM41.88-4.3H44.4v-2.79H41.88Z" transform="translate(162 790)"/><path class="a" d="M1.86,1.125a4.754,4.754,0,0,0-.4-.75A4.071,4.071,0,0,0,.93-.3,12.711,12.711,0,0,0,2.37-.855q.765-.345,1.522-.772A13.542,13.542,0,0,0,5.28-2.52h-3.7q.09-.36.188-.87T1.95-4.44q.09-.54.157-1.012t.1-.773H6.7V-7.05h-4.8V-8.52H7.83a3.611,3.611,0,0,0-.45-.233Q7.1-8.88,6.8-9a4.24,4.24,0,0,0-.457-.165,4.078,4.078,0,0,0,.375-.4q.18-.217.36-.457H5.46q.12.285.233.578t.187.5q-.195.03-.525.105t-.645.158q-.315.082-.5.142a6.913,6.913,0,0,0-.2-.69q-.143-.42-.293-.795h-.7q-.285.465-.592.87a6.753,6.753,0,0,1-.593.69A2.878,2.878,0,0,0,1.4-8.715q-.293-.15-.6-.293a2.956,2.956,0,0,0-.488-.187,7.151,7.151,0,0,0,.907-1.05,12.058,12.058,0,0,0,.795-1.26A7.367,7.367,0,0,0,2.55-12.69l1.68.33a7.054,7.054,0,0,1-.435.975h3.5v1.08a10.97,10.97,0,0,0,.757-1.253,8.1,8.1,0,0,0,.517-1.208l1.725.375q-.09.24-.2.487t-.233.517h4.2v1.365h-2.43q.12.285.233.578t.172.5q-.24.03-.592.105t-.668.15q-.315.075-.495.135a6.731,6.731,0,0,0-.195-.72q-.135-.42-.27-.75H9.09q-.285.435-.57.825t-.54.675h4.935v3.675H8.445v.825H13.86a20.863,20.863,0,0,1-.233,2.385,4,4,0,0,1-.465,1.41,1.6,1.6,0,0,1-.818.683A3.836,3.836,0,0,1,11.04.645H10.2a6.876,6.876,0,0,0-.142-.96,4.689,4.689,0,0,0-.248-.84h1.02a1.576,1.576,0,0,0,.6-.09.584.584,0,0,0,.307-.382,5.009,5.009,0,0,0,.173-.893H8.445V1.1H6.7V-1.77A14.51,14.51,0,0,1,5.213-.615a15.959,15.959,0,0,1-1.68,1A15.37,15.37,0,0,1,1.86,1.125ZM3.615-4.02H6.7v-.825H3.765q0,.015-.037.2T3.66-4.26A2.094,2.094,0,0,1,3.615-4.02Zm4.83-2.2h2.73V-7.05H8.445ZM25.2,1.728a8.335,8.335,0,0,1-3.33-.666A8.66,8.66,0,0,1,19.143-.783,8.66,8.66,0,0,1,17.3-3.51a8.335,8.335,0,0,1-.666-3.33,8.335,8.335,0,0,1,.666-3.33A8.66,8.66,0,0,1,19.143-12.9a8.66,8.66,0,0,1,2.727-1.845,8.335,8.335,0,0,1,3.33-.666,8.335,8.335,0,0,1,3.33.666A8.66,8.66,0,0,1,31.257-12.9,8.66,8.66,0,0,1,33.1-10.17a8.335,8.335,0,0,1,.666,3.33A8.335,8.335,0,0,1,33.1-3.51,8.66,8.66,0,0,1,31.257-.783,8.66,8.66,0,0,1,28.53,1.062,8.335,8.335,0,0,1,25.2,1.728Zm-.234-2.934A3.421,3.421,0,0,0,27.5-2.1a3.2,3.2,0,0,0,.891-2.367,2.975,2.975,0,0,0-.45-1.593,2.386,2.386,0,0,0-1.224-1.017,2.229,2.229,0,0,0,1.053-.954A2.723,2.723,0,0,0,28.134-9.4a2.749,2.749,0,0,0-.891-2.151,3.277,3.277,0,0,0-2.277-.8,2.891,2.891,0,0,0-1.836.621,3.828,3.828,0,0,0-1.206,1.773L23.6-9.27a2.686,2.686,0,0,1,.522-.936,1.044,1.044,0,0,1,.81-.36,1.5,1.5,0,0,1,.936.288,1.124,1.124,0,0,1,.378.954,1.552,1.552,0,0,1-.36,1.071,1.324,1.324,0,0,1-1.044.405h-.864v1.62h.864a1.567,1.567,0,0,1,1.224.477A1.741,1.741,0,0,1,26.5-4.536,1.376,1.376,0,0,1,24.93-2.988a1.2,1.2,0,0,1-.909-.369,2.214,2.214,0,0,1-.513-.927l-1.71.576A3.08,3.08,0,0,0,24.966-1.206ZM36.735.555v-12.54h12.81V.555Zm1.77-1.53h9.27v-9.45h-9.27ZM40.1-2.76V-8.67H46.17v5.91ZM41.88-4.3H44.4v-2.79H41.88Z" transform="translate(282 790)"/></g><g transform="translate(0 3)"><path class="b" d="M16.981,15.143a3.57,3.57,0,0,0-.474-.676,3.209,3.209,0,0,0-.644-.6A7.15,7.15,0,0,0,18.586,12a7.471,7.471,0,0,0,1.579-3.035l-3.51.1-.117-1.521q.169.013.741.007l1.4-.019q.832-.013,1.768-.039a15.939,15.939,0,0,0,.156-2.652l1.612.013q.013.689-.026,1.339T22.077,7.46q.91-.026,1.7-.052t1.333-.052q.539-.026.682-.039,0,.546-.065,1.313t-.169,1.58q-.1.813-.221,1.528t-.234,1.157a3.59,3.59,0,0,1-.592,1.365,1.82,1.82,0,0,1-1.027.63,7.188,7.188,0,0,1-1.749.149,6.748,6.748,0,0,0-.2-.806,3,3,0,0,0-.371-.819,10.939,10.939,0,0,0,1.3-.039,1.281,1.281,0,0,0,.709-.26,1.329,1.329,0,0,0,.37-.637,8.594,8.594,0,0,0,.247-1.027q.117-.624.208-1.319t.13-1.306L21.817,8.9a9.8,9.8,0,0,1-1.761,3.77A8.852,8.852,0,0,1,16.981,15.143Zm14.417.468a3.374,3.374,0,0,0-.267-.429q-.175-.247-.383-.494a3.512,3.512,0,0,0-.39-.4,7.767,7.767,0,0,0,2.21-1.339,4.823,4.823,0,0,0,1.3-1.9A7.534,7.534,0,0,0,34.3,8.357v-.6q0-.286-.007-.741t-.013-.936q-.007-.481-.013-.871t-.02-.559h1.677v3.7a9.407,9.407,0,0,1-.481,3.165,6.2,6.2,0,0,1-1.482,2.34A9.4,9.4,0,0,1,31.4,15.611Zm-1.079-4.5q.013-.117.007-.578T30.312,9.41q-.007-.663-.019-1.391T30.26,6.628q-.019-.663-.032-1.125T30.2,4.925h1.612v.6q0,.455.007,1.1t.019,1.345q.013.7.033,1.359t.039,1.131q.019.474.032.644Zm14.534,4.42q-.013-.26-.078-.877t-.143-1.45q-.078-.832-.182-1.729-.9.1-1.768.214T41.1,11.9q-.708.1-1.151.175l-.195-1.586,1.138-.1q.708-.065,1.592-.163t1.794-.188l-.195-1.729q-1,.117-1.911.24t-1.4.215l-.182-1.6q.52-.026,1.43-.111t1.9-.188q-.078-.65-.15-1.164t-.136-.825l1.677-.182q.013.3.052.813t.1,1.177q1-.13,1.866-.247t1.332-.2l.195,1.6q-.429.013-1.319.1t-1.9.189l.195,1.729q.884-.1,1.716-.208t1.508-.2q.676-.1,1.066-.162l.182,1.586q-.325.026-1,.091l-1.541.149q-.864.084-1.762.188.1.871.208,1.69t.2,1.443q.091.624.13.923ZM52.9,13.882V12.66q.2.013.637.02l1.027.013q.585.006,1.235.006h1.768l.3-2.353q-.4.013-.929.026L55.9,10.4q-.507.013-.9.026t-.553.026l-.078-1.261q.2.013.708.019t1.17,0q.657-.007,1.3-.019t1.131-.033q.488-.019.644-.032l-.442,3.562q.754,0,1.352-.006t.806-.02v1.222q-.221-.026-.845-.033l-1.456-.013q-.832-.007-1.677-.007h-1.15q-.644,0-1.268.007t-1.1.019Q53.069,13.869,52.9,13.882Zm13.4,1.651q-.078-.182-.215-.442t-.306-.52a3.236,3.236,0,0,0-.325-.429,10.488,10.488,0,0,0,3.77-1.892,7.8,7.8,0,0,0,2.275-3q-.65.026-1.476.065L68.35,9.4q-.851.039-1.612.078t-1.313.071q-.552.032-.76.058l-.13-1.625q.338.013.962.013t1.4-.013q.78-.013,1.612-.039t1.618-.059q.786-.032,1.41-.078T72.5,7.72l.884.533a10.148,10.148,0,0,1-2.405,4.452A10.951,10.951,0,0,1,66.3,15.533Zm-.377-8.97V5q.494.039,1.287.052t1.833.013q1,0,1.794-.026T72.114,5v1.56q-.494-.039-1.242-.052T69.046,6.5q-.585,0-1.189.006t-1.118.02Q66.225,6.537,65.926,6.563ZM84.75,14.48q-.13-.286-.338-.643t-.468-.76q-.338.039-.988.123l-1.469.189q-.819.1-1.683.221l-1.651.221q-.787.1-1.372.189t-.832.123L75.507,12.5q.208,0,.7-.045t1.157-.1q.26-.494.6-1.222t.7-1.56q.358-.832.683-1.651T79.9,6.446q.234-.663.325-1.04l1.768.507q-.13.273-.377.813t-.559,1.235q-.312.7-.657,1.449t-.676,1.476q-.332.721-.6,1.306,1.066-.1,2.119-.227t1.794-.215q-.377-.507-.735-.943a6.492,6.492,0,0,0-.631-.682l1.183-.793a12.207,12.207,0,0,1,1.215,1.235q.618.715,1.17,1.5t.955,1.482a3.465,3.465,0,0,0-.494.26q-.273.169-.526.351T84.75,14.48Zm8.447.952a11.3,11.3,0,0,0-.374-1.215q-.248-.684-.576-1.427t-.707-1.436q-.612.279-1.12.522t-.778.387l-.459-.747q.324-.126.85-.347t1.13-.481q-.279-.486-.571-.9a6.1,6.1,0,0,0-.572-.7l.693-.378a7.132,7.132,0,0,1,.585.743q.3.427.594.913l.8-.356q.4-.175.738-.319a6.116,6.116,0,0,0-.387-.765,3.386,3.386,0,0,0-.441-.612l.711-.351a4.807,4.807,0,0,1,.288.414q.153.243.3.5a4.752,4.752,0,0,1,.247.495l.063-.036a2.909,2.909,0,0,1,1.076-.243,2.2,2.2,0,0,1,.936.175,1.552,1.552,0,0,1,.661.531,1.4,1.4,0,0,1,.243.823,1.7,1.7,0,0,1-.293,1.03,1.647,1.647,0,0,1-.783.581,2.929,2.929,0,0,1-1.1.162,4.683,4.683,0,0,1-1.251-.216,2.556,2.556,0,0,0,0-.432,2.738,2.738,0,0,0-.054-.423,3.654,3.654,0,0,0,.855.229,2.779,2.779,0,0,0,.864,0,1.3,1.3,0,0,0,.661-.292.816.816,0,0,0,.257-.648.666.666,0,0,0-.243-.553,1.077,1.077,0,0,0-.639-.212,2.124,2.124,0,0,0-.873.171q-.405.171-1.013.437t-1.256.554q.387.693.734,1.422t.617,1.413q.27.684.441,1.242a2.884,2.884,0,0,0-.441.135A2.24,2.24,0,0,0,93.2,15.432Zm9.786.6a5.478,5.478,0,0,0-.13-.76,5.063,5.063,0,0,0-.208-.709h1.3a.655.655,0,0,0,.377-.084.406.406,0,0,0,.117-.345V12.79h-5.07V11.464h5.07V10.7h.585q.2-.143.514-.4t.578-.488h-4.433V8.539h6.565l.585.6q-.247.247-.611.572t-.767.663q-.4.338-.773.624t-.631.468h4.8V12.79h-4.862v1.885q0,1.352-1.638,1.352Zm-3.51-6.461V6.5h2a9.457,9.457,0,0,0-.462-.9,5.022,5.022,0,0,0-.526-.773l1.339-.611a4.7,4.7,0,0,1,.423.578q.227.357.436.728A4.972,4.972,0,0,1,103,6.16L102.2,6.5h2.262a6.823,6.823,0,0,0-.279-.67q-.176-.371-.371-.721a4.476,4.476,0,0,0-.39-.6L104.816,4a4.058,4.058,0,0,1,.422.6q.227.383.429.786a4.96,4.96,0,0,1,.293.689l-1.04.416h1.7q.221-.351.461-.8t.455-.89q.214-.442.344-.741l1.56.4q-.221.468-.533,1.027t-.585,1h2.431V9.566h-1.495V7.746h-8.32v1.82Zm12.415,5.811V13.986h5.083V11.568h-3.289V10.151h3.289V8.136h-2.717q-.364.611-.747,1.157a9.956,9.956,0,0,1-.747.949,2.342,2.342,0,0,0-.383-.293q-.253-.162-.52-.312a2.764,2.764,0,0,0-.461-.215,6.277,6.277,0,0,0,.813-.969,14.177,14.177,0,0,0,.838-1.352q.4-.734.709-1.436a6.1,6.1,0,0,0,.41-1.235l1.5.494a9.379,9.379,0,0,1-.676,1.82h1.989V4.171h1.638V6.745h4.225V8.136h-4.225v2.015h3.25v1.417h-3.25v2.418H123.3v1.391Zm12.48,0V13.986h5.083V11.568h-3.289V10.151h3.289V8.136h-2.717q-.364.611-.747,1.157a9.956,9.956,0,0,1-.747.949,2.342,2.342,0,0,0-.383-.293q-.253-.162-.52-.312a2.764,2.764,0,0,0-.461-.215,6.277,6.277,0,0,0,.813-.969,14.177,14.177,0,0,0,.838-1.352q.4-.734.709-1.436a6.1,6.1,0,0,0,.41-1.235l1.495.494a9.379,9.379,0,0,1-.676,1.82h1.989V4.171h1.638V6.745h4.225V8.136h-4.225v2.015h3.25v1.417h-3.25v2.418h4.693v1.391Zm16.627.377V10.827h2.5V9.1H140.1V7.72h3.393V6.16q-.715.065-1.391.11t-1.183.059l-.189-.689a3.08,3.08,0,0,0-.253-.663q.728,0,1.6-.045t1.755-.143q.884-.1,1.684-.227a11.977,11.977,0,0,0,1.384-.3L147.82,5.5q-.481.13-1.222.267T145.025,6V7.72h3.432V9.1h-3.432v1.729h2.522v4.927Zm1.534-1.339h3.5V12.153h-3.5ZM138.1,15.884l-1.391-.949a8.974,8.974,0,0,0,.611-.923q.312-.533.611-1.125t.54-1.15a9.006,9.006,0,0,0,.37-1q.247.208.644.494a6.731,6.731,0,0,0,.656.429q-.143.455-.383,1.021t-.527,1.157q-.286.591-.578,1.125T138.1,15.884Zm.767-5.85a7.43,7.43,0,0,0-.663-.507q-.429-.3-.891-.572a6.91,6.91,0,0,0-.8-.416l.793-1.313q.39.182.839.429t.871.513a7.015,7.015,0,0,1,.721.514q-.1.13-.286.4t-.345.54Q138.941,9.891,138.863,10.034Zm.611-2.977a5.95,5.95,0,0,0-.65-.507q-.429-.3-.891-.572a5.514,5.514,0,0,0-.8-.4l.806-1.287a7.561,7.561,0,0,1,.826.41q.474.266.917.552a7.056,7.056,0,0,1,.689.494,4.484,4.484,0,0,0-.286.377q-.182.26-.357.527T139.474,7.057Zm12.321,7.934a8.3,8.3,0,0,1-.1-.868q-.036-.518-.049-1.134t0-1.274q.013-.657.054-1.287t.1-1.165a8.1,8.1,0,0,1,.153-.914l.81.171a6.3,6.3,0,0,0-.158.833q-.067.508-.108,1.116t-.054,1.251q-.014.643,0,1.242t.054,1.084a6.908,6.908,0,0,0,.1.792Zm3.537-.531a2.4,2.4,0,0,1-.99-.238.939.939,0,0,1-.486-.608,1.879,1.879,0,0,1,.027-1.188l.729.2a1.109,1.109,0,0,0-.059.365.689.689,0,0,0,.068.292q.144.306.864.36a6.117,6.117,0,0,0,.9-.014q.5-.04.972-.121a6.206,6.206,0,0,0,.819-.189,2.394,2.394,0,0,0-.031.266q-.014.175-.018.351t0,.274a7.5,7.5,0,0,1-.949.18q-.5.063-.972.077T155.332,14.46Zm-1.17-4.374-.045-.846q.333.036.81.045t1-.018q.522-.027,1-.086a7.2,7.2,0,0,0,.81-.139l-.027.837q-.351.063-.819.113t-.972.077q-.5.027-.963.031T154.162,10.086Zm9.063,4.374a1.823,1.823,0,0,0-.171-.446,1.788,1.788,0,0,0-.27-.41,10.972,10.972,0,0,0,2.02-.373,3.308,3.308,0,0,0,1.327-.693,1.32,1.32,0,0,0,.441-1.066,1.146,1.146,0,0,0-.531-1,2.7,2.7,0,0,0-1.494-.274,6.638,6.638,0,0,0-.693.068q-.414.058-.882.153t-.936.207q-.468.112-.878.239t-.688.243a.861.861,0,0,0-.054-.148q-.054-.13-.126-.3l-.13-.3a.482.482,0,0,0-.077-.144l.707-.157q.427-.095.936-.2t1.026-.207q.518-.1.977-.166a6.824,6.824,0,0,1,.792-.076,3.36,3.36,0,0,1,2.173.495,1.914,1.914,0,0,1,.76,1.539,2.078,2.078,0,0,1-.5,1.516,3.658,3.658,0,0,1-1.5.968A10.677,10.677,0,0,1,163.225,14.46Zm8.883-.45a1.222,1.222,0,0,1-.756.184.975.975,0,0,1-.675-.517,6.27,6.27,0,0,1-.477-.995,10.177,10.177,0,0,1-.373-1.2,11.2,11.2,0,0,1-.239-1.26,8.132,8.132,0,0,1-.072-1.175l.846.009a7.077,7.077,0,0,0,.036.99,8.7,8.7,0,0,0,.176,1.062,9.465,9.465,0,0,0,.288,1.008,4.648,4.648,0,0,0,.374.828q.153.252.315.279a.424.424,0,0,0,.324-.09,2.868,2.868,0,0,0,.472-.418,3.238,3.238,0,0,0,.392-.5,1.736,1.736,0,0,0,.212.369,2.659,2.659,0,0,0,.265.324,3.807,3.807,0,0,1-.508.616A3.116,3.116,0,0,1,172.108,14.01Zm3.546-1.62a5.745,5.745,0,0,0-.261-.621q-.18-.378-.414-.783t-.473-.76a4.9,4.9,0,0,0-.428-.562l.666-.423a6.674,6.674,0,0,1,.464.6q.257.369.508.787t.446.8a5.128,5.128,0,0,1,.283.639,2.008,2.008,0,0,0-.432.13A1.783,1.783,0,0,0,175.654,12.39Zm8.442,2.862a3.775,3.775,0,0,1-1.6-.531,3.115,3.115,0,0,1-1.089-1.12,3.089,3.089,0,0,1-.239-2.466,3.437,3.437,0,0,1,.473-.936,3.5,3.5,0,0,1,.8-.806q-.558.09-1.134.194t-1.107.2q-.531.1-.954.189t-.666.153l-.2-.909q.3-.027.81-.09t1.157-.162q.644-.1,1.327-.211T183,8.529q.644-.117,1.156-.225t.81-.189l.225.855q-.126.009-.32.036t-.436.072a2.706,2.706,0,0,0-.977.337,3.271,3.271,0,0,0-.824.671,3.078,3.078,0,0,0-.562.913,2.856,2.856,0,0,0-.2,1.066,2,2,0,0,0,.36,1.206,2.413,2.413,0,0,0,.967.774,4.522,4.522,0,0,0,1.354.369,1.887,1.887,0,0,0-.288.418A1.8,1.8,0,0,0,184.1,15.252Zm4.662.225a3.967,3.967,0,0,0-.45-.608q-.288-.328-.6-.639a5.127,5.127,0,0,0-.576-.5l.54-.495a7.741,7.741,0,0,1,.607.5q.338.306.644.621a5.37,5.37,0,0,1,.477.549Zm8.647.326a4.353,4.353,0,0,0-.088-.484,2.732,2.732,0,0,0-.132-.44h.781a.5.5,0,0,0,.314-.077.357.357,0,0,0,.093-.286V13.493q-.66.077-1.259.132t-.985.077l-.11-.869q.385-.011,1.018-.066t1.337-.132V11.9h.451q.066-.055.182-.17t.231-.236q.116-.121.171-.187h-1.463q-.374.308-.77.578a9.221,9.221,0,0,1-.8.49,3.637,3.637,0,0,0-.231-.336,2.612,2.612,0,0,0-.308-.357,9.187,9.187,0,0,0,1.309-.814v-.341h.44q.462-.4.891-.825h-2.42V8.9h2.013V7.817h-1.573V7.025h1.573v-1.2h.957v1.2h1.012v.7q.22-.352.4-.7t.325-.682l.869.374A11.8,11.8,0,0,1,200.287,8.9h.979v.671a8.739,8.739,0,0,0,.6-1.232,11.764,11.764,0,0,0,.44-1.314,7.516,7.516,0,0,0,.231-1.227l.935.154a10.47,10.47,0,0,1-.215,1.084q-.137.544-.324,1.062h3.1v.869h-.781A9.1,9.1,0,0,1,204.137,13a7.723,7.723,0,0,0,.99,1.061,8.621,8.621,0,0,0,1.188.885,3.193,3.193,0,0,0-.242.248l-.27.3a.964.964,0,0,0-.16.22,7.991,7.991,0,0,1-2.068-1.925,6.33,6.33,0,0,1-1.26,1.133,8.7,8.7,0,0,1-1.633.869,2.653,2.653,0,0,0-.22-.407,2.809,2.809,0,0,0-.3-.407,6.062,6.062,0,0,0,1.656-.814,5.535,5.535,0,0,0,1.215-1.177,7.948,7.948,0,0,1-1-2.948q-.154.264-.319.512t-.341.467a1.91,1.91,0,0,0-.352-.28,2.909,2.909,0,0,0-.418-.237,6.153,6.153,0,0,0,.583-.8h-1.562q-.176.209-.374.418t-.407.407h1.694l.33.363q-.187.209-.468.49t-.572.556q-.292.275-.523.473v.132l1.227-.165q.567-.077.885-.143v.792q-.352.088-.913.181t-1.2.182v1.441a.928.928,0,0,1-.275.742,1.276,1.276,0,0,1-.847.236Zm6.171-3.7a6.781,6.781,0,0,0,.523-1.485,9.6,9.6,0,0,0,.225-1.661h-1.54A6.5,6.5,0,0,0,203.576,12.107ZM199.022,8.9h.165q.22-.264.418-.534t.374-.544h-.957Zm17.116,7.018q-.462-.143-1.051-.385T213.949,15a7.105,7.105,0,0,1-.924-.561l.484-.528h-2.838l.484.517a8.093,8.093,0,0,1-.924.55q-.55.286-1.138.528t-1.084.4a2.308,2.308,0,0,0-.148-.242q-.1-.154-.22-.308a1.545,1.545,0,0,0-.2-.231,7.8,7.8,0,0,0,.924-.286q.539-.2,1.073-.446a7.817,7.817,0,0,0,.9-.478H208.6V9.038h6.985v4.873h-1.76a7.453,7.453,0,0,0,.913.467q.539.236,1.078.429a9.29,9.29,0,0,0,.9.281,1.039,1.039,0,0,0-.2.231q-.116.165-.22.335ZM208.9,8.477V6.068h6.347V8.477Zm1.034-.77h4.279v-.88h-4.279Zm-.275,5.478h4.873v-.7h-4.873Zm0-1.386h4.873v-.693h-4.873Zm0-1.386h4.873V9.764h-4.873Zm15.011,4.542a15.061,15.061,0,0,1-1.575.2,8.71,8.71,0,0,1-1.431-.009,4.2,4.2,0,0,1-1.17-.266,1.821,1.821,0,0,1-.788-.571,1.492,1.492,0,0,1-.283-.936,1.666,1.666,0,0,1,.563-1.251,4.9,4.9,0,0,1,1.49-.918,4.984,4.984,0,0,1-.351-1.408,13.136,13.136,0,0,1-.072-2.012h.9a9.039,9.039,0,0,0-.04,1.121,8.646,8.646,0,0,0,.094,1.116,4.729,4.729,0,0,0,.216.9q.45-.153.941-.292t1-.265l.189.864a10.788,10.788,0,0,0-1.548.319,7.61,7.61,0,0,0-1.305.495,3.36,3.36,0,0,0-.9.616.972.972,0,0,0-.329.675.771.771,0,0,0,.365.67,2.289,2.289,0,0,0,1,.328,6.806,6.806,0,0,0,1.449.009,11.825,11.825,0,0,0,1.715-.288,2.116,2.116,0,0,0-.1.446A3.662,3.662,0,0,0,224.67,14.955Zm5.729.892a4.413,4.413,0,0,0-.088-.5,2.339,2.339,0,0,0-.143-.457h1.155a.518.518,0,0,0,.33-.083.363.363,0,0,0,.1-.292v-1.5h-4.411v-.88h4.411v-.77h.462q.264-.176.622-.424a6.985,6.985,0,0,0,.622-.478h-4.191V9.621h5.61l.44.429q-.209.209-.544.484t-.721.556q-.385.28-.726.511t-.572.363v.176h4.224v.88h-4.224v1.793q0,1.034-1.2,1.034Zm-2.926-5.467V7.938h1.837a4.448,4.448,0,0,0-.247-.544q-.16-.3-.336-.588a3.478,3.478,0,0,0-.33-.462l.858-.407a5.866,5.866,0,0,1,.363.495q.2.3.374.605a3.962,3.962,0,0,1,.264.539l-.8.363h4.015q.2-.264.44-.665t.457-.809a6.867,6.867,0,0,0,.313-.66l1.012.275a9.921,9.921,0,0,1-.479.918q-.3.523-.589.941h2.222V10.38h-.968V8.763H228.43V10.38ZM231.8,7.905a4.2,4.2,0,0,0-.214-.577q-.148-.336-.33-.666a3.959,3.959,0,0,0-.346-.539l.913-.341a4.4,4.4,0,0,1,.336.517q.181.319.341.649a4.464,4.464,0,0,1,.237.572Zm6.589,7.359v-.913h4.455V12.03h-2.948v-.924h2.948V9.093h-2.508a11.574,11.574,0,0,1-.643,1.007,8.092,8.092,0,0,1-.655.808,2.69,2.69,0,0,0-.253-.182q-.176-.115-.357-.226a1.373,1.373,0,0,0-.292-.143,5.5,5.5,0,0,0,.7-.825q.368-.517.721-1.133a11.63,11.63,0,0,0,.6-1.21,5.914,5.914,0,0,0,.352-1.056l.979.319q-.11.407-.275.841t-.385.886h2.013V5.87H243.9V8.18h3.685v.913H243.9v2.013h2.926v.924H243.9v2.321h4.136v.913Zm11.748-.12a1.337,1.337,0,0,0-.189-.144q-.135-.09-.275-.175a.8.8,0,0,0-.221-.1,6.349,6.349,0,0,0,.729-1,12.764,12.764,0,0,0,.684-1.314q.324-.716.576-1.462-.486.063-.94.13a7.4,7.4,0,0,0-.734.14q-.009-.081-.04-.239t-.072-.315a1.73,1.73,0,0,0-.067-.22l.549-.049q.333-.031.729-.077t.792-.081a10.992,10.992,0,0,0,.288-1.143,9.028,9.028,0,0,0,.144-1.044l.81.144a7.261,7.261,0,0,1-.144.941q-.108.5-.261,1.03.423-.027.693-.027a1.57,1.57,0,0,1,.617.112.852.852,0,0,1,.419.392,1.749,1.749,0,0,1,.171.769,5.61,5.61,0,0,1-.135,1.255,7.222,7.222,0,0,1-.373,1.368,1.667,1.667,0,0,1-.531.743,1.346,1.346,0,0,1-.805.229,2.155,2.155,0,0,1-.486-.054,1.469,1.469,0,0,1-.45-.189q.009-.162.009-.4a2.357,2.357,0,0,0-.027-.4,1.641,1.641,0,0,0,.873.261.639.639,0,0,0,.419-.144,1.216,1.216,0,0,0,.315-.517,7.74,7.74,0,0,0,.283-1.057,5.283,5.283,0,0,0,.126-.891,1.2,1.2,0,0,0-.068-.5.4.4,0,0,0-.212-.225.845.845,0,0,0-.315-.054q-.144,0-.333.009t-.4.027q-.279.837-.639,1.651t-.743,1.5A7.341,7.341,0,0,1,250.133,15.144Zm6.714-2.385a5,5,0,0,0-.4-.562q-.256-.32-.554-.643t-.58-.59a4.044,4.044,0,0,0-.5-.41l.6-.522a4.971,4.971,0,0,1,.526.432q.292.27.594.581t.558.612a5.022,5.022,0,0,1,.4.527Zm4.788,2.592a1.772,1.772,0,0,0-.081-.257q-.063-.166-.139-.328a.872.872,0,0,0-.158-.243,4.567,4.567,0,0,0,2.2-.378A1.253,1.253,0,0,0,264.209,13a.8.8,0,0,0-.374-.72,1.674,1.674,0,0,0-.931-.243,3.255,3.255,0,0,0-.882.135,3.212,3.212,0,0,0-.9.418,2.456,2.456,0,0,0-.716.734l-.738-.333a3.785,3.785,0,0,0,.3-.783,9.333,9.333,0,0,0,.216-.985q.086-.518.121-.977a5.642,5.642,0,0,0,.018-.756l.864.1a7.293,7.293,0,0,1-.086,1.13,8.62,8.62,0,0,1-.293,1.318,4.241,4.241,0,0,1,1.071-.558,3.209,3.209,0,0,1,1.053-.2,2.8,2.8,0,0,1,1.156.22,1.769,1.769,0,0,1,.756.608,1.567,1.567,0,0,1,.266.909,1.941,1.941,0,0,1-.85,1.629A4.754,4.754,0,0,1,261.635,15.351Zm1.5-5.76a4.522,4.522,0,0,0-.509-.337q-.3-.175-.639-.333t-.657-.27a3.964,3.964,0,0,0-.553-.157l.414-.729q.216.063.531.189t.661.279q.347.153.653.311a5.875,5.875,0,0,1,.513.292Zm9.33,4.441V8.477h1.639l.1-.671h-4.532v-1.1h4.7l.132-.935,1.386.077-.121.858h3.718v1.1H275.6l-.1.671h2.662v5.555ZM270.323,15.7V8.752h1.309V14.56h7.7V15.7Zm3.509-2.673h2.981v-.572h-2.981Zm0-1.507h2.981v-.561h-2.981Zm0-1.485h2.981V9.478h-2.981Zm16.016,5.83q-.451-.3-.979-.583t-1.078-.539a5.263,5.263,0,0,1-1.584.737,10.409,10.409,0,0,1-2.123.352q-.044-.2-.143-.539a2.04,2.04,0,0,0-.22-.528,8.263,8.263,0,0,0,1.507-.17,5.419,5.419,0,0,0,1.254-.424q-.5-.187-.968-.347t-.913-.269q.143-.187.324-.467l.38-.589h-1.353v-.891q-.165.077-.385.171t-.473.193v2.739a1.026,1.026,0,0,1-.308.831,1.491,1.491,0,0,1-.968.258h-.8a3.938,3.938,0,0,0-.055-.412q-.044-.247-.1-.484a2.024,2.024,0,0,0-.121-.379h.726a.561.561,0,0,0,.314-.066.321.321,0,0,0,.094-.275V12.459q-.363.143-.649.242t-.429.143l-.319-1.353q.242-.055.611-.165t.786-.242V9.126h-1.221V7.938h1.221V5.826h1.221V7.938h1.078V9.126h-1.078v1.551q.374-.143.671-.253a4.8,4.8,0,0,0,.451-.187v1.155h1.716a5.006,5.006,0,0,0,.264-.49q.11-.236.187-.413h-2.09V9.412h1.342q-.11-.3-.259-.632t-.258-.533l.957-.341h-1.562V6.871h2.1V5.782h1.331V6.871h2.31V7.905h-1.749l.979.3q-.088.22-.242.556t-.308.655H290.5V10.49h-3.641l.792.253q-.066.143-.148.308t-.181.341h3.344V12.5h-1.188a6.883,6.883,0,0,1-.357.737,4.573,4.573,0,0,1-.423.627q.517.22,1,.473t.924.506a3.678,3.678,0,0,0-.418.49A5.011,5.011,0,0,0,289.848,15.869Zm-2.97-6.457h.792q.143-.33.314-.77t.27-.737h-1.969q.077.165.193.451t.225.577Q286.812,9.225,286.878,9.412Zm.671,3.982a3.1,3.1,0,0,0,.572-.891H286.68q-.077.132-.16.258t-.159.237q.264.077.566.176T287.549,13.394Zm12.626,2.245a3.789,3.789,0,0,0-.049-.414,2.078,2.078,0,0,0-.1-.405h.585a.367.367,0,0,0,.247-.063.316.316,0,0,0,.068-.234V10.446h-2.565v-2.7h3.357v7.065a.8.8,0,0,1-.225.621,1.027,1.027,0,0,1-.711.207Zm-1.44-.162V14.469q-.324.063-.779.13t-.932.135q-.477.068-.873.117t-.612.068l-.144-.666q.153-.018.427-.041t.608-.058V11.517h-.909v-.585h4.788v.585h-.846v3.96Zm-4.518.171v-7.9h3.339v2.7H295v5.2Zm4.9-5.814h1.8V9.366h-1.8Zm-4.122,0h1.791V9.366H295Zm4.122-1.026h1.8v-.45h-1.8Zm-4.122,0h1.791v-.45H295Zm2.16,5.265q.45-.045.873-.1l.7-.09v-.4H297.16Zm0-1.107h1.575V12.5H297.16Zm0-.99h1.575v-.459H297.16Zm9.576,3.492q-.117-.171-.266-.351a1.452,1.452,0,0,0-.329-.3,3.33,3.33,0,0,0,1.472-1.251,4.064,4.064,0,0,0,.49-2.151v-.855q-.63.045-1.193.081t-.841.045l-.108-.837q.333.018.918,0t1.224-.063V7.9h.81V9.717q.477-.045.873-.1a6.331,6.331,0,0,0,.639-.121v.837q-.225.036-.63.081t-.882.09v.918a5.185,5.185,0,0,1-.522,2.462A3.913,3.913,0,0,1,306.736,15.468Zm-2.664-1.278q-.063-.369-.108-.954t-.072-1.274q-.027-.688-.027-1.377t.022-1.273a8.945,8.945,0,0,1,.077-.945l.837.117a8,8,0,0,0-.1.9q-.036.553-.041,1.21t.023,1.305q.027.648.076,1.192a5.949,5.949,0,0,0,.131.869Zm10.719,1.188a1.563,1.563,0,0,1-1.071-.387,1.134,1.134,0,0,1-.36-.864,1.019,1.019,0,0,1,.221-.608,1.429,1.429,0,0,1,.6-.436,2.2,2.2,0,0,1,.922-.144q.18.009.355.023t.346.04l-.036-1.287q-.189.009-.378.014t-.378,0a2.774,2.774,0,0,1-.729-.076.951.951,0,0,1-.441-.257,2.143,2.143,0,0,1-.333-.495l.657-.324a.676.676,0,0,0,.306.315,1.558,1.558,0,0,0,.558.072q.171,0,.351,0t.369-.013q-.009-.3-.014-.6t-.013-.6q-.657.036-1.242.054t-.918.009l-.036-.792q.306.027.9.023t1.283-.04q-.009-.315-.009-.625v-.59h.8v.563q0,.292.009.608.6-.045,1.107-.1a6.43,6.43,0,0,0,.756-.122l.009.765a7.339,7.339,0,0,1-.756.1q-.5.049-1.107.095.018.6.027,1.188.531-.045.995-.122a5.729,5.729,0,0,0,.751-.167v.819q-.333.072-.779.135t-.949.108q.009.432.022.814t.022.7a7.008,7.008,0,0,1,1.229.454,8.52,8.52,0,0,1,1.094.626,1.282,1.282,0,0,0-.194.2,3.175,3.175,0,0,0-.207.288,1.944,1.944,0,0,0-.13.229,5.941,5.941,0,0,0-1.773-1.008v.108a1.19,1.19,0,0,1-.432.958A2.015,2.015,0,0,1,314.791,15.378Zm.027-.747a1.263,1.263,0,0,0,.783-.157.528.528,0,0,0,.234-.437v-.13q0-.076-.009-.175a3.965,3.965,0,0,0-.414-.068,3.747,3.747,0,0,0-.4-.023,1.2,1.2,0,0,0-.652.144.416.416,0,0,0-.22.351.422.422,0,0,0,.171.338A.875.875,0,0,0,314.818,14.631Zm8.8.891q-.081-.135-.216-.329a1.606,1.606,0,0,0-.315-.337,4.131,4.131,0,0,0,1.53-.738,2.017,2.017,0,0,0,.684-1.071,1.18,1.18,0,0,1-.747.27,1.351,1.351,0,0,1-.986-.365,1.317,1.317,0,0,1-.391-.94,1.385,1.385,0,0,1,.171-.724,1.312,1.312,0,0,1,.5-.5,1.465,1.465,0,0,1,.738-.185q.1,0,.193.009a.956.956,0,0,1,.185.036q-.027-.207-.049-.437t-.022-.472q-.738.027-1.436.076t-1.283.117q-.585.068-.981.148l-.135-.8q.36-.036.958-.072t1.346-.076q.747-.041,1.53-.077V7.692h.8V9.024q.684-.036,1.319-.054l1.156-.031q.522-.013.855,0l-.045.819q-.549-.054-1.427-.068t-1.858.023q0,.351.022.724t.049.715a1.991,1.991,0,0,1,.387,1.278,2.86,2.86,0,0,1-.671,1.9A4.021,4.021,0,0,1,323.62,15.522Zm.945-2.916a.621.621,0,0,0,.436-.175.579.579,0,0,0,.167-.427q0-.1-.009-.207t-.027-.225a.683.683,0,0,0-.531-.243.668.668,0,0,0-.473.18.583.583,0,0,0-.185.468.64.64,0,0,0,.171.459A.565.565,0,0,0,324.565,12.606Zm7.157.648-.108-4.572h.864l-.117,4.572Zm.324,1.863a.59.59,0,0,1-.427-.171.567.567,0,0,1-.176-.423.578.578,0,0,1,.176-.432.62.62,0,0,1,.855,0,.578.578,0,0,1,.175.432.567.567,0,0,1-.175.423A.59.59,0,0,1,332.046,15.117Zm2.295-1.863-.108-4.572h.864l-.117,4.572Zm.324,1.863a.59.59,0,0,1-.427-.171.567.567,0,0,1-.176-.423.578.578,0,0,1,.176-.432.62.62,0,0,1,.855,0,.578.578,0,0,1,.175.432.567.567,0,0,1-.175.423A.59.59,0,0,1,334.665,15.117Zm2.295-1.863-.108-4.572h.864l-.117,4.572Zm.324,1.863a.59.59,0,0,1-.427-.171.567.567,0,0,1-.176-.423.578.578,0,0,1,.176-.432.62.62,0,0,1,.855,0,.578.578,0,0,1,.175.432.567.567,0,0,1-.175.423A.59.59,0,0,1,337.284,15.117Zm7.293.117v-.767l5.759-2.587-5.759-2.574V8.539l6.6,2.964v.767Zm8.359,0v-.767L358.7,11.88l-5.759-2.574V8.539l6.6,2.964v.767Z" transform="translate(0 683)"/><circle class="b" cx="2" cy="2" r="2" transform="translate(274.5 682)"/><circle class="b" cx="2" cy="2" r="2" transform="translate(285.5 682)"/></g><path class="a" d="M1.572,0H14.533V-3.555H5.523c.7-.738,1.2-.779,3.213-2.816,2.229-2.229,3.336-3.391,3.979-4.184A9.971,9.971,0,0,0,14.1-12.893a5.773,5.773,0,0,0,.41-2.2,5.061,5.061,0,0,0-1.846-4.184,7.96,7.96,0,0,0-5.045-1.5,14.266,14.266,0,0,0-2.734.273,20.129,20.129,0,0,0-2.871.82v3.76a15.06,15.06,0,0,1,2.816-1.258,7.786,7.786,0,0,1,2.42-.424,3.441,3.441,0,0,1,2.352.738,2.73,2.73,0,0,1,.82,2.078,4.17,4.17,0,0,1-.451,1.846A9.493,9.493,0,0,1,8.49-10.883c-.834.943-1.682,1.846-4.73,5.113L1.914-3.8a1.177,1.177,0,0,0-.342.848ZM24.789.4a5.584,5.584,0,0,0,5.059-2.639c1.121-1.764,1.682-4.4,1.682-7.943s-.561-6.193-1.682-7.957a5.607,5.607,0,0,0-5.072-2.639,5.584,5.584,0,0,0-5.059,2.639q-1.682,2.646-1.682,7.957,0,5.291,1.682,7.93A5.617,5.617,0,0,0,24.789.4Zm-.014-3.418c-.93,0-1.613-.574-2.037-1.709a16.992,16.992,0,0,1-.643-5.455,17.031,17.031,0,0,1,.643-5.469c.424-1.135,1.107-1.709,2.037-1.709s1.627.574,2.051,1.709a17.031,17.031,0,0,1,.643,5.469,16.992,16.992,0,0,1-.643,5.455C26.4-3.6,25.719-3.021,24.775-3.021Zm.014-3.268c.26,0,.465-.533.588-1.627a20.989,20.989,0,0,0,.123-2.242c0-.492-.082-1.559-.15-2.324-.109-.943-.314-1.627-.588-1.627s-.437.533-.561,1.6a20.9,20.9,0,0,0-.137,2.27c0,.506.1,1.641.164,2.338C24.338-7.082,24.488-6.289,24.789-6.289ZM34.279,0H47.24V-3.555H38.23c.7-.738,1.2-.779,3.213-2.816,2.229-2.229,3.336-3.391,3.979-4.184A9.971,9.971,0,0,0,46.8-12.893a5.773,5.773,0,0,0,.41-2.2,5.061,5.061,0,0,0-1.846-4.184,7.96,7.96,0,0,0-5.045-1.5,14.266,14.266,0,0,0-2.734.273,20.129,20.129,0,0,0-2.871.82v3.76a15.06,15.06,0,0,1,2.816-1.258,7.786,7.786,0,0,1,2.42-.424,3.441,3.441,0,0,1,2.352.738,2.73,2.73,0,0,1,.82,2.078,4.17,4.17,0,0,1-.451,1.846A9.493,9.493,0,0,1,41.2-10.883c-.834.943-1.682,1.846-4.73,5.113L34.621-3.8a1.177,1.177,0,0,0-.342.848ZM56.648.4a8.571,8.571,0,0,0,5.564-1.559A5.544,5.544,0,0,0,64.1-5.66,5.3,5.3,0,0,0,62.951-9.27a5.433,5.433,0,0,0-3.336-1.736,5.07,5.07,0,0,0,2.967-1.518,4.157,4.157,0,0,0,1.039-2.967,4.67,4.67,0,0,0-1.8-3.883,7.941,7.941,0,0,0-5.045-1.408,16.271,16.271,0,0,0-2.611.219,23.116,23.116,0,0,0-2.775.656v3.664a18.359,18.359,0,0,1,2.721-.834,10.851,10.851,0,0,1,2.434-.287,3.676,3.676,0,0,1,2.365.629,2.106,2.106,0,0,1,.82,1.764,1.922,1.922,0,0,1-.82,1.682,3.994,3.994,0,0,1-2.338.6h-2.16v3.555h2.16a3.98,3.98,0,0,1,2.707.848,3.072,3.072,0,0,1,.957,2.338A2.62,2.62,0,0,1,59.287-3.8a4.466,4.466,0,0,1-2.83.752,13.84,13.84,0,0,1-2.912-.342,11.262,11.262,0,0,1-2.775-.971V-.615A18.2,18.2,0,0,0,53.64.137,17.419,17.419,0,0,0,56.648.4ZM73.781.574a2.352,2.352,0,0,0,1.736-.711,2.432,2.432,0,0,0,.7-1.791,2.484,2.484,0,0,0-.7-1.832,2.352,2.352,0,0,0-1.723-.7,2.331,2.331,0,0,0-1.709.7,2.462,2.462,0,0,0-.711,1.832,2.411,2.411,0,0,0,.711,1.791A2.276,2.276,0,0,0,73.781.574ZM92.914.524a9.271,9.271,0,0,0,6.5-2.114,7.729,7.729,0,0,0,2.294-5.89,7.07,7.07,0,0,0-1.265-4.354,6.614,6.614,0,0,0-3.5-2.457A6.142,6.142,0,0,0,100-16.531a6.226,6.226,0,0,0,1.048-3.7,6.688,6.688,0,0,0-2.186-5.275A8.65,8.65,0,0,0,92.9-27.461a8.6,8.6,0,0,0-5.944,1.951,6.7,6.7,0,0,0-2.186,5.257,6.271,6.271,0,0,0,1.066,3.74,6.082,6.082,0,0,0,3.107,2.222,6.55,6.55,0,0,0-3.559,2.439A7.1,7.1,0,0,0,84.1-7.479a7.729,7.729,0,0,0,2.294,5.89C87.837-.235,89.951.524,92.914.524ZM92.9-16.314a3.241,3.241,0,0,1-2.475-.939,3.426,3.426,0,0,1-.921-2.493,3.369,3.369,0,0,1,.921-2.493,3.354,3.354,0,0,1,2.475-.921,3.45,3.45,0,0,1,2.511.9,3.419,3.419,0,0,1,.9,2.511,3.491,3.491,0,0,1-.9,2.493A3.324,3.324,0,0,1,92.9-16.314Zm0,12.538A3.987,3.987,0,0,1,90.005-4.9a4.24,4.24,0,0,1-1.1-3.035,4.023,4.023,0,0,1,1.1-2.981,3.825,3.825,0,0,1,2.891-1.12,3.832,3.832,0,0,1,2.909,1.12,4.094,4.094,0,0,1,1.1,2.963,4.186,4.186,0,0,1-1.1,3.035A3.879,3.879,0,0,1,92.9-3.776ZM111.744.574a2.352,2.352,0,0,0,1.736-.711,2.432,2.432,0,0,0,.7-1.791,2.484,2.484,0,0,0-.7-1.832,2.352,2.352,0,0,0-1.723-.7,2.331,2.331,0,0,0-1.709.7,2.462,2.462,0,0,0-.711,1.832,2.411,2.411,0,0,0,.711,1.791A2.276,2.276,0,0,0,111.744.574ZM121.808,0h17.127V-4.7H127.029c.921-.976,1.59-1.03,4.246-3.722,2.945-2.945,4.408-4.48,5.257-5.528a13.176,13.176,0,0,0,1.825-3.089,7.628,7.628,0,0,0,.542-2.909,6.688,6.688,0,0,0-2.439-5.528,10.519,10.519,0,0,0-6.667-1.987,18.852,18.852,0,0,0-3.613.361,26.6,26.6,0,0,0-3.794,1.084v4.968a19.9,19.9,0,0,1,3.722-1.662,10.288,10.288,0,0,1,3.2-.56,4.547,4.547,0,0,1,3.107.976,3.607,3.607,0,0,1,1.084,2.746,5.511,5.511,0,0,1-.6,2.439,12.544,12.544,0,0,1-1.951,2.728c-1.1,1.247-2.222,2.439-6.251,6.757l-2.439,2.6a1.555,1.555,0,0,0-.452,1.12Zm28.6.7c3.415,0,6.251-1.1,8.13-3.5,1.734-2.222,2.71-5.546,2.71-10.858,0-4.282-.614-7.859-2.258-10.262-1.445-2.114-3.649-3.306-6.992-3.306-2.836,0-4.986.831-6.45,2.475a10.33,10.33,0,0,0-2.2,6.992,9.765,9.765,0,0,0,1.969,6.522,7.119,7.119,0,0,0,5.655,2.313,7.23,7.23,0,0,0,3.107-.6,5.14,5.14,0,0,0,2.168-1.752,9.6,9.6,0,0,1-1.59,5.745A5.269,5.269,0,0,1,150.283-3.6a8.211,8.211,0,0,1-2.529-.4,12.89,12.89,0,0,1-2.746-1.229v4.86a19.419,19.419,0,0,0,2.728.795A11.78,11.78,0,0,0,150.41.7Zm1.572-14.092a3.037,3.037,0,0,1-2.638-1.265,6,6,0,0,1-.939-3.631,6,6,0,0,1,.939-3.631,3.067,3.067,0,0,1,2.638-1.247,3.1,3.1,0,0,1,2.656,1.247,6.247,6.247,0,0,1,.9,3.649,6.2,6.2,0,0,1-.9,3.613A3.07,3.07,0,0,1,151.981-13.387ZM171.3.283a5.368,5.368,0,0,0,3.3-.85,2.986,2.986,0,0,0,1.1-2.529,3.279,3.279,0,0,0-.723-2.236,4.345,4.345,0,0,0-2.295-1.191l-.82-.2-.107-.029c-1.455-.342-2.09-.732-2.09-1.318a.877.877,0,0,1,.5-.781,2.843,2.843,0,0,1,1.4-.273,6.157,6.157,0,0,1,1.758.254,6.884,6.884,0,0,1,1.641.771v-2.5a11.184,11.184,0,0,0-1.787-.459,12.088,12.088,0,0,0-1.846-.146,5.185,5.185,0,0,0-3.223.879,2.952,2.952,0,0,0-1.143,2.48,2.957,2.957,0,0,0,.752,2.1,4.616,4.616,0,0,0,2.393,1.162l.791.176a4.63,4.63,0,0,1,1.729.635.85.85,0,0,1,.381.771.931.931,0,0,1-.518.908A3.116,3.116,0,0,1,171-1.8a6.9,6.9,0,0,1-1.924-.283,8.707,8.707,0,0,1-1.934-.82V-.4a15.276,15.276,0,0,0,2.1.518A13.323,13.323,0,0,0,171.3.283Zm10.49,0a3.978,3.978,0,0,0,1.836-.391,3.617,3.617,0,0,0,1.387-1.113,4.071,4.071,0,0,0,.127.654,3.252,3.252,0,0,0,.273.566h2.832a2.346,2.346,0,0,1-.273-.566,5.211,5.211,0,0,1-.137-.654c-.029-.166-.039-.439-.068-.7-.01-.186-.02-.479-.02-.752,0-.479.049-2.891.049-3.613,0-2.031-.391-3.115-1.094-3.818a4.964,4.964,0,0,0-3.6-1.1,11.86,11.86,0,0,0-2.2.2,10.071,10.071,0,0,0-1.924.576V-8a9.358,9.358,0,0,1,2.012-.83,7.791,7.791,0,0,1,1.934-.254,2.659,2.659,0,0,1,1.533.352,1.229,1.229,0,0,1,.5,1.055V-7.2h-1.982a6.541,6.541,0,0,0-3.838.908,3.256,3.256,0,0,0-1.24,2.832A3.606,3.606,0,0,0,178.94-.7,4.006,4.006,0,0,0,181.792.283Zm.8-1.982a1.631,1.631,0,0,1-1.211-.439,1.557,1.557,0,0,1-.439-1.2,1.527,1.527,0,0,1,.635-1.387,4.36,4.36,0,0,1,2.236-.41h1.143v.2a3.91,3.91,0,0,1-.625,2.383A2.013,2.013,0,0,1,182.592-1.7ZM199.127.039v-2.2h-2.2a1.742,1.742,0,0,1-1.182-.322,1.33,1.33,0,0,1-.361-1.045V-8.74h3.74v-2.2h-3.74V-15.2l-2.861,1.27v2.988h-2.793v2.2h2.793v5.078a3.848,3.848,0,0,0,.869,2.91,5.074,5.074,0,0,0,3.33.791Zm25.247.485c3.234,0,5.691-.687,7.353-2.06a7.326,7.326,0,0,0,2.493-5.944,7,7,0,0,0-1.518-4.77,7.179,7.179,0,0,0-4.408-2.294,6.7,6.7,0,0,0,3.92-2.005,5.493,5.493,0,0,0,1.373-3.92A6.172,6.172,0,0,0,231.2-25.6a10.494,10.494,0,0,0-6.667-1.861,21.5,21.5,0,0,0-3.451.289,30.546,30.546,0,0,0-3.667.867v4.842a24.26,24.26,0,0,1,3.6-1.1,14.339,14.339,0,0,1,3.216-.379,4.857,4.857,0,0,1,3.125.831,2.783,2.783,0,0,1,1.084,2.331,2.539,2.539,0,0,1-1.084,2.222,5.278,5.278,0,0,1-3.089.795h-2.854v4.7h2.854a5.26,5.26,0,0,1,3.577,1.12,4.059,4.059,0,0,1,1.265,3.089,3.462,3.462,0,0,1-1.247,2.836,5.9,5.9,0,0,1-3.74.994,18.288,18.288,0,0,1-3.848-.452A14.882,14.882,0,0,1,216.6-5.763v4.95A24.047,24.047,0,0,0,220.4.181,23.018,23.018,0,0,0,224.373.524Zm22.73,0a7.379,7.379,0,0,0,6.685-3.487c1.481-2.331,2.222-5.817,2.222-10.5s-.741-8.184-2.222-10.515a7.409,7.409,0,0,0-6.7-3.487,7.379,7.379,0,0,0-6.685,3.487q-2.222,3.5-2.222,10.515,0,6.992,2.222,10.479A7.423,7.423,0,0,0,247.1.524Zm-.018-4.517c-1.229,0-2.132-.759-2.692-2.258a22.454,22.454,0,0,1-.849-7.208,22.506,22.506,0,0,1,.849-7.227c.56-1.5,1.463-2.258,2.692-2.258,1.247,0,2.15.759,2.71,2.258a22.506,22.506,0,0,1,.849,7.227,22.454,22.454,0,0,1-.849,7.208C249.235-4.751,248.332-3.993,247.085-3.993Zm.018-4.318c.343,0,.614-.7.777-2.15a27.736,27.736,0,0,0,.163-2.963c0-.65-.108-2.06-.2-3.071-.145-1.247-.416-2.15-.777-2.15-.343,0-.578.7-.741,2.114a27.619,27.619,0,0,0-.181,3c0,.668.126,2.168.217,3.089C246.507-9.358,246.706-8.311,247.1-8.311ZM265.918.283a5.368,5.368,0,0,0,3.3-.85,2.986,2.986,0,0,0,1.1-2.529,3.279,3.279,0,0,0-.723-2.236A4.345,4.345,0,0,0,267.3-6.523l-.82-.2-.107-.029c-1.455-.342-2.09-.732-2.09-1.318a.877.877,0,0,1,.5-.781,2.843,2.843,0,0,1,1.4-.273,6.157,6.157,0,0,1,1.758.254,6.884,6.884,0,0,1,1.641.771v-2.5a11.184,11.184,0,0,0-1.787-.459,12.088,12.088,0,0,0-1.846-.146,5.185,5.185,0,0,0-3.223.879,2.952,2.952,0,0,0-1.143,2.48,2.957,2.957,0,0,0,.752,2.1,4.616,4.616,0,0,0,2.393,1.162l.791.176a4.63,4.63,0,0,1,1.729.635.85.85,0,0,1,.381.771.931.931,0,0,1-.518.908,3.116,3.116,0,0,1-1.494.293,6.9,6.9,0,0,1-1.924-.283,8.707,8.707,0,0,1-1.934-.82V-.4a15.276,15.276,0,0,0,2.1.518A13.323,13.323,0,0,0,265.918.283Zm10.363,0a3.093,3.093,0,0,0,1.777-.5,2.713,2.713,0,0,0,1.025-1.406L279.367,0h2.578V-10.937h-2.861v6.279a3.656,3.656,0,0,1-.43,1.914,1.353,1.353,0,0,1-1.23.684,1.22,1.22,0,0,1-1.084-.508,3.183,3.183,0,0,1-.332-1.689v-6.68h-2.861v7.119a4.933,4.933,0,0,0,.8,3.066A2.744,2.744,0,0,0,276.281.283ZM284.944,0h2.842V-6.26a3.424,3.424,0,0,1,.449-1.924,1.381,1.381,0,0,1,1.24-.693,1.214,1.214,0,0,1,1.074.508,3.24,3.24,0,0,1,.332,1.709V0h2.842V-7.1a5.032,5.032,0,0,0-.791-3.076A2.77,2.77,0,0,0,290.6-11.2a3.093,3.093,0,0,0-1.777.5A2.729,2.729,0,0,0,287.786-9.3l-.283-1.641h-2.559Z" transform="translate(39.852 552.479)"/></g></svg>