<svg xmlns="http://www.w3.org/2000/svg" width="376.063" height="344.631" viewBox="0 0 376.063 344.631"><defs><style>.a{fill:#010440;}.b{fill:#221b5d;stroke:rgba(0,0,0,0);stroke-miterlimit:10;}.c{fill:#d3d1ff;}</style></defs><g transform="translate(0.501 -372.5)"><rect class="a" width="375" height="343" transform="translate(0 373)"/><path class="b" d="M1327.347-16851.562l2.378-2.379-1.8-1.795-4.173,4.174h-5.7l7.839-7.844a2.952,2.952,0,0,1,1.02-.674,3,3,0,0,1,1.117-.225,2.866,2.866,0,0,1,1.1.225,2.783,2.783,0,0,1,.95.625l3.311,3.311a2.962,2.962,0,0,1,.679,1.018,3,3,0,0,1,.219,1.119,2.881,2.881,0,0,1-.219,1.1,2.837,2.837,0,0,1-.626.951l-.39.391Zm-16.784,0c0-.023,0-.045,0-.066a2.872,2.872,0,0,1,.223-1.1,2.791,2.791,0,0,1,.626-.951l10.895-10.9,2.851,2.855-10.028,10.027.136.137Zm-61.1,0-5.524-5.527,2.938-2.934,8.46,8.461Zm-67.135,0,6.406-6.408-1.984-1.986-8.25,8.25.144.145h-4.706c0-.027,0-.053,0-.08a2.971,2.971,0,0,1,.219-1.1,2.884,2.884,0,0,1,.631-.945l9.927-9.932a3.024,3.024,0,0,1,1.016-.68,3.028,3.028,0,0,1,1.121-.219,2.875,2.875,0,0,1,1.1.219,2.938,2.938,0,0,1,.95.627l3.5,3.5a2.965,2.965,0,0,1,.674,1.021,2.984,2.984,0,0,1,.223,1.117,2.864,2.864,0,0,1-.223,1.1,2.783,2.783,0,0,1-.626.949l-1.152,1.156,7.466.916-2.352,2.352Zm-55.656,0,4.287-4.287-.753-.75-3.84,3.846a1.176,1.176,0,0,1-.425.279,1.122,1.122,0,0,1-.469.1,1.1,1.1,0,0,1-.455-.094,1.184,1.184,0,0,1-.4-.262l-1.261-1.266a1.128,1.128,0,0,1-.28-.426,1.184,1.184,0,0,1-.1-.463,1.134,1.134,0,0,1,.1-.461,1.12,1.12,0,0,1,.258-.4l4.541-4.535,1.187,1.186-4.182,4.178.639.639,3.845-3.844a1.274,1.274,0,0,1,.425-.289,1.207,1.207,0,0,1,.469-.088,1.3,1.3,0,0,1,.46.088,1.178,1.178,0,0,1,.394.268l1.379,1.379a1.307,1.307,0,0,1,.285.424,1.149,1.149,0,0,1,.088.461,1.09,1.09,0,0,1-.092.465,1.08,1.08,0,0,1-.258.393l-3.453,3.461Zm-3.871,0,.3-.3.3.3Zm-3.652,0,2.684-2.686,1.187,1.191-1.493,1.494Zm-8.848,0-1.806-1.8a1.413,1.413,0,0,1-.271-.377,1.186,1.186,0,0,1-.145-.451,1.141,1.141,0,0,1,.066-.486,1.323,1.323,0,0,1,.333-.49,1.4,1.4,0,0,1,.49-.328,1.511,1.511,0,0,1,.556-.109l6.1.092-3.332-3.328,1.226-1.227,4.107,4.107a1.61,1.61,0,0,1,.271.381,1.181,1.181,0,0,1,.136.451,1.116,1.116,0,0,1-.066.486,1.2,1.2,0,0,1-.32.486,1.364,1.364,0,0,1-.508.342,1.4,1.4,0,0,1-.543.1l-6.1-.1,2.252,2.256Zm-5.29,0,2.148-2.15,1.187,1.186-.963.965Zm-51.492,0,6.339-6.338,2.851,2.852-3.486,3.486Zm-13.765,0-.026-.027a3.017,3.017,0,0,1-.679-1.016,3.108,3.108,0,0,1-.219-1.121,2.963,2.963,0,0,1,.219-1.1,2.866,2.866,0,0,1,.63-.951l11.149-11.148,2.851,2.852L1043.4-16853.8l2.232,2.234Zm59.86-1.227,4.729-4.73-.749-.748-3.845,3.844a1.122,1.122,0,0,1-.425.281,1.2,1.2,0,0,1-.469.1,1.17,1.17,0,0,1-.455-.092,1.125,1.125,0,0,1-.4-.262l-1.266-1.266a1.158,1.158,0,0,1-.28-.426,1.17,1.17,0,0,1-.1-.463,1.233,1.233,0,0,1,.092-.465,1.207,1.207,0,0,1,.263-.391l4.541-4.541,1.182,1.188-4.173,4.178.639.635,3.845-3.844a1.246,1.246,0,0,1,.42-.285,1.367,1.367,0,0,1,.464-.088,1.081,1.081,0,0,1,.464.092,1.143,1.143,0,0,1,.4.264l1.375,1.375a1.107,1.107,0,0,1,.28.424,1.192,1.192,0,0,1,.092.469,1.078,1.078,0,0,1-.088.455,1.163,1.163,0,0,1-.263.395l-5.093,5.092Zm-110.547-4.553,3.332-3.33,2.851,2.852-6.183,6.182Zm201.143-7.74a6.562,6.562,0,0,1-.709-.85,2.64,2.64,0,0,1-.433-.977,2.111,2.111,0,0,1,.066-1.086,2.986,2.986,0,0,1,.775-1.16l.184-.187a3.391,3.391,0,0,1,1.23-.824,4.506,4.506,0,0,1,1.318-.262l8.027-.561.561-8.027a4.452,4.452,0,0,1,.263-1.312,3.32,3.32,0,0,1,.823-1.23l.184-.189a2.948,2.948,0,0,1,1.165-.77,2.1,2.1,0,0,1,1.086-.066,2.588,2.588,0,0,1,.977.43,7.047,7.047,0,0,1,.849.713l9.857,9.857-2.934,2.938-8.4-8.4-.525,7.041,5.141,5.143-2.916,2.92-5.141-5.141-7.046.525,8.4,8.4-2.938,2.938Zm-75.1,5.189a1.2,1.2,0,0,1-.28-.424,1.119,1.119,0,0,1-.092-.469,1.125,1.125,0,0,1,.088-.461,1.149,1.149,0,0,1,.263-.393l4.107-4.107,1.187,1.186-3.748,3.748,1.139,1.135,3.183-3.184,1.191,1.191-3.183,3.184,1.436,1.436-1.222,1.227Zm141.694-5.814a2.909,2.909,0,0,1-.674-1.016,3.016,3.016,0,0,1-.223-1.121,2.749,2.749,0,0,1,.223-1.109,2.919,2.919,0,0,1,.622-.945l9.861-9.861,2.851,2.852-8.994,8.994,2.737,2.732,7.637-7.633,2.851,2.846-7.637,7.637,3.442,3.447-2.938,2.934Zm-259.177,6.7,3.854-3.854-6.174-6.178-3.858,3.854-2.378-2.383v-.937l10.207-10.207,2.851,2.852-3.888,3.883,6.179,6.18,3.884-3.889,2.855,2.85-10.68,10.676Zm54.391-9.107,2.938-2.939,4.379,4.379,8.246-8.244-4.379-4.379,2.938-2.939,11.88,11.881-2.938,2.934-4.65-4.646-8.246,8.246,4.651,4.65-2.938,2.934Zm284.474,11.826a2.951,2.951,0,0,1-1.073-.205,2.7,2.7,0,0,1-.959-.617l-7.685-7.689a2.948,2.948,0,0,1-.679-1.016,3.034,3.034,0,0,1-.223-1.121,2.872,2.872,0,0,1,.223-1.1,2.791,2.791,0,0,1,.626-.951l10.693-10.693,2.851,2.855-9.826,9.822,1.524,1.527,8.486-8.486,2.851,2.852-8.482,8.486,1.8,1.8,9.826-9.826,2.851,2.855-10.571,10.57a3.3,3.3,0,0,1-1.033.7,3.181,3.181,0,0,1-1.147.244Zm-203.674-1.418,4.734-4.734-.749-.748-3.849,3.85a1.2,1.2,0,0,1-.425.279,1.042,1.042,0,0,1-.46.088,1.019,1.019,0,0,1-.46-.088,1.129,1.129,0,0,1-.4-.262l-1.261-1.262a1.186,1.186,0,0,1-.285-.43,1.177,1.177,0,0,1-.092-.463,1.2,1.2,0,0,1,.092-.461,1.175,1.175,0,0,1,.263-.4l4.541-4.537,1.187,1.188-4.182,4.178.639.639,3.845-3.844a1.207,1.207,0,0,1,.425-.285,1.177,1.177,0,0,1,.469-.092,1.227,1.227,0,0,1,.46.092,1.112,1.112,0,0,1,.394.264l1.379,1.379a1.269,1.269,0,0,1,.285.42,1.262,1.262,0,0,1,.088.465,1.053,1.053,0,0,1-.092.459,1.1,1.1,0,0,1-.254.4l-5.1,5.1Zm-25.516-.934a1.209,1.209,0,0,1-.442-.086,1.006,1.006,0,0,1-.4-.26l-3.2-3.2a1.172,1.172,0,0,1-.28-.43,1.166,1.166,0,0,1-.1-.465,1.2,1.2,0,0,1,.092-.459,1.2,1.2,0,0,1,.263-.395l4.646-4.646,1.187,1.188-4.287,4.283,2.575,2.574,4.287-4.287,1.187,1.188-4.6,4.6a1.416,1.416,0,0,1-.429.293,1.347,1.347,0,0,1-.477.1Zm17.288-3.139a1.253,1.253,0,0,1-.447-.088,1.012,1.012,0,0,1-.4-.254l-3.205-3.2a1.173,1.173,0,0,1-.28-.43,1.164,1.164,0,0,1-.092-.463,1.061,1.061,0,0,1,.092-.461,1.126,1.126,0,0,1,.263-.393l4.191-4.2a1.307,1.307,0,0,1,.429-.289,1.336,1.336,0,0,1,.477-.105,1.228,1.228,0,0,1,.469.088,1.069,1.069,0,0,1,.4.258l3.2,3.2a1.179,1.179,0,0,1,.285.424,1.2,1.2,0,0,1,.092.469,1.157,1.157,0,0,1-.092.461,1.114,1.114,0,0,1-.258.393l-4.2,4.2a1.3,1.3,0,0,1-.433.285,1.24,1.24,0,0,1-.477.105Zm-2.527-4.463,2.575,2.57,3.525-3.52-2.575-2.576Zm-132.993-.48,1.957,1.961-1.957,1.957Zm150.132,2.631,1.6-1.6-2.575-2.576-1.6,1.607-1.187-1.187,4.445-4.447,1.187,1.186-1.62,1.625,2.575,2.57,1.62-1.621,1.191,1.191-4.445,4.445Zm-30.679-5.123,1.222-1.223,1.826,1.822,3.433-3.434-1.822-1.826,1.222-1.221,4.948,4.943-1.226,1.227-1.931-1.936-3.442,3.438,1.94,1.936-1.226,1.221Zm18.624-2.715a1.264,1.264,0,0,1-.285-.426,1.261,1.261,0,0,1-.092-.463,1.16,1.16,0,0,1,.092-.465,1.188,1.188,0,0,1,.258-.389l4.138-4.139a1.292,1.292,0,0,1,.425-.285,1.29,1.29,0,0,1,.469-.092,1.262,1.262,0,0,1,.46.092,1.112,1.112,0,0,1,.394.264l1.454,1.453a1.249,1.249,0,0,1,.285.424,1.3,1.3,0,0,1,.092.465,1.269,1.269,0,0,1-.088.469,1.338,1.338,0,0,1-.267.391l-.482.48,3.118.381-1.471,1.473-3.162-.338-1.213,1.213-1.187-1.191,2.846-2.842-.828-.832-3.433,3.438,3.766,3.762-1.226,1.227Zm18.1,3.639a1.24,1.24,0,0,1-.451-.088,1.112,1.112,0,0,1-.394-.254l-3.205-3.205a1.293,1.293,0,0,1-.285-.426,1.169,1.169,0,0,1-.092-.467,1.292,1.292,0,0,1,.092-.457,1.194,1.194,0,0,1,.263-.4l4.195-4.189a1.251,1.251,0,0,1,.429-.289,1.188,1.188,0,0,1,.477-.105,1.228,1.228,0,0,1,.469.088,1.1,1.1,0,0,1,.4.258l3.205,3.205a1.262,1.262,0,0,1,.28.422,1.16,1.16,0,0,1,.088.463,1.063,1.063,0,0,1-.092.461,1.108,1.108,0,0,1-.254.4l-4.2,4.189a1.208,1.208,0,0,1-.429.289,1.356,1.356,0,0,1-.477.105Zm-2.522-4.467,2.57,2.574,3.521-3.52-2.57-2.574Zm133.339,1.6,3.858-3.854-6.179-6.18-3.853,3.857-2.851-2.85,10.676-10.68,2.851,2.85-3.884,3.889,6.174,6.174,3.888-3.883,2.851,2.846-10.676,10.68Zm71.565-.687,11.355-11.355-1.8-1.8-9.231,9.234a3.023,3.023,0,0,1-1.016.68,3.109,3.109,0,0,1-1.121.219,2.966,2.966,0,0,1-1.1-.219,2.937,2.937,0,0,1-.95-.627l-3.039-3.039a3.024,3.024,0,0,1-.679-1.02,3.1,3.1,0,0,1-.219-1.121,2.928,2.928,0,0,1,.219-1.1,2.883,2.883,0,0,1,.63-.955l10.895-10.895,2.851,2.852-10.032,10.031,1.528,1.523,9.231-9.23a3.005,3.005,0,0,1,1.02-.678,3.091,3.091,0,0,1,1.121-.219,2.967,2.967,0,0,1,1.1.219,2.9,2.9,0,0,1,.95.629l3.306,3.307a2.951,2.951,0,0,1,.679,1.021,3,3,0,0,1,.223,1.121,2.848,2.848,0,0,1-.223,1.1,2.807,2.807,0,0,1-.626.955l-12.217,12.217Zm-227.662.537a1.245,1.245,0,0,1-.442-.086,1.059,1.059,0,0,1-.4-.254l-3.2-3.2a1.17,1.17,0,0,1-.28-.43,1.279,1.279,0,0,1-.1-.465,1.157,1.157,0,0,1,.1-.463,1.142,1.142,0,0,1,.258-.391l4.2-4.2a1.291,1.291,0,0,1,.429-.289,1.527,1.527,0,0,1,.477-.105,1.244,1.244,0,0,1,.464.088,1.026,1.026,0,0,1,.4.254l3.2,3.207a1.105,1.105,0,0,1,.28.424,1.119,1.119,0,0,1,.092.469,1.1,1.1,0,0,1-.088.455,1.138,1.138,0,0,1-.263.395l-4.195,4.2a1.417,1.417,0,0,1-.429.293,1.306,1.306,0,0,1-.477.1Zm-2.518-4.461,2.575,2.57,3.525-3.525-2.575-2.57Zm92.843-9.187a4.764,4.764,0,0,1-.609-2.426,3.47,3.47,0,0,1,1.152-2.359l3.547-3.547a3.706,3.706,0,0,1,2.417-1.213,4.472,4.472,0,0,1,2.47.568l12.677,6.84-3.258,3.258-3.648-2.053-5.377,5.377-2.176-3.529,3.906-3.9-4.243-2.408-3.293,3.289,6.516,11.543-3.258,3.258Zm-131.119,12.16a2.969,2.969,0,0,1-1.077-.2,2.769,2.769,0,0,1-.959-.621l-7.685-7.686a3.04,3.04,0,0,1-.683-1.02,3.1,3.1,0,0,1-.219-1.121,2.965,2.965,0,0,1,.219-1.1,2.909,2.909,0,0,1,.631-.951l10.063-10.062a3.176,3.176,0,0,1,1.033-.7,3.141,3.141,0,0,1,1.147-.244,3.017,3.017,0,0,1,1.121.2,2.767,2.767,0,0,1,.959.621l7.685,7.686a2.95,2.95,0,0,1,.679,1.021,3,3,0,0,1,.223,1.119,2.886,2.886,0,0,1-.223,1.1,2.829,2.829,0,0,1-.626.951l-10.063,10.063a3.149,3.149,0,0,1-1.038.7,3.1,3.1,0,0,1-1.143.244Zm-6.056-10.715,6.174,6.174,8.451-8.451-6.174-6.174Zm74.639,5.023a1.584,1.584,0,0,1-.276-.373,1.275,1.275,0,0,1-.136-.451,1.071,1.071,0,0,1,.066-.49,1.3,1.3,0,0,1,.328-.486,1.531,1.531,0,0,1,.49-.332,1.447,1.447,0,0,1,.556-.105l6.1.088-3.328-3.328,1.222-1.227,4.108,4.107a1.631,1.631,0,0,1,.276.381,1.363,1.363,0,0,1,.131.455,1.04,1.04,0,0,1-.066.482,1.243,1.243,0,0,1-.324.49,1.438,1.438,0,0,1-.5.342,1.707,1.707,0,0,1-.539.1l-6.1-.1,3.332,3.336-1.222,1.223Zm-14.065-.076a2.858,2.858,0,0,1-.293-.354,1.114,1.114,0,0,1-.184-.412.876.876,0,0,1,.031-.447,1.188,1.188,0,0,1,.324-.484l.079-.08a1.442,1.442,0,0,1,.512-.346,1.989,1.989,0,0,1,.547-.105l3.341-.236.236-3.34a1.986,1.986,0,0,1,.105-.553,1.458,1.458,0,0,1,.35-.512l.074-.074a1.214,1.214,0,0,1,.482-.324.879.879,0,0,1,.451-.031,1.127,1.127,0,0,1,.412.184,3.732,3.732,0,0,1,.35.3l4.112,4.111-1.226,1.221-3.5-3.5-.219,2.93,2.141,2.146-1.217,1.217-2.141-2.146-2.934.225,3.5,3.5-1.222,1.221Zm-115.455,3.352a2.846,2.846,0,0,1-1.064-.207,2.7,2.7,0,0,1-.959-.617l-7.685-7.689a2.93,2.93,0,0,1-.679-1.016,3.093,3.093,0,0,1-.219-1.121,2.859,2.859,0,0,1,.215-1.1,2.941,2.941,0,0,1,.631-.949l10.067-10.064a3.158,3.158,0,0,1,1.033-.691,3.13,3.13,0,0,1,1.143-.25,2.948,2.948,0,0,1,1.121.207,2.7,2.7,0,0,1,.959.617l7.685,7.689a2.93,2.93,0,0,1,.679,1.016,2.933,2.933,0,0,1,.228,1.121,2.961,2.961,0,0,1-.223,1.1,2.94,2.94,0,0,1-.63.949l-10.067,10.064a3.233,3.233,0,0,1-1.033.7,3.1,3.1,0,0,1-1.143.246Zm-6.047-10.717,6.179,6.18,8.456-8.455-6.179-6.18Zm114.312,8.088a1.2,1.2,0,0,1-.438-.086,1.067,1.067,0,0,1-.407-.26l-3.2-3.2a1.173,1.173,0,0,1-.28-.43,1.107,1.107,0,0,1-.092-.469,1.138,1.138,0,0,1,.088-.459,1.16,1.16,0,0,1,.263-.391l4.2-4.2a1.337,1.337,0,0,1,.429-.289,1.425,1.425,0,0,1,.477-.105,1.245,1.245,0,0,1,.464.088,1.061,1.061,0,0,1,.4.254l3.2,3.205a1.127,1.127,0,0,1,.28.426,1.123,1.123,0,0,1,.1.469,1.176,1.176,0,0,1-.092.455,1.114,1.114,0,0,1-.263.395l-4.2,4.2a1.417,1.417,0,0,1-.429.293,1.348,1.348,0,0,1-.477.1Zm-2.518-4.461,2.575,2.57,3.525-3.525-2.575-2.57Zm18.221-4.686a1.981,1.981,0,0,1-.258-1.012,1.431,1.431,0,0,1,.486-.98l1.476-1.48a1.54,1.54,0,0,1,1.007-.5,1.926,1.926,0,0,1,1.029.232l5.281,2.859-1.358,1.357-1.524-.863-2.242,2.242-.9-1.467,1.629-1.629-1.773-1-1.371,1.369,2.719,4.809-1.357,1.357Zm-9.183,2.623a1.185,1.185,0,0,1-.433-.088,1.272,1.272,0,0,1-.4-.268l-4.081-4.08,1.222-1.223,3.761,3.758,3.67-3.67,1.187,1.188-4.011,4.01a1.292,1.292,0,0,1-.42.285,1.347,1.347,0,0,1-.464.088Zm230.088-2.961.963-.963v1.928Zm-66.429-.035a2.923,2.923,0,0,1-1.068-.2,2.7,2.7,0,0,1-.959-.617l-7.689-7.689a2.909,2.909,0,0,1-.674-1.016,3.032,3.032,0,0,1-.223-1.121,2.772,2.772,0,0,1,.219-1.1,2.839,2.839,0,0,1,.63-.951l10.063-10.062a3.052,3.052,0,0,1,1.033-.7,3.087,3.087,0,0,1,1.147-.246,3.019,3.019,0,0,1,1.117.2,2.64,2.64,0,0,1,.959.623l7.689,7.684a2.956,2.956,0,0,1,.674,1.021,2.909,2.909,0,0,1,.228,1.121,2.926,2.926,0,0,1-.223,1.1,2.732,2.732,0,0,1-.631.949l-10.063,10.066a3.179,3.179,0,0,1-1.033.693,3.009,3.009,0,0,1-1.147.244Zm-6.052-10.715,6.174,6.18,8.456-8.453-6.179-6.178Zm-196.111,9.939a2.94,2.94,0,0,1-1.077-.205,2.721,2.721,0,0,1-.963-.617l-7.685-7.689a3.011,3.011,0,0,1-.679-1.016,3.024,3.024,0,0,1-.219-1.121,2.864,2.864,0,0,1,.219-1.1,2.857,2.857,0,0,1,.626-.951l10.067-10.066a3.1,3.1,0,0,1,1.033-.691,3.087,3.087,0,0,1,1.147-.246,2.933,2.933,0,0,1,1.117.2,2.7,2.7,0,0,1,.959.617l7.689,7.689a2.975,2.975,0,0,1,.679,1.021,3.062,3.062,0,0,1,.219,1.115,2.925,2.925,0,0,1-.219,1.1,2.782,2.782,0,0,1-.63.951l-10.063,10.063a3.086,3.086,0,0,1-1.033.7,3.211,3.211,0,0,1-1.147.248Zm-6.061-10.719,6.179,6.178,8.451-8.451-6.179-6.178Zm60.745,5.479-2.373,2.373-1.187-1.187,5.96-5.959,1.187,1.182-2.365,2.365,3.762,3.766-1.222,1.223Zm210.986,2.811a2.831,2.831,0,0,1-.95-.627l-3.035-3.037a2.916,2.916,0,0,1-.679-1.021,2.984,2.984,0,0,1-.223-1.117,2.879,2.879,0,0,1,.223-1.1,2.783,2.783,0,0,1,.626-.949l7.922-7.922v5.7l-4.2,4.205,1.528,1.527,2.676-2.676v5.7l-.639.641a2.949,2.949,0,0,1-1.02.678,3.017,3.017,0,0,1-1.121.223A2.9,2.9,0,0,1,1360.185-16890.562Zm-327.672-.193a2.635,2.635,0,0,1-.959-.621l-7.689-7.686a2.887,2.887,0,0,1-.674-1.02,2.99,2.99,0,0,1-.223-1.117,2.773,2.773,0,0,1,.219-1.1,2.832,2.832,0,0,1,.631-.949l11.149-11.154,2.851,2.855-10.282,10.281,6.174,6.18,10.286-10.287,2.851,2.852-11.031,11.031a3.219,3.219,0,0,1-1.038.7,2.924,2.924,0,0,1-1.147.246.259.259,0,0,1-.057,0A2.9,2.9,0,0,1,1032.512-16890.756Zm194.241-9.2-5.706,5.7-2.851-2.85,14.306-14.307,2.851,2.85-5.666,5.668,9.029,9.029-2.938,2.938Zm-71.079,5.246,1.607-1.6-2.575-2.574-1.607,1.607-1.187-1.187,4.445-4.443,1.191,1.182-1.62,1.619,2.575,2.576,1.616-1.621,1.191,1.191-4.445,4.449Zm6.043-4.2a1.253,1.253,0,0,1-.447-.088,1.13,1.13,0,0,1-.4-.254l-3.2-3.205a1.227,1.227,0,0,1-.285-.426,1.246,1.246,0,0,1-.092-.463,1.084,1.084,0,0,1,.092-.465,1.2,1.2,0,0,1,.258-.391l4.195-4.193a1.25,1.25,0,0,1,.429-.289,1.25,1.25,0,0,1,.477-.1,1.182,1.182,0,0,1,.469.078,1.159,1.159,0,0,1,.4.264l3.2,3.2a1.2,1.2,0,0,1,.28.424,1.13,1.13,0,0,1,.092.469,1.109,1.109,0,0,1-.088.459,1.154,1.154,0,0,1-.263.4l-4.195,4.2a1.314,1.314,0,0,1-.434.285,1.236,1.236,0,0,1-.473.105Zm-2.522-4.467,2.575,2.57,3.521-3.521-2.575-2.57Zm82.762.568,3.854-3.854-6.179-6.178-3.854,3.854-2.851-2.852,10.676-10.676,2.851,2.855-3.889,3.885,6.179,6.174,3.889-3.885,2.851,2.852-10.676,10.676Zm70.054.109a2.9,2.9,0,0,1-1.064-.2,2.724,2.724,0,0,1-.959-.621l-7.689-7.689a2.933,2.933,0,0,1-.674-1.016,3.072,3.072,0,0,1-.219-1.117,2.831,2.831,0,0,1,.215-1.1,2.927,2.927,0,0,1,.63-.949l11.153-11.154,2.846,2.852-10.282,10.281,6.179,6.178,10.282-10.285,2.851,2.855-11.031,11.025a3.1,3.1,0,0,1-1.038.7,3.066,3.066,0,0,1-1.147.244Zm-203.245-.971a2.886,2.886,0,0,1-.95-.631l-9.809-9.809,2.934-2.934,9.029,9.029,8.806-8.811,2.855,2.85-9.625,9.621a3.034,3.034,0,0,1-1.016.684,3.091,3.091,0,0,1-1.121.219A2.967,2.967,0,0,1,1108.767-16903.668Zm55.464-5.436a1.414,1.414,0,0,1-.272-.371,1.208,1.208,0,0,1-.144-.451,1.109,1.109,0,0,1,.066-.486,1.3,1.3,0,0,1,.328-.49,1.445,1.445,0,0,1,.49-.328,1.475,1.475,0,0,1,.556-.115l6.1.1-3.328-3.332,1.222-1.223,4.112,4.107a1.593,1.593,0,0,1,.272.377,1.378,1.378,0,0,1,.136.451,1.209,1.209,0,0,1-.066.49,1.343,1.343,0,0,1-.32.486,1.345,1.345,0,0,1-.508.336,1.5,1.5,0,0,1-.543.1l-6.1-.092,3.332,3.336-1.222,1.217Zm-175.162-2.207,3.88-3.879-3.88-3.883v-5.873l7.545,7.549a2.948,2.948,0,0,1,.679,1.016,3.033,3.033,0,0,1,.223,1.121,2.885,2.885,0,0,1-.223,1.1,2.829,2.829,0,0,1-.626.951l-7.6,7.6Zm64.134-.121a3.111,3.111,0,0,1-1.011-.68l-3.311-3.314a2.864,2.864,0,0,1-.631-.945,2.889,2.889,0,0,1-.223-1.1,3.113,3.113,0,0,1,.223-1.125,2.952,2.952,0,0,1,.679-1.021l5.789-5.783-1.528-1.529-7.33,7.33-2.851-2.846,8.193-8.193a2.9,2.9,0,0,1,.95-.635,2.9,2.9,0,0,1,1.108-.219,3.091,3.091,0,0,1,1.121.219,2.98,2.98,0,0,1,1.016.68l3.035,3.037a2.839,2.839,0,0,1,.63.951,2.954,2.954,0,0,1,.223,1.1,3.1,3.1,0,0,1-.223,1.121,3.062,3.062,0,0,1-.683,1.016l-5.785,5.789,1.8,1.8,8.285-8.285,2.851,2.85-9.148,9.148a2.979,2.979,0,0,1-.95.631,2.9,2.9,0,0,1-1.1.223A3.039,3.039,0,0,1,1053.2-16911.432Zm202.921-1.127a2.929,2.929,0,0,1-1.073-.2,2.768,2.768,0,0,1-.959-.621l-7.689-7.686a3.093,3.093,0,0,1-.679-1.02,3.072,3.072,0,0,1-.219-1.117,2.933,2.933,0,0,1,.219-1.1,2.885,2.885,0,0,1,.631-.955l10.063-10.062a3.113,3.113,0,0,1,1.033-.691,3.019,3.019,0,0,1,1.147-.25,2.96,2.96,0,0,1,1.121.205,2.789,2.789,0,0,1,.959.619l7.685,7.689a2.875,2.875,0,0,1,.679,1.016,3.017,3.017,0,0,1,.219,1.121,2.886,2.886,0,0,1-.219,1.1,2.781,2.781,0,0,1-.626.949l-10.063,10.063a3.148,3.148,0,0,1-1.038.7,3.08,3.08,0,0,1-1.143.244Zm-6.056-10.715,6.179,6.18,8.451-8.451-6.179-6.18Zm-251.43,5.535a2.746,2.746,0,0,1-.95-.627l-8.618-8.617v-2.383l1.743-1.746,9.029,9.029,8.806-8.807,2.851,2.852-9.621,9.621a2.909,2.909,0,0,1-1.02.678,3,3,0,0,1-1.121.223A2.858,2.858,0,0,1,998.637-16917.738Zm126.762-5.7,3.853-3.854-6.179-6.178-3.853,3.852-2.851-2.85,10.676-10.676,2.851,2.85-3.888,3.889,6.179,6.18,3.888-3.889,2.851,2.85-10.676,10.678Zm59.873-6.643-5.7,5.7-2.851-2.852,14.306-14.3,2.851,2.85-5.671,5.672,9.025,9.023-2.93,2.936Zm146.371,6.5a2.988,2.988,0,0,1-1.016-.678l-3.31-3.311a2.894,2.894,0,0,1-.631-.951,2.928,2.928,0,0,1-.219-1.1,3.082,3.082,0,0,1,.219-1.119,3.08,3.08,0,0,1,.679-1.021l5.789-5.789-1.524-1.523-7.33,7.33-2.855-2.85,8.2-8.193a2.812,2.812,0,0,1,.95-.631,2.8,2.8,0,0,1,1.1-.219,3.073,3.073,0,0,1,1.121.219,2.88,2.88,0,0,1,1.016.678l3.039,3.035a2.846,2.846,0,0,1,.626.955,2.956,2.956,0,0,1,.223,1.1,3,3,0,0,1-.223,1.117,2.962,2.962,0,0,1-.679,1.02l-5.789,5.785,1.8,1.8,8.285-8.285,2.851,2.855-9.148,9.143a2.756,2.756,0,0,1-.95.631,2.888,2.888,0,0,1-1.1.229A2.93,2.93,0,0,1,1331.643-16923.58Zm-264.957-.064a2.993,2.993,0,0,1-1.082-.2,2.686,2.686,0,0,1-.959-.621l-7.689-7.689a2.857,2.857,0,0,1-.674-1.016,2.985,2.985,0,0,1-.219-1.117,2.756,2.756,0,0,1,.214-1.1,2.929,2.929,0,0,1,.631-.949l7.094-7.094a3.2,3.2,0,0,1,1.033-.7,3.176,3.176,0,0,1,1.147-.24,2.956,2.956,0,0,1,1.117.2,2.7,2.7,0,0,1,.959.617l7.689,7.689a2.99,2.99,0,0,1,.679,1.016,3.044,3.044,0,0,1,.223,1.125,2.9,2.9,0,0,1-.223,1.1,2.94,2.94,0,0,1-.626.945l-7.094,7.1a3.143,3.143,0,0,1-1.038.7,3.09,3.09,0,0,1-1.147.246Zm-6.06-10.717,6.174,6.18,5.482-5.482-6.179-6.18Zm201.186-2.32a3.761,3.761,0,0,1-.661-.9,2.927,2.927,0,0,1-.333-1.076,2.7,2.7,0,0,1,.153-1.174,3.263,3.263,0,0,1,.792-1.178,3.505,3.505,0,0,1,1.178-.789,3.56,3.56,0,0,1,1.331-.262l14.648.219-8-7.992,2.938-2.937,9.861,9.861a3.517,3.517,0,0,1,.652.906,3.1,3.1,0,0,1,.32,1.086,2.632,2.632,0,0,1-.153,1.174,3.146,3.146,0,0,1-.771,1.16,3.412,3.412,0,0,1-1.213.824,3.708,3.708,0,0,1-1.3.227l-14.648-.219,7.992,8-2.934,2.934Zm-65.614-1.551,2.938-2.937,4.786,4.791,8.416-8.422-6.174-6.174-11.355,11.355-2.851-2.855,12.1-12.1a3.189,3.189,0,0,1,1.029-.691,3.175,3.175,0,0,1,1.152-.25,2.979,2.979,0,0,1,1.112.207,2.689,2.689,0,0,1,.963.621L1216-16947a2.993,2.993,0,0,1,.679,1.016,3.046,3.046,0,0,1,.223,1.125,2.853,2.853,0,0,1-.223,1.1,2.821,2.821,0,0,1-.626.949l-12.217,12.219Zm-66.284-3.738a3.705,3.705,0,0,1-.661-.9,2.845,2.845,0,0,1-.333-1.078,2.672,2.672,0,0,1,.153-1.168,3.181,3.181,0,0,1,.788-1.184,3.517,3.517,0,0,1,1.182-.787,3.507,3.507,0,0,1,1.331-.264l14.643.219-7.992-7.99,2.934-2.934,9.861,9.855a3.544,3.544,0,0,1,.652.912,3.057,3.057,0,0,1,.324,1.086,2.677,2.677,0,0,1-.153,1.168,3.086,3.086,0,0,1-.771,1.16,3.374,3.374,0,0,1-1.213.824,3.737,3.737,0,0,1-1.3.232l-14.643-.225,7.992,8-2.934,2.936Zm-114.645,4.461,3.849-3.848-6.179-6.18-3.849,3.854-2.851-2.855,10.672-10.67,2.851,2.85-3.884,3.889,6.179,6.174,3.884-3.883,2.851,2.85-10.676,10.672Zm329.853,1.721a2.932,2.932,0,0,1-1.082-.205,2.7,2.7,0,0,1-.959-.617l-7.685-7.689a2.948,2.948,0,0,1-.679-1.016,3.1,3.1,0,0,1-.219-1.121,2.859,2.859,0,0,1,.215-1.1,3.052,3.052,0,0,1,.631-.951l7.094-7.094a3.2,3.2,0,0,1,1.038-.7,3.073,3.073,0,0,1,1.143-.24,2.833,2.833,0,0,1,1.121.2,2.626,2.626,0,0,1,.959.617l7.689,7.689a2.88,2.88,0,0,1,.674,1.016,2.943,2.943,0,0,1,.223,1.125,2.9,2.9,0,0,1-.223,1.1,2.751,2.751,0,0,1-.626.941l-7.094,7.094a3.16,3.16,0,0,1-1.038.7,3.163,3.163,0,0,1-1.143.244Zm-6.061-10.719,6.179,6.18,5.478-5.479-6.174-6.18Zm-260.911,10.129a3,3,0,0,1-1.016-.68l-3.31-3.311a3,3,0,0,1-.631-.949,3.055,3.055,0,0,1-.214-1.1,3.068,3.068,0,0,1,.219-1.121,2.937,2.937,0,0,1,.679-1.016l5.785-5.789-1.524-1.523-7.33,7.33-2.851-2.852,8.2-8.2a2.929,2.929,0,0,1,.946-.631,2.805,2.805,0,0,1,1.108-.215,2.99,2.99,0,0,1,1.117.219,2.887,2.887,0,0,1,1.02.68l3.035,3.035a2.9,2.9,0,0,1,.631.949,2.975,2.975,0,0,1,.219,1.107,3,3,0,0,1-.223,1.117,2.979,2.979,0,0,1-.674,1.016l-5.789,5.785,1.8,1.8,8.281-8.275,2.851,2.846-9.148,9.148a2.856,2.856,0,0,1-.95.631,2.854,2.854,0,0,1-1.1.219A3.067,3.067,0,0,1,1078.15-16936.379Zm-58.371-19.662a3.912,3.912,0,0,1-.661-.9,2.94,2.94,0,0,1-.328-1.078,2.633,2.633,0,0,1,.153-1.174,3.192,3.192,0,0,1,.788-1.178,3.548,3.548,0,0,1,1.178-.789,3.56,3.56,0,0,1,1.331-.262l14.648.219-8-7.992,2.938-2.937,9.861,9.861a3.52,3.52,0,0,1,.652.906,3.1,3.1,0,0,1,.32,1.086,2.627,2.627,0,0,1-.149,1.174,3.2,3.2,0,0,1-.775,1.16,3.411,3.411,0,0,1-1.213.824,3.709,3.709,0,0,1-1.3.227l-14.648-.219,7.992,8-2.934,2.934Zm68.859,6.018,8.421-8.422-1.8-1.8-6.888,6.893-2.851-2.852,6.888-6.893-1.524-1.523-8.421,8.416-2.851-2.846,9.283-9.283a2.783,2.783,0,0,1,.95-.631,2.717,2.717,0,0,1,1.1-.215,3.1,3.1,0,0,1,1.121.215,2.974,2.974,0,0,1,1.016.678l7.685,7.686a2.7,2.7,0,0,1,.622.963,2.837,2.837,0,0,1,.2,1.117,2.952,2.952,0,0,1-.245,1.148,3.183,3.183,0,0,1-.692,1.033l-9.17,9.164Zm129.569,2.5a2.7,2.7,0,0,1-.959-.617l-9.809-9.809,2.934-2.936,9.025,9.031,7.571-7.572-9.029-9.029,2.938-2.934,9.756,9.756a3.011,3.011,0,0,1,.679,1.016,3.036,3.036,0,0,1,.223,1.125,2.9,2.9,0,0,1-.223,1.1,2.816,2.816,0,0,1-.63.951l-9.183,9.178a3.173,3.173,0,0,1-1.029.7,3.056,3.056,0,0,1-1.147.24.3.3,0,0,1-.057,0A2.773,2.773,0,0,1,1218.206-16947.523Zm-72.765-9.773a2.977,2.977,0,0,1-.679-1.021,2.973,2.973,0,0,1-.219-1.115,2.878,2.878,0,0,1,.219-1.1,2.837,2.837,0,0,1,.626-.951l9.861-9.861,2.851,2.852-8.994,8.994,2.733,2.732,7.637-7.637,2.851,2.85-7.637,7.637,3.446,3.447-2.938,2.934Zm212.265,8.994a2.977,2.977,0,0,1-1.117-.225,2.933,2.933,0,0,1-1.016-.678l-3.311-3.311a2.8,2.8,0,0,1-.63-.945,2.971,2.971,0,0,1-.219-1.1,2.986,2.986,0,0,1,.223-1.121,2.887,2.887,0,0,1,.674-1.016l5.789-5.789-1.528-1.529-7.33,7.33-2.851-2.846,8.2-8.2a2.856,2.856,0,0,1,.95-.631,2.859,2.859,0,0,1,1.1-.219,3.091,3.091,0,0,1,1.121.219,2.98,2.98,0,0,1,1.016.68l3.035,3.039a2.732,2.732,0,0,1,.631.949,2.866,2.866,0,0,1,.219,1.1,2.97,2.97,0,0,1-.219,1.117,2.979,2.979,0,0,1-.679,1.016l-5.785,5.789,1.8,1.8,6.288-6.287v5.7l-4.309,4.309a2.822,2.822,0,0,1-.946.631,2.869,2.869,0,0,1-1.1.219Zm-67.011-3.246,11.355-11.35-1.8-1.8-9.231,9.23a2.964,2.964,0,0,1-1.02.678,2.959,2.959,0,0,1-1.117.225,2.83,2.83,0,0,1-1.1-.225,2.841,2.841,0,0,1-.95-.625l-3.039-3.039a2.916,2.916,0,0,1-.679-1.021,2.975,2.975,0,0,1-.219-1.115,2.866,2.866,0,0,1,.219-1.1,2.791,2.791,0,0,1,.626-.951l10.895-10.895,2.851,2.852-10.028,10.027,1.528,1.527,9.231-9.23a2.909,2.909,0,0,1,1.02-.678,2.96,2.96,0,0,1,1.117-.225,2.829,2.829,0,0,1,1.1.225,2.782,2.782,0,0,1,.95.625l3.31,3.311a3.012,3.012,0,0,1,.679,1.016,3.034,3.034,0,0,1,.223,1.121,2.872,2.872,0,0,1-.223,1.1,2.857,2.857,0,0,1-.626.951l-12.222,12.217Zm-122.834-9.93a2.982,2.982,0,0,1-1.082-.207,2.7,2.7,0,0,1-.959-.617l-7.685-7.689a2.948,2.948,0,0,1-.679-1.016,3.024,3.024,0,0,1-.223-1.121,2.869,2.869,0,0,1,.223-1.1,2.791,2.791,0,0,1,.626-.951l10.063-10.062a3.114,3.114,0,0,1,1.038-.7,3.171,3.171,0,0,1,1.143-.25,3.145,3.145,0,0,1,1.121.205,2.718,2.718,0,0,1,.959.623l7.689,7.684a3.04,3.04,0,0,1,.679,1.021,3.068,3.068,0,0,1,.219,1.121,2.971,2.971,0,0,1-.219,1.1,2.882,2.882,0,0,1-.63.945l-10.063,10.068a3.281,3.281,0,0,1-1.033.7,3.208,3.208,0,0,1-1.147.246Zm-6.061-10.721,6.179,6.18,8.451-8.453-6.179-6.178Zm-126.495.836a3.091,3.091,0,0,1-.679-1.02,3.076,3.076,0,0,1-.219-1.121,2.963,2.963,0,0,1,.219-1.1,2.906,2.906,0,0,1,.63-.951l9.861-9.855,2.846,2.85-8.99,8.994,2.732,2.732,7.633-7.637,2.855,2.852-7.641,7.637,3.446,3.445-2.934,2.936Zm-46.237,2.023,3.092-3.092-3.092-3.092v-5.867l6.757,6.758a2.9,2.9,0,0,1,.674,1.016,2.937,2.937,0,0,1,.223,1.125,2.867,2.867,0,0,1-.219,1.1,2.787,2.787,0,0,1-.631.949l-6.8,6.8Zm319.751,4.09a3.016,3.016,0,0,1-1.077-.205,2.7,2.7,0,0,1-.959-.617l-7.685-7.689a2.912,2.912,0,0,1-.679-1.016,3.016,3.016,0,0,1-.223-1.121,2.884,2.884,0,0,1,.223-1.1,2.829,2.829,0,0,1,.626-.951l10.693-10.693,2.851,2.855-9.826,9.826,1.528,1.523,8.482-8.486,2.851,2.855-8.482,8.486,1.8,1.795,9.826-9.826,2.851,2.852-10.571,10.574a3.176,3.176,0,0,1-1.033.7,3.141,3.141,0,0,1-1.147.244Zm-195.06-2.32,4.729-4.734-.753-.748-3.845,3.844a1.207,1.207,0,0,1-.425.285,1.176,1.176,0,0,1-.464.092,1.089,1.089,0,0,1-.455-.092,1.129,1.129,0,0,1-.4-.262l-1.261-1.266a1.192,1.192,0,0,1-.285-.426,1.253,1.253,0,0,1-.1-.463,1.219,1.219,0,0,1,.1-.461,1.174,1.174,0,0,1,.258-.395l4.541-4.541,1.187,1.188-4.177,4.182.639.631,3.845-3.846a1.2,1.2,0,0,1,.425-.279,1.193,1.193,0,0,1,.469-.088,1.239,1.239,0,0,1,.46.088,1.191,1.191,0,0,1,.394.262l1.379,1.381a1.173,1.173,0,0,1,.28.424,1.162,1.162,0,0,1,.092.465,1.156,1.156,0,0,1-.092.455,1.118,1.118,0,0,1-.258.4l-5.093,5.088Zm117.045-9.5a2.988,2.988,0,0,1-.679-1.021,3.068,3.068,0,0,1-.223-1.115,2.884,2.884,0,0,1,.223-1.109,2.89,2.89,0,0,1,.626-.945l9.861-9.861,2.851,2.852-8.994,8.994,2.732,2.732,7.637-7.637,2.851,2.85-7.637,7.637,3.442,3.443-2.934,2.938Zm133.151,8.727.114-.113v.227Zm-5.907-2.852,6.021-6.02v5.7l-3.17,3.17Zm-251.575-3.234,1.607-1.607-2.575-2.57-1.607,1.6-1.182-1.182,4.445-4.449,1.187,1.188-1.62,1.619,2.575,2.576,1.62-1.621,1.187,1.191-4.445,4.443Zm14.976,1.006a1.194,1.194,0,0,1-.447-.088,1.008,1.008,0,0,1-.4-.248l-3.205-3.205a1.232,1.232,0,0,1-.28-.426,1.212,1.212,0,0,1-.1-.469,1.217,1.217,0,0,1,.1-.459,1.1,1.1,0,0,1,.258-.395l4.458-4.457,1.187,1.186-4.094,4.1.635.639,3.538-3.539,1.187,1.188-3.538,3.533.749.754,4.1-4.1,1.191,1.191-4.41,4.406a1.25,1.25,0,0,1-.429.289,1.388,1.388,0,0,1-.477.1Zm-122.365-1.523a2.843,2.843,0,0,1-1.06-.205,2.677,2.677,0,0,1-.959-.623l-8-7.992v-3.627l1.121-1.123,9.029,9.029,7.567-7.57-9.025-9.025,2.938-2.939,9.756,9.762a2.955,2.955,0,0,1,.679,1.016,3.025,3.025,0,0,1,.223,1.121,2.871,2.871,0,0,1-.223,1.1,2.867,2.867,0,0,1-.631.951l-9.183,9.182a3.1,3.1,0,0,1-1.033.691,3.075,3.075,0,0,1-1.147.25Zm58.643-.6a3.01,3.01,0,0,1-1.077-.2,2.717,2.717,0,0,1-.959-.623l-7.689-7.684a3.04,3.04,0,0,1-.679-1.021,3.064,3.064,0,0,1-.219-1.115,2.943,2.943,0,0,1,.219-1.1,2.849,2.849,0,0,1,.631-.951l10.063-10.062a3.2,3.2,0,0,1,1.033-.7,3.077,3.077,0,0,1,1.147-.24,2.847,2.847,0,0,1,1.121.2,2.743,2.743,0,0,1,.959.617l7.685,7.689a2.948,2.948,0,0,1,.679,1.016,3.027,3.027,0,0,1,.219,1.121,2.866,2.866,0,0,1-.219,1.1,2.791,2.791,0,0,1-.626.951l-10.063,10.063a3.113,3.113,0,0,1-1.038.7,3.084,3.084,0,0,1-1.143.246Zm-6.06-10.715,6.179,6.178,8.451-8.451-6.179-6.178Zm121.98.762a2.977,2.977,0,0,1-.679-1.021,2.973,2.973,0,0,1-.219-1.115,2.85,2.85,0,0,1,.219-1.1,2.818,2.818,0,0,1,.626-.951l9.931-9.926a2.9,2.9,0,0,1,1.016-.68,3.017,3.017,0,0,1,1.121-.223,2.9,2.9,0,0,1,1.1.223,2.788,2.788,0,0,1,.95.627l3.494,3.5a2.917,2.917,0,0,1,.679,1.016,2.994,2.994,0,0,1,.223,1.121,2.884,2.884,0,0,1-.223,1.1,2.811,2.811,0,0,1-.626.945l-1.156,1.156,7.466.92-3.529,3.525-7.567-.814-2.921,2.92-2.851-2.85,6.84-6.84-1.984-1.984-8.25,8.246,9.029,9.029-2.938,2.934Zm146.309,4.7,11.35-11.354-1.8-1.8-9.235,9.236a2.946,2.946,0,0,1-1.016.678,3.091,3.091,0,0,1-1.121.219,2.967,2.967,0,0,1-1.1-.219,2.793,2.793,0,0,1-.95-.629l-3.039-3.035a3.079,3.079,0,0,1-.679-1.021,3.071,3.071,0,0,1-.219-1.121,2.981,2.981,0,0,1,.219-1.1,2.921,2.921,0,0,1,.631-.949l10.895-10.895,2.851,2.85-10.032,10.033,1.528,1.523,9.231-9.23a3.04,3.04,0,0,1,1.02-.68,3.092,3.092,0,0,1,1.121-.219,2.967,2.967,0,0,1,1.1.219,2.871,2.871,0,0,1,.95.631l3.306,3.307a3.038,3.038,0,0,1,.683,1.02,3.1,3.1,0,0,1,.219,1.121,2.931,2.931,0,0,1-.219,1.1,2.885,2.885,0,0,1-.631.955l-12.217,12.217ZM1108.5-16982.3a1.457,1.457,0,0,1-.271-.373,1.175,1.175,0,0,1-.145-.451,1.128,1.128,0,0,1,.066-.484,1.284,1.284,0,0,1,.333-.492,1.432,1.432,0,0,1,.49-.328,1.435,1.435,0,0,1,.556-.109l6.1.092-3.332-3.328,1.226-1.221,4.107,4.1a1.571,1.571,0,0,1,.271.381,1.161,1.161,0,0,1,.136.451,1.124,1.124,0,0,1-.066.486,1.211,1.211,0,0,1-.32.484,1.341,1.341,0,0,1-.508.342,1.4,1.4,0,0,1-.543.1l-6.1-.1,3.332,3.338-1.222,1.221Zm17.735,2.25,4.729-4.729-.753-.748-3.84,3.844a1.326,1.326,0,0,1-.425.281,1.219,1.219,0,0,1-.469.1,1.205,1.205,0,0,1-.455-.092,1.108,1.108,0,0,1-.4-.264l-1.261-1.266a1.121,1.121,0,0,1-.28-.424,1.22,1.22,0,0,1-.1-.469,1.134,1.134,0,0,1,.1-.455,1.086,1.086,0,0,1,.258-.4l4.541-4.537,1.187,1.188-4.182,4.182.639.635,3.845-3.85a1.355,1.355,0,0,1,.425-.285,1.17,1.17,0,0,1,.469-.086,1.3,1.3,0,0,1,.46.086,1.3,1.3,0,0,1,.394.264l1.379,1.383a1.256,1.256,0,0,1,.285.426,1.127,1.127,0,0,1,.088.459,1.09,1.09,0,0,1-.092.465,1.14,1.14,0,0,1-.258.395l-5.088,5.092Zm123.832-2.473,3.853-3.854-6.179-6.18-3.853,3.854-2.851-2.85,10.68-10.676,2.851,2.85-3.888,3.889,6.179,6.174,3.888-3.889,2.846,2.852-10.676,10.68Zm-150.448.8,4.729-4.729-.749-.754-3.845,3.85a1.19,1.19,0,0,1-.425.279,1.2,1.2,0,0,1-.469.1,1.331,1.331,0,0,1-.455-.092,1.215,1.215,0,0,1-.4-.264l-1.266-1.266a1.2,1.2,0,0,1-.28-.424,1.2,1.2,0,0,1-.1-.465,1.241,1.241,0,0,1,.092-.465,1.158,1.158,0,0,1,.263-.389l4.541-4.541,1.182,1.186-4.173,4.178.639.641,3.845-3.85a1.275,1.275,0,0,1,.42-.285,1.476,1.476,0,0,1,.464-.092,1.249,1.249,0,0,1,.464.092,1.273,1.273,0,0,1,.4.268l1.375,1.375a1.169,1.169,0,0,1,.28.424,1.18,1.18,0,0,1,.092.465,1.1,1.1,0,0,1-.088.459,1.2,1.2,0,0,1-.263.395l-5.093,5.094Zm15.493-7.1a1.189,1.189,0,0,1-.28-.426,1.136,1.136,0,0,1-.092-.473,1.11,1.11,0,0,1,.088-.455,1.138,1.138,0,0,1,.263-.395l4.107-4.107,1.187,1.188-3.748,3.748,1.139,1.133,3.183-3.182,1.191,1.189-3.183,3.184,1.436,1.438-1.222,1.221Zm17.708,2.18,4.734-4.729-.749-.75-3.849,3.85a1.3,1.3,0,0,1-.425.281,1.068,1.068,0,0,1-.46.086,1.044,1.044,0,0,1-.46-.086,1.218,1.218,0,0,1-.4-.264l-1.261-1.266a1.181,1.181,0,0,1-.285-.424,1.193,1.193,0,0,1-.092-.465,1.19,1.19,0,0,1,.092-.459,1.156,1.156,0,0,1,.263-.4l4.541-4.537,1.187,1.182-4.182,4.182.639.641,3.845-3.85a1.355,1.355,0,0,1,.425-.285,1.207,1.207,0,0,1,.469-.088,1.3,1.3,0,0,1,.46.088,1.238,1.238,0,0,1,.394.268l1.379,1.375a1.3,1.3,0,0,1,.285.424,1.269,1.269,0,0,1,.088.465,1.047,1.047,0,0,1-.092.459,1.135,1.135,0,0,1-.254.4l-5.1,5.094Zm-25.516-.928a1.212,1.212,0,0,1-.442-.088,1.068,1.068,0,0,1-.4-.258l-3.2-3.2a1.172,1.172,0,0,1-.28-.43,1.17,1.17,0,0,1-.1-.463,1.233,1.233,0,0,1,.092-.465,1.242,1.242,0,0,1,.263-.391l4.646-4.645,1.187,1.182-4.287,4.287,2.575,2.574,4.287-4.287,1.187,1.188-4.6,4.6a1.337,1.337,0,0,1-.429.289,1.239,1.239,0,0,1-.477.105Zm-43.785-12a3.021,3.021,0,0,1-.683-1.02,3.078,3.078,0,0,1-.219-1.121,2.973,2.973,0,0,1,.219-1.1,2.942,2.942,0,0,1,.631-.949l9.927-9.928a3.023,3.023,0,0,1,1.016-.68,3.109,3.109,0,0,1,1.121-.219,2.933,2.933,0,0,1,1.1.219,2.875,2.875,0,0,1,.95.627l3.5,3.5a3.04,3.04,0,0,1,.679,1.021,3.064,3.064,0,0,1,.219,1.115,2.943,2.943,0,0,1-.219,1.1,2.849,2.849,0,0,1-.631.951l-1.152,1.156,7.466.914-3.529,3.531-7.571-.814-2.916,2.92-2.851-2.852,6.84-6.84-1.988-1.982-8.245,8.244,9.025,9.029-2.934,2.936Zm61.073,8.863a1.212,1.212,0,0,1-.447-.088.97.97,0,0,1-.4-.254l-3.205-3.205a1.137,1.137,0,0,1-.28-.424,1.187,1.187,0,0,1-.092-.465,1.09,1.09,0,0,1,.092-.465,1.076,1.076,0,0,1,.263-.389l4.191-4.2a1.337,1.337,0,0,1,.429-.289,1.3,1.3,0,0,1,.477-.105,1.192,1.192,0,0,1,.469.088,1.11,1.11,0,0,1,.4.254l3.2,3.2a1.184,1.184,0,0,1,.285.43,1.194,1.194,0,0,1,.092.469,1.148,1.148,0,0,1-.092.459,1.121,1.121,0,0,1-.258.395l-4.2,4.2a1.264,1.264,0,0,1-.433.283,1.316,1.316,0,0,1-.477.105Zm-2.527-4.461,2.575,2.57,3.525-3.525-2.575-2.57Zm66.958-5.916a6.681,6.681,0,0,1-.714-.846,2.616,2.616,0,0,1-.429-.977,2.106,2.106,0,0,1,.066-1.086,2.967,2.967,0,0,1,.771-1.164l.188-.189a3.313,3.313,0,0,1,1.231-.818,4.644,4.644,0,0,1,1.314-.268l8.031-.561.556-8.025a4.637,4.637,0,0,1,.263-1.314,3.424,3.424,0,0,1,.823-1.23l.188-.184a2.9,2.9,0,0,1,1.165-.775,2.1,2.1,0,0,1,1.086-.066,2.569,2.569,0,0,1,.972.43,6.426,6.426,0,0,1,.849.713l9.861,9.863-2.938,2.934-8.4-8.4-.526,7.043,5.141,5.145-2.916,2.916-5.145-5.141-7.041.525,8.4,8.4-2.934,2.934Zm-49.819,8.064,1.6-1.6-2.575-2.57-1.6,1.6-1.187-1.182,4.445-4.449,1.187,1.188-1.62,1.619,2.575,2.574,1.62-1.619,1.191,1.191-4.445,4.443Zm-30.679-5.123,1.222-1.221,1.826,1.82,3.433-3.437-1.822-1.82,1.222-1.223,4.948,4.945-1.226,1.221-1.931-1.936-3.442,3.438,1.94,1.936-1.226,1.227Zm226.908,1.857,11.355-11.35-1.8-1.8-9.231,9.23a3.022,3.022,0,0,1-1.02.684,3.073,3.073,0,0,1-1.121.219,2.967,2.967,0,0,1-1.1-.219,2.9,2.9,0,0,1-.95-.631l-3.035-3.039a2.909,2.909,0,0,1-.679-1.02,2.991,2.991,0,0,1-.223-1.117,2.879,2.879,0,0,1,.223-1.1,2.783,2.783,0,0,1,.626-.949l10.895-10.895,2.851,2.85-10.028,10.027,1.528,1.529,9.231-9.23a2.939,2.939,0,0,1,1.016-.68,3.028,3.028,0,0,1,1.121-.219,2.874,2.874,0,0,1,1.1.219,2.787,2.787,0,0,1,.95.627l3.31,3.311a2.968,2.968,0,0,1,.679,1.02,3.072,3.072,0,0,1,.219,1.117,2.933,2.933,0,0,1-.219,1.1,2.846,2.846,0,0,1-.626.949l-12.222,12.223Zm-324.809-8.426a2.856,2.856,0,0,1-.674-1.016,2.987,2.987,0,0,1-.223-1.121,2.735,2.735,0,0,1,.223-1.107,2.75,2.75,0,0,1,.626-.941l9.861-9.861,2.846,2.846-8.99,8.994,2.732,2.738,7.637-7.639,2.851,2.852-7.637,7.633,3.442,3.445-2.938,2.939Zm116.524,3.85a1.223,1.223,0,0,1-.285-.42,1.3,1.3,0,0,1-.092-.469,1.142,1.142,0,0,1,.092-.461,1.149,1.149,0,0,1,.258-.389l4.138-4.139a1.257,1.257,0,0,1,.425-.283,1.253,1.253,0,0,1,.469-.094,1.226,1.226,0,0,1,.46.094,1.191,1.191,0,0,1,.394.262l1.454,1.453a1.256,1.256,0,0,1,.285.426,1.276,1.276,0,0,1,.092.469,1.22,1.22,0,0,1-.088.459,1.356,1.356,0,0,1-.267.395l-.482.482,3.118.381-1.471,1.471-3.162-.342-1.213,1.213-1.187-1.186,2.846-2.848-.828-.828-3.433,3.434,3.766,3.766-1.226,1.227Zm18.089,3.639a1.222,1.222,0,0,1-.442-.082,1.14,1.14,0,0,1-.394-.254l-3.205-3.207a1.285,1.285,0,0,1-.285-.424,1.192,1.192,0,0,1-.092-.469,1.281,1.281,0,0,1,.092-.455,1.156,1.156,0,0,1,.263-.4l4.195-4.2a1.406,1.406,0,0,1,.429-.289,1.251,1.251,0,0,1,.477-.1,1.346,1.346,0,0,1,.469.084,1.143,1.143,0,0,1,.4.264l3.205,3.2a1.278,1.278,0,0,1,.28.426,1.163,1.163,0,0,1,.088.465,1.066,1.066,0,0,1-.092.459,1.092,1.092,0,0,1-.254.4l-4.2,4.191a1.364,1.364,0,0,1-.429.293,1.476,1.476,0,0,1-.477.1Zm-2.513-4.461,2.57,2.574,3.521-3.521-2.57-2.574Zm127.948,2.959a2.917,2.917,0,0,1-1.064-.2,2.851,2.851,0,0,1-.959-.621l-7.685-7.686a2.986,2.986,0,0,1-.679-1.021,3.077,3.077,0,0,1-.219-1.115,2.845,2.845,0,0,1,.215-1.1,2.965,2.965,0,0,1,.63-.955l10.063-10.062a3.1,3.1,0,0,1,1.038-.691,3.008,3.008,0,0,1,1.143-.246,2.833,2.833,0,0,1,1.117.2,2.761,2.761,0,0,1,.963.617l7.685,7.689a3.011,3.011,0,0,1,.679,1.016,2.952,2.952,0,0,1,.228,1.121,2.946,2.946,0,0,1-.223,1.1,2.909,2.909,0,0,1-.631.951l-10.067,10.063a3.086,3.086,0,0,1-1.033.7,3.1,3.1,0,0,1-1.147.244Zm-6.047-10.715,6.179,6.178,8.451-8.455-6.174-6.174Zm-144.659,9.209a1.212,1.212,0,0,1-.442-.088,1.068,1.068,0,0,1-.4-.258l-3.2-3.2a1.17,1.17,0,0,1-.28-.43,1.269,1.269,0,0,1-.1-.463,1.166,1.166,0,0,1,.1-.465,1.135,1.135,0,0,1,.258-.389l4.2-4.2a1.262,1.262,0,0,1,.429-.289,1.335,1.335,0,0,1,.477-.105,1.207,1.207,0,0,1,.464.088,1,1,0,0,1,.4.254l3.2,3.205a1.153,1.153,0,0,1,.28.42,1.148,1.148,0,0,1,.092.469,1.109,1.109,0,0,1-.088.459,1.138,1.138,0,0,1-.263.395l-4.195,4.2a1.338,1.338,0,0,1-.429.289,1.239,1.239,0,0,1-.477.105Zm-2.518-4.467,2.575,2.574,3.525-3.523-2.575-2.576Zm30.307-2.715a1.668,1.668,0,0,1-.276-.373,1.275,1.275,0,0,1-.136-.451,1.078,1.078,0,0,1,.066-.49,1.338,1.338,0,0,1,.328-.49,1.552,1.552,0,0,1,.49-.328,1.451,1.451,0,0,1,.556-.109l6.1.092-3.328-3.332,1.222-1.223,4.108,4.107a1.642,1.642,0,0,1,.276.383,1.349,1.349,0,0,1,.131.455,1.036,1.036,0,0,1-.066.48,1.218,1.218,0,0,1-.324.486,1.317,1.317,0,0,1-.5.342,1.608,1.608,0,0,1-.539.1l-6.1-.1,3.332,3.332-1.222,1.227Zm-14.065-.074a3.2,3.2,0,0,1-.293-.355,1.114,1.114,0,0,1-.184-.412.886.886,0,0,1,.031-.449,1.208,1.208,0,0,1,.324-.482l.079-.078a1.448,1.448,0,0,1,.512-.348,1.792,1.792,0,0,1,.547-.1l3.341-.236.236-3.342a2,2,0,0,1,.105-.553,1.476,1.476,0,0,1,.35-.512l.074-.074a1.235,1.235,0,0,1,.482-.324.859.859,0,0,1,.451-.031,1.1,1.1,0,0,1,.412.186,3.209,3.209,0,0,1,.35.3l4.112,4.107-1.226,1.227-3.5-3.5-.219,2.934,2.141,2.146-1.217,1.217-2.141-2.145-2.934.223,3.5,3.5-1.222,1.223Zm-54.8-7.664a6.028,6.028,0,0,1-.714-.85,2.614,2.614,0,0,1-.433-.977,2.064,2.064,0,0,1,.07-1.086,2.922,2.922,0,0,1,.771-1.16l.184-.187a3.48,3.48,0,0,1,1.23-.824,4.668,4.668,0,0,1,1.318-.262l8.027-.561.56-8.027a4.477,4.477,0,0,1,.263-1.312,3.317,3.317,0,0,1,.823-1.23l.184-.189a2.949,2.949,0,0,1,1.165-.77,2.1,2.1,0,0,1,1.086-.066,2.65,2.65,0,0,1,.976.43,6.722,6.722,0,0,1,.849.713l9.857,9.857-2.934,2.938-8.4-8.4-.526,7.041,5.145,5.141-2.921,2.922-5.141-5.141-7.046.525,8.4,8.4-2.938,2.934Zm47.608,8.387a1.208,1.208,0,0,1-.438-.088,1.086,1.086,0,0,1-.407-.258l-3.2-3.2a1.173,1.173,0,0,1-.28-.43,1.113,1.113,0,0,1-.092-.469,1.138,1.138,0,0,1,.088-.459,1.259,1.259,0,0,1,.263-.395l4.2-4.189a1.307,1.307,0,0,1,.429-.289,1.336,1.336,0,0,1,.477-.105,1.139,1.139,0,0,1,.464.088,1.038,1.038,0,0,1,.4.254l3.2,3.205a1.153,1.153,0,0,1,.28.42,1.148,1.148,0,0,1,.1.469,1.187,1.187,0,0,1-.092.459,1.08,1.08,0,0,1-.263.395l-4.2,4.2a1.337,1.337,0,0,1-.429.289,1.24,1.24,0,0,1-.477.105Zm-2.518-4.467,2.575,2.574,3.525-3.525-2.575-2.574Zm-94.095,1.072,3.853-3.854-6.179-6.174-3.854,3.854-2.851-2.852,10.676-10.68,2.851,2.852-3.884,3.889,6.174,6.178,3.889-3.889,2.851,2.852-10.676,10.68Zm179.213-10.8a4.755,4.755,0,0,1-.613-2.426,3.462,3.462,0,0,1,1.156-2.359l3.547-3.547a3.733,3.733,0,0,1,2.417-1.213,4.531,4.531,0,0,1,2.47.568l12.677,6.84-3.258,3.258-3.648-2.053-5.382,5.377-2.172-3.529,3.9-3.9-4.239-2.412-3.293,3.293,6.516,11.543-3.258,3.258Zm141.3,9.705,3.853-3.85-6.179-6.18-3.849,3.854-2.855-2.85,10.676-10.676,2.851,2.85-3.884,3.885,6.174,6.18,3.889-3.885,2.851,2.85-10.676,10.672Zm-208.2-4.66a1.99,1.99,0,0,1-.258-1.012,1.423,1.423,0,0,1,.486-.98l1.476-1.48a1.558,1.558,0,0,1,1.007-.5,1.945,1.945,0,0,1,1.029.232l5.281,2.855-1.358,1.357-1.524-.857-2.242,2.242-.9-1.473,1.629-1.625-1.773-1-1.371,1.371,2.719,4.809-1.357,1.357Zm-9.152,2.619h-.031a1.185,1.185,0,0,1-.433-.088,1.191,1.191,0,0,1-.4-.262l-4.081-4.082,1.222-1.227,3.761,3.762,3.67-3.67,1.187,1.188-4.011,4.012a1.35,1.35,0,0,1-.42.283,1.227,1.227,0,0,1-.435.084Zm152.97-.771a2.848,2.848,0,0,1-1.068-.205,2.7,2.7,0,0,1-.959-.617l-7.689-7.689a2.985,2.985,0,0,1-.679-1.016,3.118,3.118,0,0,1-.219-1.121,2.774,2.774,0,0,1,.219-1.1,2.841,2.841,0,0,1,.631-.951l11.149-11.148,2.851,2.852-10.282,10.281,6.174,6.174,10.286-10.281,2.846,2.85-11.026,11.031a3.179,3.179,0,0,1-1.038.7,3.053,3.053,0,0,1-1.147.248Zm-296.95-9.248,3.88-3.879-3.88-3.883v-5.873l7.545,7.549a2.93,2.93,0,0,1,.679,1.016,3.025,3.025,0,0,1,.223,1.121,2.856,2.856,0,0,1-.223,1.1,2.783,2.783,0,0,1-.626.949l-7.6,7.6Zm160.129,1.012-2.373,2.369-1.187-1.182,5.96-5.965,1.187,1.188-2.365,2.363,3.762,3.766-1.222,1.223Zm214.293,1.1a2.708,2.708,0,0,1-.959-.619l-7.685-7.689a2.877,2.877,0,0,1-.679-1.016,3,3,0,0,1-.223-1.121,2.892,2.892,0,0,1,.223-1.1,2.783,2.783,0,0,1,.626-.949l9.275-9.275v5.7l-5.557,5.561,5.557,5.557v5.115A3.334,3.334,0,0,1,1363.491-17021.2Zm-264.528-13.816a4.771,4.771,0,0,1-.609-2.426,3.478,3.478,0,0,1,1.152-2.361l3.547-3.547a3.743,3.743,0,0,1,2.422-1.213,4.476,4.476,0,0,1,2.465.57l12.682,6.836-3.262,3.262-3.648-2.055-5.377,5.379-2.172-3.529,3.9-3.9-4.243-2.412-3.293,3.293,6.516,11.537-3.258,3.264Zm56.712,11.385,1.607-1.6-2.575-2.576-1.607,1.607-1.187-1.186,4.445-4.445,1.191,1.182-1.62,1.621,2.575,2.57,1.616-1.615,1.191,1.189-4.445,4.445Zm-105.187-2.719a2.924,2.924,0,0,1-1.06-.205,2.665,2.665,0,0,1-.959-.623l-7.689-7.686a2.874,2.874,0,0,1-.674-1.016,3,3,0,0,1-.219-1.121,2.773,2.773,0,0,1,.215-1.1,2.893,2.893,0,0,1,.631-.949l10.063-10.062a3.191,3.191,0,0,1,1.033-.7,3.224,3.224,0,0,1,1.147-.244,2.872,2.872,0,0,1,1.117.205,2.6,2.6,0,0,1,.959.617l7.689,7.689a2.933,2.933,0,0,1,.674,1.016,2.837,2.837,0,0,1,.228,1.121,2.884,2.884,0,0,1-.223,1.1,2.814,2.814,0,0,1-.63.951l-10.063,10.063a3.041,3.041,0,0,1-1.033.691,3,3,0,0,1-1.147.25Zm-6.043-10.715,6.179,6.174,8.451-8.451-6.174-6.18Zm181.113,1.111-5.7,5.7-2.851-2.85,14.306-14.307,2.851,2.852-5.666,5.67,9.025,9.029-2.934,2.934Zm-64.287,8.035a1.14,1.14,0,0,1-.4-.258l-3.2-3.205a1.223,1.223,0,0,1-.285-.42,1.3,1.3,0,0,1-.092-.465,1.078,1.078,0,0,1,.092-.465,1.187,1.187,0,0,1,.258-.389l4.195-4.2a1.25,1.25,0,0,1,.429-.289,1.257,1.257,0,0,1,.477-.105,1.262,1.262,0,0,1,.469.084,1.172,1.172,0,0,1,.4.258l3.2,3.2a1.2,1.2,0,0,1,.28.424,1.136,1.136,0,0,1,.092.469,1.137,1.137,0,0,1-.088.461,1.233,1.233,0,0,1-.263.4l-4.195,4.2a1.309,1.309,0,0,1-.434.283,1.229,1.229,0,0,1-.473.1c-.009,0-.017,0-.026,0A1.212,1.212,0,0,1,1161.271-17027.922Zm-2.076-4.383,2.575,2.574,3.521-3.516-2.575-2.574Zm-160.559,2.566a2.746,2.746,0,0,1-.95-.627l-8.618-8.617v-2.383l1.743-1.742,9.029,9.025,8.806-8.807,2.851,2.852-9.621,9.619a2.915,2.915,0,0,1-1.02.68,3,3,0,0,1-1.121.223A2.858,2.858,0,0,1,998.637-17029.738Zm165.594-8.289a1.413,1.413,0,0,1-.272-.377,1.186,1.186,0,0,1-.144-.451,1.128,1.128,0,0,1,.066-.486,1.362,1.362,0,0,1,.328-.49,1.5,1.5,0,0,1,.49-.328,1.546,1.546,0,0,1,.556-.109l6.1.092-3.328-3.328,1.222-1.223,4.112,4.1a1.746,1.746,0,0,1,.272.381,1.364,1.364,0,0,1,.136.451,1.186,1.186,0,0,1-.066.486,1.266,1.266,0,0,1-.32.486,1.32,1.32,0,0,1-.508.342,1.536,1.536,0,0,1-.543.1l-6.1-.092,3.332,3.332-1.222,1.223Zm141.409,3.082a3.015,3.015,0,0,1-1.011-.678l-3.311-3.311a2.843,2.843,0,0,1-.63-.955,2.831,2.831,0,0,1-.223-1.1,3.127,3.127,0,0,1,.223-1.125,2.985,2.985,0,0,1,.679-1.016l5.789-5.789-1.528-1.523-7.33,7.33-2.851-2.852,8.193-8.191a2.856,2.856,0,0,1,.95-.631,2.631,2.631,0,0,1,1.108-.219,2.914,2.914,0,0,1,1.121.219,2.908,2.908,0,0,1,1.016.674l3.035,3.039a2.841,2.841,0,0,1,.631.951,2.9,2.9,0,0,1,.219,1.1,3,3,0,0,1-.219,1.119,3.028,3.028,0,0,1-.683,1.021l-5.785,5.785,1.8,1.8,8.285-8.285,2.846,2.852-9.143,9.146a2.855,2.855,0,0,1-.95.631,2.9,2.9,0,0,1-1.1.223A3.039,3.039,0,0,1,1305.641-17034.945Zm-64.874-3.861,3.849-3.85-6.174-6.18-3.853,3.85-2.851-2.85,10.676-10.672,2.851,2.85-3.888,3.885,6.179,6.18,3.884-3.889,2.851,2.85-10.672,10.676Zm-125.339-11.215-5.706,5.7-2.851-2.852,14.306-14.3,2.855,2.85-5.671,5.666,9.029,9.031-2.938,2.938Zm-49.592,8.324a2.964,2.964,0,0,1-1.068-.2,2.677,2.677,0,0,1-.959-.623l-7.685-7.684a2.889,2.889,0,0,1-.679-1.021,3.062,3.062,0,0,1-.219-1.115,2.838,2.838,0,0,1,.215-1.1,2.935,2.935,0,0,1,.63-.951l11.153-11.152,2.851,2.85-10.286,10.287,6.179,6.174,10.282-10.281,2.851,2.85-11.031,11.031a3.14,3.14,0,0,1-1.033.7,3.03,3.03,0,0,1-1.147.246Zm-50.568-7.812,3.849-3.85-6.179-6.178-3.849,3.854-2.851-2.852,10.672-10.676,2.851,2.852-3.884,3.889,6.179,6.174,3.884-3.885,2.851,2.852-10.676,10.676Zm303.86,2.352a2.949,2.949,0,0,1-1.086-.2,2.661,2.661,0,0,1-.959-.621l-7.689-7.686a2.909,2.909,0,0,1-.674-1.016,3.032,3.032,0,0,1-.223-1.121,2.772,2.772,0,0,1,.219-1.1,2.894,2.894,0,0,1,.63-.951l7.094-7.094a3.1,3.1,0,0,1,1.033-.7,3.1,3.1,0,0,1,1.143-.246,3.058,3.058,0,0,1,1.121.2,2.64,2.64,0,0,1,.959.623l7.689,7.684a2.976,2.976,0,0,1,.679,1.021,3,3,0,0,1,.223,1.121,2.894,2.894,0,0,1-.223,1.1,2.942,2.942,0,0,1-.626.945l-7.094,7.094a3.133,3.133,0,0,1-1.038.7,3.029,3.029,0,0,1-1.147.244Zm-6.065-10.715,6.174,6.178,5.482-5.482-6.179-6.178Zm-58.126,9.318a3.021,3.021,0,0,1-1.082-.205,2.786,2.786,0,0,1-.955-.619l-7.689-7.689a2.909,2.909,0,0,1-.679-1.02,2.982,2.982,0,0,1-.219-1.117,2.871,2.871,0,0,1,.219-1.1,2.782,2.782,0,0,1,.626-.949l10.063-10.062a3.221,3.221,0,0,1,1.038-.7,3.074,3.074,0,0,1,1.143-.24,2.9,2.9,0,0,1,1.121.2,2.687,2.687,0,0,1,.959.621l7.689,7.686a2.992,2.992,0,0,1,.679,1.016,3.017,3.017,0,0,1,.219,1.121,2.85,2.85,0,0,1-.219,1.1,2.858,2.858,0,0,1-.631.949l-10.063,10.068a3.173,3.173,0,0,1-1.033.691,3.133,3.133,0,0,1-1.147.25Zm-6.06-10.721,6.179,6.18,8.451-8.451-6.179-6.18Zm-63.6.264-5.7,5.705-2.851-2.85,14.306-14.307,2.851,2.846-5.671,5.676,9.025,9.025-2.93,2.934Zm-54.641,6.139,3.854-3.854-6.179-6.174-3.854,3.85-2.851-2.852,10.676-10.676,2.851,2.852-3.884,3.889,6.174,6.174,3.889-3.885,2.851,2.852-10.676,10.676Zm-110.853-15.168a3.882,3.882,0,0,1-.661-.9,2.93,2.93,0,0,1-.328-1.076,2.64,2.64,0,0,1,.153-1.174,3.192,3.192,0,0,1,.788-1.178,3.518,3.518,0,0,1,1.178-.789,3.56,3.56,0,0,1,1.331-.262l14.648.219-8-7.992,2.938-2.934,9.861,9.857a3.541,3.541,0,0,1,.652.91,3.054,3.054,0,0,1,.32,1.082,2.631,2.631,0,0,1-.149,1.174,3.186,3.186,0,0,1-.775,1.16,3.378,3.378,0,0,1-1.213.822,3.666,3.666,0,0,1-1.3.229l-14.648-.215,7.992,7.992-2.934,2.934Zm176.419.885,2.938-2.939,4.786,4.787,8.416-8.416-6.174-6.174-11.355,11.354-2.851-2.855,12.1-12.1a3.164,3.164,0,0,1,1.029-.693,3.131,3.131,0,0,1,1.152-.248,2.938,2.938,0,0,1,1.112.205,2.76,2.76,0,0,1,.963.617l7.685,7.689a3.012,3.012,0,0,1,.679,1.016,3.054,3.054,0,0,1,.223,1.125,2.853,2.853,0,0,1-.223,1.1,2.888,2.888,0,0,1-.626.951l-12.217,12.217Zm135.511,7.488a3,3,0,0,1-1.121-.225,2.988,2.988,0,0,1-1.016-.678l-3.311-3.311a2.894,2.894,0,0,1-.63-.951,3.047,3.047,0,0,1-.215-1.1,3.009,3.009,0,0,1,.219-1.121,2.91,2.91,0,0,1,.679-1.016l5.785-5.789-1.524-1.523-7.335,7.33-2.846-2.85,8.2-8.2a2.933,2.933,0,0,1,.95-.631,2.839,2.839,0,0,1,1.1-.215,3.068,3.068,0,0,1,1.117.219,2.879,2.879,0,0,1,1.016.678l3.039,3.035a2.906,2.906,0,0,1,.63.951,3.074,3.074,0,0,1,.219,1.107,2.991,2.991,0,0,1-.223,1.117,2.961,2.961,0,0,1-.674,1.016l-5.789,5.789,1.8,1.795,8.281-8.275,2.851,2.846-9.148,9.152a2.932,2.932,0,0,1-.95.625,2.824,2.824,0,0,1-1.1.225Zm-246.246-2.908a3.007,3.007,0,0,1-1.016-.684l-3.31-3.311a2.958,2.958,0,0,1-.631-.949,2.928,2.928,0,0,1-.219-1.1,3.107,3.107,0,0,1,.219-1.121,3.059,3.059,0,0,1,.683-1.02l5.785-5.785-1.524-1.529-7.33,7.332-2.851-2.852,8.193-8.193a2.932,2.932,0,0,1,.95-.631,2.81,2.81,0,0,1,1.108-.219,3.068,3.068,0,0,1,1.117.219,2.938,2.938,0,0,1,1.016.68l3.039,3.035a2.9,2.9,0,0,1,.626.953,2.877,2.877,0,0,1,.223,1.1,2.989,2.989,0,0,1-.223,1.117,2.926,2.926,0,0,1-.679,1.02l-5.789,5.789,1.8,1.8,8.285-8.285,2.851,2.852-9.148,9.146a2.9,2.9,0,0,1-.95.631,3.016,3.016,0,0,1-1.1.223A3.034,3.034,0,0,1,1085.463-17062.576Zm59.339-.049a2.894,2.894,0,0,1-1.077-.205,2.651,2.651,0,0,1-.959-.617l-7.689-7.686a3.093,3.093,0,0,1-.679-1.02,3.076,3.076,0,0,1-.219-1.121,2.928,2.928,0,0,1,.219-1.1,2.925,2.925,0,0,1,.631-.955l10.063-10.062a3.186,3.186,0,0,1,1.033-.7,3.087,3.087,0,0,1,1.147-.246,2.945,2.945,0,0,1,1.121.205,2.681,2.681,0,0,1,.959.619l7.685,7.688a2.9,2.9,0,0,1,.679,1.018,3,3,0,0,1,.223,1.121,2.892,2.892,0,0,1-.223,1.1,2.781,2.781,0,0,1-.626.949l-10.063,10.063a3.148,3.148,0,0,1-1.038.7,3.119,3.119,0,0,1-1.143.244Zm-6.06-10.715,6.179,6.18,8.451-8.457-6.174-6.174Zm121.879.662a3.7,3.7,0,0,1-.661-.9,2.864,2.864,0,0,1-.333-1.078,2.663,2.663,0,0,1,.153-1.168,3.181,3.181,0,0,1,.788-1.184,3.488,3.488,0,0,1,1.182-.787,3.524,3.524,0,0,1,1.331-.264l14.643.219-7.992-7.99,2.934-2.939,9.861,9.861a3.511,3.511,0,0,1,.652.912,3.046,3.046,0,0,1,.324,1.086,2.681,2.681,0,0,1-.153,1.168,3.1,3.1,0,0,1-.771,1.16,3.439,3.439,0,0,1-1.213.828,3.846,3.846,0,0,1-1.3.229l-14.643-.225,7.992,8-2.934,2.934Zm80.454-.859,8.421-8.416-1.8-1.8-6.888,6.887-2.851-2.85,6.888-6.889-1.524-1.527-8.421,8.42-2.851-2.852,9.283-9.283a2.871,2.871,0,0,1,.95-.631,2.789,2.789,0,0,1,1.1-.219,3,3,0,0,1,1.121.225,2.879,2.879,0,0,1,1.016.674l7.685,7.689a2.688,2.688,0,0,1,.622.959,2.833,2.833,0,0,1,.2,1.117,2.921,2.921,0,0,1-.245,1.146,3.182,3.182,0,0,1-.692,1.033l-9.17,9.17Zm-305.769-9.826a3.032,3.032,0,0,1-.679-1.02,3.072,3.072,0,0,1-.219-1.117,2.933,2.933,0,0,1,.219-1.1,2.866,2.866,0,0,1,.63-.951l9.861-9.861,2.846,2.852-8.99,8.994,2.732,2.732,7.633-7.637,2.855,2.852-7.641,7.637,3.446,3.445-2.934,2.934Zm63.644,8.574a2.933,2.933,0,0,1-1.086-.2,2.776,2.776,0,0,1-.963-.623l-7.685-7.684a2.951,2.951,0,0,1-.679-1.021,3.062,3.062,0,0,1-.219-1.115,2.89,2.89,0,0,1,.215-1.109,3.006,3.006,0,0,1,.631-.945l7.094-7.094a3.221,3.221,0,0,1,1.038-.7,3.112,3.112,0,0,1,1.143-.24,2.937,2.937,0,0,1,1.121.2,2.768,2.768,0,0,1,.959.621l7.689,7.689a2.934,2.934,0,0,1,.674,1.016,2.967,2.967,0,0,1,.228,1.121,2.858,2.858,0,0,1-.228,1.1,2.791,2.791,0,0,1-.626.951l-7.094,7.094a3.112,3.112,0,0,1-1.038.7,3.047,3.047,0,0,1-1.143.246Zm-6.069-10.715,6.179,6.174,5.478-5.482-6.174-6.174Zm125.326,9.055a2.635,2.635,0,0,1-.959-.621l-9.809-9.8,2.934-2.934,9.025,9.029,7.571-7.576-9.029-9.025,2.938-2.937,9.756,9.76a3,3,0,0,1,.679,1.018,3.021,3.021,0,0,1,.223,1.125,2.914,2.914,0,0,1-.223,1.1,2.755,2.755,0,0,1-.63.945l-9.183,9.184a3.262,3.262,0,0,1-1.029.7,3.018,3.018,0,0,1-1.147.24.2.2,0,0,1-.057.006A2.775,2.775,0,0,1,1218.206-17076.449Zm-67.72-10.3a3.758,3.758,0,0,1-.661-.9,2.94,2.94,0,0,1-.328-1.076,2.691,2.691,0,0,1,.149-1.174,3.264,3.264,0,0,1,.793-1.178,3.547,3.547,0,0,1,1.178-.789,3.577,3.577,0,0,1,1.331-.262l14.648.219-8-7.992,2.938-2.934,9.861,9.857a3.582,3.582,0,0,1,.652.906,3.1,3.1,0,0,1,.32,1.086,2.634,2.634,0,0,1-.153,1.174,3.117,3.117,0,0,1-.771,1.16,3.379,3.379,0,0,1-1.213.822,3.666,3.666,0,0,1-1.3.229l-14.648-.219,7.992,8-2.934,2.934Zm139.019-.8,11.355-11.355-1.8-1.8-9.231,9.23a2.955,2.955,0,0,1-1.02.68,3,3,0,0,1-1.121.223,2.9,2.9,0,0,1-1.1-.223,2.83,2.83,0,0,1-.95-.627l-3.035-3.039a2.948,2.948,0,0,1-.679-1.016,3.024,3.024,0,0,1-.223-1.121,2.884,2.884,0,0,1,.223-1.1,2.829,2.829,0,0,1,.626-.951l10.895-10.895,2.851,2.852-10.028,10.027,1.524,1.529,9.235-9.232a2.947,2.947,0,0,1,1.016-.678,3.109,3.109,0,0,1,1.121-.219,2.966,2.966,0,0,1,1.1.219,2.841,2.841,0,0,1,.95.625l3.31,3.311a2.975,2.975,0,0,1,.679,1.021,3.068,3.068,0,0,1,.219,1.121,2.936,2.936,0,0,1-.219,1.1,2.858,2.858,0,0,1-.63.949l-12.217,12.223Zm-179.095.018a2.921,2.921,0,0,1-1.016-.674l-3.31-3.311a2.844,2.844,0,0,1-.631-.955,2.933,2.933,0,0,1-.219-1.1,3.012,3.012,0,0,1,.223-1.117,2.96,2.96,0,0,1,.674-1.016l5.789-5.789-1.528-1.523-7.33,7.33-2.851-2.852,8.2-8.2a2.912,2.912,0,0,1,.95-.629,2.757,2.757,0,0,1,1.1-.221,3.02,3.02,0,0,1,1.121.225,2.906,2.906,0,0,1,1.016.674l3.039,3.039a2.829,2.829,0,0,1,.626.951,2.987,2.987,0,0,1,.223,1.1,3.106,3.106,0,0,1-.223,1.121,2.974,2.974,0,0,1-.679,1.016l-5.785,5.783,1.8,1.8,8.281-8.281,2.851,2.852-9.148,9.146a2.856,2.856,0,0,1-.95.631,2.87,2.87,0,0,1-1.1.219A2.963,2.963,0,0,1,1110.41-17087.527Zm-52.687-.018a2.974,2.974,0,0,1-1.073-.205,2.707,2.707,0,0,1-.959-.619l-7.689-7.689a3.013,3.013,0,0,1-.679-1.02,3.066,3.066,0,0,1-.219-1.117,2.943,2.943,0,0,1,.219-1.1,2.86,2.86,0,0,1,.631-.949l10.063-10.062a3.13,3.13,0,0,1,1.033-.7,3.132,3.132,0,0,1,1.147-.25,3.041,3.041,0,0,1,1.121.207,2.743,2.743,0,0,1,.959.617l7.685,7.689a2.93,2.93,0,0,1,.679,1.016,3.019,3.019,0,0,1,.219,1.121,2.866,2.866,0,0,1-.219,1.1,2.791,2.791,0,0,1-.626.951l-10.063,10.066a3.192,3.192,0,0,1-1.038.691,3.213,3.213,0,0,1-1.143.25Zm-6.056-10.721,6.179,6.18,8.451-8.451-6.179-6.18Zm311.65,4.3a1.21,1.21,0,0,1-.28-.424,1.307,1.307,0,0,1-.1-.469,1.233,1.233,0,0,1,.1-.459,1.1,1.1,0,0,1,.258-.391l.775-.775v3.27Zm-361.224-9.252-5.706,5.7-2.851-2.85,14.31-14.307,2.851,2.846-5.671,5.672,9.025,9.029-2.934,2.934ZM1230.8-17106a2.948,2.948,0,0,1-.679-1.016,3.078,3.078,0,0,1-.223-1.117,2.874,2.874,0,0,1,.223-1.107,2.9,2.9,0,0,1,.626-.951l9.861-9.861,2.851,2.855-8.994,8.994,2.732,2.729,7.637-7.633,2.851,2.852-7.637,7.637,3.442,3.441-2.934,2.934Zm128.106,8.057,1.607-1.607-2.575-2.57-1.607,1.607-1.187-1.186,4.449-4.449,1.187,1.186-1.62,1.621,2.575,2.574,1.62-1.619.709.709v.955l-3.967,3.971Zm-238.013-3.223,8.421-8.42-1.8-1.8-6.892,6.893-2.851-2.85,6.892-6.893-1.528-1.525-8.416,8.418-2.855-2.852,9.283-9.283a2.947,2.947,0,0,1,.95-.631,2.869,2.869,0,0,1,1.1-.215,3.073,3.073,0,0,1,1.121.219,2.939,2.939,0,0,1,1.016.68l7.689,7.686a2.747,2.747,0,0,1,.622.963,2.9,2.9,0,0,1,.2,1.117,3.124,3.124,0,0,1-.245,1.146,3.165,3.165,0,0,1-.7,1.033l-9.165,9.166Zm58.472-.447,11.355-11.35-1.8-1.8-9.231,9.23a2.988,2.988,0,0,1-1.016.678,3.028,3.028,0,0,1-1.121.219,2.875,2.875,0,0,1-1.1-.219,2.841,2.841,0,0,1-.95-.625l-3.039-3.039a2.978,2.978,0,0,1-.679-1.021,3.064,3.064,0,0,1-.219-1.115,2.965,2.965,0,0,1,.219-1.1,2.784,2.784,0,0,1,.631-.951l10.891-10.895,2.855,2.85-10.032,10.029,1.528,1.527,9.231-9.23a2.955,2.955,0,0,1,1.02-.68,3,3,0,0,1,1.121-.223,2.9,2.9,0,0,1,1.1.223,2.831,2.831,0,0,1,.95.627l3.306,3.311a2.946,2.946,0,0,1,.679,1.016,3.034,3.034,0,0,1,.223,1.121,2.872,2.872,0,0,1-.223,1.1,2.829,2.829,0,0,1-.626.951l-12.217,12.217Zm128.26.363a2.893,2.893,0,0,1-1.077-.205,2.7,2.7,0,0,1-.959-.617l-7.689-7.689a3.036,3.036,0,0,1-.679-1.016,3.076,3.076,0,0,1-.219-1.121,2.928,2.928,0,0,1,.219-1.1,2.883,2.883,0,0,1,.63-.955l10.689-10.687,2.851,2.85-9.826,9.826,1.528,1.529,8.486-8.486,2.851,2.85-8.486,8.486,1.8,1.8,9.826-9.826,2.851,2.85-10.571,10.57a3.148,3.148,0,0,1-1.038.7,3.08,3.08,0,0,1-1.143.244Zm-244.113-10.32a2.932,2.932,0,0,1-.683-1.016,3.078,3.078,0,0,1-.219-1.121,2.965,2.965,0,0,1,.219-1.1,2.884,2.884,0,0,1,.631-.945l9.927-9.932a3.052,3.052,0,0,1,1.016-.68,3.028,3.028,0,0,1,1.121-.219,2.859,2.859,0,0,1,1.1.219,2.855,2.855,0,0,1,.95.631l3.5,3.494a3.04,3.04,0,0,1,.679,1.021,3.064,3.064,0,0,1,.219,1.115,2.95,2.95,0,0,1-.219,1.1,2.829,2.829,0,0,1-.631.951l-1.152,1.156,7.466.914-3.529,3.529-7.571-.814-2.916,2.922-2.851-2.855,6.84-6.836-1.988-1.988-8.245,8.25,9.025,9.029-2.934,2.934Zm297.418,5.768a1.413,1.413,0,0,1-.271-.377,1.094,1.094,0,0,1-.145-.451,1.128,1.128,0,0,1,.066-.486,1.323,1.323,0,0,1,.333-.49,1.363,1.363,0,0,1,.486-.324,1.556,1.556,0,0,1,.561-.113l2.106.031v1.781l-1.134-.018,1.134,1.135v2.443Zm-347.916-5.557,2.938-2.939,4.786,4.787,8.416-8.416-6.174-6.18-11.355,11.355-2.851-2.852,12.1-12.1a3.281,3.281,0,0,1,1.033-.7,3.228,3.228,0,0,1,1.147-.246,3,3,0,0,1,1.117.207,2.626,2.626,0,0,1,.959.617l7.689,7.689a2.915,2.915,0,0,1,.674,1.016,2.967,2.967,0,0,1,.228,1.121,2.855,2.855,0,0,1-.223,1.1,2.858,2.858,0,0,1-.626.949l-12.222,12.219Zm339.036,6.135,4.729-4.73-.749-.748-3.845,3.844a1.209,1.209,0,0,1-.425.285,1.267,1.267,0,0,1-.469.092,1.169,1.169,0,0,1-.455-.092,1.123,1.123,0,0,1-.4-.262l-1.266-1.266a1.158,1.158,0,0,1-.28-.426,1.169,1.169,0,0,1-.1-.463,1.154,1.154,0,0,1,.092-.465,1.207,1.207,0,0,1,.263-.391l4.541-4.541,1.182,1.188-4.173,4.178.635.635,3.849-3.846a1.239,1.239,0,0,1,.42-.283,1.347,1.347,0,0,1,.464-.088,1.082,1.082,0,0,1,.464.092,1.165,1.165,0,0,1,.4.262l1.375,1.375a1.127,1.127,0,0,1,.28.426,1.192,1.192,0,0,1,.092.469,1.08,1.08,0,0,1-.088.455,1.173,1.173,0,0,1-.263.4l-5.093,5.088Zm-101.99-6.219,3.853-3.854-6.179-6.178-3.853,3.854-2.851-2.852,10.68-10.676,2.851,2.846-3.888,3.889,6.179,6.18,3.888-3.889,2.846,2.85-10.676,10.676Zm109.675.367a1.173,1.173,0,0,1-.442-.088.983.983,0,0,1-.4-.258l-3.2-3.2a1.19,1.19,0,0,1-.28-.426,1.21,1.21,0,0,1-.1-.469,1.187,1.187,0,0,1,.092-.459,1.2,1.2,0,0,1,.263-.395l4.646-4.646,1.187,1.188-4.287,4.281,2.575,2.576,4.274-4.27v2.369l-3.4,3.4a1.417,1.417,0,0,1-.429.293,1.368,1.368,0,0,1-.477.1Zm-40.978-5.727,11.355-11.355-1.8-1.795-9.231,9.23a2.915,2.915,0,0,1-1.02.68,3,3,0,0,1-1.117.223,2.864,2.864,0,0,1-1.1-.223,2.788,2.788,0,0,1-.95-.627l-3.039-3.039a2.93,2.93,0,0,1-.679-1.016,3.017,3.017,0,0,1-.219-1.121,2.864,2.864,0,0,1,.219-1.1,2.791,2.791,0,0,1,.626-.951l10.895-10.9,2.851,2.855-10.028,10.027,1.528,1.529,9.231-9.236a2.952,2.952,0,0,1,1.02-.674,3,3,0,0,1,1.117-.223,2.863,2.863,0,0,1,1.1.223,2.759,2.759,0,0,1,.95.627l3.31,3.309a2.961,2.961,0,0,1,.679,1.018,3,3,0,0,1,.223,1.121,2.9,2.9,0,0,1-.223,1.1,2.846,2.846,0,0,1-.626.949l-12.222,12.217Zm-121.271,1.488a3.074,3.074,0,0,1-1.073-.2,2.768,2.768,0,0,1-.959-.621l-7.685-7.689a2.9,2.9,0,0,1-.679-1.018,3,3,0,0,1-.223-1.121,2.9,2.9,0,0,1,.223-1.1,2.783,2.783,0,0,1,.626-.949l10.693-10.693,2.851,2.855-9.826,9.826,1.528,1.523,8.486-8.482,2.851,2.852-8.486,8.486,1.8,1.795,9.822-9.826,2.855,2.852-10.575,10.574a3.13,3.13,0,0,1-1.033.7,3.123,3.123,0,0,1-1.147.244Zm-118.6-11.832a6.028,6.028,0,0,1-.714-.85,2.67,2.67,0,0,1-.433-.977,2.066,2.066,0,0,1,.07-1.086,2.935,2.935,0,0,1,.771-1.16l.184-.184a3.442,3.442,0,0,1,1.23-.828,4.809,4.809,0,0,1,1.318-.262l8.027-.557.56-8.031a4.5,4.5,0,0,1,.263-1.314,3.348,3.348,0,0,1,.823-1.23l.184-.187a2.977,2.977,0,0,1,1.165-.771,2.167,2.167,0,0,1,1.086-.068,2.687,2.687,0,0,1,.976.432,6.737,6.737,0,0,1,.849.715l9.857,9.861-2.934,2.934-8.4-8.4-.526,7.041,5.145,5.141-2.921,2.922-5.141-5.141-7.046.525,8.4,8.4-2.938,2.938Zm67.125,8.43,4.729-4.729-.749-.75-3.845,3.846a1.257,1.257,0,0,1-.425.283,1.18,1.18,0,0,1-.469.094,1.281,1.281,0,0,1-.455-.088,1.208,1.208,0,0,1-.4-.268l-1.266-1.266a1.332,1.332,0,0,1-.285-.42,1.3,1.3,0,0,1-.092-.469,1.148,1.148,0,0,1,.1-.461,1.047,1.047,0,0,1,.258-.393l4.541-4.541,1.187,1.186-4.177,4.178.635.635,3.849-3.844a1.337,1.337,0,0,1,.42-.285,1.267,1.267,0,0,1,.469-.088,1.207,1.207,0,0,1,.46.088,1.277,1.277,0,0,1,.4.264l1.379,1.383a1.181,1.181,0,0,1,.28.426,1.134,1.134,0,0,1,.088.459,1.086,1.086,0,0,1-.088.459,1.256,1.256,0,0,1-.258.4l-5.093,5.088Zm214.945-2.93,1.222-1.227,1.822,1.822.066-.066v2.58Zm-324.879,1.2a2.8,2.8,0,0,1-1.06-.2,2.743,2.743,0,0,1-.959-.617l-9.809-9.809,2.934-2.934,9.029,9.023,7.571-7.57-9.029-9.025,2.938-2.937,9.756,9.756a3.026,3.026,0,0,1,.679,1.02,3.038,3.038,0,0,1,.223,1.127,2.877,2.877,0,0,1-.223,1.1,2.967,2.967,0,0,1-.631.955l-9.183,9.178a3.133,3.133,0,0,1-1.033.693,2.992,2.992,0,0,1-1.147.244Zm102.651-5.123,1.6-1.607-2.57-2.57-1.607,1.607-1.187-1.191,4.449-4.445,1.187,1.188-1.62,1.621,2.571,2.574,1.62-1.625,1.191,1.191-4.445,4.449Zm14.976,1.008a1.277,1.277,0,0,1-.451-.088,1.084,1.084,0,0,1-.4-.25l-3.2-3.205a1.207,1.207,0,0,1-.285-.43,1.171,1.171,0,0,1-.092-.465,1.209,1.209,0,0,1,.092-.459,1.15,1.15,0,0,1,.263-.395l4.458-4.457,1.187,1.188-4.1,4.1.639.635,3.534-3.533,1.187,1.182-3.534,3.539.749.748,4.094-4.094,1.191,1.191-4.405,4.4a1.337,1.337,0,0,1-.429.289,1.416,1.416,0,0,1-.482.1Zm116.962-3.078a2.846,2.846,0,0,1-1.064-.207,2.7,2.7,0,0,1-.959-.617l-7.685-7.689a2.946,2.946,0,0,1-.679-1.016,3.1,3.1,0,0,1-.219-1.121,2.859,2.859,0,0,1,.215-1.1,2.969,2.969,0,0,1,.63-.951l10.063-10.062a3.223,3.223,0,0,1,1.038-.691,3.13,3.13,0,0,1,1.143-.25,2.91,2.91,0,0,1,1.117.207,2.68,2.68,0,0,1,.963.617l7.685,7.689a2.992,2.992,0,0,1,.679,1.016,2.945,2.945,0,0,1,.228,1.121,2.961,2.961,0,0,1-.223,1.1,2.942,2.942,0,0,1-.631.949l-10.067,10.063a3.206,3.206,0,0,1-1.033.7,3.108,3.108,0,0,1-1.147.246Zm-6.047-10.717,6.179,6.18,8.451-8.457-6.174-6.178Zm-55.994,7.492,11.355-11.35-1.8-1.8-9.235,9.236a2.947,2.947,0,0,1-1.016.678,3.092,3.092,0,0,1-1.121.219,2.967,2.967,0,0,1-1.1-.219,2.856,2.856,0,0,1-.95-.631l-3.039-3.033a3.079,3.079,0,0,1-.679-1.021,3.084,3.084,0,0,1-.219-1.121,2.919,2.919,0,0,1,.219-1.1,2.866,2.866,0,0,1,.63-.951l10.895-10.895,2.851,2.846-10.032,10.033,1.528,1.527,9.235-9.23a2.992,2.992,0,0,1,1.016-.684,3.091,3.091,0,0,1,1.121-.219,2.967,2.967,0,0,1,1.1.219,2.886,2.886,0,0,1,.95.631l3.311,3.311a3.038,3.038,0,0,1,.679,1.016,3.115,3.115,0,0,1,.219,1.121,2.963,2.963,0,0,1-.219,1.1,2.909,2.909,0,0,1-.631.951l-12.217,12.217Zm-67.874-2.57a1.427,1.427,0,0,1-.276-.371,1.177,1.177,0,0,1-.14-.451,1.056,1.056,0,0,1,.066-.486,1.329,1.329,0,0,1,.328-.49,1.445,1.445,0,0,1,.49-.328,1.451,1.451,0,0,1,.556-.109l6.1.092-3.328-3.328,1.222-1.227,4.107,4.107a1.447,1.447,0,0,1,.276.381,1.348,1.348,0,0,1,.136.451,1.188,1.188,0,0,1-.066.486,1.311,1.311,0,0,1-.32.486,1.425,1.425,0,0,1-.508.342,1.554,1.554,0,0,1-.543.1l-6.1-.1,3.332,3.336-1.226,1.223Zm193.484,1.16,11.35-11.354-1.8-1.8-9.235,9.236a2.947,2.947,0,0,1-1.016.678,3.091,3.091,0,0,1-1.121.219,2.967,2.967,0,0,1-1.1-.219,2.851,2.851,0,0,1-.95-.629l-3.039-3.035a3.08,3.08,0,0,1-.679-1.021,3.084,3.084,0,0,1-.219-1.121,2.978,2.978,0,0,1,.219-1.1,2.921,2.921,0,0,1,.631-.949l10.895-10.895,2.851,2.85L1331-17141.393l1.524,1.523,9.235-9.227a2.937,2.937,0,0,1,1.016-.684,3.091,3.091,0,0,1,1.121-.219,2.967,2.967,0,0,1,1.1.219,2.875,2.875,0,0,1,.95.627l3.306,3.311a2.961,2.961,0,0,1,.679,1.02,2.994,2.994,0,0,1,.223,1.121,2.851,2.851,0,0,1-.223,1.1,2.805,2.805,0,0,1-.626.955l-12.217,12.217Zm-175.754,1.092,4.729-4.73-.749-.748-3.845,3.84a1.142,1.142,0,0,1-.42.285,1.114,1.114,0,0,1-.469.092,1.072,1.072,0,0,1-.455-.088,1.184,1.184,0,0,1-.4-.262l-1.266-1.266a1.2,1.2,0,0,1-.28-.43,1.154,1.154,0,0,1-.092-.465,1.211,1.211,0,0,1,.092-.459,1.133,1.133,0,0,1,.263-.395l4.537-4.541,1.191,1.191-4.182,4.178.635.639,3.849-3.85a1.174,1.174,0,0,1,.42-.279,1.134,1.134,0,0,1,.473-.092,1.189,1.189,0,0,1,.455.092,1.091,1.091,0,0,1,.4.264l1.379,1.379a1.192,1.192,0,0,1,.28.42,1.246,1.246,0,0,1,.092.465,1.118,1.118,0,0,1-.092.459,1.143,1.143,0,0,1-.258.4l-5.093,5.094Zm-169.417-5.119,8.578-8.578,2.851,2.85-9.621,9.621a3.005,3.005,0,0,1-1.02.678,3.075,3.075,0,0,1-.788.205Zm142.806,3.451,4.729-4.734-.749-.748-3.845,3.848a1.279,1.279,0,0,1-.429.285,1.267,1.267,0,0,1-.464.092,1.291,1.291,0,0,1-.46-.092,1.1,1.1,0,0,1-.4-.268l-1.261-1.26a1.283,1.283,0,0,1-.285-.426,1.276,1.276,0,0,1-.092-.469,1.146,1.146,0,0,1,.092-.459,1.235,1.235,0,0,1,.258-.395l4.541-4.537,1.187,1.188-4.177,4.178.639.635,3.849-3.846a1.2,1.2,0,0,1,.42-.283,1.357,1.357,0,0,1,.464-.094,1.231,1.231,0,0,1,.464.094,1.206,1.206,0,0,1,.394.262l1.379,1.375a1.106,1.106,0,0,1,.276.43,1.1,1.1,0,0,1,.1.463,1.123,1.123,0,0,1-.092.461,1.114,1.114,0,0,1-.263.395l-5.088,5.092Zm-32.912-14.162a4.771,4.771,0,0,1-.609-2.426,3.467,3.467,0,0,1,1.152-2.361l3.547-3.547a3.752,3.752,0,0,1,2.422-1.213,4.493,4.493,0,0,1,2.465.57l12.682,6.84-3.262,3.258-3.648-2.055-5.377,5.377-2.172-3.529,3.9-3.9-4.243-2.408-3.293,3.287,6.516,11.543-3.258,3.258Zm48.4,7.059a1.109,1.109,0,0,1-.276-.43,1.111,1.111,0,0,1-.1-.463,1.123,1.123,0,0,1,.092-.461,1.114,1.114,0,0,1,.263-.4l4.107-4.1,1.187,1.188-3.748,3.744,1.139,1.139,3.183-3.184,1.187,1.191-3.179,3.184,1.436,1.436-1.226,1.223Zm17.713,2.18,4.729-4.729-.749-.748-3.845,3.844a1.307,1.307,0,0,1-.425.285,1.244,1.244,0,0,1-.464.088,1.1,1.1,0,0,1-.455-.088,1.122,1.122,0,0,1-.4-.264l-1.266-1.266a1.207,1.207,0,0,1-.28-.424,1.192,1.192,0,0,1-.092-.469,1.259,1.259,0,0,1,.088-.455,1.222,1.222,0,0,1,.263-.4l4.541-4.541,1.191,1.191-4.182,4.178.635.639,3.849-3.85a1.284,1.284,0,0,1,.42-.283,1.1,1.1,0,0,1,.473-.088,1.223,1.223,0,0,1,.455.088,1.225,1.225,0,0,1,.4.262l1.379,1.385a1.125,1.125,0,0,1,.28.424,1.212,1.212,0,0,1,.092.459,1.2,1.2,0,0,1-.092.461,1.163,1.163,0,0,1-.258.4l-5.093,5.092Zm-25.516-.932a1.206,1.206,0,0,1-.442-.084,1.069,1.069,0,0,1-.4-.258l-3.2-3.2a1.165,1.165,0,0,1-.28-.424,1.193,1.193,0,0,1-.092-.465,1.16,1.16,0,0,1,.092-.465,1.109,1.109,0,0,1,.263-.389l4.646-4.646,1.182,1.182-4.283,4.287,2.57,2.576,4.287-4.287,1.187,1.186-4.6,4.6a1.247,1.247,0,0,1-.425.289,1.272,1.272,0,0,1-.482.1Zm-91.94-11.494a2.864,2.864,0,0,1-.674-1.018,2.986,2.986,0,0,1-.223-1.119,2.772,2.772,0,0,1,.223-1.1,2.829,2.829,0,0,1,.626-.951l9.861-9.861,2.846,2.855-8.99,8.99,2.732,2.736,7.637-7.637,2.851,2.846-7.637,7.641,3.442,3.443-2.938,2.938Zm109.22,8.359a1.189,1.189,0,0,1-.438-.088,1.059,1.059,0,0,1-.4-.254l-3.205-3.205a1.17,1.17,0,0,1-.276-.426,1.125,1.125,0,0,1-.1-.469,1.1,1.1,0,0,1,.092-.455,1.113,1.113,0,0,1,.263-.4l4.2-4.191a1.364,1.364,0,0,1,.429-.293,1.347,1.347,0,0,1,.477-.1,1.136,1.136,0,0,1,.464.086,1.051,1.051,0,0,1,.4.26l3.2,3.2a1.172,1.172,0,0,1,.28.43,1.18,1.18,0,0,1,.1.465,1.119,1.119,0,0,1-.1.459,1.137,1.137,0,0,1-.258.4l-4.191,4.2a1.411,1.411,0,0,1-.434.285,1.424,1.424,0,0,1-.477.105Zm-2.518-4.467,2.575,2.574,3.521-3.525-2.57-2.574Zm17.135,2.154,1.6-1.6-2.57-2.574-1.6,1.607-1.191-1.191,4.449-4.445,1.187,1.188-1.62,1.619,2.575,2.576,1.62-1.621,1.187,1.191-4.445,4.445Zm113.494.967a2.634,2.634,0,0,1-.959-.621l-7.689-7.686a2.985,2.985,0,0,1-.679-1.016,3.11,3.11,0,0,1-.219-1.121,2.774,2.774,0,0,1,.219-1.1,2.8,2.8,0,0,1,.631-.949l11.149-11.154,2.851,2.855-10.282,10.281,6.174,6.176,10.286-10.283,2.846,2.852-11.026,11.029a3.242,3.242,0,0,1-1.038.7,2.937,2.937,0,0,1-1.147.244.188.188,0,0,1-.057.006A2.885,2.885,0,0,1,1284.95-17143.193Zm-60.846-3.152,11.355-11.354-1.8-1.8-9.231,9.23a2.955,2.955,0,0,1-1.02.68,3,3,0,0,1-1.117.223,2.864,2.864,0,0,1-1.1-.223,2.788,2.788,0,0,1-.95-.627l-3.039-3.039a2.928,2.928,0,0,1-.679-1.016,3.019,3.019,0,0,1-.219-1.121,2.888,2.888,0,0,1,.219-1.1,2.783,2.783,0,0,1,.626-.949l10.895-10.9,2.851,2.852-10.028,10.027,1.528,1.529,9.231-9.232a2.936,2.936,0,0,1,1.02-.678,3.069,3.069,0,0,1,1.117-.219,2.933,2.933,0,0,1,1.1.219,2.788,2.788,0,0,1,.95.627l3.31,3.311a2.952,2.952,0,0,1,.679,1.02,2.99,2.99,0,0,1,.219,1.121,2.869,2.869,0,0,1-.219,1.1,2.849,2.849,0,0,1-.626.949l-12.222,12.223Zm-83.327-2.937,1.226-1.227,1.822,1.826,3.438-3.434-1.826-1.826,1.226-1.227,4.944,4.949-1.222,1.221-1.935-1.936-3.437,3.438,1.935,1.936-1.222,1.223Zm208.429,2.035,3.853-3.854-6.179-6.178-3.853,3.854-2.851-2.852,10.676-10.676,2.851,2.852-3.888,3.889,6.179,6.178,3.888-3.889,2.851,2.852-10.676,10.676ZM1159.4-17152a1.19,1.19,0,0,1-.28-.426,1.21,1.21,0,0,1-.1-.469,1.137,1.137,0,0,1,.1-.459,1.07,1.07,0,0,1,.258-.395l4.138-4.133a1.233,1.233,0,0,1,.42-.285,1.193,1.193,0,0,1,.469-.092,1.191,1.191,0,0,1,.46.092,1.149,1.149,0,0,1,.4.262l1.454,1.455a1.236,1.236,0,0,1,.28.424,1.194,1.194,0,0,1,.1.465,1.241,1.241,0,0,1-.092.465,1.133,1.133,0,0,1-.263.389l-.482.486,3.114.381-1.471,1.471-3.157-.342-1.213,1.213-1.187-1.186,2.846-2.846-.828-.824-3.433,3.434,3.761,3.762-1.222,1.221Zm18.1,3.635a1.23,1.23,0,0,1-.447-.084,1.146,1.146,0,0,1-.4-.254l-3.2-3.205a1.227,1.227,0,0,1-.285-.426,1.1,1.1,0,0,1-.092-.469,1.115,1.115,0,0,1,.092-.455,1.113,1.113,0,0,1,.263-.4l4.191-4.2a1.31,1.31,0,0,1,.434-.289,1.446,1.446,0,0,1,.477-.1,1.242,1.242,0,0,1,.464.086,1.216,1.216,0,0,1,.4.264l3.2,3.205a1.29,1.29,0,0,1,.285.42,1.249,1.249,0,0,1,.088.465,1.064,1.064,0,0,1-.092.459,1.083,1.083,0,0,1-.254.395l-4.195,4.2a1.338,1.338,0,0,1-.429.289,1.415,1.415,0,0,1-.482.1Zm-2.522-4.463,2.575,2.57,3.521-3.516-2.575-2.576Zm-170.713,1.318,3.854-3.85-6.174-6.178-3.854,3.852-2.851-2.85,10.672-10.676,2.851,2.85-3.884,3.885,6.179,6.18,3.884-3.885,2.851,2.846-10.672,10.676Zm147.96.131a1.168,1.168,0,0,1-.442-.084,1.12,1.12,0,0,1-.4-.258l-3.2-3.2a1.134,1.134,0,0,1-.28-.424,1.269,1.269,0,0,1-.092-.465,1.145,1.145,0,0,1,.092-.465,1.075,1.075,0,0,1,.263-.389l4.191-4.2a1.309,1.309,0,0,1,.433-.289,1.237,1.237,0,0,1,.473-.105,1.193,1.193,0,0,1,.469.088,1.044,1.044,0,0,1,.4.254l3.205,3.2a1.173,1.173,0,0,1,.28.43,1.164,1.164,0,0,1,.092.463,1.147,1.147,0,0,1-.088.457,1.165,1.165,0,0,1-.267.4l-4.191,4.193a1.37,1.37,0,0,1-.429.289,1.268,1.268,0,0,1-.477.1Zm-2.518-4.463,2.57,2.576,3.525-3.525-2.575-2.57Zm-82.823.189,3.854-3.857-6.179-6.176-3.854,3.854-2.851-2.85,10.68-10.682,2.846,2.852-3.884,3.889,6.179,6.174,3.884-3.883,2.851,2.85-10.676,10.676Zm48.545-6.371-5.706,5.7-2.851-2.852,14.306-14.3,2.855,2.85-5.671,5.666,9.029,9.029-2.938,2.939Zm64.585,3.467a1.425,1.425,0,0,1-.276-.371,1.275,1.275,0,0,1-.136-.451,1.12,1.12,0,0,1,.061-.49,1.378,1.378,0,0,1,.333-.49,1.558,1.558,0,0,1,.49-.33,1.429,1.429,0,0,1,.552-.109l6.1.092-3.332-3.332,1.226-1.221,4.107,4.107a1.5,1.5,0,0,1,.271.381,1.48,1.48,0,0,1,.136.455,1.144,1.144,0,0,1-.07.486,1.249,1.249,0,0,1-.32.482,1.36,1.36,0,0,1-.508.34,1.432,1.432,0,0,1-.534.1l-6.109-.092,3.337,3.336-1.226,1.223Zm-14.065-.078a2.56,2.56,0,0,1-.293-.35,1.131,1.131,0,0,1-.184-.412.845.845,0,0,1,.031-.451,1.159,1.159,0,0,1,.32-.482l.079-.078a1.391,1.391,0,0,1,.512-.346,1.677,1.677,0,0,1,.547-.105l3.346-.236.236-3.346a1.659,1.659,0,0,1,.105-.543,1.389,1.389,0,0,1,.346-.518l.079-.074a1.129,1.129,0,0,1,.482-.324.855.855,0,0,1,.451-.029,1.1,1.1,0,0,1,.412.184,2.808,2.808,0,0,1,.346.3l4.112,4.107-1.222,1.223-3.5-3.5-.223,2.934,2.146,2.145-1.217,1.219-2.146-2.146-2.934.219,3.5,3.5-1.226,1.221Zm197.429,1.633a2.968,2.968,0,0,1-1.077-.2,2.815,2.815,0,0,1-.959-.617l-7.689-7.689a3.091,3.091,0,0,1-.679-1.02,3.084,3.084,0,0,1-.219-1.121,2.928,2.928,0,0,1,.219-1.1,2.883,2.883,0,0,1,.63-.955l10.063-10.062a3.406,3.406,0,0,1,.4-.346v5.645l-6.752,6.752,6.179,6.174.574-.572v5.029a2.75,2.75,0,0,1-.648.084Zm-204.624-.91a1.27,1.27,0,0,1-.438-.084,1.118,1.118,0,0,1-.4-.258l-3.2-3.2a1.2,1.2,0,0,1-.28-.424,1.193,1.193,0,0,1-.092-.465,1.147,1.147,0,0,1,.092-.465,1.076,1.076,0,0,1,.263-.389l4.191-4.2a1.311,1.311,0,0,1,.434-.289,1.239,1.239,0,0,1,.477-.105,1.171,1.171,0,0,1,.464.088,1.012,1.012,0,0,1,.4.254l3.205,3.2a1.17,1.17,0,0,1,.28.43,1.164,1.164,0,0,1,.092.463,1.074,1.074,0,0,1-.088.455,1.156,1.156,0,0,1-.267.4l-4.191,4.189a1.318,1.318,0,0,1-.429.293,1.267,1.267,0,0,1-.477.1Zm-2.513-4.463,2.57,2.576,3.525-3.525-2.575-2.576Zm82.832,1.061,3.854-3.854-6.174-6.18-3.854,3.854-2.851-2.85,10.672-10.676,2.851,2.85-3.884,3.885,6.179,6.178,3.884-3.883,2.851,2.85-10.672,10.672Zm-230.293-8.727a4.009,4.009,0,0,1-.661-.9,2.957,2.957,0,0,1-.328-1.082,2.626,2.626,0,0,1,.153-1.17,3.177,3.177,0,0,1,.788-1.178,3.542,3.542,0,0,1,1.178-.787,3.471,3.471,0,0,1,1.331-.268l14.648.223-7.992-7.99,2.934-2.939,9.857,9.861a3.462,3.462,0,0,1,.657.906,3.227,3.227,0,0,1,.324,1.086,2.692,2.692,0,0,1-.153,1.174,3.146,3.146,0,0,1-.775,1.16,3.438,3.438,0,0,1-1.213.824,3.71,3.71,0,0,1-1.3.229l-14.648-.221,8,7.992-2.938,2.939Zm165.678,2.986a1.945,1.945,0,0,1-.254-1.012,1.467,1.467,0,0,1,.482-.986l1.476-1.475a1.574,1.574,0,0,1,1.007-.508,1.916,1.916,0,0,1,1.029.24l5.281,2.85-1.358,1.357-1.52-.857-2.242,2.242-.906-1.471,1.629-1.625-1.769-1-1.371,1.367,2.715,4.813-1.353,1.357Zm-43.825,2.18,3.854-3.854-6.179-6.174-3.854,3.85-2.851-2.852,10.676-10.676,2.851,2.855-3.884,3.883,6.174,6.18,3.889-3.889,2.851,2.852-10.676,10.676Zm175.009,1a3.05,3.05,0,0,1-1.011-.68l-3.311-3.311a2.858,2.858,0,0,1-.63-.949,2.894,2.894,0,0,1-.223-1.1,3.111,3.111,0,0,1,.223-1.125,2.951,2.951,0,0,1,.679-1.021l5.789-5.785-1.528-1.527-7.33,7.33-2.851-2.846,8.193-8.193a2.9,2.9,0,0,1,.95-.635,2.752,2.752,0,0,1,1.108-.215,3.022,3.022,0,0,1,1.121.215,2.975,2.975,0,0,1,1.016.678l3.035,3.035a2.9,2.9,0,0,1,.631.955,2.866,2.866,0,0,1,.219,1.1,3,3,0,0,1-.219,1.121,3.064,3.064,0,0,1-.683,1.016l-5.785,5.789,1.8,1.8,8.285-8.283,2.846,2.85-9.143,9.148a2.916,2.916,0,0,1-.95.631,2.9,2.9,0,0,1-1.1.223A3.039,3.039,0,0,1,1305.641-17163.869Zm-140.8-.654a1.209,1.209,0,0,1-.4-.262l-4.081-4.082,1.222-1.225,3.761,3.762,3.67-3.67,1.187,1.182-4.011,4.016a1.228,1.228,0,0,1-.42.279,1.14,1.14,0,0,1-.469.088c0,.006-.013.006-.022.006A1.158,1.158,0,0,1,1164.844-17164.523Zm16.609-8.924-2.373,2.373-1.187-1.186,5.96-5.961,1.187,1.188-2.365,2.365,3.766,3.762-1.222,1.225Zm71.793,2.383a3.021,3.021,0,0,1-1.082-.205,2.708,2.708,0,0,1-.959-.619l-7.685-7.689a2.877,2.877,0,0,1-.679-1.016,3,3,0,0,1-.223-1.121,2.891,2.891,0,0,1,.223-1.1,2.783,2.783,0,0,1,.626-.949l10.063-10.062a3.149,3.149,0,0,1,1.038-.7l.089-.035h2.186a2.693,2.693,0,0,1,.948.613l7.689,7.689a2.972,2.972,0,0,1,.679,1.016,3.076,3.076,0,0,1,.219,1.121,2.963,2.963,0,0,1-.219,1.1,2.906,2.906,0,0,1-.63.951l-10.063,10.063a3.185,3.185,0,0,1-1.033.7,3.087,3.087,0,0,1-1.147.246Zm-6.061-10.715,6.179,6.174,8.451-8.451-6.179-6.174Zm-159.692,9.926a2.848,2.848,0,0,1-1.068-.205,2.7,2.7,0,0,1-.959-.617l-7.689-7.689a2.909,2.909,0,0,1-.674-1.016,3.019,3.019,0,0,1-.223-1.121,2.852,2.852,0,0,1,.219-1.1,2.921,2.921,0,0,1,.631-.951l10.006-10.006h4.489l7.514,7.514a2.924,2.924,0,0,1,.674,1.018,2.845,2.845,0,0,1,.228,1.121,2.879,2.879,0,0,1-.223,1.1,2.826,2.826,0,0,1-.631.949l-10.063,10.063a3.075,3.075,0,0,1-1.033.693,3.035,3.035,0,0,1-1.147.248Zm-6.052-10.715,6.179,6.174,8.451-8.451-6.174-6.174Zm106.487,7.791,1.607-1.6-2.57-2.574-1.607,1.607-1.187-1.187,4.445-4.449,1.187,1.188-1.616,1.615,2.575,2.574,1.616-1.615,1.191,1.191-4.449,4.443Zm-43.133.152a2.97,2.97,0,0,1-1.073-.2,2.815,2.815,0,0,1-.959-.617l-7.689-7.689a3.08,3.08,0,0,1-.679-1.021,3.061,3.061,0,0,1-.219-1.115,2.933,2.933,0,0,1,.219-1.1,2.885,2.885,0,0,1,.631-.955l7.237-7.234H1152.3l4.74,4.742a2.91,2.91,0,0,1,.679,1.016,3.032,3.032,0,0,1,.223,1.121,2.884,2.884,0,0,1-.223,1.1,2.789,2.789,0,0,1-.626.951l-10.063,10.063a3.148,3.148,0,0,1-1.038.7,3.119,3.119,0,0,1-1.143.244Zm-6.056-10.715,6.179,6.178,8.451-8.451-6.174-6.178Zm-114.431-.021a2.99,2.99,0,0,1-.683-1.021,3.085,3.085,0,0,1-.219-1.121,2.972,2.972,0,0,1,.219-1.1,2.843,2.843,0,0,1,.631-.945l5.007-5.01h5.7l-6.993,6.994,2.732,2.732,7.641-7.637,2.846,2.85-7.632,7.637,3.442,3.443-2.934,2.938Zm294.813,9.279a3.011,3.011,0,0,1-1.082-.2,2.687,2.687,0,0,1-.959-.621l-7.689-7.686a2.945,2.945,0,0,1-.674-1.016,3.024,3.024,0,0,1-.223-1.121,2.772,2.772,0,0,1,.219-1.1,2.865,2.865,0,0,1,.63-.949l5.78-5.781h7l6.257,6.254a2.991,2.991,0,0,1,.679,1.016,3.046,3.046,0,0,1,.223,1.125,2.886,2.886,0,0,1-.223,1.1,2.942,2.942,0,0,1-.626.945l-7.094,7.094a3.194,3.194,0,0,1-1.038.7,3,3,0,0,1-1.147.246Zm-6.06-10.717,6.174,6.18,5.482-5.482-6.179-6.18Zm-119.086,7.822a1.217,1.217,0,0,1-.447-.088,1.082,1.082,0,0,1-.4-.26l-3.205-3.2a1.224,1.224,0,0,1-.28-.426,1.212,1.212,0,0,1-.1-.469,1.139,1.139,0,0,1,.1-.459,1.07,1.07,0,0,1,.258-.395l4.2-4.191a1.35,1.35,0,0,1,.429-.293,1.307,1.307,0,0,1,.477-.1,1.237,1.237,0,0,1,.469.082,1.1,1.1,0,0,1,.4.258l3.2,3.2a1.267,1.267,0,0,1,.285.426,1.186,1.186,0,0,1,.088.469,1.127,1.127,0,0,1-.088.459,1.2,1.2,0,0,1-.258.4l-4.2,4.2a1.3,1.3,0,0,1-.433.285,1.425,1.425,0,0,1-.477.105Zm-2.522-4.467,2.575,2.57,3.521-3.521-2.575-2.57Zm5.031-5.729a1.676,1.676,0,0,1-.271-.377,1.177,1.177,0,0,1-.145-.451,1.163,1.163,0,0,1,.066-.48,1.3,1.3,0,0,1,.333-.5,1.4,1.4,0,0,1,.49-.328,1.45,1.45,0,0,1,.556-.109l6.1.092-3.24-3.24h2.446l2.8,2.8a1.3,1.3,0,0,1,.271.377,1.181,1.181,0,0,1,.136.451,1.05,1.05,0,0,1-.066.484,1.231,1.231,0,0,1-.32.486,1.352,1.352,0,0,1-.5.342,1.5,1.5,0,0,1-.547.1l-6.1-.094,3.332,3.334-1.222,1.221Zm63.07-5.391h5.869l6.3,6.3-2.938,2.939Zm-156.727,7.365a2.805,2.805,0,0,1-1.06-.205,2.654,2.654,0,0,1-.963-.617l-6.542-6.543h5.875l2.826,2.824,2.824-2.824h5.7l-6.424,6.424a3.148,3.148,0,0,1-1.038.7,2.916,2.916,0,0,1-1.143.244Zm228.879-1.4a3.034,3.034,0,0,1-1.121-.223,3.023,3.023,0,0,1-1.016-.68l-3.311-3.311a2.927,2.927,0,0,1-.63-.949,3.175,3.175,0,0,1-.2-.807h4.95l1.4,1.4,1.4-1.4h5.7l-5.116,5.119a2.937,2.937,0,0,1-.95.627,2.858,2.858,0,0,1-1.1.223Zm-177.039-5.969h5.872l2.74,2.742-2.934,2.934Zm-107.943,5.014a2.969,2.969,0,0,1-1.077-.2,2.815,2.815,0,0,1-.959-.617l-4.2-4.2h5.872l.477.479.477-.479h5.7l-4.072,4.072a3.148,3.148,0,0,1-1.038.7,3.119,3.119,0,0,1-1.143.244Z" transform="translate(-989.07 17567.563)"/><rect class="c" width="375" height="42" transform="translate(0 674)"/></g></svg>