<svg xmlns="http://www.w3.org/2000/svg" width="163.613" height="163.4" viewBox="0 0 163.613 163.4"><defs><style>.a,.b,.d,.e{fill:#ff26be;}.a{font-size:31px;letter-spacing:0.006em;}.a,.d,.e{font-family:Elevon-FourG, Elevon;}.c{fill:#17f1fc;}.d{font-size:10px;}.e{font-size:11px;}</style></defs><g transform="translate(-1347.625 -2942.816)"><text class="a" transform="translate(1387.253 3039.705) rotate(-7)"><tspan x="0" y="0">GET</tspan></text><g transform="translate(1370.073 2961.615)"><path class="b" d="M462.382,150.287l.21-4.337h12.295l-.258,5.454Z" transform="translate(-356.143 -84.191)"/><path class="c" d="M461.618,154.618s.26-1.049.521-2.1a11.982,11.982,0,0,0,.4-2.126l12.1,2.238a17.834,17.834,0,0,1-.507,2.681c-.326,1.327-.651,2.654-.651,2.654Z" transform="translate(-356.863 -80.003)"/><path class="c" d="M460.133,158.682l.9-1.954c.358-1.018.713-2.038.713-2.038l11.533,4.434s-.457,1.284-.915,2.567c-.561,1.238-1.125,2.473-1.125,2.473Z" transform="translate(-358.263 -75.951)"/><path class="c" d="M457.966,162.353a11.73,11.73,0,0,0,1.181-1.784c.54-.927,1.082-1.854,1.082-1.854l10.6,6.485s-.686,1.168-1.368,2.335a17.951,17.951,0,0,1-1.488,2.252Z" transform="translate(-360.307 -72.154)"/><path class="c" d="M455.185,165.524a6.1,6.1,0,0,0,.474-.464l.962-1.106c.7-.8,1.4-1.6,1.4-1.6l9.338,8.319s-3.5,4.082-3.581,4Z" transform="translate(-362.929 -68.729)"/><path class="b" d="M451.872,168.077l3.342-2.6L463,175.37l-4.21,3.274Z" transform="translate(-366.053 -65.778)"/><path class="b" d="M448.123,169.915l1.877-.942,1.294-.645.56-.346,6,11.164c.062.117-4.706,2.44-4.706,2.44Z" transform="translate(-369.587 -63.417)"/><path class="b" d="M444.07,171.01s1.01-.268,2.019-.538a8.671,8.671,0,0,0,1.366-.447l.612-.233,4,12.091-.773.291a13.446,13.446,0,0,1-1.725.563l-2.549.688Z" transform="translate(-373.409 -61.711)"/><path class="b" d="M439.838,171.333a19.954,19.954,0,0,0,2.079-.148l2.061-.33,1.883,12.637-2.6.4c-1.3.167-2.617.2-2.617.2Z" transform="translate(-377.399 -60.709)"/><path class="b" d="M436.2,171.025a2.874,2.874,0,0,0,.649.076c.391.019.911.045,1.432.072l2.083.111L440.1,184.07l-2.623-.134-1.8-.1a4.227,4.227,0,0,1-.814-.093Z" transform="translate(-382.096 -60.548)"/><path class="c" d="M433.037,170.142l4.041,1.063-2.419,12.539a8.057,8.057,0,0,1-.8-.186L432.1,183.1l-2.547-.688Z" transform="translate(-387.093 -61.381)"/><path class="b" d="M430.046,168.493s3.752,1.894,3.8,1.778l-4.519,11.894a17.991,17.991,0,0,1-2.425-1.057l-2.372-1.185Z" transform="translate(-391.835 -62.936)"/><path class="c" d="M427.3,166.146s.835.651,1.667,1.3l1.774,1.139-6.468,10.876s-1.135-.694-2.228-1.447l-2.11-1.628Z" transform="translate(-396.165 -65.149)"/><path class="c" d="M424.888,163.175a16.785,16.785,0,0,0,1.436,1.57c.773.729,1.547,1.459,1.547,1.459l-8.2,9.526-1.941-1.842a24.449,24.449,0,0,1-1.815-1.972Z" transform="translate(-399.959 -67.95)"/><path class="b" d="M422.888,159.67c-.1.074,2.431,3.522,2.431,3.522l-9.677,7.886s-3.177-4.36-3.062-4.44Z" transform="translate(-403.105 -71.255)"/><path class="b" d="M421.358,155.738l1.8,3.911-10.863,5.99-2.271-4.937Z" transform="translate(-405.506 -74.962)"/><path class="c" d="M420.392,151.486l.521,2.1c.128.527.258,1.051.356,1.446a3.362,3.362,0,0,0,.2.645l-11.71,3.894a5.122,5.122,0,0,1-.247-.814c-.128-.5-.291-1.158-.458-1.82l-.653-2.654Z" transform="translate(-407.045 -78.971)"/><path class="b" d="M419.982,147.066s.051,1.084.1,2.168a9.645,9.645,0,0,0,.15,1.48c.058.4.1.67.1.67l-12.186,1.679s-.049-.338-.122-.845a14.354,14.354,0,0,1-.188-1.865c-.07-1.364-.138-2.726-.138-2.726Z" transform="translate(-407.701 -83.139)"/><path class="b" d="M420.336,143.424s-.041.268-.1.67a9.639,9.639,0,0,0-.15,1.482c-.052,1.084-.1,2.168-.1,2.168l-12.281-.56s.068-1.364.138-2.726a14.282,14.282,0,0,1,.188-1.865c.072-.507.122-.845.122-.845Z" transform="translate(-407.701 -88.152)"/><path class="c" d="M421.466,140.148a3.364,3.364,0,0,0-.2.645c-.1.394-.225.919-.356,1.446l-.521,2.1-12-2.8s.326-1.327.653-2.652c.167-.663.332-1.325.459-1.822a5.212,5.212,0,0,1,.247-.814Z" transform="translate(-407.046 -93.334)"/><path class="c" d="M423.163,137.058l-1.8,3.909L410.029,136l2.271-4.937Z" transform="translate(-405.506 -98.225)"/><path class="c" d="M425.319,134.243s-2.534,3.449-2.431,3.523L412.577,130.8c-.115-.082,3.062-4.441,3.062-4.441Z" transform="translate(-403.106 -102.663)"/><path class="c" d="M427.87,131.79s-.773.729-1.547,1.459a16.477,16.477,0,0,0-1.436,1.57l-8.974-8.741a24.1,24.1,0,0,1,1.815-1.972l1.941-1.842Z" transform="translate(-399.958 -106.525)"/><path class="b" d="M430.742,129.775l-1.774,1.14-1.667,1.3-7.366-10.241,2.11-1.628c1.094-.754,2.229-1.449,2.229-1.449Z" transform="translate(-396.165 -109.697)"/><path class="c" d="M433.844,128.263c-.047-.117-3.8,1.778-3.8,1.778l-5.518-11.428,2.372-1.185a17.826,17.826,0,0,1,2.425-1.057Z" transform="translate(-391.835 -112.081)"/><path class="b" d="M437.079,127.3l-4.041,1.063-3.482-12.266,2.547-.688,1.753-.46c.478-.134.8-.188.8-.188Z" transform="translate(-387.094 -113.603)"/><path class="c" d="M440.363,126.945l-2.083.111c-.521.027-1.041.052-1.432.074a2.742,2.742,0,0,0-.649.076l-1.341-12.712a4.224,4.224,0,0,1,.814-.093c.492-.029,1.148-.066,1.8-.1l2.623-.134Z" transform="translate(-382.094 -114.163)"/><path class="c" d="M443.978,127.468s-1.03-.165-2.061-.328a19.951,19.951,0,0,0-2.079-.148l.8-12.761s1.315.029,2.617.2l2.6.4Z" transform="translate(-377.399 -114.099)"/><path class="b" d="M448.067,128.724l-.612-.233a8.74,8.74,0,0,0-1.366-.447c-1.01-.268-2.019-.538-2.019-.538l2.953-12.415,2.549.688a13.555,13.555,0,0,1,1.725.563c.462.175.773.289.773.289Z" transform="translate(-373.409 -113.288)"/><path class="b" d="M451.853,130.52l-.56-.346c-.354-.175-.824-.41-1.294-.645-.937-.472-1.877-.942-1.877-.942l5.022-11.673s4.768,2.326,4.706,2.442Z" transform="translate(-369.587 -111.569)"/></g><g transform="translate(1347.625 2942.859)"><text class="d" transform="matrix(0.643, -0.766, 0.766, 0.643, 22.993, 40.33)"><tspan x="0" y="0">T</tspan></text><text class="e" transform="translate(32.099 31.046) rotate(-39.23)"><tspan x="0" y="0">D</tspan></text><text class="e" transform="matrix(0.881, -0.474, 0.474, 0.881, 42.85, 22.368)"><tspan x="0" y="0">U</tspan></text><text class="e" transform="translate(60.323 14.078) rotate(-13.27)"><tspan x="0" y="0">F</tspan></text><text class="e" transform="translate(71.376 11.565) rotate(-4.62)"><tspan x="0" y="0">I</tspan></text><text class="e" transform="translate(87.528 10.866) rotate(9.81)"><tspan x="0" y="0">O</tspan></text><text class="d" transform="translate(101.356 12.349) rotate(20.6)"><tspan x="0" y="0">C</tspan></text><text class="e" transform="translate(118.308 20.806) rotate(35.25)"><tspan x="0" y="0">2</tspan></text><text class="e" transform="translate(127.322 27.21) rotate(44.32)"><tspan x="0" y="0">0</tspan></text><text class="e" transform="translate(135.482 35.252) rotate(53.38)"><tspan x="0" y="0">2</tspan></text><text class="e" transform="translate(142.055 44.139) rotate(62.42)"><tspan x="0" y="0">3</tspan></text><text class="e" transform="matrix(0.214, 0.977, -0.977, 0.214, 149.482, 59.928)"><tspan x="0" y="0">P</tspan></text><text class="e" transform="translate(152.385 73.442) rotate(88.8)"><tspan x="0" y="0">R</tspan></text><text class="e" transform="translate(152.623 87.274) rotate(99.86)"><tspan x="0" y="0">O</tspan></text><text class="e" transform="translate(150.22 100.782) rotate(111.01)"><tspan x="0" y="0">G</tspan></text><text class="e" transform="matrix(-0.533, 0.846, -0.846, -0.533, 145.264, 113.557)"><tspan x="0" y="0">R</tspan></text><text class="e" transform="translate(137.849 125.197) rotate(133.1)"><tspan x="0" y="0">A</tspan></text><text class="e" transform="matrix(-0.817, 0.577, -0.577, -0.817, 128.802, 134.964)"><tspan x="0" y="0">M</tspan></text><text class="e" transform="translate(115.889 144.014) rotate(157.53)"><tspan x="0" y="0">M</tspan></text><text class="e" transform="matrix(-0.978, 0.207, -0.207, -0.978, 101.282, 149.718)"><tspan x="0" y="0">I</tspan></text><text class="e" transform="translate(91.468 151.913) rotate(177.64)"><tspan x="0" y="0">N</tspan></text><text class="e" transform="translate(77.698 152.426) rotate(-171.36)"><tspan x="0" y="0">G</tspan></text><text class="e" transform="translate(58.33 148.479) rotate(-155.76)"><tspan x="0" y="0">E</tspan></text><text class="d" transform="matrix(-0.824, -0.566, 0.566, -0.824, 46.465, 144.192)"><tspan x="0" y="0">X</tspan></text><text class="e" transform="matrix(-0.705, -0.709, 0.709, -0.705, 36.46, 136.095)"><tspan x="0" y="0">P</tspan></text><text class="e" transform="matrix(-0.563, -0.826, 0.826, -0.563, 26.807, 126.219)"><tspan x="0" y="0">E</tspan></text><text class="e" transform="translate(19.81 115.979) rotate(-113.63)"><tspan x="0" y="0">R</tspan></text><text class="e" transform="translate(14.462 103.273) rotate(-103.92)"><tspan x="0" y="0">I</tspan></text><text class="e" transform="translate(12.001 93.552) rotate(-94.85)"><tspan x="0" y="0">E</tspan></text><text class="e" transform="translate(10.947 81.19) rotate(-84.38)"><tspan x="0" y="0">N</tspan></text><text class="d" transform="matrix(0.282, -0.959, 0.959, 0.282, 11.424, 67.22)"><tspan x="0" y="0">C</tspan></text><text class="e" transform="translate(16.056 55.264) rotate(-63.36)"><tspan x="0" y="0">E</tspan></text></g></g></svg>